<?xml version="1.0" encoding="UTF-8"?>
<!DOCTYPE svg PUBLIC "-//W3C//DTD SVG 1.1//EN" "http://www.w3.org/Graphics/SVG/1.1/DTD/svg11.dtd">
<svg version="1.1" xmlns="http://www.w3.org/2000/svg" xmlns:xlink="http://www.w3.org/1999/xlink" x="0" y="0" width="1214.276" height="172.079" viewBox="0, 0, 1214.276, 172.079">
  <g id="Sides" transform="translate(-27.346, -27.346)">
    <g>
      <path d="M624.122,28.846 L624.122,102.547 L605.13,102.547 L605.13,151.587 L505.067,151.587 L505.067,159.24 L605.13,159.24 L605.13,191.272 L505.067,191.272 L505.067,198.925 L386.012,198.925 L386.012,191.272 L266.957,191.272 L266.957,198.925 L147.902,198.925 L147.902,191.272 L28.846,191.272 L28.846,159.24 L147.902,159.24 L147.902,151.587 L28.846,151.587 L28.846,102.547 L47.839,102.547 L47.839,28.846 L624.122,28.846 z M386.012,151.587 L266.957,151.587 L266.957,159.24 L386.012,159.24 L386.012,151.587 z" fill="#FFFFFF"/>
      <path d="M624.122,28.846 L624.122,102.547 L605.13,102.547 L605.13,151.587 L505.067,151.587 L505.067,159.24 L605.13,159.24 L605.13,191.272 L505.067,191.272 L505.067,198.925 L386.012,198.925 L386.012,191.272 L266.957,191.272 L266.957,198.925 L147.902,198.925 L147.902,191.272 L28.846,191.272 L28.846,159.24 L147.902,159.24 L147.902,151.587 L28.846,151.587 L28.846,102.547 L47.839,102.547 L47.839,28.846 L624.122,28.846 z M386.012,151.587 L266.957,151.587 L266.957,159.24 L386.012,159.24 L386.012,151.587 z" fill-opacity="0" stroke="#000000" stroke-width="1"/>
    </g>
    <g>
      <path d="M1241.122,28.846 L1241.122,102.547 L1222.13,102.547 L1222.13,151.587 L1122.067,151.587 L1122.067,159.24 L1222.13,159.24 L1222.13,191.272 L1122.067,191.272 L1122.067,198.925 L1003.012,198.925 L1003.012,191.272 L883.957,191.272 L883.957,198.925 L764.902,198.925 L764.902,191.272 L645.846,191.272 L645.846,159.24 L764.902,159.24 L764.902,151.587 L645.846,151.587 L645.846,102.547 L664.839,102.547 L664.839,28.846 L1241.122,28.846 z M1003.012,151.587 L883.957,151.587 L883.957,159.24 L1003.012,159.24 L1003.012,151.587 z" fill="#FFFFFF"/>
      <path d="M1241.122,28.846 L1241.122,102.547 L1222.13,102.547 L1222.13,151.587 L1122.067,151.587 L1122.067,159.24 L1222.13,159.24 L1222.13,191.272 L1122.067,191.272 L1122.067,198.925 L1003.012,198.925 L1003.012,191.272 L883.957,191.272 L883.957,198.925 L764.902,198.925 L764.902,191.272 L645.846,191.272 L645.846,159.24 L764.902,159.24 L764.902,151.587 L645.846,151.587 L645.846,102.547 L664.839,102.547 L664.839,28.846 L1241.122,28.846 z M1003.012,151.587 L883.957,151.587 L883.957,159.24 L1003.012,159.24 L1003.012,151.587 z" fill-opacity="0" stroke="#000000" stroke-width="1"/>
    </g>
    <path d="M870.566,51.524 L1016.403,51.524 C1030.925,51.524 1042.697,64.215 1042.697,79.87 L1042.697,79.87 C1042.697,95.525 1030.925,108.216 1016.403,108.216 L870.566,108.216 C856.044,108.216 844.272,95.525 844.272,79.87 L844.272,79.87 C844.272,64.215 856.044,51.524 870.566,51.524 z" fill-opacity="0" stroke="#000000" stroke-width="1"/>
  </g>
</svg>
