<?xml version="1.0" encoding="UTF-8"?>
<!DOCTYPE svg PUBLIC "-//W3C//DTD SVG 1.1//EN" "http://www.w3.org/Graphics/SVG/1.1/DTD/svg11.dtd">
<svg version="1.1" xmlns="http://www.w3.org/2000/svg" xmlns:xlink="http://www.w3.org/1999/xlink" x="0" y="0" width="597.276" height="597.276" viewBox="0, 0, 597.276, 597.276">
  <g id="base" transform="translate(-27.346, -233.346)">
    <path d="M28.846,234.846 L147.902,234.846 L147.902,253.839 L266.957,253.839 L266.957,234.846 L386.012,234.846 L386.012,253.839 L505.067,253.839 L505.067,234.846 L624.122,234.846 L624.122,353.902 L605.13,353.902 L605.13,472.957 L624.122,472.957 L624.122,592.012 L605.13,592.012 L605.13,711.067 L624.122,711.067 L624.122,830.122 L505.067,830.122 L505.067,811.13 L386.012,811.13 L386.012,830.122 L266.957,830.122 L266.957,811.13 L147.902,811.13 L147.902,830.122 L28.846,830.122 L28.846,711.067 L47.839,711.067 L47.839,592.012 L28.846,592.012 L28.846,472.957 L47.839,472.957 L47.839,353.902 L28.846,353.902 L28.846,234.846 z" fill-opacity="0" stroke="#000000" stroke-width="1"/>
    <path d="M252.783,319.886 L400.185,319.886 L400.185,603.35 L252.783,603.35 L252.783,319.886 z" fill-opacity="0" stroke="#000000" stroke-width="1"/>
  </g>
</svg>
