<?xml version="1.0" encoding="UTF-8"?>
<!DOCTYPE svg PUBLIC "-//W3C//DTD SVG 1.1//EN" "http://www.w3.org/Graphics/SVG/1.1/DTD/svg11.dtd">
<svg version="1.1" xmlns="http://www.w3.org/2000/svg" xmlns:xlink="http://www.w3.org/1999/xlink" x="0" y="0" width="597.276" height="597.276" viewBox="0, 0, 597.276, 597.276">
  <g id="Bottom" transform="translate(-644.346, -233.346)">
    <path d="M645.846,234.846 L764.902,234.846 L764.902,253.839 L883.957,253.839 L883.957,234.846 L1003.012,234.846 L1003.012,253.839 L1122.067,253.839 L1122.067,234.846 L1241.122,234.846 L1241.122,353.902 L1222.13,353.902 L1222.13,472.957 L1241.122,472.957 L1241.122,592.012 L1222.13,592.012 L1222.13,711.067 L1241.122,711.067 L1241.122,830.122 L1122.067,830.122 L1122.067,811.13 L1003.012,811.13 L1003.012,830.122 L883.957,830.122 L883.957,811.13 L764.902,811.13 L764.902,830.122 L645.846,830.122 L645.846,711.067 L664.839,711.067 L664.839,592.012 L645.846,592.012 L645.846,472.957 L664.839,472.957 L664.839,353.902 L645.846,353.902 L645.846,234.846 z" fill-opacity="0" stroke="#000000" stroke-width="1"/>
  </g>
</svg>
