<?xml version="1.0" encoding="UTF-8"?>
<!DOCTYPE svg PUBLIC "-//W3C//DTD SVG 1.1//EN" "http://www.w3.org/Graphics/SVG/1.1/DTD/svg11.dtd">
<svg version="1.1" xmlns="http://www.w3.org/2000/svg" xmlns:xlink="http://www.w3.org/1999/xlink" x="0" y="0" width="1061.672" height="512.236" viewBox="0, 0, 1061.672, 512.236">
  <g id="base_+_cap" transform="translate(-1147.031, -12.764)">
    <g>
      <path d="M2190.204,14.264 C2200.145,14.264 2208.204,22.323 2208.204,32.264 L2208.204,506.5 C2208.204,516.441 2200.145,524.5 2190.204,524.5 L1319.117,524.5 C1309.176,524.5 1301.117,516.441 1301.117,506.5 L1301.117,32.264 C1301.117,22.323 1309.176,14.264 1319.117,14.264 L2190.204,14.264 z M2139.503,61.311 C2109.383,61.311 2084.966,85.729 2084.966,115.849 C2084.966,145.969 2109.383,170.386 2139.503,170.386 C2169.623,170.386 2194.04,145.969 2194.04,115.849 C2194.04,85.729 2169.623,61.311 2139.503,61.311 z" fill="#FFFFFF"/>
      <path d="M2190.204,14.264 C2200.145,14.264 2208.204,22.323 2208.204,32.264 L2208.204,506.5 C2208.204,516.441 2200.145,524.5 2190.204,524.5 L1319.117,524.5 C1309.176,524.5 1301.117,516.441 1301.117,506.5 L1301.117,32.264 C1301.117,22.323 1309.176,14.264 1319.117,14.264 L2190.204,14.264 z M2139.503,61.311 C2109.383,61.311 2084.966,85.729 2084.966,115.849 C2084.966,145.969 2109.383,170.386 2139.503,170.386 C2169.623,170.386 2194.04,145.969 2194.04,115.849 C2194.04,85.729 2169.623,61.311 2139.503,61.311 z" fill-opacity="0" stroke="#000000" stroke-width="1"/>
    </g>
    <g>
      <path d="M1166.531,14.264 L1272.264,14.264 C1282.205,14.264 1290.264,22.323 1290.264,32.264 L1290.264,506.5 C1290.264,516.441 1282.205,524.5 1272.264,524.5 L1166.531,524.5 C1156.59,524.5 1148.531,516.441 1148.531,506.5 L1148.531,32.264 C1148.531,22.323 1156.59,14.264 1166.531,14.264 z" fill="#FFFFFF"/>
      <path d="M1166.531,14.264 L1272.264,14.264 C1282.205,14.264 1290.264,22.323 1290.264,32.264 L1290.264,506.5 C1290.264,516.441 1282.205,524.5 1272.264,524.5 L1166.531,524.5 C1156.59,524.5 1148.531,516.441 1148.531,506.5 L1148.531,32.264 C1148.531,22.323 1156.59,14.264 1166.531,14.264 z" fill-opacity="0" stroke="#000000" stroke-width="1"/>
    </g>
  </g>
</svg>
