<?xml version="1.0" encoding="UTF-8"?>
<!DOCTYPE svg PUBLIC "-//W3C//DTD SVG 1.1//EN" "http://www.w3.org/Graphics/SVG/1.1/DTD/svg11.dtd">
<svg version="1.1" xmlns="http://www.w3.org/2000/svg" xmlns:xlink="http://www.w3.org/1999/xlink" x="0" y="0" width="1064.992" height="512.236" viewBox="0, 0, 1064.992, 512.236">
  <g id="basin" transform="translate(-27.346, -12.764)">
    <g>
      <path d="M917.933,14.264 C927.874,14.264 935.933,22.323 935.933,32.264 L935.933,506.5 C935.933,516.441 927.874,524.5 917.933,524.5 L46.846,524.5 C36.905,524.5 28.847,516.441 28.847,506.5 L28.846,32.264 C28.847,22.323 36.905,14.264 46.847,14.264 L917.933,14.264 z M762.028,42.61 L75.193,42.61 C65.252,42.61 57.193,50.669 57.193,60.61 L57.193,482.433 C57.193,492.374 65.252,500.433 75.193,500.433 L762.028,500.433 C771.969,500.433 780.028,492.374 780.028,482.433 L780.028,60.61 C780.028,50.669 771.969,42.61 762.028,42.61 z M867.232,61.311 C837.112,61.312 812.695,85.729 812.695,115.849 C812.695,145.969 837.112,170.386 867.232,170.386 C897.352,170.386 921.77,145.969 921.769,115.849 C921.77,85.729 897.352,61.312 867.232,61.311 z" fill="#FFFFFF"/>
      <path d="M917.933,14.264 C927.874,14.264 935.933,22.323 935.933,32.264 L935.933,506.5 C935.933,516.441 927.874,524.5 917.933,524.5 L46.846,524.5 C36.905,524.5 28.847,516.441 28.847,506.5 L28.846,32.264 C28.847,22.323 36.905,14.264 46.847,14.264 L917.933,14.264 z M762.028,42.61 L75.193,42.61 C65.252,42.61 57.193,50.669 57.193,60.61 L57.193,482.433 C57.193,492.374 65.252,500.433 75.193,500.433 L762.028,500.433 C771.969,500.433 780.028,492.374 780.028,482.433 L780.028,60.61 C780.028,50.669 771.969,42.61 762.028,42.61 z M867.232,61.311 C837.112,61.312 812.695,85.729 812.695,115.849 C812.695,145.969 837.112,170.386 867.232,170.386 C897.352,170.386 921.77,145.969 921.769,115.849 C921.77,85.729 897.352,61.312 867.232,61.311 z" fill-opacity="0" stroke="#000000" stroke-width="1"/>
    </g>
    <g>
      <path d="M1073.839,14.264 C1083.78,14.264 1091.839,22.323 1091.839,32.264 L1091.839,506.5 C1091.839,516.441 1083.78,524.5 1073.839,524.5 L968.106,524.5 C958.165,524.5 950.106,516.441 950.106,506.5 L950.106,32.264 C950.106,22.323 958.165,14.264 968.106,14.264 L1073.839,14.264 z M1023.138,61.311 L1023.138,61.311 C993.018,61.312 968.601,85.729 968.601,115.849 C968.601,145.969 993.018,170.386 1023.138,170.386 C1053.258,170.386 1077.675,145.969 1077.675,115.849 C1077.675,85.729 1053.258,61.312 1023.138,61.311 z" fill="#FFFFFF"/>
      <path d="M1073.839,14.264 C1083.78,14.264 1091.839,22.323 1091.839,32.264 L1091.839,506.5 C1091.839,516.441 1083.78,524.5 1073.839,524.5 L968.106,524.5 C958.165,524.5 950.106,516.441 950.106,506.5 L950.106,32.264 C950.106,22.323 958.165,14.264 968.106,14.264 L1073.839,14.264 z M1023.138,61.311 L1023.138,61.311 C993.018,61.312 968.601,85.729 968.601,115.849 C968.601,145.969 993.018,170.386 1023.138,170.386 C1053.258,170.386 1077.675,145.969 1077.675,115.849 C1077.675,85.729 1053.258,61.312 1023.138,61.311 z" fill-opacity="0" stroke="#000000" stroke-width="1"/>
    </g>
  </g>
</svg>
