<?xml version="1.0" encoding="UTF-8"?>
<!DOCTYPE svg PUBLIC "-//W3C//DTD SVG 1.1//EN" "http://www.w3.org/Graphics/SVG/1.1/DTD/svg11.dtd">
<svg version="1.1" xmlns="http://www.w3.org/2000/svg" xmlns:xlink="http://www.w3.org/1999/xlink" x="0" y="0" width="909.087" height="512.236" viewBox="0, 0, 909.087, 512.236">
  <g id="pad" transform="translate(-27.346, -551.756)">
    <g>
      <path d="M917.933,553.256 C927.874,553.256 935.933,561.315 935.933,571.256 L935.933,1045.492 C935.933,1055.433 927.874,1063.492 917.933,1063.492 L46.846,1063.492 C36.905,1063.492 28.847,1055.433 28.847,1045.492 L28.846,571.256 C28.847,561.315 36.905,553.256 46.847,553.256 L917.933,553.256 z M896.979,581.602 L837.186,581.602 L837.186,581.622 L836.862,581.602 C831.004,581.959 826.989,587.212 826.83,593.024 L826.426,593.024 C826.426,593.024 814.494,642.92 814.494,642.92 C814.491,643.581 814.485,644.241 814.483,644.902 C813.612,648.385 813.451,652.017 813.374,655.592 C813.656,661.031 813.4,657.855 814.37,665.1 C814.366,665.78 814.362,666.46 814.359,667.14 C814.359,667.14 826.426,718.183 826.426,718.183 L826.863,718.183 C827.812,723.785 830.69,728.744 836.862,729.004 L837.186,728.984 L837.186,729.004 L896.979,729.004 L896.979,728.948 L897.899,729.004 C904.028,728.631 907.871,723.06 907.952,717.083 C912.002,700.256 916.056,683.431 920.106,666.604 C920.108,666.19 920.107,666.449 920.111,665.826 C920.965,662.446 920.978,659.029 921.091,655.592 C920.824,650.481 921.065,653.31 920.229,647.117 C920.236,646.019 920.234,646.437 920.237,645.864 C916.14,628.612 912.042,611.36 907.945,594.108 L907.961,593.728 C907.961,587.031 903.456,581.602 897.899,581.602 L896.979,581.658 L896.979,581.602 z" fill="#FFFFFF"/>
      <path d="M917.933,553.256 C927.874,553.256 935.933,561.315 935.933,571.256 L935.933,1045.492 C935.933,1055.433 927.874,1063.492 917.933,1063.492 L46.846,1063.492 C36.905,1063.492 28.847,1055.433 28.847,1045.492 L28.846,571.256 C28.847,561.315 36.905,553.256 46.847,553.256 L917.933,553.256 z M896.979,581.602 L837.186,581.602 L837.186,581.622 L836.862,581.602 C831.004,581.959 826.989,587.212 826.83,593.024 L826.426,593.024 C826.426,593.024 814.494,642.92 814.494,642.92 C814.491,643.581 814.485,644.241 814.483,644.902 C813.612,648.385 813.451,652.017 813.374,655.592 C813.656,661.031 813.4,657.855 814.37,665.1 C814.366,665.78 814.362,666.46 814.359,667.14 C814.359,667.14 826.426,718.183 826.426,718.183 L826.863,718.183 C827.812,723.785 830.69,728.744 836.862,729.004 L837.186,728.984 L837.186,729.004 L896.979,729.004 L896.979,728.948 L897.899,729.004 C904.028,728.631 907.871,723.06 907.952,717.083 C912.002,700.256 916.056,683.431 920.106,666.604 C920.108,666.19 920.107,666.449 920.111,665.826 C920.965,662.446 920.978,659.029 921.091,655.592 C920.824,650.481 921.065,653.31 920.229,647.117 C920.236,646.019 920.234,646.437 920.237,645.864 C916.14,628.612 912.042,611.36 907.945,594.108 L907.961,593.728 C907.961,587.031 903.456,581.602 897.899,581.602 L896.979,581.658 L896.979,581.602 z" fill-opacity="0" stroke="#000000" stroke-width="1"/>
    </g>
  </g>
</svg>
