<?xml version="1.0" encoding="UTF-8"?>
<!DOCTYPE svg PUBLIC "-//W3C//DTD SVG 1.1//EN" "http://www.w3.org/Graphics/SVG/1.1/DTD/svg11.dtd">
<svg version="1.1" xmlns="http://www.w3.org/2000/svg" xmlns:xlink="http://www.w3.org/1999/xlink" x="0" y="0" width="909.087" height="593.024" viewBox="0, 0, 909.087, 593.024">
  <g id="base" transform="translate(-27.346, -622.622)">
    <g>
      <path d="M609.949,624.122 L609.949,624.122 L634.468,624.122 C644.41,624.122 652.469,632.181 652.469,642.122 L652.468,704.91 L917.933,704.91 C927.874,704.91 935.933,712.969 935.933,722.91 L935.933,1197.146 C935.933,1207.087 927.874,1215.146 917.933,1215.146 L46.846,1215.146 C36.905,1215.146 28.847,1207.087 28.847,1197.146 L28.846,722.91 C28.847,712.969 36.905,704.91 46.847,704.91 L312.311,704.91 L312.311,642.122 C312.311,632.181 320.37,624.122 330.311,624.122 L383.177,624.122 L383.177,624.122 L609.949,624.122 z M482.39,638.295 C452.27,638.296 427.853,662.713 427.853,692.833 C427.853,722.953 452.27,747.37 482.39,747.37 C512.51,747.37 536.927,722.953 536.927,692.833 C536.927,662.713 512.51,638.296 482.39,638.295 z" fill="#FFFFFF"/>
      <path d="M609.949,624.122 L609.949,624.122 L634.468,624.122 C644.41,624.122 652.469,632.181 652.469,642.122 L652.468,704.91 L917.933,704.91 C927.874,704.91 935.933,712.969 935.933,722.91 L935.933,1197.146 C935.933,1207.087 927.874,1215.146 917.933,1215.146 L46.846,1215.146 C36.905,1215.146 28.847,1207.087 28.847,1197.146 L28.846,722.91 C28.847,712.969 36.905,704.91 46.847,704.91 L312.311,704.91 L312.311,642.122 C312.311,632.181 320.37,624.122 330.311,624.122 L383.177,624.122 L383.177,624.122 L609.949,624.122 z M482.39,638.295 C452.27,638.296 427.853,662.713 427.853,692.833 C427.853,722.953 452.27,747.37 482.39,747.37 C512.51,747.37 536.927,722.953 536.927,692.833 C536.927,662.713 512.51,638.296 482.39,638.295 z" fill-opacity="0" stroke="#000000" stroke-width="1"/>
    </g>
  </g>
</svg>
