<?xml version="1.0" encoding="UTF-8"?>
<!DOCTYPE svg PUBLIC "-//W3C//DTD SVG 1.1//EN" "http://www.w3.org/Graphics/SVG/1.1/DTD/svg11.dtd">
<svg version="1.1" xmlns="http://www.w3.org/2000/svg" xmlns:xlink="http://www.w3.org/1999/xlink" x="0" y="0" width="909.087" height="593.024" viewBox="0, 0, 909.087, 593.024">
  <g id="basin" transform="translate(-976.953, -13.173)">
    <g>
      <path d="M1584.075,14.673 C1594.016,14.673 1602.075,22.732 1602.075,32.673 L1602.075,95.461 L1867.539,95.461 C1877.481,95.461 1885.539,103.52 1885.539,113.461 L1885.539,587.697 C1885.539,597.638 1877.481,605.697 1867.539,605.697 L996.453,605.697 C986.512,605.697 978.453,597.638 978.453,587.697 L978.453,113.461 C978.453,103.52 986.512,95.461 996.453,95.461 L1261.917,95.461 L1261.917,32.673 C1261.917,22.732 1269.976,14.673 1279.917,14.673 L1417.058,14.673 L1417.058,28.339 C1394.618,34.873 1380.17,54.299 1377.462,77.354 L1371.519,73.922 L1364.432,78.014 L1364.432,86.197 L1371.519,90.288 L1377.726,86.705 C1380.499,114.8 1404.284,134.563 1431.871,135.261 C1459.323,135.156 1483.248,114.012 1486.029,86.568 L1492.473,90.288 L1499.56,86.197 L1499.56,78.014 L1492.473,73.922 L1486.294,77.49 C1483.827,56.096 1470.756,36.099 1449.528,29.428 L1449.528,14.673 L1584.075,14.673 z M1853.366,156.406 L1010.626,156.406 C1000.685,156.406 992.626,164.464 992.626,174.406 L992.626,573.524 C992.626,583.465 1000.685,591.524 1010.626,591.524 L1853.366,591.524 C1863.307,591.524 1871.366,583.465 1871.366,573.524 L1871.366,174.406 C1871.366,164.464 1863.307,156.406 1853.366,156.406 z" fill="#FFFFFF"/>
      <path d="M1584.075,14.673 C1594.016,14.673 1602.075,22.732 1602.075,32.673 L1602.075,95.461 L1867.539,95.461 C1877.481,95.461 1885.539,103.52 1885.539,113.461 L1885.539,587.697 C1885.539,597.638 1877.481,605.697 1867.539,605.697 L996.453,605.697 C986.512,605.697 978.453,597.638 978.453,587.697 L978.453,113.461 C978.453,103.52 986.512,95.461 996.453,95.461 L1261.917,95.461 L1261.917,32.673 C1261.917,22.732 1269.976,14.673 1279.917,14.673 L1417.058,14.673 L1417.058,28.339 C1394.618,34.873 1380.17,54.299 1377.462,77.354 L1371.519,73.922 L1364.432,78.014 L1364.432,86.197 L1371.519,90.288 L1377.726,86.705 C1380.499,114.8 1404.284,134.563 1431.871,135.261 C1459.323,135.156 1483.248,114.012 1486.029,86.568 L1492.473,90.288 L1499.56,86.197 L1499.56,78.014 L1492.473,73.922 L1486.294,77.49 C1483.827,56.096 1470.756,36.099 1449.528,29.428 L1449.528,14.673 L1584.075,14.673 z M1853.366,156.406 L1010.626,156.406 C1000.685,156.406 992.626,164.464 992.626,174.406 L992.626,573.524 C992.626,583.465 1000.685,591.524 1010.626,591.524 L1853.366,591.524 C1863.307,591.524 1871.366,583.465 1871.366,573.524 L1871.366,174.406 C1871.366,164.464 1863.307,156.406 1853.366,156.406 z" fill-opacity="0" stroke="#000000" stroke-width="1"/>
    </g>
    <g>
      <path d="M1343.13,184.752 C1353.071,184.752 1361.13,192.811 1361.13,202.752 L1361.13,308.484 C1361.13,318.425 1353.071,326.484 1343.13,326.484 L1038.972,326.484 C1029.031,326.484 1020.972,318.425 1020.972,308.484 L1020.972,202.752 C1020.972,192.811 1029.031,184.752 1038.972,184.752 L1343.13,184.752 z M1328.957,200.285 L1053.146,200.285 C1043.204,200.285 1035.146,208.344 1035.146,218.285 L1035.146,295.67 C1035.146,305.612 1043.204,313.671 1053.146,313.67 L1328.957,313.67 C1338.898,313.671 1346.957,305.612 1346.957,295.67 L1346.957,218.285 C1346.957,208.344 1338.898,200.285 1328.957,200.285 z" fill="#FFFFFF"/>
      <path d="M1343.13,184.752 C1353.071,184.752 1361.13,192.811 1361.13,202.752 L1361.13,308.484 C1361.13,318.425 1353.071,326.484 1343.13,326.484 L1038.972,326.484 C1029.031,326.484 1020.972,318.425 1020.972,308.484 L1020.972,202.752 C1020.972,192.811 1029.031,184.752 1038.972,184.752 L1343.13,184.752 z M1328.957,200.285 L1053.146,200.285 C1043.204,200.285 1035.146,208.344 1035.146,218.285 L1035.146,295.67 C1035.146,305.612 1043.204,313.671 1053.146,313.67 L1328.957,313.67 C1338.898,313.671 1346.957,305.612 1346.957,295.67 L1346.957,218.285 C1346.957,208.344 1338.898,200.285 1328.957,200.285 z" fill-opacity="0" stroke="#000000" stroke-width="1"/>
    </g>
    <g>
      <path d="M1825.02,184.752 C1834.961,184.752 1843.02,192.811 1843.02,202.752 L1843.02,308.484 C1843.02,318.425 1834.961,326.484 1825.02,326.484 L1520.862,326.484 C1510.921,326.484 1502.862,318.425 1502.862,308.484 L1502.862,202.752 C1502.862,192.811 1510.921,184.752 1520.862,184.752 L1825.02,184.752 z M1810.846,200.285 L1535.035,200.285 C1525.094,200.285 1517.035,208.344 1517.035,218.285 L1517.035,295.67 C1517.035,305.612 1525.094,313.671 1535.035,313.67 L1810.846,313.67 C1820.787,313.671 1828.846,305.612 1828.846,295.67 L1828.846,218.285 C1828.846,208.344 1820.787,200.285 1810.846,200.285 z" fill="#FFFFFF"/>
      <path d="M1825.02,184.752 C1834.961,184.752 1843.02,192.811 1843.02,202.752 L1843.02,308.484 C1843.02,318.425 1834.961,326.484 1825.02,326.484 L1520.862,326.484 C1510.921,326.484 1502.862,318.425 1502.862,308.484 L1502.862,202.752 C1502.862,192.811 1510.921,184.752 1520.862,184.752 L1825.02,184.752 z M1810.846,200.285 L1535.035,200.285 C1525.094,200.285 1517.035,208.344 1517.035,218.285 L1517.035,295.67 C1517.035,305.612 1525.094,313.671 1535.035,313.67 L1810.846,313.67 C1820.787,313.671 1828.846,305.612 1828.846,295.67 L1828.846,218.285 C1828.846,208.344 1820.787,200.285 1810.846,200.285 z" fill-opacity="0" stroke="#000000" stroke-width="1"/>
    </g>
    <g>
      <path d="M1038.972,354.831 L1343.13,354.831 C1353.071,354.831 1361.13,362.89 1361.13,372.831 L1361.13,478.563 C1361.13,488.504 1353.071,496.563 1343.13,496.563 L1038.972,496.563 C1029.031,496.563 1020.972,488.504 1020.972,478.563 L1020.972,372.831 C1020.972,362.89 1029.031,354.831 1038.972,354.831 z" fill="#FFFFFF"/>
      <path d="M1038.972,354.831 L1343.13,354.831 C1353.071,354.831 1361.13,362.89 1361.13,372.831 L1361.13,478.563 C1361.13,488.504 1353.071,496.563 1343.13,496.563 L1038.972,496.563 C1029.031,496.563 1020.972,488.504 1020.972,478.563 L1020.972,372.831 C1020.972,362.89 1029.031,354.831 1038.972,354.831 z" fill-opacity="0" stroke="#000000" stroke-width="1"/>
    </g>
  </g>
</svg>
