<?xml version="1.0" encoding="UTF-8"?>
<!DOCTYPE svg PUBLIC "-//W3C//DTD SVG 1.1//EN" "http://www.w3.org/Graphics/SVG/1.1/DTD/svg11.dtd">
<svg version="1.1" xmlns="http://www.w3.org/2000/svg" xmlns:xlink="http://www.w3.org/1999/xlink" x="0" y="0" width="909.087" height="593.024" viewBox="0, 0, 909.087, 593.024">
  <g id="pad" transform="translate(-27.346, -13.173)">
    <g>
      <path d="M634.468,14.673 C644.41,14.673 652.469,22.732 652.469,32.673 L652.468,95.461 L917.933,95.461 C927.874,95.461 935.933,103.52 935.933,113.461 L935.933,587.697 C935.933,597.638 927.874,605.697 917.933,605.697 L46.846,605.697 C36.905,605.697 28.846,597.638 28.846,587.697 L28.846,113.461 C28.846,103.52 36.905,95.461 46.846,95.461 L312.311,95.461 L312.311,32.673 C312.311,22.732 320.37,14.673 330.311,14.673 L634.468,14.673 z M482.1,28.846 C476.662,29.129 479.838,28.872 472.593,29.842 C471.913,29.839 471.233,29.835 470.553,29.831 C470.553,29.831 419.51,41.898 419.51,41.898 L419.51,42.336 C413.907,43.284 408.949,46.162 408.689,52.334 L408.709,52.659 L408.689,52.659 L408.689,112.451 L408.745,112.451 L408.689,113.372 C409.062,119.501 414.633,123.343 420.61,123.425 C437.437,127.475 454.262,131.528 471.088,135.578 C471.503,135.581 471.244,135.579 471.866,135.583 C475.247,136.438 478.664,136.45 482.1,136.563 C487.212,136.297 484.382,136.538 490.575,135.702 C491.674,135.709 491.256,135.706 491.829,135.71 C509.081,131.612 526.333,127.515 543.585,123.417 L543.964,123.433 C550.661,123.433 556.09,118.929 556.091,113.372 L556.034,112.451 L556.091,112.451 L556.091,52.659 L556.071,52.659 L556.091,52.334 C555.734,46.477 550.48,42.461 544.669,42.302 L544.669,41.898 C544.669,41.898 494.773,29.966 494.773,29.966 C494.112,29.963 493.452,29.957 492.791,29.955 C489.308,29.085 485.676,28.924 482.1,28.846 z" fill="#FFFFFF"/>
      <path d="M634.468,14.673 C644.41,14.673 652.469,22.732 652.469,32.673 L652.468,95.461 L917.933,95.461 C927.874,95.461 935.933,103.52 935.933,113.461 L935.933,587.697 C935.933,597.638 927.874,605.697 917.933,605.697 L46.846,605.697 C36.905,605.697 28.846,597.638 28.846,587.697 L28.846,113.461 C28.846,103.52 36.905,95.461 46.846,95.461 L312.311,95.461 L312.311,32.673 C312.311,22.732 320.37,14.673 330.311,14.673 L634.468,14.673 z M482.1,28.846 C476.662,29.129 479.838,28.872 472.593,29.842 C471.913,29.839 471.233,29.835 470.553,29.831 C470.553,29.831 419.51,41.898 419.51,41.898 L419.51,42.336 C413.907,43.284 408.949,46.162 408.689,52.334 L408.709,52.659 L408.689,52.659 L408.689,112.451 L408.745,112.451 L408.689,113.372 C409.062,119.501 414.633,123.343 420.61,123.425 C437.437,127.475 454.262,131.528 471.088,135.578 C471.503,135.581 471.244,135.579 471.866,135.583 C475.247,136.438 478.664,136.45 482.1,136.563 C487.212,136.297 484.382,136.538 490.575,135.702 C491.674,135.709 491.256,135.706 491.829,135.71 C509.081,131.612 526.333,127.515 543.585,123.417 L543.964,123.433 C550.661,123.433 556.09,118.929 556.091,113.372 L556.034,112.451 L556.091,112.451 L556.091,52.659 L556.071,52.659 L556.091,52.334 C555.734,46.477 550.48,42.461 544.669,42.302 L544.669,41.898 C544.669,41.898 494.773,29.966 494.773,29.966 C494.112,29.963 493.452,29.957 492.791,29.955 C489.308,29.085 485.676,28.924 482.1,28.846 z" fill-opacity="0" stroke="#000000" stroke-width="1"/>
    </g>
  </g>
</svg>
