<?xml version="1.0" encoding="UTF-8"?>
<!DOCTYPE svg PUBLIC "-//W3C//DTD SVG 1.1//EN" "http://www.w3.org/Graphics/SVG/1.1/DTD/svg11.dtd">
<svg version="1.1" xmlns="http://www.w3.org/2000/svg" xmlns:xlink="http://www.w3.org/1999/xlink" x="0" y="0" width="2239.37" height="1088.504" viewBox="0, 0, 2239.37, 1088.504">
  <g id="Background">
    <rect x="0" y="0" width="2239.37" height="1088.504" fill="#FFFFFF"/>
  </g>
  <g id="Layer_1">
    <path d="M1730.83,236.235 L1719.23,236.235 L1719.23,228.575 L1699.97,228.575 L1699.97,236.235 L1680.72,236.235 L1680.72,228.575 L1661.46,228.575 L1661.46,236.235 L1642.21,236.235 L1642.21,228.575 L1622.96,228.575 L1622.96,236.235 L1603.7,236.235 L1603.7,228.575 L1584.45,228.575 L1584.45,236.235 L1565.19,236.235 L1565.19,228.575 L1545.94,228.575 L1545.94,236.235 L1526.68,236.235 L1526.68,228.575 L1507.43,228.575 L1507.43,236.235 L1488.18,236.235 L1488.18,228.575 L1468.92,228.575 L1468.92,236.235 L1449.67,236.235 L1449.67,228.575 L1430.41,228.575 L1430.41,236.235 L1411.16,236.235 L1411.16,228.575 L1391.9,228.575 L1391.9,236.235 L1372.65,236.235 L1372.65,228.575 L1353.4,228.575 L1353.4,236.235 L1334.14,236.235 L1334.14,228.575 L1314.89,228.575 L1314.89,236.235 L1295.63,236.235 L1295.63,228.575 L1276.38,228.575 L1276.38,236.235 L1257.13,236.235 L1257.13,228.575 L1237.87,228.575 L1237.87,236.235 L1218.62,236.235 L1218.62,228.575 L1199.36,228.575 L1199.36,236.235 L1180.11,236.235 L1180.11,228.575 L1160.85,228.575 L1160.85,236.235 L1141.6,236.235 L1141.6,228.575 L1122.35,228.575 L1122.35,236.235 L1103.09,236.235 L1103.09,228.575 L1083.84,228.575 L1083.84,236.235 L1064.58,236.235 L1064.58,228.575 L1045.33,228.575 L1045.33,236.235 L1026.08,236.235 L1026.08,228.575 L1006.82,228.575 L1006.82,236.235 L987.57,236.235 L987.57,228.575 L968.31,228.575 L968.31,236.235 L949.06,236.235 L949.06,228.575 L929.8,228.575 L929.8,236.235 L910.55,236.235 L910.55,228.575 L891.3,228.575 L891.3,236.235 L872.04,236.235 L872.04,228.575 L852.79,228.575 L852.79,236.235 L833.53,236.235 L833.53,228.575 L814.28,228.575 L814.28,236.235 L795.02,236.235 L795.02,228.575 L775.77,228.575 L775.77,236.235 L756.52,236.235 L756.52,228.575 L737.26,228.575 L737.26,236.235 L718.01,236.235 L718.01,215.615 L725.66,215.615 L725.66,195.005 L718.01,195.005 L718.01,174.385 L725.66,174.385 L725.66,153.775 L718.01,153.775 L718.01,133.155 L725.66,133.155 L725.66,112.535 L718.01,112.535 L718.01,91.925 L725.66,91.925 L725.66,71.305 L718.01,71.305 L718.01,50.695 L725.66,50.695 L725.66,30.075 L718.01,30.075 L718.01,9.465 L1730.83,9.465 L1730.83,30.075 L1738.48,30.075 L1738.48,50.695 L1730.83,50.695 L1730.83,71.305 L1738.48,71.305 L1738.48,91.925 L1730.83,91.925 L1730.83,112.535 L1738.48,112.535 L1738.48,133.155 L1730.83,133.155 L1730.83,153.775 L1738.48,153.775 L1738.48,174.385 L1730.83,174.385 L1730.83,195.005 L1738.48,195.005 L1738.48,215.615 L1730.83,215.615 z" fill-opacity="0" stroke="#000000" stroke-width="1"/>
    <path d="M482.85,228.58 L463.41,228.58 L463.41,236.24 L443.97,236.24 L443.97,228.58 L424.54,228.58 L424.54,236.24 L405.1,236.24 L405.1,228.58 L385.66,228.58 L385.66,236.24 L366.22,236.24 L366.22,228.58 L346.79,228.58 L346.79,236.24 L327.35,236.24 L327.35,228.58 L307.91,228.58 L307.91,236.24 L288.47,236.24 L288.47,228.58 L269.03,228.58 L269.03,236.24 L249.6,236.24 L249.6,228.58 L230.16,228.58 L230.16,236.24 L210.72,236.24 L210.72,228.58 L191.28,228.58 L191.28,236.24 L171.85,236.24 L171.85,228.58 L152.41,228.58 L152.41,236.24 L132.97,236.24 L132.97,228.58 L113.53,228.58 L113.53,236.24 L94.1,236.24 L94.1,228.58 L74.66,228.58 L74.66,236.24 L55.22,236.24 L55.22,228.58 L35.78,228.58 L35.78,236.24 L16.35,236.24 L16.35,215.62 L24,215.62 L24,195.01 L16.35,195.01 L16.35,174.39 L24,174.39 L24,153.77 L16.35,153.77 L16.35,133.16 L24,133.16 L24,112.54 L16.35,112.54 L16.35,91.93 L24,91.93 L24,71.31 L16.35,71.31 L16.35,50.7 L24,50.7 L24,30.08 L16.35,30.08 L16.35,9.46 L689.01,9.46 L689.01,30.08 L696.66,30.08 L696.66,50.7 L689.01,50.7 L689.01,71.31 L696.66,71.31 L696.66,91.93 L689.01,91.93 L689.01,112.54 L696.66,112.54 L696.66,133.16 L689.01,133.16 L689.01,153.77 L696.66,153.77 L696.66,174.39 L689.01,174.39 L689.01,195.01 L696.66,195.01 L696.66,215.62 L689.01,215.62 L689.01,236.24 L677.22,236.24 L677.22,228.58 L657.79,228.58 L657.79,236.24 L638.35,236.24 L638.35,228.58 L618.91,228.58 L618.91,236.24 L599.47,236.24 L599.47,228.58 L580.04,228.58 L580.04,236.24 L560.6,236.24 L560.6,228.58 L541.16,228.58 L541.16,236.24 L521.72,236.24 L521.72,228.58 L502.29,228.58 L502.29,236.24 L482.85,236.24 z" fill-opacity="0" stroke="#000000" stroke-width="1"/>
    <path d="M1029.17,923.13 L1029.17,911.34 L1036.82,911.34 L1036.82,891.9 L1029.17,891.9 L1029.17,872.47 L1036.82,872.47 L1036.82,853.03 L1029.17,853.03 L1029.17,833.59 L1036.82,833.59 L1036.82,814.15 L1029.17,814.15 L1029.17,794.72 L1036.82,794.72 L1036.82,775.28 L1029.17,775.28 L1029.17,755.84 L1036.82,755.84 L1036.82,736.4 L1029.17,736.4 L1029.17,716.97 L1036.82,716.97 L1036.82,697.53 L1029.17,697.53 L1029.17,678.09 L1036.82,678.09 L1036.82,658.65 L1029.17,658.65 L1029.17,639.22 L1036.82,639.22 L1036.82,619.78 L1029.17,619.78 L1029.17,600.34 L1036.82,600.34 L1036.82,580.9 L1029.17,580.9 L1029.17,561.47 L1036.82,561.47 L1036.82,542.03 L1029.17,542.03 L1029.17,522.59 L1036.82,522.59 L1036.82,503.15 L1029.17,503.15 L1029.17,483.72 L1036.82,483.72 L1036.82,464.28 L1029.17,464.28 L1029.17,444.84 L1036.82,444.84 L1036.82,425.4 L1029.17,425.4 L1029.17,405.97 L1036.82,405.97 L1036.82,386.53 L1029.17,386.53 L1029.17,367.09 L1036.82,367.09 L1036.82,347.65 L1029.17,347.65 L1029.17,328.21 L1036.82,328.21 L1036.82,308.78 L1029.17,308.78 L1029.17,289.34 L1036.82,289.34 L1036.82,269.9 L1029.17,269.9 L1029.17,258.12 L1017.57,258.12 L1017.57,250.46 L998.31,250.46 L998.31,258.12 L979.06,258.12 L979.06,250.46 L959.8,250.46 L959.8,258.12 L940.55,258.12 L940.55,250.46 L921.3,250.46 L921.3,258.12 L902.04,258.12 L902.04,250.46 L882.79,250.46 L882.79,258.12 L863.53,258.12 L863.53,250.46 L844.28,250.46 L844.28,258.12 L825.02,258.12 L825.02,250.46 L805.77,250.46 L805.77,258.12 L786.52,258.12 L786.52,250.46 L767.26,250.46 L767.26,258.12 L748.01,258.12 L748.01,250.46 L728.75,250.46 L728.75,258.12 L709.5,258.12 L709.5,250.46 L690.24,250.46 L690.24,258.12 L670.99,258.12 L670.99,250.46 L651.74,250.46 L651.74,258.12 L632.48,258.12 L632.48,250.46 L613.23,250.46 L613.23,258.12 L593.97,258.12 L593.97,250.46 L574.72,250.46 L574.72,258.12 L555.47,258.12 L555.47,250.46 L536.21,250.46 L536.21,258.12 L516.96,258.12 L516.96,250.46 L497.7,250.46 L497.7,258.12 L478.45,258.12 L478.45,250.46 L459.19,250.46 L459.19,258.12 L439.94,258.12 L439.94,250.46 L420.69,250.46 L420.69,258.12 L401.43,258.12 L401.43,250.46 L382.18,250.46 L382.18,258.12 L362.92,258.12 L362.92,250.46 L343.67,250.46 L343.67,258.12 L324.42,258.12 L324.42,250.46 L305.16,250.46 L305.16,258.12 L285.91,258.12 L285.91,250.46 L266.65,250.46 L266.65,258.12 L247.4,258.12 L247.4,250.46 L228.14,250.46 L228.14,258.12 L208.89,258.12 L208.89,250.46 L189.64,250.46 L189.64,258.12 L170.38,258.12 L170.38,250.46 L151.13,250.46 L151.13,258.12 L131.87,258.12 L131.87,250.46 L112.62,250.46 L112.62,258.12 L93.36,258.12 L93.36,250.46 L74.11,250.46 L74.11,258.12 L54.86,258.12 L54.86,250.46 L35.6,250.46 L35.6,258.12 L24,258.12 L24,269.9 L16.35,269.9 L16.35,289.34 L24,289.34 L24,308.78 L16.35,308.78 L16.35,328.21 L24,328.21 L24,347.65 L16.35,347.65 L16.35,367.09 L24,367.09 L24,386.53 L16.35,386.53 L16.35,405.97 L24,405.97 L24,425.4 L16.35,425.4 L16.35,444.84 L24,444.84 L24,464.28 L16.35,464.28 L16.35,483.72 L24,483.72 L24,503.15 L16.35,503.15 L16.35,522.59 L24,522.59 L24,542.03 L16.35,542.03 L16.35,561.47 L24,561.47 L24,580.9 L16.35,580.9 L16.35,600.34 L24,600.34 L24,619.78 L16.35,619.78 L16.35,639.22 L24,639.22 L24,658.65 L16.35,658.65 L16.35,678.09 L24,678.09 L24,697.53 L16.35,697.53 L16.35,716.97 L24,716.97 L24,736.4 L16.35,736.4 L16.35,755.84 L24,755.84 L24,775.28 L16.35,775.28 L16.35,794.72 L24,794.72 L24,814.15 L16.35,814.15 L16.35,833.59 L24,833.59 L24,853.03 L16.35,853.03 L16.35,872.47 L24,872.47 L24,891.9 L16.35,891.9 L16.35,911.34 L24,911.34 L24,923.13 L35.6,923.13 L35.6,930.78 L54.86,930.78 L54.86,923.13 L74.11,923.13 L74.11,930.78 L93.36,930.78 L93.36,923.13 L112.62,923.13 L112.62,930.78 L131.87,930.78 L131.87,923.13 L151.13,923.13 L151.13,930.78 L170.38,930.78 L170.38,923.13 L189.64,923.13 L189.64,930.78 L208.89,930.78 L208.89,923.13 L228.14,923.13 L228.14,930.78 L247.4,930.78 L247.4,923.13 L266.65,923.13 L266.65,930.78 L285.91,930.78 L285.91,923.13 L305.16,923.13 L305.16,930.78 L324.42,930.78 L324.42,923.13 L343.67,923.13 L343.67,930.78 L362.92,930.78 L362.92,923.13 L382.18,923.13 L382.18,930.78 L401.43,930.78 L401.43,923.13 L420.69,923.13 L420.69,930.78 L439.94,930.78 L439.94,923.13 L459.19,923.13 L459.19,930.78 L478.45,930.78 L478.45,923.13 L497.7,923.13 L497.7,930.78 L516.96,930.78 L516.96,923.13 L536.21,923.13 L536.21,930.78 L555.47,930.78 L555.47,923.13 L574.72,923.13 L574.72,930.78 L593.97,930.78 L593.97,923.13 L613.23,923.13 L613.23,930.78 L632.48,930.78 L632.48,923.13 L651.74,923.13 L651.74,930.78 L670.99,930.78 L670.99,923.13 L690.24,923.13 L690.24,930.78 L709.5,930.78 L709.5,923.13 L728.75,923.13 L728.75,930.78 L748.01,930.78 L748.01,923.13 L767.26,923.13 L767.26,930.78 L786.52,930.78 L786.52,923.13 L805.77,923.13 L805.77,930.78 L825.02,930.78 L825.02,923.13 L844.28,923.13 L844.28,930.78 L863.53,930.78 L863.53,923.13 L882.79,923.13 L882.79,930.78 L902.04,930.78 L902.04,923.13 L921.3,923.13 L921.3,930.78 L940.55,930.78 L940.55,923.13 L959.8,923.13 L959.8,930.78 L979.06,930.78 L979.06,923.13 L998.31,923.13 L998.31,930.78 L1017.57,930.78 L1017.57,923.13 z" fill-opacity="0" stroke="#000000" stroke-width="1"/>
    <path d="M1537.67,649.982 L1518.23,649.982 L1518.23,657.642 L1498.79,657.642 L1498.79,649.982 L1479.36,649.982 L1479.36,657.642 L1459.92,657.642 L1459.92,649.982 L1440.48,649.982 L1440.48,657.642 L1421.04,657.642 L1421.04,649.982 L1401.61,649.982 L1401.61,657.642 L1382.17,657.642 L1382.17,649.982 L1362.73,649.982 L1362.73,657.642 L1343.29,657.642 L1343.29,649.982 L1323.86,649.982 L1323.86,657.642 L1304.42,657.642 L1304.42,649.982 L1284.98,649.982 L1284.98,657.642 L1265.54,657.642 L1265.54,649.982 L1246.1,649.982 L1246.1,657.642 L1226.67,657.642 L1226.67,649.982 L1207.23,649.982 L1207.23,657.642 L1187.79,657.642 L1187.79,649.982 L1168.35,649.982 L1168.35,657.642 L1148.92,657.642 L1148.92,649.982 L1129.48,649.982 L1129.48,657.642 L1110.04,657.642 L1110.04,649.982 L1090.6,649.982 L1090.6,657.642 L1071.17,657.642 L1071.17,637.022 L1078.82,637.022 L1078.82,616.412 L1071.17,616.412 L1071.17,595.792 L1078.82,595.792 L1078.82,575.172 L1071.17,575.172 L1071.17,554.562 L1078.82,554.562 L1078.82,533.942 L1071.17,533.942 L1071.17,513.332 L1078.82,513.332 L1078.82,492.712 L1071.17,492.712 L1071.17,472.102 L1078.82,472.102 L1078.82,451.482 L1071.17,451.482 L1071.17,430.862 L1743.83,430.862 L1743.83,451.482 L1751.48,451.482 L1751.48,472.102 L1743.83,472.102 L1743.83,492.712 L1751.48,492.712 L1751.48,513.332 L1743.83,513.332 L1743.83,533.942 L1751.48,533.942 L1751.48,554.562 L1743.83,554.562 L1743.83,575.172 L1751.48,575.172 L1751.48,595.792 L1743.83,595.792 L1743.83,616.412 L1751.48,616.412 L1751.48,637.022 L1743.83,637.022 L1743.83,657.642 L1732.04,657.642 L1732.04,649.982 L1712.61,649.982 L1712.61,657.642 L1693.17,657.642 L1693.17,649.982 L1673.73,649.982 L1673.73,657.642 L1654.29,657.642 L1654.29,649.982 L1634.86,649.982 L1634.86,657.642 L1615.42,657.642 L1615.42,649.982 L1595.98,649.982 L1595.98,657.642 L1576.54,657.642 L1576.54,649.982 L1557.11,649.982 L1557.11,657.642 L1537.67,657.642 z" fill-opacity="0" stroke="#000000" stroke-width="1"/>
    <path d="M2003.21,699.13 L2003.21,706.78 L1983.96,706.78 L1983.96,699.13 L1964.7,699.13 L1964.7,706.78 L1945.45,706.78 L1945.45,699.13 L1926.19,699.13 L1926.19,706.78 L1906.94,706.78 L1906.94,699.13 L1887.68,699.13 L1887.68,706.78 L1868.43,706.78 L1868.43,699.13 L1849.18,699.13 L1849.18,706.78 L1829.92,706.78 L1829.92,699.13 L1810.67,699.13 L1810.67,706.78 L1791.41,706.78 L1791.41,699.13 L1772.16,699.13 L1772.16,706.78 L1752.9,706.78 L1752.9,699.13 L1733.65,699.13 L1733.65,706.78 L1714.4,706.78 L1714.4,699.13 L1695.14,699.13 L1695.14,706.78 L1675.89,706.78 L1675.89,699.13 L1656.63,699.13 L1656.63,706.78 L1637.38,706.78 L1637.38,699.13 L1618.13,699.13 L1618.13,706.78 L1598.87,706.78 L1598.87,699.13 L1579.62,699.13 L1579.62,706.78 L1560.36,706.78 L1560.36,699.13 L1541.11,699.13 L1541.11,706.78 L1521.85,706.78 L1521.85,699.13 L1502.6,699.13 L1502.6,706.78 L1483.35,706.78 L1483.35,699.13 L1464.09,699.13 L1464.09,706.78 L1444.84,706.78 L1444.84,699.13 L1425.58,699.13 L1425.58,706.78 L1406.33,706.78 L1406.33,699.13 L1387.08,699.13 L1387.08,706.78 L1367.82,706.78 L1367.82,699.13 L1348.57,699.13 L1348.57,706.78 L1329.31,706.78 L1329.31,699.13 L1310.06,699.13 L1310.06,706.78 L1290.8,706.78 L1290.8,699.13 L1271.55,699.13 L1271.55,706.78 L1252.3,706.78 L1252.3,699.13 L1233.04,699.13 L1233.04,706.78 L1213.79,706.78 L1213.79,699.13 L1194.53,699.13 L1194.53,706.78 L1175.28,706.78 L1175.28,699.13 L1156.02,699.13 L1156.02,706.78 L1136.77,706.78 L1136.77,699.13 L1117.52,699.13 L1117.52,706.78 L1098.26,706.78 L1098.26,699.13 L1079.01,699.13 L1079.01,719.74 L1086.66,719.74 L1086.66,740.36 L1079.01,740.36 L1079.01,760.97 L1086.66,760.97 L1086.66,781.59 L1079.01,781.59 L1079.01,802.2 L1086.66,802.2 L1086.66,822.82 L1079.01,822.82 L1079.01,843.44 L1086.66,843.44 L1086.66,864.05 L1079.01,864.05 L1079.01,884.67 L1086.66,884.67 L1086.66,905.28 L1079.01,905.28 L1079.01,925.9 L2091.83,925.9 L2091.83,905.28 L2099.48,905.28 L2099.48,884.67 L2091.83,884.67 L2091.83,864.05 L2099.48,864.05 L2099.48,843.44 L2091.83,843.44 L2091.83,822.82 L2099.48,822.82 L2099.48,802.2 L2091.83,802.2 L2091.83,781.59 L2099.48,781.59 L2099.48,760.97 L2091.83,760.97 L2091.83,740.36 L2099.48,740.36 L2099.48,719.74 L2091.83,719.74 L2091.83,699.13 L2080.23,699.13 L2080.23,706.78 L2060.97,706.78 L2060.97,699.13 L2041.72,699.13 L2041.72,706.78 L2022.46,706.78 L2022.46,699.13 z" fill-opacity="0" stroke="#000000" stroke-width="1"/>
    <path d="M1998,20.309 L1998,61.925 L1937.185,61.925 L1937.185,66.623 L1998,66.623 L1998,81.353 L1937.185,81.353 L1937.185,86.052 L1998,86.052 L1998,100.782 L1937.185,100.782 L1937.185,105.48 L1998,105.48 L1998,120.21 L1937.185,120.21 L1937.185,124.909 L1998,124.909 L1998,139.638 L1937.185,139.638 L1937.185,144.337 L1998,144.337 L1998,159.067 L1937.185,159.067 L1937.185,163.765 L1998,163.765 L1998,178.495 L1937.185,178.495 L1937.185,183.194 L1998,183.194 L1998,197.924 L1937.185,197.924 L1937.185,202.622 L1998,202.622 L1998,217.352 L1937.185,217.352 L1937.185,222.051 L1998,222.051 L1998,236.78 L1937.185,236.78 L1937.185,241.479 L1998,241.479 L1998,657.642 L1834.76,657.642 L1834.76,241.479 L1919.981,241.479 L1919.981,236.78 L1834.76,236.78 L1834.76,222.051 L1919.981,222.051 L1919.981,217.352 L1834.76,217.352 L1834.76,202.622 L1919.981,202.622 L1919.981,197.924 L1834.76,197.924 L1834.76,183.194 L1919.981,183.194 L1919.981,178.495 L1834.76,178.495 L1834.76,163.765 L1919.981,163.765 L1919.981,159.067 L1834.76,159.067 L1834.76,144.337 L1919.981,144.337 L1919.981,139.638 L1834.76,139.638 L1834.76,124.909 L1919.981,124.909 L1919.981,120.21 L1834.76,120.21 L1834.76,105.48 L1919.981,105.48 L1919.981,100.782 L1834.76,100.782 L1834.76,86.052 L1919.981,86.052 L1919.981,81.353 L1834.76,81.353 L1834.76,66.623 L1919.981,66.623 L1919.981,61.925 L1834.76,61.925 L1834.76,20.309 L1998,20.309 z M1964.68,246.495 L1871.857,246.495 L1871.857,251.193 L1964.68,251.193 L1964.68,246.495 z M1964.68,227.066 L1871.857,227.066 L1871.857,231.765 L1964.68,231.765 L1964.68,227.066 z M1964.68,207.638 L1871.857,207.638 L1871.857,212.336 L1964.68,212.336 L1964.68,207.638 z M1964.68,188.209 L1871.857,188.209 L1871.857,192.908 L1964.68,192.908 L1964.68,188.209 z M1964.68,168.781 L1871.857,168.781 L1871.857,173.48 L1964.68,173.48 L1964.68,168.781 z M1964.68,149.353 L1871.857,149.353 L1871.857,154.051 L1964.68,154.051 L1964.68,149.353 z M1964.68,129.924 L1871.857,129.924 L1871.857,134.623 L1964.68,134.623 L1964.68,129.924 z M1964.68,110.496 L1871.857,110.496 L1871.857,115.194 L1964.68,115.194 L1964.68,110.496 z M1964.68,91.067 L1871.857,91.067 L1871.857,95.766 L1964.68,95.766 L1964.68,91.067 z M1964.68,71.639 L1871.857,71.639 L1871.857,76.338 L1964.68,76.338 L1964.68,71.639 z" fill-opacity="0" stroke="#000000" stroke-width="1"/>
  </g>
</svg>
