<?xml version="1.0" encoding="UTF-8"?>
<!DOCTYPE svg PUBLIC "-//W3C//DTD SVG 1.1//EN" "http://www.w3.org/Graphics/SVG/1.1/DTD/svg11.dtd">
<svg version="1.1" xmlns="http://www.w3.org/2000/svg" xmlns:xlink="http://www.w3.org/1999/xlink" x="0" y="0" width="768" height="1024" viewBox="0, 0, 768, 1024">
  <g id="Layer_1">
    <g>
      <path d="M114.5,12.437 L114.5,195.5 L12.453,195.5 L12.453,12.437 L114.5,12.437 z M80.484,52.346 L46.469,52.346 L46.469,86.361 L80.484,86.361 L80.484,52.346 z" fill="#FFFFFF"/>
      <path d="M114.5,12.437 L114.5,195.5 L12.453,195.5 L12.453,12.437 L114.5,12.437 z M80.484,52.346 L46.469,52.346 L46.469,86.361 L80.484,86.361 L80.484,52.346 z" fill-opacity="0" stroke="#000000" stroke-width="1"/>
    </g>
    <g>
      <path d="M229,12.437 L229,195.5 L126.953,195.5 L126.953,12.437 L229,12.437 z M177.976,136.563 C164.669,136.563 153.882,147.35 153.882,160.657 C153.882,173.964 164.669,184.752 177.976,184.752 C191.283,184.752 202.071,173.964 202.071,160.657 C202.071,147.35 191.283,136.563 177.976,136.563 z M214.827,24.051 L141.126,24.051 L141.126,126.098 L214.827,126.098 L214.827,24.051 z" fill="#FFFFFF"/>
      <path d="M229,12.437 L229,195.5 L126.953,195.5 L126.953,12.437 L229,12.437 z M177.976,136.563 C164.669,136.563 153.882,147.35 153.882,160.657 C153.882,173.964 164.669,184.752 177.976,184.752 C191.283,184.752 202.071,173.964 202.071,160.657 C202.071,147.35 191.283,136.563 177.976,136.563 z M214.827,24.051 L141.126,24.051 L141.126,126.098 L214.827,126.098 L214.827,24.051 z" fill-opacity="0" stroke="#000000" stroke-width="1"/>
    </g>
    <g>
      <path d="M340.5,12.437 L340.5,195.5 L238.453,195.5 L238.453,12.437 L340.5,12.437 z M289.476,149.319 C283.214,149.319 278.138,154.395 278.138,160.657 C278.138,166.92 283.214,171.996 289.476,171.996 C295.738,171.996 300.815,166.92 300.815,160.657 C300.815,154.395 295.738,149.319 289.476,149.319 z M322.077,117.551 L256.876,117.551 L256.876,124.098 L322.077,124.098 L322.077,117.551 z" fill="#FFFFFF"/>
      <path d="M340.5,12.437 L340.5,195.5 L238.453,195.5 L238.453,12.437 L340.5,12.437 z M289.476,149.319 C283.214,149.319 278.138,154.395 278.138,160.657 C278.138,166.92 283.214,171.996 289.476,171.996 C295.738,171.996 300.815,166.92 300.815,160.657 C300.815,154.395 295.738,149.319 289.476,149.319 z M322.077,117.551 L256.876,117.551 L256.876,124.098 L322.077,124.098 L322.077,117.551 z" fill-opacity="0" stroke="#000000" stroke-width="1"/>
    </g>
    <g id="logo">
      <path d="M288.383,75.547 C288.815,75.547 289.248,75.547 289.668,75.583 C289.992,75.607 290.317,75.631 290.641,75.739 C290.821,75.799 290.917,76.003 290.953,76.171 C290.977,76.327 291.025,76.471 291.061,76.628 C291.073,76.7 291.073,76.748 290.977,76.796 C290.725,76.796 290.473,76.796 290.221,76.808 C290.088,76.808 289.956,76.832 289.824,76.856 C289.788,76.856 289.116,76.904 288.827,76.892 C288.443,76.88 288.059,76.904 287.662,76.916 C287.338,76.928 287.014,76.964 286.689,76.964 C286.521,76.964 286.341,77 286.173,77 C285.957,77 285.861,77 285.632,77 C285.26,76.964 284.96,76.88 284.936,76.532 C284.924,76.303 284.96,76.063 284.996,75.823 C285.008,75.691 285.176,75.595 285.344,75.583 C285.5,75.583 285.656,75.583 285.825,75.583 C285.813,75.559 286.81,75.547 287.302,75.547 L288.383,75.547 z" fill="#5731F2"/>
      <path d="M298.916,75.571 C299.205,75.571 299.913,75.679 299.997,75.691 C300.117,75.691 300.189,75.763 300.213,75.859 C300.249,76.075 300.285,76.291 300.298,76.519 C300.31,76.748 300.273,76.748 300.093,76.784 C299.625,76.88 299.157,76.952 298.676,76.928 C298.304,76.916 297.931,76.928 297.571,76.928 C297.343,76.928 297.103,76.904 296.874,76.904 C296.682,76.904 295.337,76.928 295.073,76.964 C295.013,76.976 294.761,76.94 294.7,76.94 C294.412,76.94 294.124,76.952 293.824,76.964 C293.644,76.964 293.427,76.495 293.391,76.435 C293.283,76.027 293.391,76.003 293.499,75.799 C293.584,75.643 293.716,75.619 293.872,75.631 C294.088,75.643 294.304,75.655 294.532,75.655 C294.628,75.655 296.25,75.571 296.442,75.571 L298.916,75.571 z" fill="#5731F2"/>
      <path d="M303,75.451 C303.432,75.463 303.853,75.475 304.285,75.487 C304.465,75.499 304.645,75.511 304.826,75.511 C305.162,75.511 305.486,75.523 305.822,75.499 C306.171,75.475 306.507,75.571 306.855,75.571 C307.276,75.571 307.708,75.619 308.128,75.655 C308.501,75.667 308.753,75.739 309.041,75.955 C309.089,76.027 309.101,76.063 309.089,76.195 C309.089,76.327 309.053,76.495 308.969,76.568 C308.789,76.724 308.573,76.82 308.309,76.832 C307.264,76.844 306.231,76.904 305.186,76.892 C304.621,76.892 304.057,76.784 303.48,76.724 C303.264,76.7 303.048,76.688 302.832,76.676 C302.664,76.664 302.544,76.592 302.471,76.459 C302.447,76.411 302.447,76.339 302.447,76.279 C302.447,76.243 302.519,75.799 302.616,75.631 C302.7,75.475 302.844,75.451 303,75.451 z" fill="#5731F2"/>
      <path d="M314.014,75.35 C314.163,75.353 314.103,75.351 314.194,75.354 C314.434,75.378 314.674,75.403 314.927,75.427 C315.239,75.463 315.551,75.475 315.851,75.523 C316.164,75.571 316.332,75.883 316.212,76.195 C316.188,76.279 316.188,76.363 316.152,76.447 C316.056,76.616 315.659,76.652 315.503,76.7 C315.059,76.784 314.879,76.82 314.566,76.796 C314.53,76.796 314.494,76.784 314.47,76.784 C314.002,76.748 312.669,76.604 312.536,76.592 C312.392,76.58 312.248,76.568 312.104,76.58 C311.96,76.58 311.816,76.616 311.672,76.616 C311.383,76.616 311.107,76.592 310.819,76.58 C310.795,76.58 310.771,76.568 310.747,76.556 C310.591,76.471 310.447,76.123 310.483,75.919 C310.531,75.667 310.663,75.523 310.915,75.499 C311.48,75.463 312.044,75.427 312.573,75.39 C313.052,75.359 313.533,75.352 314.014,75.35 z" fill="#5731F2"/>
      <path d="M277.489,75.403 C277.97,75.415 278.45,75.439 278.93,75.463 C279.099,75.475 279.267,75.487 279.423,75.487 C279.807,75.511 280.216,75.475 280.588,75.559 C281.116,75.679 281.633,75.631 282.161,75.667 C282.438,75.679 282.546,76.111 282.57,76.207 C282.582,76.291 282.594,76.375 282.594,76.459 C282.594,76.64 282.57,76.664 282.377,76.676 C282.173,76.676 281.969,76.676 281.753,76.688 C281.597,76.7 281.453,76.724 281.297,76.724 C280.9,76.724 280.504,76.7 280.107,76.7 C279.579,76.7 279.05,76.724 278.51,76.724 C278.426,76.724 278.342,76.7 278.258,76.7 C278.186,76.7 278.114,76.7 278.042,76.7 C277.777,76.712 277.513,76.688 277.345,76.435 C277.321,76.399 277.309,76.339 277.297,76.291 C277.273,76.111 277.249,75.943 277.213,75.763 C277.165,75.559 277.285,75.39 277.489,75.403 z" fill="#5731F2"/>
      <path d="M272.617,75.39 L272.673,75.39 C273.009,75.415 273.333,75.39 273.67,75.403 C273.898,75.403 274.126,75.39 274.342,75.439 C274.582,75.499 274.739,75.847 274.667,76.099 C274.655,76.159 274.643,76.219 274.619,76.267 C274.534,76.532 274.342,76.628 274.066,76.604 C273.742,76.58 273.417,76.616 273.093,76.628 C272.889,76.628 272.685,76.628 272.469,76.628 C272.336,76.628 270.883,76.568 270.775,76.568 C270.655,76.568 269.166,76.435 269.009,76.423 C268.793,76.399 268.601,76.135 268.565,75.979 C268.505,75.703 268.577,75.619 268.877,75.583 C269.142,75.571 269.418,75.535 269.802,75.487 C270.102,75.487 270.499,75.487 270.907,75.487 C271.478,75.462 272.047,75.407 272.617,75.39 z" fill="#5731F2"/>
      <path d="M263.552,75.328 L263.677,75.33 C264.241,75.342 264.806,75.354 265.37,75.378 C265.418,75.378 265.502,75.439 265.502,75.475 C265.514,75.655 265.514,75.823 265.49,76.003 C265.478,76.135 265.37,76.195 265.238,76.219 C265.022,76.255 264.794,76.303 264.578,76.327 C264.277,76.363 263.977,76.387 263.677,76.411 C263.124,76.459 262.56,76.495 262.007,76.568 C261.527,76.64 261.07,76.628 260.626,76.447 C260.446,76.375 260.374,76.291 260.374,76.087 C260.362,75.679 260.542,75.463 260.95,75.378 C261.07,75.354 261.19,75.366 261.311,75.366 C261.803,75.366 262.295,75.366 262.776,75.366 C262.785,75.363 262.793,75.359 262.802,75.358 C263.051,75.327 263.302,75.33 263.552,75.328 z" fill="#5731F2"/>
      <path d="M303.431,72.024 L304.033,72.027 C304.609,72.027 305.174,72.076 305.738,72.112 C306.075,72.124 306.423,72.148 306.759,72.172 C307.228,72.196 307.708,72.232 308.177,72.256 C308.573,72.28 308.969,72.304 309.366,72.34 C309.834,72.376 310.29,72.436 310.759,72.484 C311.155,72.52 312.621,72.544 313.017,72.568 C313.449,72.604 314.566,72.604 314.734,72.64 C315.059,72.7 315.095,72.7 315.707,72.772 C316.128,72.844 316.404,73.048 316.476,73.457 C316.476,73.493 316.488,73.517 316.5,73.553 C316.536,73.709 316.452,73.817 316.284,73.805 C316.104,73.793 315.912,73.793 315.731,73.769 C315.431,73.733 315.119,73.697 314.819,73.661 C314.602,73.637 314.398,73.613 314.182,73.601 C313.701,73.577 313.221,73.565 312.741,73.541 C312.609,73.529 312.488,73.541 312.368,73.541 C312.188,73.553 311.54,73.517 311.408,73.517 C310.507,73.505 308.141,73.409 307.852,73.409 C307.36,73.397 306.855,73.385 306.363,73.385 C306.159,73.385 303.853,73.457 303.685,73.469 C303.324,73.481 302.964,73.493 302.592,73.493 C302.387,73.493 300.886,73.445 300.622,73.433 C300.31,73.421 299.997,73.397 299.685,73.385 C299.553,73.385 298.448,73.349 298.376,73.361 C297.535,73.373 295.073,73.457 294.676,73.505 C294.508,73.517 292.935,73.613 292.695,73.649 C292.406,73.685 292.118,73.709 291.83,73.733 C291.818,73.733 291.806,73.733 291.806,73.733 C291.422,73.757 291.037,73.781 290.653,73.781 C290.473,73.781 285.62,73.913 285.332,73.913 C285.068,73.913 284.431,73.901 284.371,73.901 C283.807,73.877 283.242,73.865 282.678,73.841 C282.594,73.841 281.597,73.733 281.188,73.745 C280.972,73.757 279.567,73.685 279.159,73.697 C278.906,73.697 278.654,73.697 278.402,73.697 C278.198,73.697 276.264,73.589 275.976,73.601 C275.736,73.601 275.159,73.565 275.099,73.565 C274.943,73.565 271.58,73.613 271.556,73.625 C271.352,73.637 269.13,73.589 268.925,73.613 C268.613,73.649 266.691,73.721 266.439,73.817 C266.331,73.853 266.211,73.853 266.103,73.865 C265.863,73.889 263.785,73.997 263.617,74.009 C263.377,74.021 261.082,74.237 260.686,74.225 C260.326,74.177 260.001,74.021 259.677,73.865 C259.569,73.817 259.101,73.445 259.017,73.169 C258.981,73.024 258.981,72.988 259.017,72.916 C259.101,72.784 259.185,72.772 259.317,72.772 C259.797,72.748 260.878,72.688 261.359,72.664 C261.719,72.652 263.244,72.688 263.557,72.688 C263.881,72.688 265.238,72.664 265.598,72.628 C265.815,72.604 266.031,72.592 266.247,72.568 C267.208,72.46 269.586,72.46 269.826,72.448 C270.283,72.424 270.751,72.412 271.207,72.388 C271.52,72.376 273.634,72.472 273.958,72.472 C273.97,72.472 273.982,72.472 274.006,72.472 C274.715,72.46 275.411,72.448 276.12,72.448 C276.456,72.448 276.793,72.472 277.117,72.472 C277.609,72.46 278.102,72.436 278.594,72.412 C278.774,72.4 278.966,72.388 279.147,72.388 C279.627,72.364 280.095,72.34 280.576,72.328 C281.044,72.328 281.525,72.34 281.993,72.352 C282.438,72.364 282.882,72.364 283.326,72.376 C283.735,72.388 284.143,72.412 284.551,72.436 C284.732,72.448 284.9,72.46 285.08,72.46 C285.608,72.472 286.137,72.484 286.677,72.484 C287.11,72.484 287.542,72.472 287.962,72.46 C288.335,72.448 288.719,72.4 289.091,72.376 C289.127,72.376 289.164,72.376 289.188,72.376 C289.512,72.364 289.848,72.364 290.172,72.352 C290.521,72.34 290.881,72.316 291.229,72.292 C291.638,72.268 292.058,72.244 292.466,72.232 C292.887,72.22 293.295,72.208 293.716,72.196 C293.932,72.184 294.16,72.172 294.376,72.172 C294.881,72.172 295.385,72.196 295.902,72.196 C296.382,72.196 296.862,72.172 297.355,72.172 C297.487,72.172 297.607,72.196 297.739,72.196 C298.268,72.184 298.796,72.16 299.325,72.136 C299.697,72.124 300.081,72.1 300.454,72.076 C300.85,72.064 301.234,72.052 301.631,72.052 C302.632,72.034 302.032,72.044 303.431,72.024 z" fill="#5731F2"/>
      <path d="M312.842,49.127 C313.002,49.149 312.939,49.119 313.041,49.195 C313.389,49.543 313.557,49.94 313.437,50.444 C313.413,50.564 313.401,50.696 313.377,50.816 C313.337,51.013 313.262,51.053 313.071,51.068 L313.065,51.081 C313.005,51.273 312.969,51.465 312.897,51.657 C312.825,51.861 312.573,52.678 312.536,52.894 C312.5,53.183 312.464,53.459 312.428,53.747 C312.416,53.867 312.404,53.987 312.392,54.119 C312.38,54.264 312.2,56.918 312.236,57.014 C312.236,57.014 312.332,57.206 312.368,57.014 C312.464,56.414 312.705,54.732 312.825,54.155 C312.981,53.579 313.293,52.882 313.557,52.366 C313.75,51.982 313.978,51.597 314.182,51.225 C314.194,51.201 314.194,51.177 314.206,51.165 C314.35,51.249 314.494,51.321 314.638,51.405 C314.446,51.801 314.266,52.21 314.05,52.594 C313.834,52.966 313.653,53.351 313.521,53.759 C313.476,53.898 313.426,54.035 313.384,54.175 C313.524,54.223 313.464,54.22 313.557,54.216 C313.748,54.15 313.629,54.193 313.913,54.081 C314.003,53.915 314.083,53.741 314.182,53.579 C314.566,53.014 314.554,52.882 314.819,52.594 C315.023,52.378 315.227,52.162 315.455,51.958 C315.653,51.785 315.869,51.633 316.079,51.475 C316.057,51.408 316.006,51.358 315.971,51.297 C315.839,50.889 316.008,50.66 316.224,50.372 C316.409,50.14 316.669,50.162 316.939,50.154 C317.29,50.244 317.154,50.18 317.365,50.3 C317.425,50.348 317.485,50.516 317.533,50.576 C317.545,50.78 317.413,50.973 317.377,51.081 C317.245,51.249 317.089,51.441 316.896,51.537 C316.75,51.624 316.573,51.618 316.408,51.621 C316.251,51.872 316.336,51.748 316.152,51.994 C315.755,52.414 314.71,53.963 314.71,54.035 L314.7,54.065 C314.856,54.269 314.773,54.167 314.951,54.372 C315.095,54.528 315.167,54.696 315.215,54.9 C315.287,55.2 315.383,55.501 315.467,55.813 L315.433,55.899 C315.46,55.839 315.444,55.875 315.479,55.789 C315.755,55.248 315.971,54.672 316.14,54.083 C316.264,53.576 316.206,53.827 316.314,53.331 L316.308,53.315 C316.296,53.063 316.344,52.81 316.5,52.594 C316.656,52.378 317.113,52.234 317.293,52.414 C317.341,52.462 317.389,52.546 317.377,52.594 C317.353,52.762 317.317,52.942 317.233,53.087 C317.173,53.207 317.028,53.279 316.92,53.363 C316.841,53.448 316.881,53.408 316.8,53.484 C316.778,53.942 316.616,54.376 316.464,54.804 C316.364,55.087 316.269,55.373 316.181,55.66 C316.166,55.706 316.107,55.874 316.104,55.953 C316.439,55.519 316.267,55.738 316.62,55.297 C316.8,55.08 316.98,54.852 317.173,54.648 C317.221,54.588 317.317,54.552 317.401,54.552 C317.713,54.54 318.001,54.588 318.254,54.792 C318.35,54.876 318.494,54.924 318.602,54.996 C318.794,55.116 318.866,55.297 318.878,55.513 C318.89,55.657 318.926,55.801 318.962,55.945 C318.962,56.065 318.962,56.197 318.962,56.317 C318.83,56.654 318.71,56.99 318.554,57.314 C318.422,57.591 318.242,57.843 318.085,58.095 C317.893,58.407 317.701,58.72 317.485,59.008 C317.329,59.224 317.149,59.428 316.956,59.62 C316.596,60.005 316.26,60.413 315.96,60.833 C315.924,60.882 315.888,60.918 315.839,60.954 C315.851,60.797 315.803,60.677 315.683,60.581 C315.468,60.434 315.596,60.514 315.293,60.354 C315.446,60.458 315.534,60.525 315.671,60.629 C315.791,60.713 315.839,60.845 315.827,61.002 C315.755,61.074 315.695,61.158 315.623,61.23 C315.491,61.386 315.371,61.53 315.155,61.578 C315.035,61.602 314.939,61.686 314.83,61.758 C314.596,61.924 314.319,61.994 314.039,62.034 C314.04,62.055 314.039,62.039 314.05,62.083 C314.254,62.395 314.35,62.743 314.386,63.104 C314.398,63.272 314.434,63.428 314.434,63.596 C314.434,63.836 314.41,64.088 314.41,64.329 C314.41,64.497 314.47,64.653 314.458,64.821 C314.434,65.157 314.386,65.494 314.35,65.818 C314.326,66.058 314.302,66.31 314.29,66.551 C314.278,66.731 314.266,66.899 314.254,67.127 C314.374,67.043 314.47,66.983 314.554,66.923 C314.951,66.611 315.335,66.286 315.743,65.974 C316.032,65.758 316.344,65.59 316.716,65.626 C316.944,65.65 317.149,65.71 317.317,65.878 C317.389,65.938 317.413,66.01 317.377,66.118 C317.305,66.298 317.221,66.418 317.053,66.539 C316.632,66.803 316.248,67.115 315.863,67.427 C315.431,67.764 315.071,68.196 314.59,68.472 C314.542,68.496 314.326,68.64 314.182,68.652 C314.086,68.941 313.99,69.229 313.918,69.517 C313.87,69.685 313.858,69.866 313.834,70.046 C313.798,70.406 313.786,70.778 313.738,71.139 C313.714,71.283 313.593,71.415 313.521,71.547 C313.449,71.679 313.365,71.703 313.221,71.667 C312.969,71.595 312.705,71.583 312.464,71.511 C312.308,71.463 312.164,71.379 312.02,71.307 C311.516,71.055 311.107,70.682 310.663,70.346 C310.507,70.226 310.387,70.046 310.254,69.89 C310.098,69.697 309.918,69.517 309.798,69.313 C309.63,69.013 309.498,68.701 309.366,68.376 C309.318,68.268 309.414,68.16 309.534,68.184 C309.846,68.244 310.146,68.328 310.387,68.532 C310.831,68.893 311.263,69.265 311.708,69.625 C311.9,69.781 312.092,69.926 312.296,70.07 C312.416,70.154 312.476,70.13 312.5,69.998 C312.549,69.721 312.573,69.445 312.621,69.169 C312.657,68.893 312.705,68.604 312.753,68.328 C312.789,68.076 312.825,67.824 312.849,67.571 C312.885,67.211 312.921,66.851 312.957,66.479 C312.957,66.43 312.957,66.382 312.957,66.334 C312.981,65.085 312.993,63.848 313.017,62.599 C313.017,62.491 313.101,62.395 313.149,62.299 L313.252,62.075 C312.849,62.124 312.506,61.926 312.212,61.674 C312.128,61.602 312.116,61.602 312.056,61.518 C311.865,61.337 311.947,61.434 311.805,61.231 C311.245,60.978 310.736,60.632 310.242,60.269 C309.978,60.065 309.774,59.789 309.546,59.536 C309.426,59.404 309.318,59.248 309.197,59.116 C308.921,58.828 308.801,58.455 308.621,58.119 C308.477,57.843 308.345,57.567 308.261,57.266 C308.177,57.014 308.165,56.738 308.128,56.474 C308.117,56.402 308.153,56.305 308.201,56.233 C308.321,56.041 308.489,55.909 308.729,55.849 C308.909,55.801 309.089,55.729 309.257,55.657 C309.653,55.517 309.412,55.583 309.991,55.506 L310.242,55.537 C310.531,55.597 310.819,55.669 311.107,55.741 C311.299,55.789 311.407,55.945 311.492,56.113 C311.54,56.209 311.6,56.317 311.648,56.414 L311.712,56.528 C311.714,56.32 311.717,56.411 311.708,56.257 C311.744,55.657 311.744,55.657 311.78,55.188 C311.78,55.176 311.816,54.672 311.84,54.42 C311.864,54.083 311.96,53.639 312.02,53.315 C312.104,52.846 312.212,52.486 312.32,52.018 C312.524,51.561 312.524,51.561 312.681,51.213 C312.717,51.117 312.741,51.033 312.777,50.937 C312.845,50.909 312.818,50.923 312.86,50.898 C312.822,50.905 312.85,50.899 312.777,50.925 C312.5,50.841 312.404,50.636 312.428,50.372 C312.452,50.084 312.464,49.808 312.524,49.531 C312.56,49.387 312.681,49.267 312.789,49.159 L312.842,49.127 z M313.305,54.636 C313.269,54.888 313.245,55.14 313.221,55.393 L313.305,54.636 z" fill="#5731F2"/>
      <path d="M304.369,44.283 C304.573,44.331 304.802,44.331 305.018,44.331 C305.534,44.487 305.858,44.883 306.195,45.268 C306.291,45.376 306.387,45.496 306.507,45.568 C306.735,45.712 306.819,45.94 306.891,46.18 C306.987,46.553 307.048,46.937 307.036,47.321 C307.036,47.429 307.06,47.526 307.06,47.634 C307.084,48.21 306.987,48.775 306.783,49.315 C306.699,49.531 306.711,49.555 306.915,49.639 C307.156,49.736 307.408,49.796 307.66,49.892 C307.816,49.952 307.96,50.048 308.128,50.108 C308.333,50.18 308.537,50.228 308.741,50.288 C308.969,50.36 309.161,50.48 309.306,50.684 C309.378,50.78 309.474,50.865 309.57,50.949 C309.786,51.141 309.918,51.381 310.002,51.645 C310.122,52.018 310.218,52.378 310.315,52.75 C310.351,52.882 310.339,53.026 310.315,53.147 C310.05,53.747 309.077,54.107 308.849,54.216 C308.621,54.396 308.357,54.516 308.069,54.564 C307.756,54.624 307.456,54.696 307.144,54.732 C306.759,54.768 306.399,54.648 306.039,54.54 C306.027,54.54 306.015,54.54 305.991,54.54 C305.558,54.312 305.114,54.071 304.669,53.831 C304.657,53.879 304.657,53.891 304.657,53.915 L304.658,53.924 C304.66,53.892 304.658,53.915 304.669,53.855 C305.114,54.095 305.558,54.324 305.991,54.564 C306.015,54.804 306.039,55.032 306.051,55.272 C306.063,55.633 306.063,55.993 306.087,56.353 C306.111,56.63 306.159,56.906 306.195,57.182 C306.219,57.362 306.219,57.555 306.231,57.735 C306.243,58.095 306.255,58.455 306.267,58.828 C306.267,58.852 306.267,58.864 306.279,58.924 C306.339,58.864 306.387,58.828 306.411,58.78 C306.699,58.203 307.204,57.939 307.804,57.819 C307.924,57.795 308.044,57.891 308.044,58.023 C308.044,58.299 308.044,58.563 307.924,58.816 C307.852,58.972 307.852,59.152 307.792,59.32 C307.54,59.993 307.072,60.425 306.363,60.581 C306.255,60.605 306.123,60.821 306.135,60.942 C306.183,61.29 306.219,61.638 306.255,61.987 C306.279,62.203 306.315,62.419 306.339,62.635 C306.339,62.671 306.363,62.695 306.435,62.779 C306.483,62.695 306.543,62.611 306.591,62.539 C306.927,62.071 307.408,61.794 307.912,61.566 C307.984,61.542 308.069,61.542 308.141,61.542 C308.237,61.542 308.273,61.626 308.273,61.71 C308.273,61.83 308.285,61.938 308.273,62.059 C308.261,62.131 308.213,62.203 308.165,62.251 C307.72,62.755 307.156,63.104 306.543,63.368 C306.423,63.416 306.387,63.488 306.387,63.608 C306.411,64.22 306.423,64.845 306.447,65.458 C306.459,65.674 306.483,65.878 306.507,66.142 C306.675,66.01 306.819,65.902 306.951,65.794 C307.3,65.494 307.636,65.181 308.008,64.893 C308.165,64.773 308.357,64.629 308.585,64.641 C308.693,64.641 308.801,64.653 308.909,64.677 C309.065,64.701 309.174,64.893 309.197,65.085 C309.234,65.458 309.089,65.746 308.777,65.962 C308.585,66.094 308.417,66.262 308.213,66.358 C307.756,66.563 307.276,66.755 306.747,66.683 C306.687,66.671 306.639,66.671 306.555,66.647 C306.567,66.887 306.579,67.115 306.603,67.355 C306.627,67.632 306.675,67.896 306.711,68.172 C306.759,68.496 306.795,68.821 306.843,69.145 C306.915,69.601 307.012,70.058 307.048,70.514 C307.06,70.682 306.987,70.91 306.879,71.031 C306.747,71.175 306.531,71.247 306.339,71.319 C306.231,71.355 306.099,71.331 306.015,71.223 C305.931,71.103 305.835,70.971 305.786,70.838 C305.69,70.538 305.63,70.214 305.546,69.914 C305.438,69.529 305.294,69.157 305.186,68.773 C305.114,68.496 305.066,68.22 305.006,67.944 C304.934,67.596 304.862,67.247 304.789,66.911 C304.717,66.563 304.633,66.202 304.549,65.854 C304.549,65.83 304.525,65.698 304.501,65.434 C304.501,65.434 304.441,65.049 304.393,64.713 C304.369,64.569 304.285,64.509 304.189,64.437 C304.105,64.377 303.997,64.365 303.901,64.341 C303.793,64.317 303.108,64.016 303.012,63.944 C302.856,63.824 302.676,63.728 302.496,63.644 C302.027,63.44 301.607,63.176 301.342,62.719 C301.234,62.527 301.186,62.311 301.222,62.071 C301.258,61.83 301.342,61.602 301.45,61.398 C301.511,61.278 301.643,61.23 301.751,61.266 C302.099,61.362 302.435,61.482 302.784,61.602 C302.892,61.638 302.976,61.746 303.072,61.83 C303.276,62.023 303.456,62.215 303.661,62.407 C303.817,62.551 303.985,62.683 304.069,62.887 C304.081,62.935 304.129,62.971 304.189,63.031 C304.201,62.947 304.213,62.911 304.213,62.863 C304.213,62.263 304.213,61.65 304.213,61.05 C304.213,60.918 304.165,60.833 304.021,60.809 C303.661,60.749 303.3,60.701 302.928,60.641 C302.76,60.617 302.604,60.569 302.435,60.557 C302.123,60.521 301.823,60.425 301.535,60.293 C301.174,60.125 301.03,59.825 300.97,59.464 C300.946,59.296 300.91,59.128 300.898,58.96 C300.898,58.912 300.946,58.84 300.982,58.828 C301.931,58.575 302.808,58.732 303.601,59.308 C303.793,59.452 303.961,59.62 304.057,59.849 C304.069,59.897 304.105,59.933 304.165,60.017 C304.189,59.921 304.201,59.873 304.201,59.813 C304.201,58.816 304.201,57.819 304.201,56.834 C304.237,56.522 304.201,56.245 304.177,55.969 C304.201,55.933 304.213,55.897 304.237,55.873 C304.455,55.599 304.633,55.285 304.664,54.929 C304.617,55.272 304.431,55.572 304.237,55.849 C304.213,55.873 304.201,55.909 304.177,55.945 C303.961,56.173 303.745,56.401 303.528,56.63 C303.168,57.014 302.712,57.242 302.231,57.434 C302.039,57.518 301.847,57.639 301.643,57.675 C301.186,57.747 300.73,57.867 300.262,57.807 C299.685,57.747 299.144,57.591 298.724,57.146 C298.304,56.714 298.1,56.209 298.16,55.597 C298.196,55.224 298.328,54.864 298.604,54.6 C299.036,54.179 299.469,53.759 299.913,53.351 C300.31,52.99 300.73,52.642 301.138,52.294 C301.174,52.258 301.222,52.222 301.246,52.186 C301.282,52.126 301.282,52.054 301.198,52.042 C300.838,51.982 300.478,51.921 300.117,51.861 C299.721,51.801 299.325,51.741 298.94,51.693 C298.436,51.717 297.715,51.573 297.283,50.913 C297.271,50.6 297.271,50.6 297.355,50.48 C297.631,50.108 297.895,49.736 298.208,49.387 C298.508,49.063 298.844,48.775 299.229,48.558 C299.481,48.414 299.757,48.414 300.033,48.366 C300.165,48.342 300.298,48.33 300.43,48.342 C300.55,48.342 300.658,48.366 300.778,48.402 C301.258,48.51 301.751,48.631 302.231,48.751 C302.303,48.775 302.387,48.811 302.459,48.835 C302.604,48.895 302.688,48.835 302.664,48.679 C302.568,48.054 302.471,47.441 302.387,46.817 C302.351,46.553 302.327,46.288 302.363,46.036 C302.399,45.844 302.532,45.664 302.652,45.508 C302.952,45.099 303.372,44.823 303.805,44.595 C303.997,44.499 304.177,44.391 304.369,44.283 z M304.663,53.979 C304.666,54.006 304.664,53.993 304.669,54.019 L304.663,53.979 z" fill="#5731F2"/>
      <path d="M263.455,60.637 L264.361,60.641 C264.373,60.677 266.752,60.713 267.929,60.737 C268.277,60.737 268.577,60.845 268.877,60.954 C268.913,60.966 268.961,61.014 268.973,61.05 C269.13,61.794 269.034,63.98 269.034,64.016 C269.034,64.509 269.058,65.001 269.034,65.482 C268.986,66.875 268.925,68.268 268.853,69.661 C268.841,69.95 268.793,70.238 268.757,70.514 C268.733,70.73 268.601,70.862 268.385,70.898 C268.013,70.971 267.628,71.031 267.244,71.067 C266.752,71.115 266.259,71.127 265.767,71.151 C265.611,71.163 265.611,71.151 265.622,70.983 C265.647,70.646 265.634,70.322 265.658,69.986 C265.707,69.409 265.779,68.833 265.827,68.256 C265.863,67.824 265.863,67.379 265.863,66.947 C265.863,66.442 265.851,65.95 265.839,65.446 C265.827,65.133 265.719,65.013 265.406,64.989 C264.758,64.929 264.121,64.869 263.473,64.809 C263.4,64.797 263.328,64.785 263.256,64.773 C263.052,64.725 262.92,64.809 262.896,65.013 C262.824,65.854 262.752,66.695 262.692,67.535 C262.62,68.58 262.548,69.613 262.476,70.658 C262.464,70.766 262.464,70.874 262.44,70.983 C262.404,71.175 262.356,71.211 262.163,71.223 C261.623,71.247 261.094,71.163 260.566,71.031 C260.41,70.995 260.254,70.959 260.11,70.91 C259.893,70.85 259.845,70.802 259.845,70.586 C259.857,69.817 259.833,69.037 259.881,68.268 C259.929,67.511 259.809,66.767 259.821,66.01 C259.833,65.157 259.833,64.305 259.869,63.452 C259.893,62.635 259.941,61.806 259.977,60.99 C259.989,60.773 260.013,60.737 260.23,60.725 C260.998,60.689 261.779,60.653 262.548,60.641 L263.455,60.637 z" fill="#5731F2"/>
      <path d="M277.452,48.329 C277.658,48.42 277.573,48.367 277.717,48.474 C278.702,49.267 279.615,50.132 280.456,51.069 C281.933,52.714 283.386,54.372 284.804,56.077 C285.068,56.389 285.332,56.714 285.596,57.038 C285.704,57.17 285.704,57.218 285.584,57.326 C285.416,57.47 285.236,57.603 285.068,57.747 C285.032,57.783 284.984,57.843 284.984,57.891 C284.9,58.888 284.816,59.885 284.756,60.894 C284.708,61.746 284.684,62.587 284.636,63.44 C284.623,63.572 284.599,63.692 284.587,63.824 C284.527,64.401 284.467,64.989 284.419,65.566 C284.335,66.43 284.275,67.307 284.179,68.172 C284.107,68.821 283.987,69.457 283.891,70.106 C283.879,70.226 283.819,70.286 283.687,70.286 C283.434,70.31 281.393,70.31 281.092,70.346 C280.996,70.358 278.762,70.454 278.51,70.49 C278.33,70.514 277.717,70.514 277.597,70.526 C277.309,70.55 277.021,70.586 276.744,70.634 C276.576,70.658 275.639,70.826 275.423,70.838 C275.171,70.85 274.931,70.91 274.679,70.923 C274.402,70.935 272.925,70.886 272.469,70.91 C272.204,70.923 272.156,70.898 272.132,70.634 C272.072,70.07 272.024,69.505 271.952,68.953 C271.88,68.448 271.808,67.932 271.688,67.439 C271.58,66.995 271.556,66.551 271.592,66.106 C271.652,65.398 271.7,64.677 271.76,63.968 C271.772,63.764 271.808,63.572 271.808,63.368 C271.808,63.067 271.784,62.779 271.796,62.479 C271.808,61.794 271.82,61.11 271.832,60.425 C271.832,60.305 271.832,60.185 271.844,60.065 C271.856,59.921 271.784,59.837 271.664,59.813 C271.195,59.728 270.787,59.5 270.367,59.308 C270.187,59.224 270.018,59.152 269.85,59.056 C269.742,58.996 269.646,58.912 269.574,58.816 C269.49,58.72 269.478,58.611 269.55,58.491 C269.898,57.939 270.247,57.386 270.583,56.834 C271.28,55.705 272.168,54.732 272.925,53.663 C273.381,53.026 273.946,52.486 274.342,51.813 C274.486,51.573 274.679,51.357 274.859,51.141 C275.015,50.949 275.183,50.78 275.339,50.588 C275.351,50.576 275.351,50.564 275.363,50.564 C275.603,50.504 275.651,50.264 275.784,50.096 C275.94,49.892 276.132,49.699 276.288,49.495 C276.432,49.315 276.564,49.135 276.708,48.955 C276.816,48.811 276.937,48.667 277.057,48.534 C277.215,48.359 277.227,48.348 277.452,48.329 z M281.36,60.015 C281.316,60.015 281.276,60.037 281.237,60.053 C281.2,60.077 281.176,60.125 281.164,60.161 C281.152,60.341 281.14,60.533 281.152,60.713 C281.152,60.918 281.176,61.134 281.188,61.338 C281.2,61.842 281.068,62.335 281.152,62.839 C281.152,62.863 281.152,62.899 281.152,62.923 C281.128,63.188 281.116,63.452 281.092,63.716 C281.08,64.016 281.092,64.317 281.056,64.617 C281.008,65.073 280.924,65.53 280.864,65.986 C280.84,66.154 280.84,66.322 280.828,66.491 C280.095,66.647 279.363,66.731 278.618,66.719 C278.222,66.719 277.825,66.731 277.429,66.731 C277.261,66.731 277.105,66.719 276.937,66.707 C276.901,66.707 276.865,66.695 276.841,66.707 C276.312,66.791 275.784,66.671 275.267,66.695 C275.267,66.695 275.255,66.695 275.255,66.695 C275.135,66.671 275.051,66.611 275.051,66.479 C275.039,66.286 275.027,66.082 275.003,65.89 C274.991,65.758 275.015,65.686 275.159,65.686 C275.279,65.674 275.327,65.614 275.303,65.494 C275.291,65.446 275.291,65.398 275.279,65.35 C275.195,65.061 275.183,64.761 275.171,64.461 C275.159,64.136 275.099,63.8 275.039,63.476 C274.955,62.947 274.895,62.407 274.715,61.89 C274.606,61.59 274.559,61.29 274.582,60.966 C274.606,60.701 274.559,60.605 274.318,60.497 C274.21,60.449 274.102,60.509 274.102,60.629 C274.102,60.677 274.114,60.725 274.114,60.773 C274.126,61.014 274.126,61.254 274.138,61.494 C274.138,61.59 274.114,61.698 274.15,61.794 C274.234,62.047 274.138,62.299 274.114,62.539 C274.09,62.803 273.982,63.067 273.934,63.332 C273.826,63.944 273.73,64.545 273.61,65.157 C273.513,65.662 273.49,66.154 273.538,66.659 C273.55,66.839 273.49,67.019 273.466,67.199 C273.453,67.259 273.429,67.307 273.429,67.367 C273.441,67.644 273.453,67.908 273.477,68.184 C273.502,68.4 273.513,68.4 273.742,68.376 C274.222,68.316 274.703,68.268 275.183,68.196 C276.264,68.04 277.345,68.016 278.426,68.004 C279.267,68.004 280.119,68.04 280.96,68.052 C281.333,68.064 281.705,68.052 282.065,68.052 C282.077,68.076 282.125,68.076 282.197,68.076 C282.197,67.992 282.197,67.932 282.185,67.872 C282.005,67.163 281.945,66.43 281.837,65.698 C281.717,64.869 281.573,64.052 281.453,63.224 C281.429,63.091 281.465,62.959 281.477,62.827 C281.477,62.779 281.501,62.731 281.501,62.683 C281.573,61.89 281.633,61.098 281.693,60.305 C281.693,60.233 281.681,60.125 281.633,60.077 C281.566,60.028 281.61,60.054 281.493,60.016 C281.406,60.017 281.45,60.017 281.36,60.015 z M280.3,63.632 C280.143,63.668 280.107,63.776 280.095,63.896 C280.083,64.016 280.035,64.064 279.927,64.064 C279.447,64.076 278.978,64.076 278.498,64.088 C278.402,64.088 278.306,64.1 278.198,64.1 C278.186,64.569 278.174,65.037 278.162,65.494 C278.162,65.602 278.222,65.662 278.33,65.674 C278.474,65.698 278.618,65.722 278.774,65.734 C279.255,65.77 279.735,65.794 280.228,65.818 C280.516,65.83 280.552,65.782 280.528,65.494 C280.468,64.929 280.42,64.353 280.36,63.788 C280.336,63.74 280.312,63.692 280.3,63.632 z M276.168,64.016 C276.168,64.028 276.168,64.04 276.168,64.04 C276.072,64.04 275.964,64.028 275.868,64.04 C275.747,64.052 275.664,64.088 275.675,64.245 C275.7,64.629 275.711,65.025 275.736,65.41 C275.747,65.602 275.772,65.614 275.976,65.602 C276.432,65.59 276.901,65.578 277.357,65.602 C277.633,65.614 277.669,65.614 277.645,65.337 C277.609,64.977 277.549,64.629 277.489,64.269 C277.465,64.136 277.393,64.1 277.249,64.1 C277.069,64.1 276.877,64.1 276.696,64.088 C276.516,64.076 276.336,64.04 276.168,64.016 z M279.469,60.319 C279.427,60.319 279.389,60.339 279.351,60.353 C279.255,60.401 279.159,60.437 279.063,60.473 C278.834,60.533 278.618,60.569 278.39,60.629 C278.198,60.677 278.114,60.761 278.114,60.93 C278.114,61.302 278.126,61.662 278.138,62.035 C278.138,62.179 278.234,62.251 278.378,62.227 C278.462,62.215 278.546,62.191 278.63,62.203 C279.075,62.203 279.483,62.227 279.939,62.251 C280.035,62.263 280.095,62.203 280.059,62.083 C279.963,61.65 279.855,61.218 279.759,60.785 C279.747,60.737 279.723,60.689 279.735,60.653 C279.795,60.533 279.747,60.437 279.663,60.365 L279.594,60.321 C279.513,60.321 279.554,60.321 279.469,60.319 z M275.664,60.785 C275.555,60.785 275.495,60.833 275.495,60.954 C275.507,61.074 275.495,61.206 275.495,61.338 C275.483,61.338 275.471,61.338 275.459,61.338 C275.483,61.566 275.495,61.782 275.519,62.011 C275.531,62.107 275.567,62.203 275.711,62.167 C276.108,62.059 276.504,61.987 276.925,62.059 C277.045,62.083 277.105,62.023 277.117,61.89 C277.141,61.578 277.201,61.266 277.117,60.954 C277.081,60.821 277.045,60.785 276.925,60.797 C276.552,60.797 276.18,60.797 275.808,60.797 L275.664,60.785 z M277.421,56.051 L277.381,56.101 C277.261,56.341 277.069,56.558 276.949,56.786 C276.804,57.038 276.204,57.807 276.108,57.999 C276.108,58.011 276.096,58.011 276.096,58.023 C275.772,58.455 275.435,58.888 275.111,59.32 C275.063,59.38 275.039,59.44 274.979,59.536 C275.147,59.524 275.267,59.512 275.387,59.5 C275.711,59.464 276.048,59.404 276.372,59.404 C276.696,59.404 277.009,59.464 277.333,59.476 C278.294,59.536 279.255,59.584 280.228,59.644 C280.36,59.656 280.444,59.608 280.444,59.476 C280.456,59.308 280.468,59.128 280.456,58.96 C280.456,58.924 280.36,58.852 280.312,58.852 C280.131,58.852 279.795,58.407 279.711,58.311 C279.615,58.215 279.507,58.131 279.423,58.035 C279.111,57.699 278.81,57.35 278.486,57.014 C278.186,56.702 277.873,56.402 277.573,56.101 C277.494,56.036 277.543,56.059 277.421,56.051 z" fill="#5731F2"/>
      <path d="M293.139,55.14 C293.403,55.14 294.676,55.188 295.049,55.2 C295.481,55.212 295.902,55.224 296.334,55.26 C296.622,55.285 296.923,55.345 297.211,55.405 C297.379,55.441 297.499,55.513 297.523,55.717 C297.547,55.993 297.619,56.257 297.571,56.534 C297.523,56.858 297.283,57.062 297.007,57.122 C296.838,57.158 296.67,57.158 296.478,57.194 C296.562,57.218 296.646,57.242 296.73,57.266 C296.935,57.302 297.151,57.338 297.355,57.386 C297.367,57.386 297.379,57.386 297.379,57.386 C297.619,57.446 297.715,57.591 297.751,57.759 C297.751,57.963 297.739,58.167 297.739,58.371 C297.739,58.623 297.763,58.876 297.763,59.128 C297.763,59.356 297.763,59.584 297.763,59.813 C297.775,60.425 297.775,61.026 297.799,61.638 C297.811,61.926 297.859,62.779 297.859,62.923 C297.859,63.067 297.859,63.2 297.859,63.344 C297.847,63.68 297.979,65.71 297.979,66.262 C297.967,67.091 297.979,67.92 297.979,68.749 C297.979,68.881 297.967,69.013 297.943,69.145 C297.907,69.361 297.703,69.517 297.463,69.517 C297.067,69.529 296.658,69.541 296.262,69.541 C295.962,69.553 295.649,69.565 295.349,69.565 C295.025,69.577 294.689,69.577 294.364,69.589 C293.932,69.601 293.499,69.625 293.067,69.649 C292.959,69.649 292.911,69.613 292.911,69.505 C292.911,69.505 292.911,69.493 292.911,69.493 C292.899,68.713 292.887,67.92 292.887,67.139 C292.887,66.887 292.887,66.623 292.887,66.37 C292.875,65.95 292.863,65.518 292.863,65.097 C292.863,64.845 292.851,64.052 292.827,63.896 C291.746,63.86 290.689,63.8 289.608,63.956 C289.596,64.052 289.572,64.16 289.572,64.269 C289.572,64.725 289.56,65.193 289.572,65.65 C289.584,66.13 289.608,66.611 289.62,67.091 C289.62,67.247 289.596,67.415 289.596,67.571 C289.608,68.148 289.644,68.929 289.656,69.493 C289.608,69.914 289.392,69.83 288.887,69.866 C288.419,69.793 287.962,69.673 287.482,69.697 C287.434,69.697 287.398,69.697 287.35,69.697 C287.122,69.673 287.074,69.613 287.05,69.373 C287.026,68.953 286.978,68.52 286.942,68.1 L286.942,66.382 C286.942,66.022 286.954,65.662 286.978,65.301 C286.99,65.061 287.026,63.14 286.966,62.815 C286.954,62.731 286.978,61.29 286.966,61.11 L286.966,58.263 C286.966,58.059 286.906,57.987 286.701,57.975 C286.605,57.963 286.569,57.939 286.557,57.831 C286.497,57.47 286.521,57.446 286.87,57.422 C287.23,57.398 287.59,57.35 287.962,57.314 C288.155,57.29 288.359,57.278 288.551,57.254 C288.587,57.254 288.635,57.23 288.671,57.218 C288.671,57.206 288.671,57.182 288.659,57.17 C288.539,57.17 288.407,57.17 288.287,57.17 C287.926,57.158 286.893,56.978 286.689,56.918 C286.329,56.822 286.125,56.534 286.137,56.197 C286.149,56.053 286.137,55.897 286.137,55.753 C286.137,55.729 286.137,55.693 286.137,55.669 C286.137,55.357 286.185,55.297 286.485,55.272 C286.665,55.26 286.833,55.248 287.014,55.248 C287.722,55.236 288.419,55.224 289.127,55.212 C289.536,55.2 289.944,55.2 290.353,55.188 C290.593,55.176 290.833,55.164 291.085,55.164 C291.386,55.164 292.755,55.14 293.139,55.14 z M287.971,58.022 L287.722,58.023 C287.686,58.023 287.674,58.251 287.674,58.287 C287.71,58.78 287.746,59.789 287.746,59.789 C287.746,60.005 287.734,60.209 287.746,60.425 C287.77,60.713 287.842,60.881 288.167,60.857 C288.311,60.845 288.455,60.833 288.611,60.833 C288.935,60.821 288.959,60.809 288.947,60.485 C288.947,60.425 288.947,60.365 288.947,60.293 C288.947,60.113 288.959,59.933 288.971,59.765 C288.983,59.632 289.007,59.5 289.007,59.368 C288.995,59.032 288.971,58.684 288.959,58.347 C288.947,58.167 288.899,58.059 288.719,58.047 C288.309,58.015 288.558,58.029 287.971,58.022 z M296.31,57.857 C296.05,57.865 296.162,57.861 295.974,57.867 C295.878,57.867 295.794,57.879 295.697,57.879 C295.577,57.867 295.457,57.927 295.433,58.047 C295.409,58.191 295.373,58.335 295.385,58.479 C295.397,58.888 295.433,59.308 295.469,59.716 C295.493,59.993 295.541,60.269 295.589,60.545 C295.589,60.569 295.637,60.605 295.661,60.617 C295.938,60.665 296.214,60.713 296.478,60.761 C296.634,60.797 296.682,60.761 296.682,60.593 C296.67,60.257 296.646,59.909 296.706,59.572 C296.73,59.428 296.742,59.284 296.73,59.152 C296.73,58.984 296.706,58.635 296.706,58.635 C296.706,58.515 296.706,58.407 296.706,58.287 C296.706,58.059 296.598,57.891 296.418,57.867 L296.31,57.857 z M289.947,57.981 L289.776,58.011 C289.728,58.023 289.68,58.095 289.68,58.131 C289.68,58.287 289.692,58.431 289.704,58.587 C289.716,58.756 289.74,58.924 289.764,59.092 C289.776,59.2 289.8,59.308 289.824,59.416 C289.872,59.68 289.944,60.185 289.932,60.185 C289.932,60.305 289.92,60.425 289.932,60.545 C289.944,60.593 290.004,60.665 290.052,60.665 C290.16,60.677 290.281,60.677 290.401,60.665 C290.629,60.641 290.653,60.605 290.653,60.365 C290.653,60.209 290.629,60.041 290.653,59.885 C290.701,59.608 290.689,59.332 290.653,59.056 C290.617,58.804 290.557,58.551 290.617,58.299 C290.653,58.167 290.593,58.095 290.461,58.047 C290.179,57.974 290.348,58.006 289.947,57.981 z M291.962,57.903 C291.77,57.903 291.566,57.963 291.374,57.999 C291.337,58.011 291.289,58.071 291.289,58.107 C291.289,58.323 291.301,58.539 291.325,58.744 C291.362,59.056 291.422,59.368 291.458,59.68 C291.494,59.933 291.518,60.173 291.554,60.425 C291.554,60.461 291.614,60.509 291.65,60.509 C291.878,60.521 292.094,60.533 292.322,60.545 C292.406,60.545 292.479,60.557 292.563,60.569 C292.731,60.593 292.827,60.545 292.851,60.365 C292.875,60.173 292.899,59.981 292.911,59.789 C292.911,59.32 292.899,58.84 292.899,58.347 C292.887,58.347 292.875,58.215 292.875,58.143 C292.887,58.047 292.839,57.975 292.743,57.963 C292.479,57.939 292.226,57.903 291.962,57.903 z M293.613,57.865 C293.466,57.89 293.286,57.943 293.247,58.107 C293.247,58.395 293.259,58.684 293.271,58.984 C293.307,59.44 293.355,59.885 293.379,60.341 C293.391,60.533 293.403,60.557 293.596,60.545 C293.824,60.557 294.052,60.533 294.304,60.521 C294.34,60.317 294.376,60.101 294.4,59.885 C294.412,59.728 294.412,59.56 294.4,59.404 C294.388,58.984 294.364,58.563 294.34,58.143 C294.328,57.987 294.28,57.939 294.124,57.927 C293.968,57.915 293.824,57.891 293.68,57.867 L293.613,57.865 z" fill="#5731F2"/>
      <path d="M301.499,64.508 L301.583,64.509 C301.799,64.533 302.015,64.569 302.231,64.557 C302.459,64.557 302.676,64.617 302.856,64.737 C302.976,64.821 303.084,64.941 303.18,65.049 C303.348,65.229 303.492,65.422 303.661,65.602 C303.709,65.662 304.285,66.262 304.345,66.31 C304.501,66.43 304.621,66.575 304.681,66.767 C304.742,66.971 304.681,67.043 304.477,67.067 C304.237,67.091 303.985,67.139 303.673,67.187 C303.504,67.139 303.264,67.091 303.048,67.007 C302.7,66.875 302.363,66.719 302.027,66.551 C301.739,66.406 301.499,66.19 301.318,65.914 C301.258,65.818 301.222,65.71 301.222,65.59 C301.198,65.265 301.222,64.953 301.33,64.653 C301.396,64.531 301.346,64.587 301.499,64.508 z" fill="#5731F2"/>
      <path d="M265.183,51.626 L265.322,51.657 C265.442,51.705 265.707,51.909 265.743,51.958 C266.151,52.522 266.343,52.966 266.607,53.531 C267.028,54.312 267.472,55.068 267.868,55.849 C268.097,56.293 268.277,56.774 268.457,57.242 C268.661,57.771 268.841,58.311 269.034,58.852 C269.142,59.14 269.19,59.44 269.142,59.752 C269.106,59.945 269.034,60.029 268.829,60.041 C268.613,60.053 268.397,60.065 268.181,60.065 C267.7,60.077 267.232,60.101 266.752,60.089 C266.019,60.065 265.274,60.029 264.542,59.993 C264.049,59.969 263.581,59.957 263.004,59.933 C262.464,59.957 261.827,59.993 261.179,60.029 C261.022,60.041 260.854,59.993 260.698,59.993 C260.434,59.981 260.17,59.981 259.917,59.981 C259.737,59.981 259.677,59.909 259.713,59.728 C259.725,59.668 259.749,59.62 259.773,59.572 C260.302,58.551 260.842,57.531 261.371,56.51 C261.659,55.957 261.911,55.393 262.223,54.864 C262.488,54.408 264.301,52.354 264.818,51.789 C264.996,51.636 264.882,51.705 265.183,51.626 z" fill="#5731F2"/>
      <path d="M314.375,49.417 L314.434,49.447 C314.59,49.567 314.758,49.687 314.915,49.82 C314.963,49.868 314.999,49.928 315.035,49.988 C315.095,50.084 315.155,50.18 315.203,50.276 C315.275,50.384 315.299,50.504 315.251,50.636 C315.167,50.865 315.047,51.069 314.879,51.225 C314.819,51.309 314.722,51.345 314.65,51.393 C314.506,51.309 314.362,51.237 314.218,51.153 C314.17,50.913 314.122,50.66 314.062,50.42 C313.99,50.084 314.05,49.772 314.242,49.483 C314.302,49.414 314.261,49.443 314.375,49.417 z" fill="#5731F2"/>
    </g>
  </g>
</svg>
