<?xml version="1.0" encoding="UTF-8"?>
<!DOCTYPE svg PUBLIC "-//W3C//DTD SVG 1.1//EN" "http://www.w3.org/Graphics/SVG/1.1/DTD/svg11.dtd">
<svg version="1.1" xmlns="http://www.w3.org/2000/svg" xmlns:xlink="http://www.w3.org/1999/xlink" x="0" y="0" width="2239.37" height="1088.504" viewBox="0, 0, 2239.37, 1088.504">
  <g id="Layer_1">
    <g>
      <path d="M1186.016,79.37 L1186.016,130.394 L1201.89,130.394 L1201.89,181.417 L1193.386,181.417 L1193.386,181.417 L1186.016,181.417 L1186.016,232.441 L1201.89,232.441 L1201.89,283.464 L1193.386,283.464 L1193.386,283.464 L1186.016,283.464 L1186.016,334.488 L1201.89,334.488 L1201.89,385.512 L1186.016,385.512 L1186.016,436.535 L1201.89,436.535 L1201.89,487.559 L1186.016,487.559 L1186.016,538.583 L1201.89,538.583 L1201.89,589.606 L1186.016,589.606 L1186.016,640.63 L1201.89,640.63 L1201.89,691.653 L1150.866,691.653 L1150.866,683.149 L1150.866,683.149 L1150.866,675.779 L1099.842,675.779 L1099.842,691.653 L1048.819,691.653 L1048.819,683.149 L1048.819,683.149 L1048.819,675.779 L997.795,675.779 L997.795,691.653 L946.771,691.653 L946.771,675.779 L895.748,675.779 L895.748,691.653 L844.724,691.653 L844.724,683.149 L844.724,683.149 L844.724,675.779 L793.701,675.779 L793.701,691.653 L742.677,691.653 L742.677,675.779 L691.653,675.779 L691.653,691.653 L640.63,691.653 L640.63,675.779 L589.606,675.779 L589.606,691.653 L538.583,691.653 L538.583,675.779 L487.559,675.779 L487.559,691.653 L436.535,691.653 L436.535,683.149 L436.535,683.149 L436.535,675.779 L385.512,675.779 L385.512,691.653 L334.488,691.653 L334.488,683.149 L334.488,683.149 L334.488,675.779 L283.464,675.779 L283.464,691.653 L232.441,691.653 L232.441,683.149 L232.441,683.149 L232.441,675.779 L181.417,675.779 L181.417,691.653 L130.394,691.653 L130.394,675.779 L79.37,675.779 L79.37,691.653 L28.346,691.653 L28.346,640.63 L44.22,640.63 L44.22,589.606 L28.346,589.606 L28.346,538.583 L44.22,538.583 L44.22,487.559 L28.346,487.559 L28.346,436.535 L44.22,436.535 L44.22,385.512 L28.346,385.512 L28.346,334.488 L44.22,334.488 L44.22,283.464 L36.85,283.464 L36.85,283.464 L28.346,283.464 L28.346,232.441 L44.22,232.441 L44.22,181.417 L36.85,181.417 L36.85,181.417 L28.346,181.417 L28.346,130.394 L44.22,130.394 L44.22,79.37 L28.346,79.37 L28.346,28.346 L79.37,28.346 L79.37,44.22 L130.394,44.22 L130.394,36.85 L130.395,36.85 L130.395,28.346 L181.417,28.346 L181.417,44.22 L232.441,44.22 L232.441,36.85 L232.442,36.85 L232.442,28.346 L283.465,28.346 L283.465,44.22 L334.488,44.22 L334.488,36.85 L334.489,36.85 L334.489,28.346 L385.512,28.346 L385.512,44.22 L436.535,44.22 L436.535,36.85 L436.536,36.85 L436.536,28.346 L487.559,28.346 L487.559,44.22 L538.583,44.22 L538.583,36.85 L538.583,36.85 L538.583,28.346 L589.606,28.346 L589.606,44.22 L640.63,44.22 L640.63,36.85 L640.63,36.85 L640.63,28.346 L691.653,28.346 L691.653,44.22 L742.677,44.22 L742.677,36.85 L742.678,36.85 L742.678,28.346 L793.701,28.346 L793.701,44.22 L844.724,44.22 L844.724,36.85 L844.725,36.85 L844.725,28.346 L895.748,28.346 L895.748,44.22 L946.771,44.22 L946.771,36.85 L946.772,36.85 L946.772,28.346 L997.795,28.346 L997.795,44.22 L1048.819,44.22 L1048.819,36.85 L1048.819,36.85 L1048.819,28.346 L1099.842,28.346 L1099.842,44.22 L1150.866,44.22 L1150.866,28.346 L1201.89,28.346 L1201.89,79.37 L1186.016,79.37 z" fill="#FFFFFF"/>
      <path d="M1186.016,79.37 L1186.016,130.394 L1201.89,130.394 L1201.89,181.417 L1193.386,181.417 L1193.386,181.417 L1186.016,181.417 L1186.016,232.441 L1201.89,232.441 L1201.89,283.464 L1193.386,283.464 L1193.386,283.464 L1186.016,283.464 L1186.016,334.488 L1201.89,334.488 L1201.89,385.512 L1186.016,385.512 L1186.016,436.535 L1201.89,436.535 L1201.89,487.559 L1186.016,487.559 L1186.016,538.583 L1201.89,538.583 L1201.89,589.606 L1186.016,589.606 L1186.016,640.63 L1201.89,640.63 L1201.89,691.653 L1150.866,691.653 L1150.866,683.149 L1150.866,683.149 L1150.866,675.779 L1099.842,675.779 L1099.842,691.653 L1048.819,691.653 L1048.819,683.149 L1048.819,683.149 L1048.819,675.779 L997.795,675.779 L997.795,691.653 L946.771,691.653 L946.771,675.779 L895.748,675.779 L895.748,691.653 L844.724,691.653 L844.724,683.149 L844.724,683.149 L844.724,675.779 L793.701,675.779 L793.701,691.653 L742.677,691.653 L742.677,675.779 L691.653,675.779 L691.653,691.653 L640.63,691.653 L640.63,675.779 L589.606,675.779 L589.606,691.653 L538.583,691.653 L538.583,675.779 L487.559,675.779 L487.559,691.653 L436.535,691.653 L436.535,683.149 L436.535,683.149 L436.535,675.779 L385.512,675.779 L385.512,691.653 L334.488,691.653 L334.488,683.149 L334.488,683.149 L334.488,675.779 L283.464,675.779 L283.464,691.653 L232.441,691.653 L232.441,683.149 L232.441,683.149 L232.441,675.779 L181.417,675.779 L181.417,691.653 L130.394,691.653 L130.394,675.779 L79.37,675.779 L79.37,691.653 L28.346,691.653 L28.346,640.63 L44.22,640.63 L44.22,589.606 L28.346,589.606 L28.346,538.583 L44.22,538.583 L44.22,487.559 L28.346,487.559 L28.346,436.535 L44.22,436.535 L44.22,385.512 L28.346,385.512 L28.346,334.488 L44.22,334.488 L44.22,283.464 L36.85,283.464 L36.85,283.464 L28.346,283.464 L28.346,232.441 L44.22,232.441 L44.22,181.417 L36.85,181.417 L36.85,181.417 L28.346,181.417 L28.346,130.394 L44.22,130.394 L44.22,79.37 L28.346,79.37 L28.346,28.346 L79.37,28.346 L79.37,44.22 L130.394,44.22 L130.394,36.85 L130.395,36.85 L130.395,28.346 L181.417,28.346 L181.417,44.22 L232.441,44.22 L232.441,36.85 L232.442,36.85 L232.442,28.346 L283.465,28.346 L283.465,44.22 L334.488,44.22 L334.488,36.85 L334.489,36.85 L334.489,28.346 L385.512,28.346 L385.512,44.22 L436.535,44.22 L436.535,36.85 L436.536,36.85 L436.536,28.346 L487.559,28.346 L487.559,44.22 L538.583,44.22 L538.583,36.85 L538.583,36.85 L538.583,28.346 L589.606,28.346 L589.606,44.22 L640.63,44.22 L640.63,36.85 L640.63,36.85 L640.63,28.346 L691.653,28.346 L691.653,44.22 L742.677,44.22 L742.677,36.85 L742.678,36.85 L742.678,28.346 L793.701,28.346 L793.701,44.22 L844.724,44.22 L844.724,36.85 L844.725,36.85 L844.725,28.346 L895.748,28.346 L895.748,44.22 L946.771,44.22 L946.771,36.85 L946.772,36.85 L946.772,28.346 L997.795,28.346 L997.795,44.22 L1048.819,44.22 L1048.819,36.85 L1048.819,36.85 L1048.819,28.346 L1099.842,28.346 L1099.842,44.22 L1150.866,44.22 L1150.866,28.346 L1201.89,28.346 L1201.89,79.37 L1186.016,79.37 z" fill-opacity="0" stroke="#000000" stroke-width="1"/>
    </g>
    <g id="logo">
      <path d="M613.937,389.664 C614.798,389.664 615.658,389.664 616.496,389.736 C617.141,389.784 617.786,389.832 618.432,390.047 C618.79,390.166 618.981,390.573 619.053,390.907 C619.101,391.217 619.197,391.504 619.268,391.816 C619.292,391.959 619.292,392.055 619.101,392.15 C618.598,392.15 618.097,392.15 617.594,392.174 C617.332,392.174 617.07,392.222 616.806,392.269 C616.735,392.269 615.396,392.365 614.822,392.342 C614.057,392.317 613.292,392.365 612.504,392.389 C611.858,392.413 611.213,392.485 610.567,392.485 C610.232,392.485 609.874,392.556 609.54,392.556 C609.109,392.556 608.918,392.556 608.463,392.556 C607.723,392.485 607.126,392.317 607.078,391.624 C607.053,391.17 607.126,390.691 607.197,390.215 C607.221,389.951 607.556,389.76 607.891,389.736 C608.201,389.736 608.511,389.736 608.846,389.736 C608.822,389.689 610.806,389.664 611.787,389.664 L613.937,389.664 z" fill="#5731F2"/>
      <path d="M634.901,389.712 C635.475,389.712 636.885,389.928 637.052,389.951 C637.291,389.951 637.434,390.094 637.482,390.286 C637.554,390.716 637.625,391.146 637.65,391.6 C637.673,392.055 637.602,392.055 637.243,392.126 C636.311,392.317 635.379,392.461 634.423,392.413 C633.681,392.389 632.941,392.413 632.224,392.413 C631.769,392.413 631.291,392.365 630.837,392.365 C630.455,392.365 627.777,392.413 627.251,392.485 C627.132,392.508 626.63,392.437 626.511,392.437 C625.937,392.437 625.363,392.461 624.766,392.485 C624.407,392.485 623.977,391.552 623.906,391.433 C623.69,390.62 623.906,390.573 624.12,390.166 C624.288,389.855 624.55,389.808 624.862,389.832 C625.292,389.855 625.722,389.88 626.176,389.88 C626.367,389.88 629.594,389.712 629.977,389.712 L634.901,389.712 z" fill="#5731F2"/>
      <path d="M643.028,389.473 C643.889,389.497 644.725,389.521 645.586,389.545 C645.944,389.569 646.303,389.593 646.661,389.593 C647.33,389.593 647.976,389.616 648.646,389.569 C649.338,389.521 650.008,389.712 650.701,389.712 C651.538,389.712 652.398,389.808 653.235,389.88 C653.976,389.903 654.478,390.047 655.052,390.477 C655.147,390.62 655.17,390.692 655.147,390.955 C655.147,391.217 655.075,391.552 654.908,391.696 C654.549,392.007 654.12,392.198 653.594,392.222 C651.513,392.246 649.459,392.365 647.378,392.342 C646.255,392.342 645.131,392.126 643.985,392.007 C643.554,391.959 643.124,391.935 642.694,391.911 C642.359,391.887 642.12,391.743 641.976,391.481 C641.929,391.385 641.929,391.242 641.929,391.122 C641.929,391.051 642.072,390.166 642.263,389.832 C642.43,389.521 642.717,389.473 643.028,389.473 z" fill="#5731F2"/>
      <path d="M664.948,389.273 C665.244,389.278 665.125,389.274 665.306,389.282 C665.784,389.329 666.262,389.377 666.764,389.425 C667.386,389.497 668.008,389.521 668.605,389.616 C669.226,389.712 669.561,390.334 669.322,390.955 C669.274,391.122 669.274,391.29 669.202,391.457 C669.01,391.791 668.222,391.864 667.912,391.959 C667.027,392.126 666.669,392.198 666.047,392.15 C665.975,392.15 665.904,392.126 665.856,392.126 C664.923,392.055 662.27,391.768 662.008,391.743 C661.721,391.72 661.434,391.696 661.147,391.72 C660.86,391.72 660.573,391.791 660.286,391.791 C659.713,391.791 659.162,391.743 658.59,391.72 C658.542,391.72 658.494,391.696 658.446,391.672 C658.135,391.504 657.848,390.812 657.92,390.406 C658.016,389.903 658.278,389.616 658.781,389.569 C659.904,389.497 661.027,389.425 662.079,389.354 C663.034,389.292 663.991,389.277 664.948,389.273 z" fill="#5731F2"/>
      <path d="M592.257,389.377 C593.213,389.402 594.17,389.45 595.126,389.497 C595.461,389.521 595.795,389.545 596.105,389.545 C596.87,389.593 597.683,389.521 598.425,389.689 C599.476,389.928 600.504,389.832 601.556,389.903 C602.105,389.928 602.321,390.787 602.369,390.978 C602.392,391.146 602.417,391.313 602.417,391.481 C602.417,391.839 602.369,391.887 601.986,391.911 C601.579,391.911 601.174,391.911 600.743,391.935 C600.432,391.959 600.145,392.007 599.835,392.007 C599.045,392.007 598.257,391.959 597.469,391.959 C596.417,391.959 595.365,392.007 594.288,392.007 C594.122,392.007 593.954,391.959 593.787,391.959 C593.644,391.959 593.5,391.959 593.357,391.959 C592.831,391.982 592.305,391.935 591.97,391.433 C591.922,391.361 591.899,391.242 591.875,391.146 C591.827,390.787 591.779,390.452 591.708,390.094 C591.612,389.689 591.851,389.354 592.257,389.377 z" fill="#5731F2"/>
      <path d="M582.562,389.351 L582.672,389.354 C583.342,389.402 583.987,389.354 584.656,389.377 C585.11,389.377 585.564,389.354 585.995,389.45 C586.473,389.568 586.783,390.261 586.64,390.764 C586.616,390.883 586.592,391.003 586.544,391.098 C586.377,391.624 585.995,391.816 585.444,391.768 C584.799,391.72 584.154,391.791 583.508,391.816 C583.103,391.816 582.696,391.816 582.265,391.816 C582.003,391.816 579.111,391.696 578.895,391.696 C578.656,391.696 575.692,391.433 575.381,391.409 C574.951,391.361 574.569,390.835 574.497,390.525 C574.377,389.975 574.521,389.808 575.118,389.736 C575.644,389.712 576.194,389.641 576.959,389.545 C577.556,389.545 578.346,389.545 579.159,389.545 C580.294,389.496 581.425,389.386 582.562,389.351 z" fill="#5731F2"/>
      <path d="M564.519,389.228 L564.768,389.234 C565.891,389.258 567.015,389.282 568.138,389.329 C568.234,389.329 568.402,389.45 568.402,389.521 C568.425,389.88 568.425,390.215 568.377,390.573 C568.354,390.835 568.138,390.955 567.876,391.003 C567.446,391.074 566.991,391.17 566.56,391.217 C565.963,391.29 565.366,391.338 564.768,391.385 C563.668,391.481 562.545,391.552 561.446,391.696 C560.49,391.839 559.581,391.816 558.697,391.456 C558.338,391.313 558.194,391.146 558.194,390.739 C558.171,389.928 558.529,389.497 559.342,389.329 C559.581,389.282 559.82,389.306 560.059,389.306 C561.04,389.306 562.019,389.306 562.976,389.306 C562.993,389.3 563.01,389.29 563.028,389.288 C563.523,389.228 564.023,389.233 564.519,389.228 z" fill="#5731F2"/>
      <path d="M643.886,382.654 L645.083,382.66 C646.231,382.66 647.355,382.756 648.478,382.828 C649.147,382.851 649.84,382.899 650.509,382.947 C651.442,382.995 652.398,383.067 653.33,383.115 C654.12,383.163 654.908,383.211 655.696,383.282 C656.629,383.354 657.538,383.473 658.469,383.569 C659.258,383.641 662.174,383.689 662.964,383.736 C663.823,383.808 666.047,383.808 666.382,383.88 C667.027,383.999 667.099,383.999 668.318,384.142 C669.154,384.286 669.704,384.693 669.848,385.504 C669.848,385.577 669.871,385.624 669.896,385.696 C669.967,386.007 669.8,386.222 669.465,386.198 C669.106,386.174 668.724,386.174 668.366,386.126 C667.768,386.055 667.147,385.982 666.549,385.911 C666.118,385.864 665.713,385.816 665.282,385.791 C664.326,385.745 663.37,385.72 662.413,385.672 C662.151,385.649 661.912,385.672 661.673,385.672 C661.314,385.696 660.023,385.624 659.76,385.624 C657.968,385.6 653.259,385.41 652.685,385.41 C651.705,385.385 650.7,385.362 649.721,385.362 C649.315,385.362 644.725,385.504 644.39,385.529 C643.673,385.553 642.956,385.577 642.216,385.577 C641.808,385.577 638.821,385.481 638.295,385.458 C637.673,385.433 637.052,385.385 636.43,385.362 C636.168,385.362 633.968,385.29 633.825,385.314 C632.151,385.338 627.251,385.504 626.463,385.6 C626.128,385.624 622.997,385.816 622.519,385.887 C621.945,385.959 621.371,386.007 620.798,386.055 C620.774,386.055 620.75,386.055 620.75,386.055 C619.985,386.103 619.22,386.15 618.455,386.15 C618.097,386.15 608.44,386.413 607.866,386.413 C607.34,386.413 606.074,386.389 605.954,386.389 C604.831,386.342 603.706,386.317 602.583,386.269 C602.417,386.269 600.432,386.055 599.619,386.078 C599.189,386.103 596.392,385.959 595.579,385.982 C595.078,385.982 594.575,385.982 594.074,385.982 C593.668,385.982 589.818,385.768 589.246,385.791 C588.768,385.791 587.62,385.72 587.5,385.72 C587.19,385.72 580.496,385.816 580.448,385.84 C580.043,385.864 575.62,385.768 575.213,385.816 C574.593,385.887 570.768,386.03 570.267,386.222 C570.051,386.294 569.812,386.294 569.597,386.317 C569.119,386.365 564.984,386.581 564.649,386.604 C564.171,386.629 559.606,387.059 558.816,387.034 C558.099,386.939 557.454,386.629 556.808,386.317 C556.593,386.222 555.662,385.481 555.494,384.932 C555.422,384.645 555.422,384.573 555.494,384.429 C555.662,384.167 555.828,384.142 556.092,384.142 C557.047,384.094 559.199,383.976 560.155,383.928 C560.872,383.903 563.907,383.976 564.529,383.976 C565.175,383.976 567.876,383.928 568.593,383.855 C569.023,383.808 569.454,383.784 569.884,383.736 C571.795,383.521 576.529,383.521 577.007,383.497 C577.915,383.45 578.847,383.425 579.756,383.377 C580.377,383.354 584.585,383.545 585.23,383.545 C585.253,383.545 585.277,383.545 585.325,383.545 C586.735,383.521 588.122,383.497 589.532,383.497 C590.201,383.497 590.87,383.545 591.516,383.545 C592.496,383.521 593.477,383.473 594.456,383.425 C594.814,383.402 595.197,383.377 595.556,383.377 C596.512,383.329 597.444,383.282 598.4,383.258 C599.332,383.258 600.288,383.282 601.221,383.306 C602.105,383.329 602.99,383.329 603.874,383.354 C604.687,383.377 605.5,383.425 606.313,383.473 C606.671,383.497 607.005,383.521 607.365,383.521 C608.415,383.545 609.467,383.569 610.544,383.569 C611.404,383.569 612.265,383.545 613.101,383.521 C613.841,383.497 614.607,383.402 615.348,383.354 C615.419,383.354 615.492,383.354 615.539,383.354 C616.184,383.329 616.854,383.329 617.499,383.306 C618.193,383.282 618.91,383.234 619.602,383.186 C620.415,383.138 621.253,383.09 622.064,383.067 C622.901,383.043 623.714,383.019 624.55,382.995 C624.981,382.971 625.436,382.947 625.866,382.947 C626.869,382.947 627.873,382.995 628.901,382.995 C629.858,382.995 630.814,382.947 631.793,382.947 C632.056,382.947 632.295,382.995 632.558,382.995 C633.61,382.971 634.662,382.924 635.714,382.876 C636.455,382.851 637.22,382.804 637.96,382.756 C638.75,382.732 639.515,382.708 640.303,382.708 C642.295,382.674 641.101,382.693 643.886,382.654 z" fill="#5731F2"/>
      <path d="M662.615,337.086 C662.933,337.129 662.808,337.069 663.012,337.221 C663.704,337.913 664.039,338.703 663.8,339.706 C663.752,339.945 663.728,340.208 663.68,340.447 C663.6,340.838 663.451,340.918 663.072,340.948 L663.06,340.973 C662.939,341.356 662.868,341.738 662.725,342.121 C662.581,342.527 662.079,344.152 662.008,344.583 C661.935,345.156 661.864,345.706 661.792,346.279 C661.769,346.518 661.744,346.757 661.721,347.021 C661.696,347.308 661.338,352.591 661.409,352.782 C661.409,352.782 661.601,353.163 661.673,352.782 C661.864,351.587 662.342,348.24 662.581,347.092 C662.892,345.945 663.513,344.558 664.039,343.531 C664.422,342.766 664.875,342.001 665.282,341.26 C665.306,341.212 665.306,341.165 665.33,341.14 C665.617,341.308 665.904,341.451 666.191,341.618 C665.808,342.408 665.449,343.221 665.019,343.986 C664.588,344.726 664.23,345.491 663.967,346.304 C663.877,346.58 663.777,346.853 663.693,347.131 C663.972,347.227 663.854,347.221 664.039,347.212 C664.419,347.082 664.182,347.167 664.745,346.945 C664.927,346.613 665.085,346.268 665.282,345.945 C666.047,344.822 666.023,344.558 666.549,343.986 C666.956,343.555 667.361,343.125 667.816,342.718 C668.21,342.375 668.64,342.073 669.057,341.758 C669.013,341.624 668.911,341.524 668.844,341.404 C668.58,340.591 668.915,340.136 669.345,339.562 C669.715,339.101 670.233,339.144 670.77,339.128 C671.467,339.307 671.196,339.181 671.617,339.42 C671.736,339.514 671.856,339.849 671.952,339.969 C671.975,340.375 671.712,340.758 671.64,340.973 C671.378,341.308 671.066,341.69 670.684,341.882 C670.392,342.055 670.04,342.042 669.713,342.048 C669.4,342.549 669.569,342.301 669.202,342.79 C668.413,343.626 666.334,346.71 666.334,346.853 L666.312,346.912 C666.623,347.319 666.458,347.114 666.812,347.522 C667.099,347.834 667.243,348.169 667.338,348.574 C667.482,349.171 667.673,349.77 667.84,350.391 L667.772,350.562 C667.826,350.443 667.794,350.515 667.864,350.343 C668.413,349.267 668.844,348.121 669.178,346.949 C669.426,345.94 669.311,346.439 669.524,345.452 L669.513,345.419 C669.489,344.917 669.584,344.415 669.896,343.986 C670.206,343.555 671.114,343.268 671.473,343.626 C671.569,343.722 671.665,343.89 671.64,343.986 C671.592,344.319 671.521,344.678 671.353,344.965 C671.234,345.204 670.947,345.348 670.732,345.514 C670.574,345.685 670.653,345.605 670.493,345.756 C670.45,346.668 670.127,347.531 669.823,348.383 C669.625,348.947 669.436,349.515 669.259,350.086 C669.231,350.179 669.113,350.513 669.107,350.671 C669.774,349.806 669.432,350.243 670.135,349.363 C670.493,348.932 670.852,348.479 671.234,348.073 C671.33,347.953 671.521,347.882 671.688,347.882 C672.31,347.857 672.883,347.953 673.385,348.36 C673.576,348.527 673.863,348.622 674.079,348.766 C674.461,349.005 674.605,349.363 674.628,349.793 C674.652,350.08 674.723,350.367 674.796,350.654 C674.796,350.893 674.796,351.156 674.796,351.395 C674.532,352.065 674.293,352.734 673.983,353.379 C673.719,353.928 673.361,354.431 673.05,354.932 C672.669,355.554 672.286,356.175 671.856,356.749 C671.544,357.179 671.187,357.586 670.804,357.969 C670.087,358.733 669.417,359.546 668.819,360.383 C668.748,360.479 668.676,360.55 668.58,360.622 C668.605,360.311 668.509,360.072 668.27,359.88 C667.841,359.587 668.096,359.747 667.493,359.428 C667.798,359.635 667.973,359.77 668.245,359.976 C668.484,360.144 668.58,360.406 668.557,360.718 C668.413,360.861 668.293,361.028 668.151,361.171 C667.887,361.483 667.648,361.77 667.218,361.865 C666.979,361.913 666.788,362.08 666.573,362.223 C666.105,362.553 665.554,362.693 664.998,362.772 C664.999,362.814 664.997,362.781 665.019,362.868 C665.426,363.49 665.617,364.183 665.688,364.901 C665.713,365.235 665.784,365.546 665.784,365.88 C665.784,366.358 665.736,366.861 665.736,367.338 C665.736,367.673 665.856,367.984 665.831,368.319 C665.784,368.988 665.688,369.657 665.617,370.302 C665.569,370.78 665.521,371.283 665.497,371.761 C665.473,372.119 665.449,372.454 665.426,372.908 C665.665,372.741 665.856,372.621 666.023,372.502 C666.812,371.88 667.577,371.235 668.389,370.614 C668.963,370.183 669.584,369.849 670.326,369.92 C670.779,369.968 671.187,370.088 671.521,370.422 C671.665,370.541 671.712,370.685 671.64,370.901 C671.497,371.259 671.33,371.498 670.995,371.737 C670.158,372.263 669.393,372.884 668.628,373.506 C667.768,374.175 667.051,375.036 666.095,375.585 C665.999,375.633 665.569,375.92 665.282,375.944 C665.091,376.518 664.9,377.091 664.756,377.664 C664.661,377.999 664.636,378.358 664.588,378.716 C664.517,379.433 664.493,380.175 664.397,380.892 C664.349,381.179 664.11,381.442 663.967,381.704 C663.823,381.967 663.657,382.015 663.37,381.943 C662.868,381.8 662.342,381.776 661.864,381.633 C661.553,381.537 661.266,381.369 660.979,381.226 C659.975,380.724 659.162,379.984 658.278,379.314 C657.968,379.075 657.729,378.716 657.465,378.406 C657.155,378.023 656.796,377.664 656.557,377.259 C656.222,376.66 655.96,376.04 655.696,375.394 C655.601,375.179 655.792,374.963 656.031,375.011 C656.653,375.131 657.251,375.298 657.729,375.705 C658.613,376.422 659.474,377.163 660.357,377.88 C660.74,378.19 661.122,378.477 661.529,378.764 C661.769,378.932 661.888,378.884 661.935,378.621 C662.031,378.071 662.079,377.521 662.174,376.972 C662.247,376.422 662.342,375.849 662.438,375.298 C662.509,374.797 662.581,374.294 662.629,373.793 C662.7,373.075 662.773,372.358 662.844,371.617 C662.844,371.522 662.844,371.427 662.844,371.331 C662.892,368.845 662.916,366.383 662.964,363.897 C662.964,363.681 663.131,363.49 663.226,363.298 L663.431,362.853 C662.629,362.951 661.946,362.557 661.362,362.056 C661.195,361.913 661.17,361.913 661.051,361.745 C660.671,361.385 660.834,361.577 660.552,361.172 C659.437,360.671 658.423,359.982 657.442,359.259 C656.916,358.853 656.509,358.302 656.056,357.801 C655.816,357.539 655.601,357.227 655.362,356.965 C654.812,356.391 654.573,355.649 654.215,354.98 C653.928,354.431 653.665,353.88 653.498,353.283 C653.33,352.782 653.307,352.231 653.235,351.705 C653.211,351.562 653.282,351.371 653.378,351.227 C653.617,350.845 653.952,350.582 654.43,350.462 C654.788,350.367 655.147,350.223 655.482,350.08 C656.268,349.802 655.789,349.934 656.941,349.781 L657.442,349.841 C658.016,349.961 658.59,350.104 659.162,350.248 C659.545,350.343 659.76,350.654 659.927,350.988 C660.023,351.18 660.143,351.395 660.239,351.587 L660.367,351.815 C660.37,351.4 660.377,351.58 660.357,351.275 C660.43,350.08 660.43,350.08 660.501,349.148 C660.501,349.124 660.573,348.121 660.621,347.618 C660.669,346.949 660.86,346.065 660.979,345.419 C661.147,344.487 661.362,343.77 661.577,342.838 C661.983,341.93 661.983,341.93 662.294,341.236 C662.366,341.044 662.413,340.878 662.486,340.686 C662.621,340.63 662.567,340.658 662.651,340.61 C662.575,340.623 662.632,340.612 662.486,340.662 C661.935,340.495 661.744,340.088 661.792,339.562 C661.84,338.99 661.864,338.439 661.983,337.89 C662.055,337.603 662.294,337.364 662.509,337.148 L662.615,337.086 z M663.538,348.048 C663.465,348.551 663.417,349.052 663.37,349.554 L663.538,348.048 z" fill="#5731F2"/>
      <path d="M645.752,327.443 C646.159,327.539 646.613,327.539 647.043,327.539 C648.072,327.85 648.717,328.639 649.386,329.404 C649.578,329.62 649.769,329.857 650.008,330.002 C650.461,330.288 650.629,330.743 650.773,331.221 C650.964,331.961 651.083,332.726 651.06,333.491 C651.06,333.707 651.107,333.898 651.107,334.113 C651.155,335.26 650.964,336.383 650.557,337.46 C650.39,337.89 650.414,337.938 650.821,338.104 C651.299,338.296 651.8,338.416 652.303,338.607 C652.613,338.726 652.9,338.917 653.235,339.037 C653.642,339.18 654.047,339.275 654.453,339.395 C654.908,339.539 655.291,339.778 655.577,340.184 C655.721,340.375 655.912,340.543 656.103,340.71 C656.534,341.092 656.796,341.57 656.964,342.096 C657.203,342.838 657.394,343.555 657.586,344.296 C657.657,344.558 657.633,344.845 657.586,345.084 C657.06,346.279 655.123,346.997 654.669,347.212 C654.215,347.57 653.689,347.809 653.116,347.905 C652.494,348.025 651.896,348.169 651.274,348.24 C650.509,348.311 649.792,348.073 649.076,347.857 C649.052,347.857 649.028,347.857 648.98,347.857 C648.12,347.404 647.235,346.925 646.351,346.447 C646.326,346.543 646.326,346.566 646.326,346.614 L646.329,346.632 C646.331,346.567 646.327,346.614 646.351,346.495 C647.235,346.973 648.12,347.427 648.98,347.905 C649.028,348.383 649.076,348.837 649.099,349.315 C649.124,350.032 649.124,350.749 649.172,351.466 C649.219,352.017 649.315,352.566 649.386,353.117 C649.434,353.475 649.434,353.857 649.459,354.215 C649.482,354.932 649.506,355.649 649.53,356.391 C649.53,356.439 649.53,356.462 649.554,356.582 C649.673,356.462 649.769,356.391 649.817,356.296 C650.39,355.148 651.394,354.622 652.59,354.383 C652.829,354.335 653.068,354.526 653.068,354.789 C653.068,355.339 653.068,355.865 652.829,356.367 C652.685,356.678 652.685,357.036 652.565,357.371 C652.064,358.709 651.131,359.57 649.721,359.88 C649.506,359.928 649.243,360.358 649.267,360.597 C649.363,361.291 649.434,361.984 649.506,362.677 C649.554,363.107 649.625,363.537 649.673,363.968 C649.673,364.04 649.721,364.088 649.864,364.255 C649.96,364.088 650.079,363.92 650.175,363.776 C650.844,362.845 651.8,362.294 652.804,361.841 C652.948,361.793 653.116,361.793 653.259,361.793 C653.45,361.793 653.521,361.961 653.521,362.128 C653.521,362.367 653.546,362.581 653.521,362.82 C653.498,362.964 653.403,363.107 653.307,363.203 C652.422,364.207 651.299,364.901 650.079,365.427 C649.84,365.522 649.769,365.666 649.769,365.905 C649.817,367.123 649.84,368.366 649.888,369.585 C649.912,370.015 649.96,370.422 650.008,370.948 C650.342,370.685 650.629,370.47 650.892,370.254 C651.586,369.657 652.255,369.036 652.995,368.462 C653.307,368.223 653.689,367.936 654.143,367.959 C654.358,367.959 654.573,367.984 654.788,368.032 C655.099,368.08 655.314,368.462 655.362,368.845 C655.434,369.585 655.147,370.159 654.526,370.589 C654.143,370.853 653.808,371.187 653.403,371.379 C652.494,371.785 651.538,372.167 650.486,372.024 C650.366,371.999 650.27,371.999 650.103,371.951 C650.127,372.429 650.151,372.884 650.199,373.362 C650.247,373.912 650.342,374.438 650.414,374.988 C650.509,375.633 650.582,376.278 650.677,376.924 C650.821,377.832 651.012,378.741 651.083,379.649 C651.107,379.984 650.964,380.437 650.748,380.677 C650.486,380.963 650.056,381.107 649.673,381.25 C649.459,381.321 649.195,381.274 649.028,381.059 C648.86,380.82 648.669,380.558 648.573,380.294 C648.382,379.697 648.263,379.051 648.095,378.454 C647.881,377.689 647.594,376.947 647.378,376.182 C647.235,375.633 647.139,375.084 647.02,374.533 C646.877,373.84 646.733,373.147 646.59,372.477 C646.446,371.785 646.278,371.067 646.112,370.375 C646.112,370.327 646.064,370.063 646.016,369.537 C646.016,369.537 645.896,368.772 645.8,368.103 C645.752,367.816 645.586,367.697 645.394,367.554 C645.227,367.434 645.012,367.41 644.821,367.362 C644.606,367.315 643.243,366.718 643.052,366.574 C642.741,366.335 642.382,366.144 642.024,365.976 C641.091,365.57 640.255,365.044 639.729,364.136 C639.515,363.753 639.419,363.323 639.49,362.845 C639.562,362.367 639.729,361.913 639.945,361.506 C640.064,361.267 640.328,361.171 640.542,361.244 C641.235,361.435 641.904,361.674 642.598,361.913 C642.813,361.984 642.981,362.2 643.172,362.367 C643.578,362.749 643.937,363.132 644.343,363.514 C644.654,363.801 644.989,364.063 645.155,364.47 C645.179,364.566 645.274,364.637 645.394,364.757 C645.418,364.589 645.442,364.518 645.442,364.423 C645.442,363.227 645.442,362.009 645.442,360.813 C645.442,360.55 645.347,360.383 645.06,360.335 C644.343,360.215 643.625,360.119 642.885,360 C642.55,359.953 642.239,359.857 641.904,359.832 C641.283,359.761 640.685,359.57 640.112,359.307 C639.395,358.972 639.108,358.375 638.989,357.658 C638.941,357.323 638.869,356.988 638.845,356.654 C638.845,356.558 638.941,356.414 639.012,356.391 C640.9,355.889 642.646,356.2 644.224,357.347 C644.606,357.633 644.941,357.969 645.131,358.423 C645.155,358.518 645.227,358.589 645.347,358.757 C645.394,358.566 645.418,358.47 645.418,358.35 C645.418,356.367 645.418,354.383 645.418,352.423 C645.49,351.801 645.418,351.252 645.37,350.701 C645.418,350.63 645.442,350.558 645.49,350.51 C645.923,349.966 646.28,349.339 646.338,348.631 C646.248,349.315 645.876,349.912 645.49,350.462 C645.442,350.51 645.418,350.582 645.37,350.654 C644.941,351.108 644.511,351.562 644.08,352.017 C643.363,352.782 642.455,353.236 641.498,353.618 C641.116,353.785 640.733,354.024 640.328,354.096 C639.419,354.24 638.511,354.479 637.578,354.358 C636.43,354.24 635.355,353.928 634.519,353.044 C633.681,352.184 633.276,351.18 633.395,349.961 C633.467,349.219 633.729,348.502 634.28,347.977 C635.14,347.14 636,346.304 636.885,345.491 C637.673,344.774 638.511,344.081 639.323,343.387 C639.395,343.316 639.49,343.244 639.538,343.173 C639.61,343.053 639.61,342.909 639.442,342.886 C638.725,342.766 638.008,342.647 637.291,342.527 C636.502,342.408 635.714,342.288 634.949,342.192 C633.945,342.24 632.511,341.953 631.65,340.639 C631.626,340.017 631.626,340.017 631.793,339.778 C632.343,339.037 632.869,338.296 633.49,337.603 C634.089,336.957 634.758,336.383 635.523,335.953 C636.024,335.666 636.574,335.666 637.124,335.57 C637.386,335.523 637.65,335.499 637.912,335.523 C638.151,335.523 638.367,335.57 638.606,335.643 C639.562,335.857 640.542,336.096 641.498,336.335 C641.642,336.383 641.808,336.456 641.952,336.503 C642.239,336.622 642.407,336.503 642.359,336.192 C642.168,334.949 641.976,333.73 641.808,332.487 C641.737,331.961 641.69,331.435 641.761,330.934 C641.833,330.551 642.095,330.192 642.334,329.882 C642.933,329.069 643.769,328.52 644.629,328.065 C645.012,327.874 645.37,327.659 645.752,327.443 z M646.338,346.742 C646.343,346.795 646.338,346.768 646.349,346.821 L646.338,346.742 z" fill="#5731F2"/>
      <path d="M564.326,359.991 L566.131,360 C566.155,360.072 570.887,360.144 573.23,360.192 C573.924,360.192 574.521,360.406 575.118,360.622 C575.19,360.645 575.286,360.741 575.31,360.813 C575.621,362.294 575.429,366.645 575.429,366.718 C575.429,367.697 575.477,368.677 575.429,369.633 C575.334,372.406 575.214,375.179 575.07,377.951 C575.047,378.525 574.951,379.099 574.88,379.649 C574.832,380.079 574.569,380.342 574.138,380.414 C573.398,380.558 572.633,380.676 571.868,380.749 C570.887,380.843 569.907,380.868 568.928,380.916 C568.617,380.939 568.617,380.916 568.641,380.581 C568.689,379.911 568.664,379.267 568.712,378.597 C568.808,377.45 568.951,376.302 569.047,375.155 C569.119,374.294 569.119,373.41 569.119,372.549 C569.119,371.545 569.095,370.566 569.071,369.562 C569.047,368.94 568.832,368.701 568.211,368.653 C566.92,368.533 565.653,368.414 564.362,368.294 C564.219,368.271 564.076,368.246 563.932,368.223 C563.525,368.127 563.263,368.294 563.215,368.701 C563.071,370.375 562.928,372.047 562.808,373.72 C562.664,375.801 562.521,377.856 562.378,379.936 C562.354,380.151 562.354,380.366 562.306,380.581 C562.234,380.963 562.138,381.034 561.756,381.059 C560.681,381.107 559.629,380.939 558.577,380.676 C558.267,380.605 557.955,380.533 557.669,380.437 C557.238,380.319 557.143,380.223 557.143,379.793 C557.167,378.263 557.119,376.708 557.215,375.179 C557.311,373.672 557.071,372.19 557.095,370.685 C557.119,368.988 557.119,367.291 557.19,365.593 C557.238,363.968 557.334,362.319 557.406,360.693 C557.43,360.263 557.477,360.192 557.908,360.167 C559.438,360.096 560.992,360.024 562.521,360 L564.326,359.991 z" fill="#5731F2"/>
      <path d="M592.183,335.496 C592.594,335.678 592.424,335.573 592.712,335.786 C594.671,337.364 596.488,339.084 598.161,340.949 C601.101,344.223 603.993,347.522 606.814,350.917 C607.34,351.539 607.866,352.184 608.392,352.83 C608.607,353.092 608.607,353.188 608.367,353.403 C608.033,353.689 607.675,353.953 607.34,354.24 C607.269,354.311 607.173,354.431 607.173,354.526 C607.005,356.51 606.839,358.494 606.719,360.502 C606.623,362.2 606.575,363.872 606.479,365.57 C606.456,365.832 606.408,366.071 606.384,366.335 C606.265,367.481 606.145,368.653 606.049,369.801 C605.882,371.522 605.762,373.267 605.571,374.988 C605.428,376.278 605.189,377.545 604.997,378.836 C604.974,379.075 604.854,379.194 604.591,379.194 C604.089,379.242 600.026,379.242 599.428,379.314 C599.236,379.338 594.791,379.529 594.288,379.601 C593.93,379.649 592.712,379.649 592.473,379.672 C591.899,379.72 591.325,379.793 590.775,379.888 C590.44,379.936 588.577,380.271 588.146,380.294 C587.644,380.319 587.165,380.437 586.664,380.462 C586.114,380.485 583.174,380.39 582.265,380.437 C581.739,380.462 581.644,380.414 581.596,379.888 C581.477,378.764 581.381,377.641 581.238,376.541 C581.094,375.537 580.951,374.51 580.712,373.529 C580.496,372.645 580.448,371.761 580.521,370.876 C580.64,369.466 580.735,368.032 580.855,366.622 C580.879,366.215 580.951,365.832 580.951,365.427 C580.951,364.828 580.903,364.255 580.927,363.658 C580.951,362.294 580.974,360.932 580.999,359.57 C580.999,359.331 580.999,359.092 581.022,358.853 C581.047,358.566 580.903,358.398 580.664,358.35 C579.731,358.184 578.92,357.729 578.082,357.347 C577.724,357.179 577.39,357.036 577.055,356.845 C576.839,356.726 576.648,356.558 576.504,356.367 C576.338,356.175 576.313,355.961 576.457,355.722 C577.151,354.622 577.843,353.522 578.513,352.423 C579.899,350.175 581.668,348.24 583.174,346.113 C584.082,344.845 585.205,343.77 585.995,342.431 C586.282,341.953 586.664,341.523 587.022,341.092 C587.333,340.71 587.668,340.375 587.978,339.993 C588.003,339.969 588.003,339.945 588.026,339.945 C588.504,339.826 588.6,339.348 588.863,339.013 C589.174,338.607 589.556,338.225 589.866,337.818 C590.153,337.46 590.417,337.1 590.704,336.742 C590.918,336.456 591.157,336.169 591.396,335.905 C591.711,335.556 591.736,335.535 592.183,335.496 z M599.96,358.754 C599.873,358.754 599.794,358.798 599.715,358.828 C599.643,358.876 599.596,358.972 599.571,359.044 C599.548,359.402 599.523,359.785 599.548,360.144 C599.548,360.55 599.596,360.98 599.619,361.387 C599.643,362.39 599.38,363.371 599.548,364.375 C599.548,364.423 599.548,364.494 599.548,364.541 C599.5,365.067 599.476,365.593 599.428,366.119 C599.404,366.718 599.428,367.315 599.357,367.912 C599.261,368.82 599.093,369.729 598.974,370.637 C598.926,370.972 598.926,371.306 598.902,371.641 C597.444,371.952 595.986,372.119 594.504,372.095 C593.716,372.095 592.926,372.119 592.138,372.119 C591.803,372.119 591.492,372.095 591.157,372.071 C591.086,372.071 591.014,372.047 590.966,372.071 C589.914,372.238 588.863,371.999 587.835,372.047 C587.835,372.047 587.812,372.047 587.812,372.047 C587.573,371.999 587.405,371.88 587.405,371.617 C587.381,371.235 587.357,370.828 587.309,370.446 C587.286,370.183 587.333,370.04 587.62,370.04 C587.859,370.015 587.955,369.897 587.907,369.657 C587.883,369.562 587.883,369.466 587.859,369.371 C587.691,368.797 587.668,368.199 587.644,367.602 C587.62,366.955 587.5,366.287 587.381,365.641 C587.213,364.589 587.094,363.514 586.735,362.486 C586.521,361.888 586.425,361.291 586.473,360.645 C586.521,360.119 586.425,359.928 585.947,359.714 C585.731,359.618 585.517,359.737 585.517,359.976 C585.517,360.072 585.54,360.167 585.54,360.263 C585.564,360.741 585.564,361.219 585.588,361.697 C585.588,361.888 585.54,362.104 585.612,362.294 C585.779,362.797 585.588,363.298 585.54,363.776 C585.492,364.302 585.277,364.828 585.182,365.354 C584.966,366.574 584.775,367.768 584.537,368.988 C584.345,369.992 584.297,370.972 584.392,371.976 C584.417,372.334 584.297,372.693 584.249,373.051 C584.226,373.171 584.178,373.267 584.178,373.386 C584.202,373.936 584.226,374.462 584.273,375.011 C584.321,375.442 584.345,375.442 584.799,375.394 C585.756,375.275 586.712,375.179 587.668,375.036 C589.818,374.724 591.97,374.677 594.122,374.653 C595.795,374.653 597.492,374.724 599.165,374.749 C599.906,374.772 600.648,374.749 601.365,374.749 C601.388,374.797 601.484,374.797 601.627,374.797 C601.627,374.629 601.627,374.51 601.604,374.39 C601.245,372.98 601.126,371.522 600.91,370.063 C600.671,368.414 600.384,366.789 600.145,365.14 C600.097,364.876 600.169,364.614 600.193,364.35 C600.193,364.255 600.241,364.159 600.241,364.063 C600.384,362.486 600.504,360.909 600.623,359.331 C600.623,359.188 600.6,358.972 600.504,358.876 C600.372,358.779 600.459,358.831 600.225,358.756 C600.053,358.757 600.141,358.759 599.96,358.754 z M597.851,365.953 C597.54,366.024 597.469,366.239 597.444,366.479 C597.421,366.718 597.325,366.813 597.109,366.813 C596.153,366.836 595.221,366.836 594.265,366.861 C594.074,366.861 593.883,366.884 593.668,366.884 C593.644,367.816 593.619,368.749 593.596,369.657 C593.596,369.872 593.716,369.992 593.93,370.015 C594.217,370.063 594.504,370.111 594.814,370.136 C595.771,370.207 596.727,370.255 597.708,370.302 C598.281,370.327 598.353,370.231 598.305,369.657 C598.185,368.533 598.09,367.386 597.97,366.263 C597.922,366.167 597.874,366.071 597.851,365.953 z M589.627,366.718 C589.627,366.741 589.627,366.765 589.627,366.765 C589.436,366.765 589.221,366.741 589.03,366.765 C588.791,366.789 588.624,366.861 588.648,367.171 C588.695,367.936 588.72,368.724 588.768,369.49 C588.791,369.872 588.839,369.897 589.246,369.872 C590.153,369.849 591.086,369.824 591.995,369.872 C592.544,369.897 592.616,369.897 592.568,369.346 C592.496,368.629 592.377,367.936 592.257,367.219 C592.209,366.955 592.066,366.884 591.779,366.884 C591.421,366.884 591.038,366.884 590.679,366.861 C590.321,366.836 589.962,366.765 589.627,366.718 z M596.196,359.359 C596.114,359.359 596.038,359.398 595.962,359.427 C595.771,359.522 595.579,359.593 595.388,359.666 C594.935,359.785 594.504,359.857 594.049,359.976 C593.668,360.072 593.5,360.24 593.5,360.574 C593.5,361.315 593.523,362.032 593.548,362.772 C593.548,363.059 593.739,363.203 594.026,363.155 C594.193,363.132 594.361,363.084 594.527,363.107 C595.413,363.107 596.225,363.155 597.134,363.203 C597.325,363.227 597.444,363.107 597.373,362.868 C597.182,362.009 596.966,361.148 596.775,360.287 C596.751,360.192 596.704,360.096 596.727,360.024 C596.847,359.785 596.751,359.593 596.583,359.45 L596.446,359.363 C596.284,359.363 596.368,359.364 596.196,359.359 z M588.624,360.287 C588.409,360.287 588.29,360.383 588.29,360.622 C588.313,360.861 588.29,361.123 588.29,361.387 C588.265,361.387 588.242,361.387 588.217,361.387 C588.265,361.841 588.29,362.271 588.338,362.725 C588.361,362.916 588.433,363.107 588.72,363.036 C589.508,362.82 590.297,362.677 591.134,362.82 C591.373,362.868 591.492,362.749 591.516,362.486 C591.564,361.865 591.683,361.244 591.516,360.622 C591.444,360.358 591.373,360.287 591.134,360.311 C590.392,360.311 589.652,360.311 588.91,360.311 L588.624,360.287 z M592.122,350.863 L592.042,350.965 C591.803,351.443 591.421,351.873 591.182,352.327 C590.895,352.83 589.7,354.358 589.508,354.741 C589.508,354.766 589.484,354.766 589.484,354.789 C588.839,355.649 588.17,356.51 587.525,357.371 C587.429,357.491 587.381,357.61 587.261,357.801 C587.596,357.778 587.835,357.753 588.074,357.729 C588.72,357.658 589.388,357.539 590.034,357.539 C590.679,357.539 591.301,357.658 591.947,357.682 C593.859,357.801 595.771,357.897 597.708,358.016 C597.97,358.04 598.138,357.944 598.138,357.682 C598.161,357.347 598.185,356.988 598.161,356.654 C598.161,356.582 597.97,356.439 597.874,356.439 C597.516,356.439 596.847,355.554 596.679,355.363 C596.488,355.171 596.273,355.005 596.105,354.813 C595.484,354.144 594.887,353.45 594.241,352.782 C593.644,352.16 593.022,351.562 592.425,350.965 C592.267,350.836 592.364,350.88 592.122,350.863 z" fill="#5731F2"/>
      <path d="M623.403,349.052 C623.929,349.052 626.463,349.148 627.203,349.171 C628.064,349.196 628.901,349.219 629.762,349.291 C630.336,349.339 630.933,349.458 631.507,349.578 C631.841,349.649 632.08,349.793 632.128,350.2 C632.176,350.749 632.319,351.275 632.224,351.826 C632.128,352.47 631.65,352.877 631.101,352.996 C630.766,353.067 630.431,353.067 630.049,353.14 C630.216,353.188 630.384,353.235 630.55,353.283 C630.957,353.354 631.386,353.427 631.794,353.522 C631.817,353.522 631.841,353.522 631.841,353.522 C632.319,353.641 632.511,353.928 632.582,354.263 C632.582,354.67 632.559,355.076 632.559,355.483 C632.559,355.984 632.606,356.487 632.606,356.988 C632.606,357.443 632.606,357.897 632.606,358.35 C632.63,359.57 632.63,360.765 632.677,361.984 C632.702,362.558 632.798,364.255 632.798,364.541 C632.798,364.828 632.798,365.092 632.798,365.379 C632.773,366.048 633.037,370.088 633.037,371.187 C633.012,372.836 633.037,374.485 633.037,376.135 C633.037,376.398 633.012,376.66 632.964,376.924 C632.893,377.354 632.486,377.664 632.008,377.664 C631.22,377.689 630.407,377.712 629.619,377.712 C629.02,377.737 628.399,377.76 627.802,377.76 C627.156,377.784 626.487,377.784 625.841,377.808 C624.981,377.832 624.12,377.88 623.26,377.928 C623.045,377.928 622.949,377.855 622.949,377.641 C622.949,377.641 622.949,377.616 622.949,377.616 C622.925,376.063 622.901,374.485 622.901,372.932 C622.901,372.429 622.901,371.903 622.901,371.402 C622.877,370.566 622.854,369.705 622.854,368.868 C622.854,368.366 622.829,366.789 622.781,366.478 C620.631,366.406 618.527,366.287 616.376,366.597 C616.352,366.789 616.305,367.004 616.305,367.219 C616.305,368.127 616.28,369.059 616.305,369.968 C616.328,370.924 616.376,371.88 616.4,372.836 C616.4,373.147 616.352,373.481 616.352,373.793 C616.376,374.94 616.448,376.493 616.471,377.616 C616.376,378.454 615.945,378.286 614.941,378.358 C614.01,378.215 613.101,377.976 612.145,378.023 C612.049,378.023 611.978,378.023 611.882,378.023 C611.428,377.976 611.332,377.855 611.284,377.377 C611.236,376.541 611.141,375.681 611.07,374.844 L611.07,371.426 C611.07,370.709 611.093,369.992 611.141,369.275 C611.165,368.797 611.236,364.972 611.117,364.327 C611.093,364.159 611.141,361.291 611.117,360.932 L611.117,355.267 C611.117,354.861 610.997,354.718 610.591,354.693 C610.4,354.67 610.328,354.622 610.305,354.406 C610.184,353.689 610.232,353.641 610.926,353.593 C611.643,353.546 612.361,353.45 613.101,353.379 C613.484,353.331 613.889,353.308 614.272,353.259 C614.344,353.259 614.44,353.212 614.511,353.188 C614.511,353.163 614.511,353.117 614.488,353.092 C614.249,353.092 613.985,353.092 613.746,353.092 C613.029,353.067 610.974,352.71 610.567,352.591 C609.85,352.399 609.444,351.826 609.467,351.156 C609.492,350.869 609.467,350.558 609.467,350.271 C609.467,350.223 609.467,350.152 609.467,350.104 C609.467,349.483 609.563,349.363 610.161,349.315 C610.519,349.291 610.854,349.267 611.213,349.267 C612.623,349.244 614.01,349.219 615.419,349.196 C616.232,349.171 617.045,349.171 617.858,349.148 C618.336,349.124 618.814,349.1 619.316,349.1 C619.914,349.1 622.638,349.052 623.403,349.052 z M613.118,354.786 L612.623,354.789 C612.552,354.789 612.527,355.244 612.527,355.315 C612.598,356.295 612.671,358.302 612.671,358.302 C612.671,358.733 612.646,359.14 612.671,359.57 C612.719,360.144 612.862,360.479 613.507,360.431 C613.794,360.406 614.081,360.383 614.392,360.383 C615.037,360.358 615.085,360.335 615.061,359.689 C615.061,359.57 615.061,359.45 615.061,359.306 C615.061,358.948 615.085,358.589 615.109,358.255 C615.133,357.992 615.18,357.729 615.18,357.466 C615.157,356.797 615.109,356.104 615.085,355.435 C615.061,355.076 614.966,354.861 614.607,354.837 C613.79,354.773 614.287,354.801 613.118,354.786 z M629.713,354.458 C629.197,354.474 629.42,354.468 629.045,354.479 C628.854,354.479 628.686,354.502 628.494,354.502 C628.255,354.479 628.016,354.598 627.968,354.837 C627.921,355.123 627.85,355.41 627.873,355.697 C627.897,356.51 627.968,357.347 628.041,358.159 C628.089,358.709 628.184,359.259 628.28,359.809 C628.28,359.857 628.375,359.928 628.423,359.953 C628.973,360.048 629.523,360.144 630.049,360.239 C630.359,360.311 630.455,360.239 630.455,359.905 C630.431,359.235 630.384,358.541 630.503,357.873 C630.55,357.586 630.575,357.3 630.55,357.036 C630.55,356.701 630.503,356.009 630.503,356.009 C630.503,355.77 630.503,355.554 630.503,355.315 C630.503,354.861 630.288,354.526 629.929,354.479 L629.713,354.458 z M617.051,354.705 L616.71,354.765 C616.615,354.789 616.519,354.932 616.519,355.005 C616.519,355.315 616.544,355.602 616.567,355.913 C616.591,356.248 616.639,356.582 616.687,356.917 C616.71,357.132 616.758,357.347 616.806,357.562 C616.902,358.088 617.045,359.092 617.022,359.092 C617.022,359.331 616.997,359.57 617.022,359.809 C617.045,359.905 617.165,360.048 617.26,360.048 C617.475,360.071 617.714,360.071 617.953,360.048 C618.407,360 618.455,359.928 618.455,359.45 C618.455,359.14 618.407,358.805 618.455,358.494 C618.551,357.944 618.527,357.395 618.455,356.845 C618.384,356.343 618.264,355.841 618.384,355.339 C618.455,355.076 618.336,354.932 618.072,354.837 C617.512,354.691 617.849,354.756 617.051,354.705 z M621.061,354.55 C620.679,354.55 620.272,354.67 619.889,354.741 C619.818,354.765 619.723,354.884 619.723,354.957 C619.723,355.387 619.746,355.817 619.794,356.223 C619.866,356.845 619.985,357.466 620.057,358.088 C620.128,358.589 620.176,359.067 620.248,359.57 C620.248,359.641 620.367,359.737 620.44,359.737 C620.893,359.761 621.324,359.785 621.779,359.809 C621.945,359.809 622.089,359.832 622.255,359.857 C622.59,359.905 622.781,359.809 622.829,359.45 C622.877,359.067 622.925,358.685 622.949,358.302 C622.949,357.371 622.925,356.414 622.925,355.435 C622.901,355.435 622.877,355.171 622.877,355.028 C622.901,354.837 622.806,354.693 622.615,354.67 C622.089,354.622 621.587,354.55 621.061,354.55 z M624.346,354.475 C624.054,354.525 623.696,354.629 623.619,354.957 C623.619,355.53 623.642,356.104 623.667,356.701 C623.738,357.61 623.833,358.494 623.881,359.402 C623.906,359.785 623.929,359.832 624.311,359.809 C624.766,359.832 625.22,359.785 625.722,359.761 C625.794,359.354 625.866,358.924 625.914,358.494 C625.937,358.183 625.937,357.849 625.914,357.539 C625.889,356.701 625.841,355.865 625.794,355.028 C625.77,354.718 625.675,354.622 625.363,354.598 C625.053,354.574 624.766,354.526 624.479,354.479 L624.346,354.475 z" fill="#5731F2"/>
      <path d="M640.042,367.695 L640.207,367.697 C640.638,367.745 641.068,367.816 641.498,367.793 C641.952,367.793 642.382,367.912 642.741,368.151 C642.981,368.319 643.195,368.558 643.386,368.772 C643.721,369.132 644.008,369.514 644.343,369.872 C644.438,369.992 645.586,371.187 645.705,371.283 C646.016,371.521 646.255,371.808 646.374,372.19 C646.494,372.597 646.374,372.741 645.968,372.789 C645.49,372.836 644.989,372.932 644.367,373.028 C644.032,372.932 643.554,372.836 643.124,372.668 C642.43,372.406 641.761,372.095 641.091,371.761 C640.518,371.474 640.041,371.044 639.681,370.494 C639.562,370.302 639.49,370.088 639.49,369.849 C639.442,369.203 639.49,368.581 639.706,367.984 C639.835,367.741 639.737,367.853 640.042,367.695 z" fill="#5731F2"/>
      <path d="M567.766,342.057 L568.043,342.121 C568.282,342.216 568.808,342.622 568.88,342.718 C569.693,343.841 570.075,344.726 570.6,345.849 C571.437,347.403 572.321,348.909 573.111,350.462 C573.565,351.347 573.924,352.304 574.282,353.235 C574.689,354.287 575.047,355.362 575.429,356.439 C575.644,357.013 575.739,357.61 575.644,358.231 C575.573,358.614 575.429,358.781 575.022,358.805 C574.593,358.828 574.163,358.853 573.732,358.853 C572.776,358.876 571.843,358.924 570.887,358.901 C569.429,358.853 567.947,358.781 566.489,358.709 C565.51,358.662 564.577,358.637 563.429,358.589 C562.354,358.637 561.087,358.709 559.797,358.781 C559.485,358.805 559.151,358.709 558.841,358.709 C558.315,358.685 557.789,358.685 557.286,358.685 C556.928,358.685 556.808,358.541 556.88,358.183 C556.904,358.063 556.951,357.969 556.999,357.873 C558.051,355.841 559.127,353.809 560.179,351.778 C560.753,350.678 561.254,349.554 561.876,348.502 C562.402,347.595 566.011,343.507 567.039,342.383 C567.394,342.078 567.169,342.216 567.766,342.057 z" fill="#5731F2"/>
      <path d="M665.667,337.663 L665.784,337.722 C666.095,337.961 666.43,338.2 666.74,338.464 C666.836,338.559 666.908,338.678 666.979,338.798 C667.099,338.99 667.218,339.18 667.314,339.371 C667.457,339.587 667.505,339.826 667.409,340.088 C667.243,340.543 667.004,340.949 666.669,341.26 C666.549,341.427 666.357,341.499 666.214,341.595 C665.927,341.427 665.64,341.283 665.353,341.117 C665.258,340.639 665.162,340.136 665.043,339.658 C664.9,338.99 665.019,338.368 665.401,337.794 C665.52,337.657 665.44,337.713 665.667,337.663 z" fill="#5731F2"/>
    </g>
  </g>
</svg>
