<?xml version="1.0" encoding="UTF-8"?>
<!DOCTYPE svg PUBLIC "-//W3C//DTD SVG 1.1//EN" "http://www.w3.org/Graphics/SVG/1.1/DTD/svg11.dtd">
<svg version="1.1" xmlns="http://www.w3.org/2000/svg" xmlns:xlink="http://www.w3.org/1999/xlink" x="0" y="0" width="2239.37" height="1088.504" viewBox="0, 0, 2239.37, 1088.504">
  <g id="Layer_1">
    <g>
      <path d="M885.479,11.839 L885.479,30.831 L904.47,30.831 L904.47,11.839 L923.463,11.839 L923.463,30.831 L942.455,30.831 L942.455,11.839 L961.447,11.839 L961.447,11.839 L980.439,11.839 L980.439,30.831 L980.439,30.831 L980.439,49.823 L961.447,49.823 L961.447,68.815 L980.439,68.815 L980.439,87.807 L961.447,87.807 L961.447,106.799 L980.439,106.799 L980.439,125.791 L961.447,125.791 L961.447,144.784 L980.439,144.784 L980.439,163.776 L961.447,163.776 L961.447,182.768 L980.439,182.768 L980.439,201.76 L961.447,201.76 L961.447,220.752 L980.439,220.752 L980.439,239.744 L961.447,239.744 L961.447,258.736 L980.439,258.736 L980.439,277.728 L961.447,277.728 L961.447,296.72 L980.439,296.72 L980.439,315.713 L961.447,315.713 L961.447,334.705 L980.439,334.705 L980.439,353.697 L961.447,353.697 L961.447,372.689 L980.439,372.689 L980.439,391.681 L961.447,391.681 L961.447,410.673 L980.439,410.673 L980.439,429.665 L961.447,429.665 L961.447,448.658 L980.439,448.658 L980.439,467.65 L961.447,467.65 L961.447,486.642 L980.439,486.642 L980.439,505.634 L961.447,505.634 L961.447,524.626 L980.439,524.626 L980.439,543.618 L961.447,543.618 L961.447,562.61 L980.439,562.61 L980.439,581.602 L961.447,581.602 L961.447,600.595 L980.439,600.595 L980.439,619.587 L980.439,619.587 L980.439,638.579 L942.455,638.579 L942.455,619.587 L923.463,619.587 L923.463,638.579 L904.47,638.579 L904.47,619.587 L885.479,619.587 L885.479,638.579 L866.486,638.579 L866.486,619.587 L847.494,619.587 L847.494,638.579 L828.502,638.579 L828.502,619.587 L809.51,619.587 L809.51,638.579 L790.518,638.579 L790.518,619.587 L771.526,619.587 L771.526,638.579 L752.533,638.579 L752.533,619.587 L733.541,619.587 L733.541,638.579 L714.549,638.579 L714.549,619.587 L695.557,619.587 L695.557,638.579 L676.565,638.579 L676.565,619.587 L657.572,619.587 L657.572,638.579 L638.58,638.579 L638.58,619.587 L619.588,619.587 L619.588,638.579 L600.596,638.579 L600.596,619.587 L581.604,619.587 L581.604,638.579 L562.612,638.579 L562.612,619.587 L543.619,619.587 L543.619,638.579 L524.627,638.579 L524.627,619.587 L505.635,619.587 L505.635,638.579 L486.643,638.579 L486.643,619.587 L467.651,619.587 L467.651,638.579 L448.658,638.579 L448.658,619.587 L429.666,619.587 L429.666,638.579 L410.674,638.579 L410.674,619.587 L391.682,619.587 L391.682,638.579 L372.69,638.579 L372.69,619.587 L353.697,619.587 L353.697,638.579 L334.705,638.579 L334.705,619.587 L315.713,619.587 L315.713,638.579 L296.721,638.579 L296.721,619.587 L277.729,619.587 L277.729,638.579 L258.737,638.579 L258.737,619.587 L239.744,619.587 L239.744,638.579 L220.752,638.579 L220.752,619.587 L201.76,619.587 L201.76,638.579 L182.768,638.579 L182.768,619.587 L163.776,619.587 L163.776,638.579 L144.783,638.579 L144.783,619.587 L125.791,619.587 L125.791,638.579 L106.799,638.579 L106.799,619.587 L87.807,619.587 L87.807,638.579 L68.815,638.579 L68.815,619.587 L49.822,619.587 L49.822,638.579 L11.838,638.579 L11.838,600.595 L30.831,600.595 L30.831,581.602 L11.838,581.602 L11.838,562.61 L30.831,562.61 L30.831,543.618 L11.838,543.618 L11.838,524.626 L30.831,524.626 L30.831,505.634 L11.838,505.634 L11.838,486.642 L30.831,486.642 L30.831,467.65 L11.838,467.65 L11.838,448.658 L30.831,448.658 L30.831,429.665 L11.838,429.665 L11.838,410.673 L30.831,410.673 L30.831,391.681 L11.838,391.681 L11.838,372.689 L30.831,372.689 L30.831,353.697 L11.838,353.697 L11.838,334.705 L30.831,334.705 L30.831,315.713 L11.838,315.713 L11.838,296.72 L30.831,296.72 L30.831,277.728 L11.838,277.728 L11.838,258.736 L30.831,258.736 L30.831,239.744 L11.838,239.744 L11.838,220.752 L30.831,220.752 L30.831,201.76 L11.838,201.76 L11.838,182.768 L30.831,182.768 L30.831,163.776 L11.838,163.776 L11.838,144.784 L30.831,144.784 L30.831,125.791 L11.838,125.791 L11.838,106.799 L30.831,106.799 L30.831,87.807 L11.838,87.807 L11.838,68.815 L30.831,68.815 L30.831,49.823 L11.838,49.823 L11.838,11.839 L30.83,11.839 L30.83,11.839 L49.822,11.839 L49.822,30.831 L68.815,30.831 L68.815,11.839 L87.807,11.839 L87.807,30.831 L106.799,30.831 L106.799,11.839 L125.791,11.839 L125.791,30.831 L144.783,30.831 L144.783,11.839 L163.776,11.839 L163.776,30.831 L182.768,30.831 L182.768,11.839 L201.76,11.839 L201.76,30.831 L220.752,30.831 L220.752,11.839 L239.744,11.839 L239.744,30.831 L258.737,30.831 L258.737,11.839 L277.729,11.839 L277.729,30.831 L296.721,30.831 L296.721,11.839 L315.713,11.839 L315.713,30.831 L334.705,30.831 L334.705,11.839 L353.697,11.839 L353.697,30.831 L372.69,30.831 L372.69,11.839 L391.682,11.839 L391.682,30.831 L410.674,30.831 L410.674,11.839 L429.666,11.839 L429.666,30.831 L448.658,30.831 L448.658,11.839 L467.651,11.839 L467.651,30.831 L486.643,30.831 L486.643,11.839 L505.635,11.839 L505.635,30.831 L524.627,30.831 L524.627,11.839 L543.619,11.839 L543.619,30.831 L562.612,30.831 L562.612,11.839 L581.604,11.839 L581.604,30.831 L600.596,30.831 L600.596,11.839 L619.588,11.839 L619.588,30.831 L638.58,30.831 L638.58,11.839 L657.572,11.839 L657.572,30.831 L676.565,30.831 L676.565,11.839 L695.557,11.839 L695.557,30.831 L714.549,30.831 L714.549,11.839 L733.541,11.839 L733.541,30.831 L752.533,30.831 L752.533,11.839 L771.526,11.839 L771.526,30.831 L790.518,30.831 L790.518,11.839 L809.51,11.839 L809.51,30.831 L828.502,30.831 L828.502,11.839 L847.494,11.839 L847.494,30.831 L866.486,30.831 L866.486,11.839 L885.479,11.839 z" fill="#FFFFFF"/>
      <path d="M885.479,11.839 L885.479,30.831 L904.47,30.831 L904.47,11.839 L923.463,11.839 L923.463,30.831 L942.455,30.831 L942.455,11.839 L961.447,11.839 L961.447,11.839 L980.439,11.839 L980.439,30.831 L980.439,30.831 L980.439,49.823 L961.447,49.823 L961.447,68.815 L980.439,68.815 L980.439,87.807 L961.447,87.807 L961.447,106.799 L980.439,106.799 L980.439,125.791 L961.447,125.791 L961.447,144.784 L980.439,144.784 L980.439,163.776 L961.447,163.776 L961.447,182.768 L980.439,182.768 L980.439,201.76 L961.447,201.76 L961.447,220.752 L980.439,220.752 L980.439,239.744 L961.447,239.744 L961.447,258.736 L980.439,258.736 L980.439,277.728 L961.447,277.728 L961.447,296.72 L980.439,296.72 L980.439,315.713 L961.447,315.713 L961.447,334.705 L980.439,334.705 L980.439,353.697 L961.447,353.697 L961.447,372.689 L980.439,372.689 L980.439,391.681 L961.447,391.681 L961.447,410.673 L980.439,410.673 L980.439,429.665 L961.447,429.665 L961.447,448.658 L980.439,448.658 L980.439,467.65 L961.447,467.65 L961.447,486.642 L980.439,486.642 L980.439,505.634 L961.447,505.634 L961.447,524.626 L980.439,524.626 L980.439,543.618 L961.447,543.618 L961.447,562.61 L980.439,562.61 L980.439,581.602 L961.447,581.602 L961.447,600.595 L980.439,600.595 L980.439,619.587 L980.439,619.587 L980.439,638.579 L942.455,638.579 L942.455,619.587 L923.463,619.587 L923.463,638.579 L904.47,638.579 L904.47,619.587 L885.479,619.587 L885.479,638.579 L866.486,638.579 L866.486,619.587 L847.494,619.587 L847.494,638.579 L828.502,638.579 L828.502,619.587 L809.51,619.587 L809.51,638.579 L790.518,638.579 L790.518,619.587 L771.526,619.587 L771.526,638.579 L752.533,638.579 L752.533,619.587 L733.541,619.587 L733.541,638.579 L714.549,638.579 L714.549,619.587 L695.557,619.587 L695.557,638.579 L676.565,638.579 L676.565,619.587 L657.572,619.587 L657.572,638.579 L638.58,638.579 L638.58,619.587 L619.588,619.587 L619.588,638.579 L600.596,638.579 L600.596,619.587 L581.604,619.587 L581.604,638.579 L562.612,638.579 L562.612,619.587 L543.619,619.587 L543.619,638.579 L524.627,638.579 L524.627,619.587 L505.635,619.587 L505.635,638.579 L486.643,638.579 L486.643,619.587 L467.651,619.587 L467.651,638.579 L448.658,638.579 L448.658,619.587 L429.666,619.587 L429.666,638.579 L410.674,638.579 L410.674,619.587 L391.682,619.587 L391.682,638.579 L372.69,638.579 L372.69,619.587 L353.697,619.587 L353.697,638.579 L334.705,638.579 L334.705,619.587 L315.713,619.587 L315.713,638.579 L296.721,638.579 L296.721,619.587 L277.729,619.587 L277.729,638.579 L258.737,638.579 L258.737,619.587 L239.744,619.587 L239.744,638.579 L220.752,638.579 L220.752,619.587 L201.76,619.587 L201.76,638.579 L182.768,638.579 L182.768,619.587 L163.776,619.587 L163.776,638.579 L144.783,638.579 L144.783,619.587 L125.791,619.587 L125.791,638.579 L106.799,638.579 L106.799,619.587 L87.807,619.587 L87.807,638.579 L68.815,638.579 L68.815,619.587 L49.822,619.587 L49.822,638.579 L11.838,638.579 L11.838,600.595 L30.831,600.595 L30.831,581.602 L11.838,581.602 L11.838,562.61 L30.831,562.61 L30.831,543.618 L11.838,543.618 L11.838,524.626 L30.831,524.626 L30.831,505.634 L11.838,505.634 L11.838,486.642 L30.831,486.642 L30.831,467.65 L11.838,467.65 L11.838,448.658 L30.831,448.658 L30.831,429.665 L11.838,429.665 L11.838,410.673 L30.831,410.673 L30.831,391.681 L11.838,391.681 L11.838,372.689 L30.831,372.689 L30.831,353.697 L11.838,353.697 L11.838,334.705 L30.831,334.705 L30.831,315.713 L11.838,315.713 L11.838,296.72 L30.831,296.72 L30.831,277.728 L11.838,277.728 L11.838,258.736 L30.831,258.736 L30.831,239.744 L11.838,239.744 L11.838,220.752 L30.831,220.752 L30.831,201.76 L11.838,201.76 L11.838,182.768 L30.831,182.768 L30.831,163.776 L11.838,163.776 L11.838,144.784 L30.831,144.784 L30.831,125.791 L11.838,125.791 L11.838,106.799 L30.831,106.799 L30.831,87.807 L11.838,87.807 L11.838,68.815 L30.831,68.815 L30.831,49.823 L11.838,49.823 L11.838,11.839 L30.83,11.839 L30.83,11.839 L49.822,11.839 L49.822,30.831 L68.815,30.831 L68.815,11.839 L87.807,11.839 L87.807,30.831 L106.799,30.831 L106.799,11.839 L125.791,11.839 L125.791,30.831 L144.783,30.831 L144.783,11.839 L163.776,11.839 L163.776,30.831 L182.768,30.831 L182.768,11.839 L201.76,11.839 L201.76,30.831 L220.752,30.831 L220.752,11.839 L239.744,11.839 L239.744,30.831 L258.737,30.831 L258.737,11.839 L277.729,11.839 L277.729,30.831 L296.721,30.831 L296.721,11.839 L315.713,11.839 L315.713,30.831 L334.705,30.831 L334.705,11.839 L353.697,11.839 L353.697,30.831 L372.69,30.831 L372.69,11.839 L391.682,11.839 L391.682,30.831 L410.674,30.831 L410.674,11.839 L429.666,11.839 L429.666,30.831 L448.658,30.831 L448.658,11.839 L467.651,11.839 L467.651,30.831 L486.643,30.831 L486.643,11.839 L505.635,11.839 L505.635,30.831 L524.627,30.831 L524.627,11.839 L543.619,11.839 L543.619,30.831 L562.612,30.831 L562.612,11.839 L581.604,11.839 L581.604,30.831 L600.596,30.831 L600.596,11.839 L619.588,11.839 L619.588,30.831 L638.58,30.831 L638.58,11.839 L657.572,11.839 L657.572,30.831 L676.565,30.831 L676.565,11.839 L695.557,11.839 L695.557,30.831 L714.549,30.831 L714.549,11.839 L733.541,11.839 L733.541,30.831 L752.533,30.831 L752.533,11.839 L771.526,11.839 L771.526,30.831 L790.518,30.831 L790.518,11.839 L809.51,11.839 L809.51,30.831 L828.502,30.831 L828.502,11.839 L847.494,11.839 L847.494,30.831 L866.486,30.831 L866.486,11.839 L885.479,11.839 z" fill-opacity="0" stroke="#000000" stroke-width="1"/>
    </g>
    <g id="logo">
      <path d="M495.046,339.614 C495.478,339.614 495.91,339.614 496.331,339.65 C496.655,339.674 496.979,339.698 497.304,339.806 C497.484,339.866 497.58,340.07 497.616,340.239 C497.64,340.395 497.688,340.539 497.724,340.695 C497.736,340.767 497.736,340.815 497.64,340.863 C497.388,340.863 497.135,340.863 496.883,340.875 C496.751,340.875 496.619,340.899 496.487,340.923 C496.451,340.923 495.778,340.971 495.49,340.959 C495.106,340.947 494.721,340.971 494.325,340.983 C494.001,340.995 493.676,341.031 493.352,341.031 C493.184,341.031 493.004,341.067 492.836,341.067 C492.619,341.067 492.523,341.067 492.295,341.067 C491.923,341.031 491.623,340.947 491.599,340.599 C491.587,340.371 491.623,340.13 491.659,339.89 C491.671,339.758 491.839,339.662 492.007,339.65 C492.163,339.65 492.319,339.65 492.487,339.65 C492.475,339.626 493.472,339.614 493.965,339.614 L495.046,339.614 z" fill="#5731F2"/>
      <path d="M505.579,339.638 C505.867,339.638 506.576,339.746 506.66,339.758 C506.78,339.758 506.852,339.83 506.876,339.926 C506.912,340.142 506.948,340.359 506.96,340.587 C506.972,340.815 506.936,340.815 506.756,340.851 C506.288,340.947 505.819,341.019 505.339,340.995 C504.967,340.983 504.594,340.995 504.234,340.995 C504.006,340.995 503.765,340.971 503.537,340.971 C503.345,340.971 502,340.995 501.736,341.031 C501.676,341.043 501.423,341.007 501.363,341.007 C501.075,341.007 500.787,341.019 500.487,341.031 C500.306,341.031 500.09,340.563 500.054,340.503 C499.946,340.094 500.054,340.07 500.162,339.866 C500.246,339.71 500.378,339.686 500.535,339.698 C500.751,339.71 500.967,339.722 501.195,339.722 C501.291,339.722 502.913,339.638 503.105,339.638 L505.579,339.638 z" fill="#5731F2"/>
      <path d="M509.663,339.518 C510.095,339.53 510.516,339.542 510.948,339.554 C511.128,339.566 511.308,339.578 511.488,339.578 C511.825,339.578 512.149,339.59 512.485,339.566 C512.834,339.542 513.17,339.638 513.518,339.638 C513.939,339.638 514.371,339.686 514.791,339.722 C515.164,339.734 515.416,339.806 515.704,340.022 C515.752,340.094 515.764,340.13 515.752,340.263 C515.752,340.395 515.716,340.563 515.632,340.635 C515.452,340.791 515.236,340.887 514.971,340.899 C513.927,340.911 512.894,340.971 511.849,340.959 C511.284,340.959 510.72,340.851 510.143,340.791 C509.927,340.767 509.711,340.755 509.495,340.743 C509.326,340.731 509.206,340.659 509.134,340.527 C509.11,340.479 509.11,340.407 509.11,340.347 C509.11,340.311 509.182,339.866 509.278,339.698 C509.362,339.542 509.507,339.518 509.663,339.518 z" fill="#5731F2"/>
      <path d="M520.677,339.418 C520.826,339.42 520.766,339.418 520.857,339.422 C521.097,339.446 521.337,339.47 521.589,339.494 C521.902,339.53 522.214,339.542 522.514,339.59 C522.827,339.638 522.995,339.95 522.875,340.263 C522.851,340.347 522.851,340.431 522.815,340.515 C522.718,340.683 522.322,340.719 522.166,340.767 C521.721,340.851 521.541,340.887 521.229,340.863 C521.193,340.863 521.157,340.851 521.133,340.851 C520.665,340.815 519.331,340.671 519.199,340.659 C519.055,340.647 518.911,340.635 518.767,340.647 C518.623,340.647 518.479,340.683 518.334,340.683 C518.046,340.683 517.77,340.659 517.482,340.647 C517.458,340.647 517.434,340.635 517.41,340.623 C517.254,340.539 517.109,340.191 517.145,339.986 C517.193,339.734 517.326,339.59 517.578,339.566 C518.142,339.53 518.707,339.494 519.235,339.458 C519.715,339.427 520.196,339.419 520.677,339.418 z" fill="#5731F2"/>
      <path d="M484.152,339.47 C484.632,339.482 485.113,339.506 485.593,339.53 C485.761,339.542 485.929,339.554 486.086,339.554 C486.47,339.578 486.878,339.542 487.251,339.626 C487.779,339.746 488.296,339.698 488.824,339.734 C489.1,339.746 489.208,340.178 489.232,340.275 C489.244,340.359 489.256,340.443 489.256,340.527 C489.256,340.707 489.232,340.731 489.04,340.743 C488.836,340.743 488.632,340.743 488.416,340.755 C488.26,340.767 488.115,340.791 487.959,340.791 C487.563,340.791 487.167,340.767 486.77,340.767 C486.242,340.767 485.713,340.791 485.173,340.791 C485.089,340.791 485.005,340.767 484.921,340.767 C484.849,340.767 484.776,340.767 484.704,340.767 C484.44,340.779 484.176,340.755 484.008,340.503 C483.984,340.467 483.972,340.407 483.96,340.359 C483.936,340.178 483.912,340.01 483.876,339.83 C483.828,339.626 483.948,339.458 484.152,339.47 z" fill="#5731F2"/>
      <path d="M479.28,339.457 L479.336,339.458 C479.672,339.482 479.996,339.458 480.332,339.47 C480.561,339.47 480.789,339.458 481.005,339.506 C481.245,339.566 481.401,339.914 481.329,340.167 C481.317,340.227 481.305,340.287 481.281,340.335 C481.197,340.599 481.005,340.695 480.729,340.671 C480.405,340.647 480.08,340.683 479.756,340.695 C479.552,340.695 479.348,340.695 479.131,340.695 C478.999,340.695 477.546,340.635 477.438,340.635 C477.318,340.635 475.828,340.503 475.672,340.491 C475.456,340.467 475.264,340.203 475.228,340.046 C475.168,339.77 475.24,339.686 475.54,339.65 C475.804,339.638 476.081,339.602 476.465,339.554 C476.765,339.554 477.162,339.554 477.57,339.554 C478.14,339.529 478.709,339.474 479.28,339.457 z" fill="#5731F2"/>
      <path d="M470.215,339.395 L470.34,339.398 C470.904,339.41 471.469,339.422 472.033,339.446 C472.081,339.446 472.165,339.506 472.165,339.542 C472.177,339.722 472.177,339.89 472.153,340.07 C472.141,340.203 472.033,340.263 471.901,340.287 C471.685,340.323 471.457,340.371 471.24,340.395 C470.94,340.431 470.64,340.455 470.34,340.479 C469.787,340.527 469.223,340.563 468.67,340.635 C468.19,340.707 467.733,340.695 467.289,340.515 C467.109,340.443 467.037,340.359 467.037,340.154 C467.025,339.746 467.205,339.53 467.613,339.446 C467.733,339.422 467.853,339.434 467.973,339.434 C468.466,339.434 468.958,339.434 469.439,339.434 C469.448,339.431 469.456,339.426 469.465,339.425 C469.714,339.395 469.965,339.397 470.215,339.395 z" fill="#5731F2"/>
      <path d="M510.094,336.092 L510.696,336.095 C511.272,336.095 511.837,336.143 512.401,336.179 C512.737,336.191 513.086,336.215 513.422,336.239 C513.891,336.263 514.371,336.299 514.839,336.323 C515.236,336.347 515.632,336.371 516.028,336.407 C516.497,336.443 516.953,336.503 517.422,336.551 C517.818,336.587 519.283,336.611 519.68,336.635 C520.112,336.671 521.229,336.671 521.397,336.707 C521.721,336.767 521.758,336.767 522.37,336.84 C522.79,336.912 523.067,337.116 523.139,337.524 C523.139,337.56 523.151,337.584 523.163,337.62 C523.199,337.776 523.115,337.884 522.947,337.872 C522.766,337.86 522.574,337.86 522.394,337.836 C522.094,337.8 521.782,337.764 521.481,337.728 C521.265,337.704 521.061,337.68 520.845,337.668 C520.364,337.644 519.884,337.632 519.403,337.608 C519.271,337.596 519.151,337.608 519.031,337.608 C518.851,337.62 518.202,337.584 518.07,337.584 C517.169,337.572 514.803,337.476 514.515,337.476 C514.023,337.464 513.518,337.452 513.026,337.452 C512.822,337.452 510.516,337.524 510.347,337.536 C509.987,337.548 509.627,337.56 509.254,337.56 C509.05,337.56 507.549,337.512 507.285,337.5 C506.972,337.488 506.66,337.464 506.348,337.452 C506.216,337.452 505.111,337.416 505.039,337.428 C504.198,337.44 501.736,337.524 501.339,337.572 C501.171,337.584 499.598,337.68 499.358,337.716 C499.069,337.752 498.781,337.776 498.493,337.8 C498.481,337.8 498.469,337.8 498.469,337.8 C498.084,337.824 497.7,337.848 497.316,337.848 C497.136,337.848 492.283,337.981 491.995,337.981 C491.731,337.981 491.094,337.969 491.034,337.969 C490.47,337.944 489.905,337.932 489.341,337.908 C489.256,337.908 488.26,337.8 487.851,337.812 C487.635,337.824 486.23,337.752 485.821,337.764 C485.569,337.764 485.317,337.764 485.065,337.764 C484.861,337.764 482.927,337.656 482.639,337.668 C482.398,337.668 481.822,337.632 481.762,337.632 C481.606,337.632 478.243,337.68 478.219,337.692 C478.014,337.704 475.792,337.656 475.588,337.68 C475.276,337.716 473.354,337.788 473.102,337.884 C472.994,337.92 472.874,337.92 472.766,337.932 C472.525,337.957 470.448,338.065 470.279,338.077 C470.039,338.089 467.745,338.305 467.349,338.293 C466.989,338.245 466.664,338.089 466.34,337.932 C466.232,337.884 465.763,337.512 465.679,337.236 C465.643,337.092 465.643,337.056 465.679,336.984 C465.763,336.852 465.848,336.84 465.98,336.84 C466.46,336.815 467.541,336.755 468.021,336.731 C468.382,336.719 469.907,336.755 470.219,336.755 C470.544,336.755 471.901,336.731 472.261,336.695 C472.477,336.671 472.694,336.659 472.91,336.635 C473.871,336.527 476.249,336.527 476.489,336.515 C476.945,336.491 477.414,336.479 477.87,336.455 C478.183,336.443 480.296,336.539 480.621,336.539 C480.633,336.539 480.645,336.539 480.669,336.539 C481.377,336.527 482.074,336.515 482.783,336.515 C483.119,336.515 483.455,336.539 483.78,336.539 C484.272,336.527 484.764,336.503 485.257,336.479 C485.437,336.467 485.629,336.455 485.809,336.455 C486.29,336.431 486.758,336.407 487.239,336.395 C487.707,336.395 488.188,336.407 488.656,336.419 C489.1,336.431 489.545,336.431 489.989,336.443 C490.397,336.455 490.806,336.479 491.214,336.503 C491.394,336.515 491.563,336.527 491.743,336.527 C492.271,336.539 492.8,336.551 493.34,336.551 C493.772,336.551 494.205,336.539 494.625,336.527 C494.998,336.515 495.382,336.467 495.754,336.443 C495.79,336.443 495.826,336.443 495.85,336.443 C496.175,336.431 496.511,336.431 496.835,336.419 C497.184,336.407 497.544,336.383 497.892,336.359 C498.301,336.335 498.721,336.311 499.129,336.299 C499.55,336.287 499.958,336.275 500.378,336.263 C500.595,336.251 500.823,336.239 501.039,336.239 C501.543,336.239 502.048,336.263 502.564,336.263 C503.045,336.263 503.525,336.239 504.018,336.239 C504.15,336.239 504.27,336.263 504.402,336.263 C504.93,336.251 505.459,336.227 505.987,336.203 C506.36,336.191 506.744,336.167 507.116,336.143 C507.513,336.131 507.897,336.119 508.293,336.119 C509.295,336.101 508.695,336.111 510.094,336.092 z" fill="#5731F2"/>
      <path d="M519.504,313.195 C519.665,313.217 519.601,313.186 519.704,313.262 C520.052,313.611 520.22,314.007 520.1,314.512 C520.076,314.632 520.064,314.764 520.04,314.884 C520,315.081 519.924,315.12 519.734,315.136 L519.728,315.148 C519.668,315.34 519.632,315.532 519.56,315.725 C519.487,315.929 519.235,316.746 519.199,316.962 C519.163,317.25 519.127,317.526 519.091,317.814 C519.079,317.935 519.067,318.055 519.055,318.187 C519.043,318.331 518.863,320.985 518.899,321.081 C518.899,321.081 518.995,321.274 519.031,321.081 C519.127,320.481 519.367,318.799 519.487,318.223 C519.644,317.646 519.956,316.95 520.22,316.433 C520.412,316.049 520.641,315.665 520.845,315.292 C520.857,315.268 520.857,315.244 520.869,315.232 C521.013,315.316 521.157,315.388 521.301,315.472 C521.109,315.869 520.929,316.277 520.713,316.661 C520.496,317.034 520.316,317.418 520.184,317.827 C520.139,317.965 520.089,318.103 520.047,318.243 C520.187,318.291 520.127,318.288 520.22,318.283 C520.411,318.218 520.292,318.26 520.575,318.149 C520.666,317.982 520.746,317.809 520.845,317.646 C521.229,317.082 521.217,316.95 521.481,316.661 C521.685,316.445 521.89,316.229 522.118,316.025 C522.316,315.852 522.532,315.701 522.742,315.542 C522.719,315.475 522.669,315.425 522.634,315.364 C522.502,314.956 522.67,314.728 522.887,314.439 C523.072,314.208 523.332,314.229 523.602,314.221 C523.952,314.311 523.817,314.248 524.028,314.367 C524.088,314.415 524.148,314.584 524.196,314.644 C524.208,314.848 524.076,315.04 524.04,315.148 C523.907,315.316 523.751,315.508 523.559,315.604 C523.412,315.691 523.236,315.685 523.071,315.689 C522.914,315.94 522.999,315.815 522.815,316.061 C522.418,316.481 521.373,318.031 521.373,318.103 L521.363,318.132 C521.519,318.337 521.436,318.234 521.613,318.439 C521.758,318.595 521.83,318.763 521.878,318.968 C521.95,319.268 522.046,319.568 522.13,319.88 L522.096,319.966 C522.123,319.906 522.107,319.943 522.142,319.856 C522.418,319.316 522.634,318.739 522.802,318.151 C522.927,317.643 522.869,317.894 522.977,317.398 L522.971,317.382 C522.959,317.13 523.007,316.878 523.163,316.661 C523.319,316.445 523.775,316.301 523.956,316.481 C524.004,316.529 524.052,316.613 524.04,316.661 C524.016,316.83 523.98,317.01 523.895,317.154 C523.835,317.274 523.691,317.346 523.583,317.43 C523.503,317.516 523.544,317.476 523.463,317.551 C523.441,318.009 523.279,318.444 523.127,318.871 C523.027,319.155 522.932,319.44 522.844,319.727 C522.829,319.774 522.77,319.941 522.767,320.021 C523.102,319.587 522.93,319.806 523.283,319.364 C523.463,319.148 523.643,318.919 523.835,318.715 C523.883,318.655 523.98,318.619 524.064,318.619 C524.376,318.607 524.664,318.655 524.916,318.859 C525.012,318.943 525.157,318.992 525.265,319.064 C525.457,319.184 525.529,319.364 525.541,319.58 C525.553,319.724 525.589,319.868 525.625,320.012 C525.625,320.133 525.625,320.265 525.625,320.385 C525.493,320.721 525.373,321.057 525.217,321.382 C525.085,321.658 524.904,321.91 524.748,322.162 C524.556,322.475 524.364,322.787 524.148,323.075 C523.992,323.291 523.811,323.496 523.619,323.688 C523.259,324.072 522.923,324.48 522.622,324.901 C522.586,324.949 522.55,324.985 522.502,325.021 C522.514,324.865 522.466,324.745 522.346,324.649 C522.131,324.501 522.258,324.581 521.956,324.421 C522.109,324.525 522.197,324.593 522.334,324.697 C522.454,324.781 522.502,324.913 522.49,325.069 C522.418,325.141 522.358,325.225 522.286,325.297 C522.154,325.453 522.034,325.597 521.818,325.646 C521.698,325.67 521.601,325.754 521.493,325.826 C521.258,325.991 520.981,326.061 520.702,326.102 C520.703,326.122 520.702,326.106 520.713,326.15 C520.917,326.462 521.013,326.811 521.049,327.171 C521.061,327.339 521.097,327.495 521.097,327.663 C521.097,327.904 521.073,328.156 521.073,328.396 C521.073,328.564 521.133,328.72 521.121,328.888 C521.097,329.225 521.049,329.561 521.013,329.885 C520.989,330.126 520.965,330.378 520.953,330.618 C520.941,330.798 520.929,330.966 520.917,331.194 C521.037,331.11 521.133,331.05 521.217,330.99 C521.613,330.678 521.998,330.354 522.406,330.041 C522.694,329.825 523.007,329.657 523.379,329.693 C523.607,329.717 523.811,329.777 523.98,329.945 C524.052,330.005 524.076,330.077 524.04,330.186 C523.968,330.366 523.883,330.486 523.715,330.606 C523.295,330.87 522.911,331.182 522.526,331.495 C522.094,331.831 521.734,332.263 521.253,332.54 C521.205,332.564 520.989,332.708 520.845,332.72 C520.749,333.008 520.653,333.296 520.581,333.585 C520.532,333.753 520.52,333.933 520.496,334.113 C520.46,334.473 520.448,334.846 520.4,335.206 C520.376,335.35 520.256,335.482 520.184,335.614 C520.112,335.747 520.028,335.771 519.884,335.735 C519.632,335.662 519.367,335.65 519.127,335.578 C518.971,335.53 518.827,335.446 518.683,335.374 C518.178,335.122 517.77,334.75 517.326,334.413 C517.169,334.293 517.049,334.113 516.917,333.957 C516.761,333.765 516.581,333.585 516.461,333.38 C516.293,333.08 516.161,332.768 516.028,332.444 C515.98,332.335 516.076,332.227 516.197,332.251 C516.509,332.311 516.809,332.396 517.049,332.6 C517.494,332.96 517.926,333.332 518.371,333.693 C518.563,333.849 518.755,333.993 518.959,334.137 C519.079,334.221 519.139,334.197 519.163,334.065 C519.211,333.789 519.235,333.513 519.283,333.236 C519.319,332.96 519.367,332.672 519.415,332.396 C519.451,332.143 519.487,331.891 519.512,331.639 C519.548,331.279 519.584,330.918 519.62,330.546 C519.62,330.498 519.62,330.45 519.62,330.402 C519.644,329.153 519.656,327.916 519.68,326.666 C519.68,326.558 519.764,326.462 519.812,326.366 L519.914,326.142 C519.512,326.192 519.169,325.993 518.875,325.742 C518.791,325.67 518.779,325.67 518.719,325.585 C518.528,325.404 518.61,325.501 518.468,325.298 C517.907,325.046 517.398,324.7 516.905,324.336 C516.641,324.132 516.437,323.856 516.209,323.604 C516.089,323.472 515.98,323.315 515.86,323.183 C515.584,322.895 515.464,322.523 515.284,322.186 C515.14,321.91 515.008,321.634 514.923,321.334 C514.839,321.081 514.827,320.805 514.791,320.541 C514.779,320.469 514.815,320.373 514.863,320.301 C514.983,320.109 515.152,319.976 515.392,319.916 C515.572,319.868 515.752,319.796 515.92,319.724 C516.315,319.584 516.075,319.651 516.653,319.574 L516.905,319.604 C517.193,319.664 517.482,319.736 517.77,319.808 C517.962,319.856 518.07,320.012 518.154,320.181 C518.202,320.277 518.262,320.385 518.31,320.481 L518.375,320.596 C518.377,320.388 518.38,320.478 518.371,320.325 C518.407,319.724 518.407,319.724 518.443,319.256 C518.443,319.244 518.479,318.739 518.503,318.487 C518.527,318.151 518.623,317.706 518.683,317.382 C518.767,316.914 518.875,316.553 518.983,316.085 C519.187,315.629 519.187,315.629 519.343,315.28 C519.379,315.184 519.403,315.1 519.439,315.004 C519.508,314.976 519.481,314.99 519.523,314.966 C519.484,314.972 519.513,314.967 519.439,314.992 C519.163,314.908 519.067,314.704 519.091,314.439 C519.115,314.151 519.127,313.875 519.187,313.599 C519.223,313.455 519.343,313.334 519.451,313.226 L519.504,313.195 z M519.968,318.703 C519.932,318.956 519.908,319.208 519.884,319.46 L519.968,318.703 z" fill="#5731F2"/>
      <path d="M511.032,308.35 C511.236,308.398 511.464,308.398 511.681,308.398 C512.197,308.554 512.521,308.951 512.858,309.335 C512.954,309.443 513.05,309.563 513.17,309.635 C513.398,309.779 513.482,310.007 513.554,310.248 C513.65,310.62 513.71,311.004 513.698,311.389 C513.698,311.497 513.722,311.593 513.722,311.701 C513.746,312.278 513.65,312.842 513.446,313.383 C513.362,313.599 513.374,313.623 513.578,313.707 C513.818,313.803 514.071,313.863 514.323,313.959 C514.479,314.019 514.623,314.115 514.791,314.175 C514.995,314.247 515.2,314.295 515.404,314.355 C515.632,314.427 515.824,314.548 515.968,314.752 C516.04,314.848 516.137,314.932 516.233,315.016 C516.449,315.208 516.581,315.448 516.665,315.713 C516.785,316.085 516.881,316.445 516.977,316.818 C517.013,316.95 517.001,317.094 516.977,317.214 C516.713,317.814 515.74,318.175 515.512,318.283 C515.284,318.463 515.02,318.583 514.731,318.631 C514.419,318.691 514.119,318.763 513.806,318.799 C513.422,318.835 513.062,318.715 512.701,318.607 C512.689,318.607 512.677,318.607 512.653,318.607 C512.221,318.379 511.777,318.139 511.332,317.899 C511.32,317.947 511.32,317.959 511.32,317.983 L511.321,317.992 C511.323,317.959 511.321,317.983 511.332,317.923 C511.777,318.163 512.221,318.391 512.653,318.631 C512.677,318.871 512.701,319.1 512.713,319.34 C512.725,319.7 512.725,320.06 512.75,320.421 C512.773,320.697 512.822,320.973 512.858,321.25 C512.882,321.43 512.882,321.622 512.894,321.802 C512.906,322.162 512.918,322.523 512.93,322.895 C512.93,322.919 512.93,322.931 512.942,322.991 C513.002,322.931 513.05,322.895 513.074,322.847 C513.362,322.27 513.867,322.006 514.467,321.886 C514.587,321.862 514.707,321.958 514.707,322.09 C514.707,322.367 514.707,322.631 514.587,322.883 C514.515,323.039 514.515,323.219 514.455,323.387 C514.203,324.06 513.734,324.492 513.026,324.649 C512.918,324.673 512.786,324.889 512.798,325.009 C512.846,325.357 512.882,325.706 512.918,326.054 C512.942,326.27 512.978,326.486 513.002,326.702 C513.002,326.738 513.026,326.762 513.098,326.847 C513.146,326.762 513.206,326.678 513.254,326.606 C513.59,326.138 514.071,325.862 514.575,325.633 C514.647,325.609 514.731,325.609 514.803,325.609 C514.899,325.609 514.935,325.694 514.935,325.778 C514.935,325.898 514.947,326.006 514.935,326.126 C514.923,326.198 514.875,326.27 514.827,326.318 C514.383,326.823 513.818,327.171 513.206,327.435 C513.086,327.483 513.05,327.555 513.05,327.675 C513.074,328.288 513.086,328.912 513.11,329.525 C513.122,329.741 513.146,329.945 513.17,330.21 C513.338,330.077 513.482,329.969 513.614,329.861 C513.963,329.561 514.299,329.249 514.671,328.96 C514.827,328.84 515.02,328.696 515.248,328.708 C515.356,328.708 515.464,328.72 515.572,328.744 C515.728,328.768 515.836,328.96 515.86,329.153 C515.896,329.525 515.752,329.813 515.44,330.029 C515.248,330.162 515.08,330.33 514.875,330.426 C514.419,330.63 513.939,330.822 513.41,330.75 C513.35,330.738 513.302,330.738 513.218,330.714 C513.23,330.954 513.242,331.182 513.266,331.423 C513.29,331.699 513.338,331.963 513.374,332.239 C513.422,332.564 513.458,332.888 513.506,333.212 C513.578,333.669 513.674,334.125 513.71,334.581 C513.722,334.75 513.65,334.978 513.542,335.098 C513.41,335.242 513.194,335.314 513.002,335.386 C512.894,335.422 512.761,335.398 512.677,335.29 C512.593,335.17 512.497,335.038 512.449,334.906 C512.353,334.605 512.293,334.281 512.209,333.981 C512.101,333.597 511.957,333.224 511.849,332.84 C511.777,332.564 511.729,332.287 511.669,332.011 C511.596,331.663 511.524,331.315 511.452,330.978 C511.38,330.63 511.296,330.27 511.212,329.921 C511.212,329.897 511.188,329.765 511.164,329.501 C511.164,329.501 511.104,329.117 511.056,328.78 C511.032,328.636 510.948,328.576 510.852,328.504 C510.768,328.444 510.66,328.432 510.564,328.408 C510.455,328.384 509.771,328.084 509.675,328.012 C509.519,327.892 509.338,327.795 509.158,327.711 C508.69,327.507 508.269,327.243 508.005,326.786 C507.897,326.594 507.849,326.378 507.885,326.138 C507.921,325.898 508.005,325.67 508.113,325.465 C508.173,325.345 508.306,325.297 508.414,325.333 C508.762,325.429 509.098,325.549 509.447,325.67 C509.555,325.706 509.639,325.814 509.735,325.898 C509.939,326.09 510.119,326.282 510.323,326.474 C510.479,326.618 510.648,326.75 510.732,326.955 C510.744,327.003 510.792,327.039 510.852,327.099 C510.864,327.015 510.876,326.979 510.876,326.931 C510.876,326.33 510.876,325.718 510.876,325.117 C510.876,324.985 510.828,324.901 510.684,324.877 C510.323,324.817 509.963,324.769 509.591,324.709 C509.423,324.685 509.266,324.637 509.098,324.625 C508.786,324.589 508.486,324.492 508.197,324.36 C507.837,324.192 507.693,323.892 507.633,323.532 C507.609,323.363 507.573,323.195 507.561,323.027 C507.561,322.979 507.609,322.907 507.645,322.895 C508.594,322.643 509.471,322.799 510.263,323.375 C510.455,323.52 510.624,323.688 510.72,323.916 C510.732,323.964 510.768,324 510.828,324.084 C510.852,323.988 510.864,323.94 510.864,323.88 C510.864,322.883 510.864,321.886 510.864,320.901 C510.9,320.589 510.864,320.313 510.84,320.036 C510.864,320 510.876,319.964 510.9,319.94 C511.117,319.667 511.296,319.352 511.326,318.996 C511.28,319.339 511.094,319.64 510.9,319.916 C510.876,319.94 510.864,319.976 510.84,320.012 C510.624,320.241 510.407,320.469 510.191,320.697 C509.831,321.081 509.374,321.31 508.894,321.502 C508.702,321.586 508.51,321.706 508.306,321.742 C507.849,321.814 507.393,321.934 506.924,321.874 C506.348,321.814 505.807,321.658 505.387,321.214 C504.967,320.781 504.762,320.277 504.822,319.664 C504.858,319.292 504.991,318.931 505.267,318.667 C505.699,318.247 506.132,317.826 506.576,317.418 C506.972,317.058 507.393,316.71 507.801,316.361 C507.837,316.325 507.885,316.289 507.909,316.253 C507.945,316.193 507.945,316.121 507.861,316.109 C507.501,316.049 507.14,315.989 506.78,315.929 C506.384,315.869 505.987,315.809 505.603,315.761 C505.099,315.785 504.378,315.641 503.946,314.98 C503.934,314.668 503.934,314.668 504.018,314.548 C504.294,314.175 504.558,313.803 504.87,313.455 C505.171,313.13 505.507,312.842 505.891,312.626 C506.144,312.482 506.42,312.482 506.696,312.434 C506.828,312.41 506.96,312.398 507.092,312.41 C507.213,312.41 507.321,312.434 507.441,312.47 C507.921,312.578 508.414,312.698 508.894,312.818 C508.966,312.842 509.05,312.878 509.122,312.902 C509.266,312.962 509.35,312.902 509.326,312.746 C509.23,312.121 509.134,311.509 509.05,310.884 C509.014,310.62 508.99,310.356 509.026,310.104 C509.062,309.911 509.194,309.731 509.314,309.575 C509.615,309.167 510.035,308.891 510.467,308.662 C510.66,308.566 510.84,308.458 511.032,308.35 z M511.326,318.047 C511.328,318.073 511.326,318.06 511.332,318.087 L511.326,318.047 z" fill="#5731F2"/>
      <path d="M470.117,324.704 L471.024,324.709 C471.036,324.745 473.414,324.781 474.591,324.805 C474.94,324.805 475.24,324.913 475.54,325.021 C475.576,325.033 475.624,325.081 475.636,325.117 C475.792,325.862 475.696,328.048 475.696,328.084 C475.696,328.576 475.72,329.069 475.696,329.549 C475.648,330.942 475.588,332.335 475.516,333.729 C475.504,334.017 475.456,334.305 475.42,334.581 C475.396,334.798 475.264,334.93 475.048,334.966 C474.675,335.038 474.291,335.098 473.907,335.134 C473.414,335.182 472.922,335.194 472.429,335.218 C472.273,335.23 472.273,335.218 472.285,335.05 C472.309,334.714 472.297,334.389 472.321,334.053 C472.369,333.477 472.441,332.9 472.489,332.323 C472.525,331.891 472.525,331.447 472.525,331.014 C472.525,330.51 472.513,330.017 472.501,329.513 C472.489,329.201 472.381,329.081 472.069,329.057 C471.421,328.996 470.784,328.936 470.135,328.876 C470.063,328.864 469.991,328.852 469.919,328.84 C469.715,328.792 469.583,328.876 469.559,329.081 C469.487,329.921 469.415,330.762 469.355,331.603 C469.283,332.648 469.211,333.681 469.138,334.726 C469.126,334.834 469.126,334.942 469.102,335.05 C469.066,335.242 469.018,335.278 468.826,335.29 C468.286,335.314 467.757,335.23 467.229,335.098 C467.073,335.062 466.916,335.026 466.772,334.978 C466.556,334.918 466.508,334.87 466.508,334.654 C466.52,333.885 466.496,333.104 466.544,332.335 C466.592,331.579 466.472,330.834 466.484,330.077 C466.496,329.225 466.496,328.372 466.532,327.519 C466.556,326.702 466.604,325.874 466.64,325.057 C466.652,324.841 466.676,324.805 466.892,324.793 C467.661,324.757 468.442,324.721 469.211,324.709 L470.117,324.704 z" fill="#5731F2"/>
      <path d="M484.115,312.396 C484.321,312.487 484.235,312.435 484.38,312.542 C485.365,313.334 486.278,314.199 487.119,315.136 C488.596,316.782 490.049,318.439 491.466,320.145 C491.731,320.457 491.995,320.781 492.259,321.105 C492.367,321.238 492.367,321.286 492.247,321.394 C492.079,321.538 491.899,321.67 491.731,321.814 C491.695,321.85 491.647,321.91 491.647,321.958 C491.563,322.955 491.478,323.952 491.418,324.961 C491.37,325.814 491.346,326.654 491.298,327.507 C491.286,327.639 491.262,327.759 491.25,327.892 C491.19,328.468 491.13,329.057 491.082,329.633 C490.998,330.498 490.938,331.375 490.842,332.239 C490.77,332.888 490.65,333.525 490.554,334.173 C490.542,334.293 490.482,334.353 490.349,334.353 C490.097,334.377 488.055,334.377 487.755,334.413 C487.659,334.425 485.425,334.521 485.173,334.557 C484.993,334.581 484.38,334.581 484.26,334.594 C483.972,334.618 483.683,334.654 483.407,334.702 C483.239,334.726 482.302,334.894 482.086,334.906 C481.834,334.918 481.594,334.978 481.341,334.99 C481.065,335.002 479.588,334.954 479.131,334.978 C478.867,334.99 478.819,334.966 478.795,334.702 C478.735,334.137 478.687,333.573 478.615,333.02 C478.543,332.516 478.471,331.999 478.351,331.507 C478.243,331.062 478.219,330.618 478.255,330.174 C478.315,329.465 478.363,328.744 478.423,328.036 C478.435,327.831 478.471,327.639 478.471,327.435 C478.471,327.135 478.447,326.847 478.459,326.546 C478.471,325.862 478.483,325.177 478.495,324.492 C478.495,324.372 478.495,324.252 478.507,324.132 C478.519,323.988 478.447,323.904 478.327,323.88 C477.858,323.796 477.45,323.568 477.03,323.375 C476.849,323.291 476.681,323.219 476.513,323.123 C476.405,323.063 476.309,322.979 476.237,322.883 C476.153,322.787 476.141,322.679 476.213,322.559 C476.561,322.006 476.909,321.454 477.246,320.901 C477.942,319.772 478.831,318.799 479.588,317.73 C480.044,317.094 480.609,316.553 481.005,315.881 C481.149,315.641 481.341,315.424 481.522,315.208 C481.678,315.016 481.846,314.848 482.002,314.656 C482.014,314.644 482.014,314.632 482.026,314.632 C482.266,314.572 482.314,314.331 482.446,314.163 C482.603,313.959 482.795,313.767 482.951,313.563 C483.095,313.383 483.227,313.202 483.371,313.022 C483.479,312.878 483.599,312.734 483.719,312.602 C483.878,312.426 483.89,312.416 484.115,312.396 z M488.022,324.083 C487.978,324.082 487.939,324.104 487.899,324.12 C487.863,324.144 487.839,324.192 487.827,324.228 C487.815,324.408 487.803,324.601 487.815,324.781 C487.815,324.985 487.839,325.201 487.851,325.405 C487.863,325.91 487.731,326.402 487.815,326.907 C487.815,326.931 487.815,326.967 487.815,326.991 C487.791,327.255 487.779,327.519 487.755,327.783 C487.743,328.084 487.755,328.384 487.719,328.684 C487.671,329.141 487.587,329.597 487.527,330.053 C487.503,330.222 487.503,330.39 487.491,330.558 C486.758,330.714 486.026,330.798 485.281,330.786 C484.885,330.786 484.488,330.798 484.092,330.798 C483.924,330.798 483.768,330.786 483.599,330.774 C483.563,330.774 483.527,330.762 483.503,330.774 C482.975,330.858 482.446,330.738 481.93,330.762 C481.93,330.762 481.918,330.762 481.918,330.762 C481.798,330.738 481.714,330.678 481.714,330.546 C481.702,330.354 481.69,330.15 481.666,329.957 C481.654,329.825 481.678,329.753 481.822,329.753 C481.942,329.741 481.99,329.681 481.966,329.561 C481.954,329.513 481.954,329.465 481.942,329.417 C481.858,329.129 481.846,328.828 481.834,328.528 C481.822,328.204 481.762,327.867 481.702,327.543 C481.618,327.015 481.558,326.474 481.377,325.958 C481.269,325.658 481.221,325.357 481.245,325.033 C481.269,324.769 481.221,324.673 480.981,324.565 C480.873,324.516 480.765,324.577 480.765,324.697 C480.765,324.745 480.777,324.793 480.777,324.841 C480.789,325.081 480.789,325.321 480.801,325.561 C480.801,325.658 480.777,325.766 480.813,325.862 C480.897,326.114 480.801,326.366 480.777,326.606 C480.753,326.871 480.645,327.135 480.597,327.399 C480.489,328.012 480.393,328.612 480.272,329.225 C480.176,329.729 480.152,330.222 480.2,330.726 C480.212,330.906 480.152,331.086 480.128,331.267 C480.116,331.327 480.092,331.375 480.092,331.435 C480.104,331.711 480.116,331.975 480.14,332.251 C480.164,332.468 480.176,332.468 480.405,332.444 C480.885,332.384 481.365,332.335 481.846,332.263 C482.927,332.107 484.008,332.083 485.089,332.071 C485.929,332.071 486.782,332.107 487.623,332.119 C487.995,332.131 488.368,332.119 488.728,332.119 C488.74,332.143 488.788,332.143 488.86,332.143 C488.86,332.059 488.86,331.999 488.848,331.939 C488.668,331.23 488.608,330.498 488.5,329.765 C488.38,328.936 488.236,328.12 488.115,327.291 C488.091,327.159 488.127,327.027 488.139,326.895 C488.139,326.847 488.163,326.799 488.163,326.75 C488.236,325.958 488.296,325.165 488.356,324.372 C488.356,324.3 488.344,324.192 488.296,324.144 C488.229,324.095 488.273,324.121 488.155,324.084 C488.069,324.084 488.113,324.085 488.022,324.083 z M486.962,327.699 C486.806,327.735 486.77,327.843 486.758,327.964 C486.746,328.084 486.698,328.132 486.59,328.132 C486.11,328.144 485.641,328.144 485.161,328.156 C485.065,328.156 484.969,328.168 484.861,328.168 C484.849,328.636 484.836,329.105 484.824,329.561 C484.824,329.669 484.885,329.729 484.993,329.741 C485.137,329.765 485.281,329.789 485.437,329.801 C485.917,329.837 486.398,329.861 486.89,329.885 C487.179,329.897 487.215,329.849 487.191,329.561 C487.131,328.996 487.083,328.42 487.022,327.855 C486.998,327.807 486.974,327.759 486.962,327.699 z M482.831,328.084 C482.831,328.096 482.831,328.108 482.831,328.108 C482.735,328.108 482.627,328.096 482.53,328.108 C482.41,328.12 482.326,328.156 482.338,328.312 C482.362,328.696 482.374,329.093 482.398,329.477 C482.41,329.669 482.434,329.681 482.639,329.669 C483.095,329.657 483.563,329.645 484.02,329.669 C484.296,329.681 484.332,329.681 484.308,329.405 C484.272,329.045 484.212,328.696 484.152,328.336 C484.128,328.204 484.056,328.168 483.912,328.168 C483.732,328.168 483.539,328.168 483.359,328.156 C483.179,328.144 482.999,328.108 482.831,328.084 z M486.131,324.387 C486.09,324.386 486.052,324.406 486.014,324.42 C485.917,324.468 485.821,324.504 485.725,324.54 C485.497,324.601 485.281,324.637 485.053,324.697 C484.861,324.745 484.776,324.829 484.776,324.997 C484.776,325.369 484.788,325.73 484.8,326.102 C484.8,326.246 484.897,326.318 485.041,326.294 C485.125,326.282 485.209,326.258 485.293,326.27 C485.737,326.27 486.146,326.294 486.602,326.318 C486.698,326.33 486.758,326.27 486.722,326.15 C486.626,325.718 486.518,325.285 486.422,324.853 C486.41,324.805 486.386,324.757 486.398,324.721 C486.458,324.601 486.41,324.504 486.326,324.432 L486.257,324.388 C486.175,324.388 486.217,324.389 486.131,324.387 z M482.326,324.853 C482.218,324.853 482.158,324.901 482.158,325.021 C482.17,325.141 482.158,325.273 482.158,325.405 C482.146,325.405 482.134,325.405 482.122,325.405 C482.146,325.633 482.158,325.85 482.182,326.078 C482.194,326.174 482.23,326.27 482.374,326.234 C482.771,326.126 483.167,326.054 483.587,326.126 C483.707,326.15 483.768,326.09 483.78,325.958 C483.804,325.645 483.864,325.333 483.78,325.021 C483.744,324.889 483.707,324.853 483.587,324.865 C483.215,324.865 482.843,324.865 482.47,324.865 L482.326,324.853 z M484.084,320.118 L484.044,320.169 C483.924,320.409 483.732,320.625 483.611,320.853 C483.467,321.105 482.867,321.874 482.771,322.066 C482.771,322.078 482.759,322.078 482.759,322.09 C482.434,322.523 482.098,322.955 481.774,323.387 C481.726,323.448 481.702,323.508 481.642,323.604 C481.81,323.592 481.93,323.58 482.05,323.568 C482.374,323.532 482.711,323.472 483.035,323.472 C483.359,323.472 483.671,323.532 483.996,323.544 C484.957,323.604 485.917,323.652 486.89,323.712 C487.022,323.724 487.107,323.676 487.107,323.544 C487.119,323.375 487.131,323.195 487.119,323.027 C487.119,322.991 487.022,322.919 486.974,322.919 C486.794,322.919 486.458,322.475 486.374,322.379 C486.278,322.282 486.17,322.198 486.086,322.102 C485.773,321.766 485.473,321.418 485.149,321.081 C484.849,320.769 484.536,320.469 484.236,320.169 C484.157,320.104 484.205,320.126 484.084,320.118 z" fill="#5731F2"/>
      <path d="M499.802,319.208 C500.066,319.208 501.339,319.256 501.712,319.268 C502.144,319.28 502.564,319.292 502.997,319.328 C503.285,319.352 503.585,319.412 503.874,319.472 C504.042,319.508 504.162,319.58 504.186,319.784 C504.21,320.06 504.282,320.325 504.234,320.601 C504.186,320.925 503.946,321.129 503.669,321.19 C503.501,321.226 503.333,321.226 503.141,321.262 C503.225,321.286 503.309,321.31 503.393,321.334 C503.597,321.37 503.814,321.406 504.018,321.454 C504.03,321.454 504.042,321.454 504.042,321.454 C504.282,321.514 504.378,321.658 504.414,321.826 C504.414,322.03 504.402,322.234 504.402,322.439 C504.402,322.691 504.426,322.943 504.426,323.195 C504.426,323.423 504.426,323.652 504.426,323.88 C504.438,324.492 504.438,325.093 504.462,325.706 C504.474,325.994 504.522,326.847 504.522,326.991 C504.522,327.135 504.522,327.267 504.522,327.411 C504.51,327.747 504.642,329.777 504.642,330.33 C504.63,331.158 504.642,331.987 504.642,332.816 C504.642,332.948 504.63,333.08 504.606,333.212 C504.57,333.428 504.366,333.585 504.126,333.585 C503.729,333.597 503.321,333.609 502.925,333.609 C502.624,333.621 502.312,333.633 502.012,333.633 C501.688,333.645 501.351,333.645 501.027,333.657 C500.595,333.669 500.162,333.693 499.73,333.717 C499.622,333.717 499.574,333.681 499.574,333.573 C499.574,333.573 499.574,333.561 499.574,333.561 C499.562,332.78 499.55,331.987 499.55,331.206 C499.55,330.954 499.55,330.69 499.55,330.438 C499.538,330.017 499.526,329.585 499.526,329.165 C499.526,328.912 499.514,328.12 499.49,327.964 C498.409,327.928 497.352,327.867 496.271,328.024 C496.259,328.12 496.235,328.228 496.235,328.336 C496.235,328.792 496.223,329.261 496.235,329.717 C496.247,330.198 496.271,330.678 496.283,331.158 C496.283,331.315 496.259,331.483 496.259,331.639 C496.271,332.215 496.307,332.996 496.319,333.561 C496.271,333.981 496.055,333.897 495.55,333.933 C495.082,333.861 494.625,333.741 494.145,333.765 C494.097,333.765 494.061,333.765 494.013,333.765 C493.785,333.741 493.736,333.681 493.712,333.44 C493.688,333.02 493.64,332.588 493.604,332.167 L493.604,330.45 C493.604,330.089 493.616,329.729 493.64,329.369 C493.652,329.129 493.688,327.207 493.628,326.883 C493.616,326.799 493.64,325.357 493.628,325.177 L493.628,322.331 C493.628,322.126 493.568,322.054 493.364,322.042 C493.268,322.03 493.232,322.006 493.22,321.898 C493.16,321.538 493.184,321.514 493.532,321.49 C493.893,321.466 494.253,321.418 494.625,321.382 C494.817,321.358 495.022,321.346 495.214,321.322 C495.25,321.322 495.298,321.298 495.334,321.286 C495.334,321.274 495.334,321.25 495.322,321.238 C495.202,321.238 495.07,321.238 494.95,321.238 C494.589,321.226 493.556,321.045 493.352,320.985 C492.992,320.889 492.788,320.601 492.8,320.265 C492.812,320.121 492.8,319.964 492.8,319.82 C492.8,319.796 492.8,319.76 492.8,319.736 C492.8,319.424 492.848,319.364 493.148,319.34 C493.328,319.328 493.496,319.316 493.676,319.316 C494.385,319.304 495.082,319.292 495.79,319.28 C496.199,319.268 496.607,319.268 497.015,319.256 C497.256,319.244 497.496,319.232 497.748,319.232 C498.048,319.232 499.418,319.208 499.802,319.208 z M494.634,322.089 L494.385,322.09 C494.349,322.09 494.337,322.319 494.337,322.355 C494.373,322.847 494.409,323.856 494.409,323.856 C494.409,324.072 494.397,324.276 494.409,324.492 C494.433,324.781 494.505,324.949 494.829,324.925 C494.974,324.913 495.118,324.901 495.274,324.901 C495.598,324.889 495.622,324.877 495.61,324.553 C495.61,324.492 495.61,324.432 495.61,324.36 C495.61,324.18 495.622,324 495.634,323.832 C495.646,323.7 495.67,323.568 495.67,323.436 C495.658,323.099 495.634,322.751 495.622,322.415 C495.61,322.234 495.562,322.126 495.382,322.114 C494.972,322.082 495.221,322.096 494.634,322.089 z M502.973,321.924 C502.713,321.932 502.825,321.929 502.636,321.934 C502.54,321.934 502.456,321.946 502.36,321.946 C502.24,321.934 502.12,321.994 502.096,322.114 C502.072,322.258 502.036,322.403 502.048,322.547 C502.06,322.955 502.096,323.375 502.132,323.784 C502.156,324.06 502.204,324.336 502.252,324.613 C502.252,324.637 502.3,324.673 502.324,324.685 C502.6,324.733 502.877,324.781 503.141,324.829 C503.297,324.865 503.345,324.829 503.345,324.661 C503.333,324.324 503.309,323.976 503.369,323.64 C503.393,323.496 503.405,323.351 503.393,323.219 C503.393,323.051 503.369,322.703 503.369,322.703 C503.369,322.583 503.369,322.475 503.369,322.355 C503.369,322.126 503.261,321.958 503.081,321.934 L502.973,321.924 z M496.61,322.048 L496.439,322.078 C496.391,322.09 496.343,322.162 496.343,322.198 C496.343,322.355 496.355,322.499 496.367,322.655 C496.379,322.823 496.403,322.991 496.427,323.159 C496.439,323.267 496.463,323.375 496.487,323.484 C496.535,323.748 496.607,324.252 496.595,324.252 C496.595,324.372 496.583,324.492 496.595,324.613 C496.607,324.661 496.667,324.733 496.715,324.733 C496.823,324.745 496.943,324.745 497.063,324.733 C497.292,324.709 497.316,324.673 497.316,324.432 C497.316,324.276 497.292,324.108 497.316,323.952 C497.364,323.676 497.352,323.399 497.316,323.123 C497.28,322.871 497.22,322.619 497.28,322.367 C497.316,322.234 497.256,322.162 497.124,322.114 C496.842,322.041 497.011,322.074 496.61,322.048 z M498.625,321.97 C498.433,321.97 498.228,322.03 498.036,322.066 C498,322.078 497.952,322.138 497.952,322.174 C497.952,322.391 497.964,322.607 497.988,322.811 C498.024,323.123 498.084,323.436 498.12,323.748 C498.156,324 498.18,324.24 498.216,324.492 C498.216,324.528 498.277,324.577 498.313,324.577 C498.541,324.589 498.757,324.601 498.985,324.613 C499.069,324.613 499.141,324.625 499.225,324.637 C499.394,324.661 499.49,324.613 499.514,324.432 C499.538,324.24 499.562,324.048 499.574,323.856 C499.574,323.387 499.562,322.907 499.562,322.415 C499.55,322.415 499.538,322.282 499.538,322.21 C499.55,322.114 499.502,322.042 499.406,322.03 C499.141,322.006 498.889,321.97 498.625,321.97 z M500.276,321.932 C500.129,321.958 499.949,322.01 499.91,322.174 C499.91,322.463 499.922,322.751 499.934,323.051 C499.97,323.508 500.018,323.952 500.042,324.408 C500.054,324.601 500.066,324.625 500.258,324.613 C500.487,324.625 500.715,324.601 500.967,324.589 C501.003,324.384 501.039,324.168 501.063,323.952 C501.075,323.796 501.075,323.628 501.063,323.472 C501.051,323.051 501.027,322.631 501.003,322.21 C500.991,322.054 500.943,322.006 500.787,321.994 C500.631,321.982 500.487,321.958 500.342,321.934 L500.276,321.932 z" fill="#5731F2"/>
      <path d="M508.162,328.575 L508.245,328.576 C508.462,328.6 508.678,328.636 508.894,328.624 C509.122,328.624 509.338,328.684 509.519,328.804 C509.639,328.888 509.747,329.008 509.843,329.117 C510.011,329.297 510.155,329.489 510.323,329.669 C510.371,329.729 510.948,330.33 511.008,330.378 C511.164,330.498 511.284,330.642 511.344,330.834 C511.404,331.038 511.344,331.11 511.14,331.134 C510.9,331.158 510.648,331.206 510.335,331.255 C510.167,331.206 509.927,331.158 509.711,331.074 C509.362,330.942 509.026,330.786 508.69,330.618 C508.402,330.474 508.161,330.258 507.981,329.981 C507.921,329.885 507.885,329.777 507.885,329.657 C507.861,329.333 507.885,329.021 507.993,328.72 C508.058,328.599 508.009,328.654 508.162,328.575 z" fill="#5731F2"/>
      <path d="M471.845,315.693 L471.985,315.725 C472.105,315.773 472.369,315.977 472.405,316.025 C472.814,316.589 473.006,317.034 473.27,317.598 C473.691,318.379 474.135,319.136 474.531,319.916 C474.759,320.361 474.94,320.841 475.12,321.31 C475.324,321.838 475.504,322.379 475.696,322.919 C475.804,323.207 475.852,323.508 475.804,323.82 C475.768,324.012 475.696,324.096 475.492,324.108 C475.276,324.12 475.06,324.132 474.844,324.132 C474.363,324.144 473.895,324.168 473.414,324.156 C472.682,324.132 471.937,324.096 471.204,324.06 C470.712,324.036 470.243,324.024 469.667,324 C469.126,324.024 468.49,324.06 467.841,324.096 C467.685,324.108 467.517,324.06 467.361,324.06 C467.097,324.048 466.832,324.048 466.58,324.048 C466.4,324.048 466.34,323.976 466.376,323.796 C466.388,323.736 466.412,323.688 466.436,323.64 C466.965,322.619 467.505,321.598 468.033,320.577 C468.322,320.024 468.574,319.46 468.886,318.931 C469.15,318.475 470.964,316.421 471.481,315.857 C471.659,315.703 471.545,315.773 471.845,315.693 z" fill="#5731F2"/>
      <path d="M521.038,313.485 L521.097,313.515 C521.253,313.635 521.421,313.755 521.577,313.887 C521.625,313.935 521.661,313.995 521.698,314.055 C521.758,314.151 521.818,314.247 521.866,314.343 C521.938,314.451 521.962,314.572 521.914,314.704 C521.83,314.932 521.71,315.136 521.541,315.292 C521.481,315.376 521.385,315.412 521.313,315.46 C521.169,315.376 521.025,315.304 520.881,315.22 C520.833,314.98 520.785,314.728 520.725,314.488 C520.653,314.151 520.713,313.839 520.905,313.551 C520.964,313.482 520.924,313.51 521.038,313.485 z" fill="#5731F2"/>
    </g>
  </g>
</svg>
