<?xml version="1.0" encoding="UTF-8"?>
<!DOCTYPE svg PUBLIC "-//W3C//DTD SVG 1.1//EN" "http://www.w3.org/Graphics/SVG/1.1/DTD/svg11.dtd">
<svg version="1.1" xmlns="http://www.w3.org/2000/svg" xmlns:xlink="http://www.w3.org/1999/xlink" x="0" y="0" width="2239.37" height="1088.504" viewBox="0, 0, 2239.37, 1088.504">
  <g id="Layer_1">
    <g>
      <path d="M143.933,14.106 L143.933,33.098 L162.925,33.098 L162.925,14.106 L181.917,14.106 L181.917,37.634 L181.917,37.634 L181.917,52.091 L189.571,52.091 L189.571,71.083 L181.917,71.083 L181.917,90.075 L189.571,90.075 L189.571,109.067 L181.917,109.067 L181.917,128.059 L189.571,128.059 L189.571,147.051 L181.917,147.051 L181.917,166.043 L189.571,166.043 L189.571,185.035 L181.917,185.035 L181.917,204.028 L189.571,204.028 L189.571,223.02 L181.917,223.02 L181.917,242.012 L189.571,242.012 L189.571,261.004 L181.917,261.004 L181.917,279.996 L189.571,279.996 L189.571,298.988 L181.917,298.988 L181.917,317.98 L189.571,317.98 L189.571,336.973 L181.917,336.973 L181.917,355.965 L189.571,355.965 L189.571,374.957 L181.917,374.957 L181.917,393.949 L189.571,393.949 L189.571,412.941 L181.917,412.941 L181.917,431.933 L189.571,431.933 L189.571,450.925 L181.917,450.925 L181.917,469.917 L189.571,469.917 L189.571,488.909 L181.917,488.909 L181.917,526.894 L162.925,526.894 L162.925,507.901 L143.933,507.901 L143.933,526.894 L132.594,526.894 L132.594,488.909 L124.941,488.909 L124.941,507.902 L124.941,507.902 L124.941,507.901 L105.949,507.901 L105.949,526.894 L86.957,526.894 L86.957,507.901 L67.965,507.901 L67.965,526.894 L48.972,526.894 L48.972,507.901 L29.98,507.901 L29.98,526.894 L10.988,526.894 L10.988,507.901 L10.988,507.901 L10.988,33.098 L10.988,33.098 L10.988,14.106 L29.98,14.106 L29.98,33.098 L48.972,33.098 L48.972,14.106 L67.965,14.106 L67.965,33.098 L86.957,33.098 L86.957,14.106 L105.949,14.106 L105.949,33.098 L124.941,33.098 L124.941,52.091 L132.594,52.091 L132.594,14.106 L143.933,14.106 z M132.594,450.925 L124.941,450.925 L124.941,469.917 L132.594,469.917 L132.594,450.925 z M132.594,412.941 L124.941,412.941 L124.941,431.933 L132.594,431.933 L132.594,412.941 z M132.594,374.957 L124.941,374.957 L124.941,393.949 L132.594,393.949 L132.594,374.957 z M60.027,168.595 C44.372,168.595 31.681,181.286 31.681,196.941 L31.681,344.059 C32.493,360.148 43.689,371.903 60.027,372.405 C75.683,372.406 88.374,359.714 88.374,344.059 L88.374,196.941 C88.374,181.286 75.683,168.595 60.027,168.595 z M132.594,336.973 L124.941,336.973 L124.941,355.965 L132.594,355.965 L132.594,336.973 z M132.594,298.988 L124.941,298.988 L124.941,317.98 L132.594,317.98 L132.594,298.988 z M132.594,261.004 L124.941,261.004 L124.941,279.996 L132.594,279.996 L132.594,261.004 z M132.594,223.02 L124.941,223.02 L124.941,242.012 L132.594,242.012 L132.594,223.02 z M132.594,185.035 L124.941,185.035 L124.941,204.028 L132.594,204.028 L132.594,185.035 z M132.594,147.051 L124.941,147.051 L124.941,166.043 L132.594,166.043 L132.594,147.051 z M132.594,109.067 L124.941,109.067 L124.941,128.059 L132.594,128.059 L132.594,109.067 z M132.594,71.083 L124.941,71.083 L124.941,90.075 L132.594,90.075 L132.594,71.083 z" fill="#FFFFFF"/>
      <path d="M143.933,14.106 L143.933,33.098 L162.925,33.098 L162.925,14.106 L181.917,14.106 L181.917,37.634 L181.917,37.634 L181.917,52.091 L189.571,52.091 L189.571,71.083 L181.917,71.083 L181.917,90.075 L189.571,90.075 L189.571,109.067 L181.917,109.067 L181.917,128.059 L189.571,128.059 L189.571,147.051 L181.917,147.051 L181.917,166.043 L189.571,166.043 L189.571,185.035 L181.917,185.035 L181.917,204.028 L189.571,204.028 L189.571,223.02 L181.917,223.02 L181.917,242.012 L189.571,242.012 L189.571,261.004 L181.917,261.004 L181.917,279.996 L189.571,279.996 L189.571,298.988 L181.917,298.988 L181.917,317.98 L189.571,317.98 L189.571,336.973 L181.917,336.973 L181.917,355.965 L189.571,355.965 L189.571,374.957 L181.917,374.957 L181.917,393.949 L189.571,393.949 L189.571,412.941 L181.917,412.941 L181.917,431.933 L189.571,431.933 L189.571,450.925 L181.917,450.925 L181.917,469.917 L189.571,469.917 L189.571,488.909 L181.917,488.909 L181.917,526.894 L162.925,526.894 L162.925,507.901 L143.933,507.901 L143.933,526.894 L132.594,526.894 L132.594,488.909 L124.941,488.909 L124.941,507.902 L124.941,507.902 L124.941,507.901 L105.949,507.901 L105.949,526.894 L86.957,526.894 L86.957,507.901 L67.965,507.901 L67.965,526.894 L48.972,526.894 L48.972,507.901 L29.98,507.901 L29.98,526.894 L10.988,526.894 L10.988,507.901 L10.988,507.901 L10.988,33.098 L10.988,33.098 L10.988,14.106 L29.98,14.106 L29.98,33.098 L48.972,33.098 L48.972,14.106 L67.965,14.106 L67.965,33.098 L86.957,33.098 L86.957,14.106 L105.949,14.106 L105.949,33.098 L124.941,33.098 L124.941,52.091 L132.594,52.091 L132.594,14.106 L143.933,14.106 z M132.594,450.925 L124.941,450.925 L124.941,469.917 L132.594,469.917 L132.594,450.925 z M132.594,412.941 L124.941,412.941 L124.941,431.933 L132.594,431.933 L132.594,412.941 z M132.594,374.957 L124.941,374.957 L124.941,393.949 L132.594,393.949 L132.594,374.957 z M60.027,168.595 C44.372,168.595 31.681,181.286 31.681,196.941 L31.681,344.059 C32.493,360.148 43.689,371.903 60.027,372.405 C75.683,372.406 88.374,359.714 88.374,344.059 L88.374,196.941 C88.374,181.286 75.683,168.595 60.027,168.595 z M132.594,336.973 L124.941,336.973 L124.941,355.965 L132.594,355.965 L132.594,336.973 z M132.594,298.988 L124.941,298.988 L124.941,317.98 L132.594,317.98 L132.594,298.988 z M132.594,261.004 L124.941,261.004 L124.941,279.996 L132.594,279.996 L132.594,261.004 z M132.594,223.02 L124.941,223.02 L124.941,242.012 L132.594,242.012 L132.594,223.02 z M132.594,185.035 L124.941,185.035 L124.941,204.028 L132.594,204.028 L132.594,185.035 z M132.594,147.051 L124.941,147.051 L124.941,166.043 L132.594,166.043 L132.594,147.051 z M132.594,109.067 L124.941,109.067 L124.941,128.059 L132.594,128.059 L132.594,109.067 z M132.594,71.083 L124.941,71.083 L124.941,90.075 L132.594,90.075 L132.594,71.083 z" fill-opacity="0" stroke="#000000" stroke-width="1"/>
    </g>
    <g>
      <path d="M335.839,14.106 L335.839,33.098 L354.831,33.098 L354.831,14.106 L373.823,14.106 L373.823,37.634 L373.823,37.634 L373.823,52.091 L381.477,52.091 L381.477,71.083 L373.823,71.083 L373.823,90.075 L381.477,90.075 L381.477,109.067 L373.823,109.067 L373.823,128.059 L381.477,128.059 L381.477,147.051 L373.823,147.051 L373.823,166.043 L381.477,166.043 L381.477,185.035 L373.823,185.035 L373.823,204.028 L381.477,204.028 L381.477,223.02 L373.823,223.02 L373.823,242.012 L381.477,242.012 L381.477,261.004 L373.823,261.004 L373.823,279.996 L381.477,279.996 L381.477,298.988 L373.823,298.988 L373.823,317.98 L381.477,317.98 L381.477,336.973 L373.823,336.973 L373.823,355.965 L381.477,355.965 L381.477,374.957 L373.823,374.957 L373.823,393.949 L381.477,393.949 L381.477,412.941 L373.823,412.941 L373.823,431.933 L381.477,431.933 L381.477,450.925 L373.823,450.925 L373.823,469.917 L381.477,469.917 L381.477,488.91 L373.823,488.91 L373.823,526.894 L354.831,526.894 L354.831,507.902 L335.839,507.902 L335.839,526.894 L324.5,526.894 L324.5,488.91 L316.847,488.91 L316.847,507.902 L316.846,507.902 L316.846,507.902 L297.854,507.902 L297.854,526.894 L278.862,526.894 L278.862,507.902 L259.87,507.902 L259.87,526.894 L240.878,526.894 L240.878,507.902 L221.886,507.902 L221.886,526.894 L202.894,526.894 L202.894,507.902 L202.894,507.902 L202.894,33.098 L202.894,33.098 L202.894,14.106 L221.886,14.106 L221.886,33.098 L240.878,33.098 L240.878,14.106 L259.87,14.106 L259.87,33.098 L278.862,33.098 L278.862,14.106 L297.854,14.106 L297.854,33.098 L316.847,33.098 L316.847,52.091 L324.5,52.091 L324.5,14.106 L335.839,14.106 z M324.5,450.925 L316.847,450.925 L316.847,469.918 L324.5,469.918 L324.5,450.925 z M324.5,412.941 L316.847,412.941 L316.847,431.933 L324.5,431.933 L324.5,412.941 z M324.5,374.957 L316.847,374.957 L316.847,393.949 L324.5,393.949 L324.5,374.957 z M251.933,168.595 C236.278,168.595 223.587,181.286 223.587,196.941 L223.587,344.059 C224.399,360.149 235.595,371.903 251.933,372.406 C267.588,372.406 280.28,359.715 280.28,344.059 L280.28,196.941 C280.28,181.286 267.589,168.595 251.933,168.595 z M324.5,336.973 L316.847,336.973 L316.847,355.965 L324.5,355.965 L324.5,336.973 z M324.5,298.988 L316.847,298.988 L316.847,317.98 L324.5,317.98 L324.5,298.988 z M324.5,261.004 L316.847,261.004 L316.847,279.996 L324.5,279.996 L324.5,261.004 z M324.5,223.02 L316.847,223.02 L316.847,242.012 L324.5,242.012 L324.5,223.02 z M324.5,185.035 L316.847,185.035 L316.847,204.028 L324.5,204.028 L324.5,185.035 z M324.5,147.051 L316.847,147.051 L316.847,166.043 L324.5,166.043 L324.5,147.051 z M324.5,109.067 L316.847,109.067 L316.847,128.059 L324.5,128.059 L324.5,109.067 z M324.5,71.083 L316.847,71.083 L316.847,90.075 L324.5,90.075 L324.5,71.083 z" fill="#FFFFFF"/>
      <path d="M335.839,14.106 L335.839,33.098 L354.831,33.098 L354.831,14.106 L373.823,14.106 L373.823,37.634 L373.823,37.634 L373.823,52.091 L381.477,52.091 L381.477,71.083 L373.823,71.083 L373.823,90.075 L381.477,90.075 L381.477,109.067 L373.823,109.067 L373.823,128.059 L381.477,128.059 L381.477,147.051 L373.823,147.051 L373.823,166.043 L381.477,166.043 L381.477,185.035 L373.823,185.035 L373.823,204.028 L381.477,204.028 L381.477,223.02 L373.823,223.02 L373.823,242.012 L381.477,242.012 L381.477,261.004 L373.823,261.004 L373.823,279.996 L381.477,279.996 L381.477,298.988 L373.823,298.988 L373.823,317.98 L381.477,317.98 L381.477,336.973 L373.823,336.973 L373.823,355.965 L381.477,355.965 L381.477,374.957 L373.823,374.957 L373.823,393.949 L381.477,393.949 L381.477,412.941 L373.823,412.941 L373.823,431.933 L381.477,431.933 L381.477,450.925 L373.823,450.925 L373.823,469.917 L381.477,469.917 L381.477,488.91 L373.823,488.91 L373.823,526.894 L354.831,526.894 L354.831,507.902 L335.839,507.902 L335.839,526.894 L324.5,526.894 L324.5,488.91 L316.847,488.91 L316.847,507.902 L316.846,507.902 L316.846,507.902 L297.854,507.902 L297.854,526.894 L278.862,526.894 L278.862,507.902 L259.87,507.902 L259.87,526.894 L240.878,526.894 L240.878,507.902 L221.886,507.902 L221.886,526.894 L202.894,526.894 L202.894,507.902 L202.894,507.902 L202.894,33.098 L202.894,33.098 L202.894,14.106 L221.886,14.106 L221.886,33.098 L240.878,33.098 L240.878,14.106 L259.87,14.106 L259.87,33.098 L278.862,33.098 L278.862,14.106 L297.854,14.106 L297.854,33.098 L316.847,33.098 L316.847,52.091 L324.5,52.091 L324.5,14.106 L335.839,14.106 z M324.5,450.925 L316.847,450.925 L316.847,469.918 L324.5,469.918 L324.5,450.925 z M324.5,412.941 L316.847,412.941 L316.847,431.933 L324.5,431.933 L324.5,412.941 z M324.5,374.957 L316.847,374.957 L316.847,393.949 L324.5,393.949 L324.5,374.957 z M251.933,168.595 C236.278,168.595 223.587,181.286 223.587,196.941 L223.587,344.059 C224.399,360.149 235.595,371.903 251.933,372.406 C267.588,372.406 280.28,359.715 280.28,344.059 L280.28,196.941 C280.28,181.286 267.589,168.595 251.933,168.595 z M324.5,336.973 L316.847,336.973 L316.847,355.965 L324.5,355.965 L324.5,336.973 z M324.5,298.988 L316.847,298.988 L316.847,317.98 L324.5,317.98 L324.5,298.988 z M324.5,261.004 L316.847,261.004 L316.847,279.996 L324.5,279.996 L324.5,261.004 z M324.5,223.02 L316.847,223.02 L316.847,242.012 L324.5,242.012 L324.5,223.02 z M324.5,185.035 L316.847,185.035 L316.847,204.028 L324.5,204.028 L324.5,185.035 z M324.5,147.051 L316.847,147.051 L316.847,166.043 L324.5,166.043 L324.5,147.051 z M324.5,109.067 L316.847,109.067 L316.847,128.059 L324.5,128.059 L324.5,109.067 z M324.5,71.083 L316.847,71.083 L316.847,90.075 L324.5,90.075 L324.5,71.083 z" fill-opacity="0" stroke="#000000" stroke-width="1"/>
    </g>
    <g>
      <path d="M539.933,14.106 L539.933,21.76 L558.925,21.76 L558.925,14.106 L577.917,14.106 L577.917,21.76 L596.909,21.76 L596.909,14.106 L615.902,14.106 L615.902,21.76 L634.894,21.76 L634.894,14.106 L653.886,14.106 L653.886,21.76 L672.878,21.76 L672.878,14.106 L691.87,14.106 L691.87,21.76 L710.862,21.76 L710.862,14.106 L729.854,14.106 L729.854,21.76 L748.846,21.76 L748.846,14.106 L767.839,14.106 L767.839,21.76 L786.831,21.76 L786.831,14.106 L805.823,14.106 L805.823,21.76 L824.815,21.76 L824.815,14.106 L843.807,14.106 L843.807,21.76 L862.799,21.76 L862.799,14.106 L881.791,14.106 L881.791,21.76 L900.784,21.76 L900.784,14.106 L919.776,14.106 L919.776,21.76 L938.768,21.76 L938.768,14.106 L957.76,14.106 L957.76,21.76 L976.752,21.76 L976.752,14.106 L995.744,14.106 L995.744,21.76 L1014.736,21.76 L1014.736,14.106 L1033.728,14.106 L1033.728,21.76 L1052.72,21.76 L1052.72,14.106 L1071.713,14.106 L1071.713,21.76 L1090.705,21.76 L1090.705,14.106 L1109.697,14.106 L1109.697,21.76 L1128.689,21.76 L1128.689,14.106 L1147.681,14.106 L1147.681,21.76 L1166.673,21.76 L1166.673,14.106 L1185.665,14.106 L1185.665,21.76 L1204.66,21.76 L1204.66,40.752 L1223.652,40.752 L1223.652,59.744 L1204.66,59.744 L1204.66,71.083 L1185.667,71.083 L1185.667,78.736 L1223.652,78.736 L1223.652,97.728 L1204.66,97.728 L1204.66,116.72 L1223.652,116.72 L1223.652,135.713 L1204.66,135.713 L1204.66,154.705 L1223.652,154.705 L1223.652,173.697 L1204.66,173.697 L1204.66,192.689 L425.98,192.689 L425.98,173.697 L406.988,173.697 L406.988,154.705 L425.98,154.705 L425.98,135.713 L406.988,135.713 L406.988,116.72 L425.98,116.72 L425.98,97.728 L406.988,97.728 L406.988,78.736 L444.973,78.736 L444.973,71.083 L425.98,71.083 L425.98,59.744 L406.988,59.744 L406.988,40.752 L425.98,40.752 L425.98,21.76 L444.973,21.76 L444.973,14.106 L463.965,14.106 L463.965,21.76 L482.957,21.76 L482.957,14.106 L501.949,14.106 L501.949,21.76 L520.941,21.76 L520.941,14.106 L539.933,14.106 z M1128.691,71.083 L1109.699,71.083 L1109.699,78.736 L1128.691,78.736 L1128.691,71.083 z M1052.722,71.083 L1033.73,71.083 L1033.73,78.736 L1052.722,78.736 L1052.722,71.083 z M976.753,71.083 L957.761,71.083 L957.761,78.736 L976.753,78.736 L976.753,71.083 z M900.785,71.083 L881.792,71.083 L881.792,78.736 L900.785,78.736 L900.785,71.083 z M824.816,71.083 L805.824,71.083 L805.824,78.736 L824.816,78.736 L824.816,71.083 z M748.847,71.083 L729.855,71.083 L729.855,78.736 L748.847,78.736 L748.847,71.083 z M672.878,71.083 L653.886,71.083 L653.886,78.736 L672.878,78.736 L672.878,71.083 z M596.91,71.083 L577.917,71.083 L577.917,78.736 L596.91,78.736 L596.91,71.083 z M520.941,71.083 L501.949,71.083 L501.949,78.736 L520.941,78.736 L520.941,71.083 z M482.957,71.083 L463.965,71.083 L463.965,78.736 L482.957,78.736 L482.957,71.083 z M558.925,71.083 L539.933,71.083 L539.933,78.736 L558.925,78.736 L558.925,71.083 z M634.894,71.083 L615.902,71.083 L615.902,78.736 L634.894,78.736 L634.894,71.083 z M710.863,71.083 L691.87,71.083 L691.87,78.736 L710.863,78.736 L710.863,71.083 z M786.831,71.083 L767.839,71.083 L767.839,78.736 L786.831,78.736 L786.831,71.083 z M862.8,71.083 L843.808,71.083 L843.808,78.736 L862.8,78.736 L862.8,71.083 z M938.769,71.083 L919.777,71.083 L919.777,78.736 L938.769,78.736 L938.769,71.083 z M1014.738,71.083 L995.745,71.083 L995.745,78.736 L1014.738,78.736 L1014.738,71.083 z M1090.707,71.083 L1071.714,71.083 L1071.714,78.736 L1090.707,78.736 L1090.707,71.083 z M1166.675,71.083 L1147.683,71.083 L1147.683,78.736 L1166.675,78.736 L1166.675,71.083 z" fill="#FFFFFF"/>
      <path d="M539.933,14.106 L539.933,21.76 L558.925,21.76 L558.925,14.106 L577.917,14.106 L577.917,21.76 L596.909,21.76 L596.909,14.106 L615.902,14.106 L615.902,21.76 L634.894,21.76 L634.894,14.106 L653.886,14.106 L653.886,21.76 L672.878,21.76 L672.878,14.106 L691.87,14.106 L691.87,21.76 L710.862,21.76 L710.862,14.106 L729.854,14.106 L729.854,21.76 L748.846,21.76 L748.846,14.106 L767.839,14.106 L767.839,21.76 L786.831,21.76 L786.831,14.106 L805.823,14.106 L805.823,21.76 L824.815,21.76 L824.815,14.106 L843.807,14.106 L843.807,21.76 L862.799,21.76 L862.799,14.106 L881.791,14.106 L881.791,21.76 L900.784,21.76 L900.784,14.106 L919.776,14.106 L919.776,21.76 L938.768,21.76 L938.768,14.106 L957.76,14.106 L957.76,21.76 L976.752,21.76 L976.752,14.106 L995.744,14.106 L995.744,21.76 L1014.736,21.76 L1014.736,14.106 L1033.728,14.106 L1033.728,21.76 L1052.72,21.76 L1052.72,14.106 L1071.713,14.106 L1071.713,21.76 L1090.705,21.76 L1090.705,14.106 L1109.697,14.106 L1109.697,21.76 L1128.689,21.76 L1128.689,14.106 L1147.681,14.106 L1147.681,21.76 L1166.673,21.76 L1166.673,14.106 L1185.665,14.106 L1185.665,21.76 L1204.66,21.76 L1204.66,40.752 L1223.652,40.752 L1223.652,59.744 L1204.66,59.744 L1204.66,71.083 L1185.667,71.083 L1185.667,78.736 L1223.652,78.736 L1223.652,97.728 L1204.66,97.728 L1204.66,116.72 L1223.652,116.72 L1223.652,135.713 L1204.66,135.713 L1204.66,154.705 L1223.652,154.705 L1223.652,173.697 L1204.66,173.697 L1204.66,192.689 L425.98,192.689 L425.98,173.697 L406.988,173.697 L406.988,154.705 L425.98,154.705 L425.98,135.713 L406.988,135.713 L406.988,116.72 L425.98,116.72 L425.98,97.728 L406.988,97.728 L406.988,78.736 L444.973,78.736 L444.973,71.083 L425.98,71.083 L425.98,59.744 L406.988,59.744 L406.988,40.752 L425.98,40.752 L425.98,21.76 L444.973,21.76 L444.973,14.106 L463.965,14.106 L463.965,21.76 L482.957,21.76 L482.957,14.106 L501.949,14.106 L501.949,21.76 L520.941,21.76 L520.941,14.106 L539.933,14.106 z M1128.691,71.083 L1109.699,71.083 L1109.699,78.736 L1128.691,78.736 L1128.691,71.083 z M1052.722,71.083 L1033.73,71.083 L1033.73,78.736 L1052.722,78.736 L1052.722,71.083 z M976.753,71.083 L957.761,71.083 L957.761,78.736 L976.753,78.736 L976.753,71.083 z M900.785,71.083 L881.792,71.083 L881.792,78.736 L900.785,78.736 L900.785,71.083 z M824.816,71.083 L805.824,71.083 L805.824,78.736 L824.816,78.736 L824.816,71.083 z M748.847,71.083 L729.855,71.083 L729.855,78.736 L748.847,78.736 L748.847,71.083 z M672.878,71.083 L653.886,71.083 L653.886,78.736 L672.878,78.736 L672.878,71.083 z M596.91,71.083 L577.917,71.083 L577.917,78.736 L596.91,78.736 L596.91,71.083 z M520.941,71.083 L501.949,71.083 L501.949,78.736 L520.941,78.736 L520.941,71.083 z M482.957,71.083 L463.965,71.083 L463.965,78.736 L482.957,78.736 L482.957,71.083 z M558.925,71.083 L539.933,71.083 L539.933,78.736 L558.925,78.736 L558.925,71.083 z M634.894,71.083 L615.902,71.083 L615.902,78.736 L634.894,78.736 L634.894,71.083 z M710.863,71.083 L691.87,71.083 L691.87,78.736 L710.863,78.736 L710.863,71.083 z M786.831,71.083 L767.839,71.083 L767.839,78.736 L786.831,78.736 L786.831,71.083 z M862.8,71.083 L843.808,71.083 L843.808,78.736 L862.8,78.736 L862.8,71.083 z M938.769,71.083 L919.777,71.083 L919.777,78.736 L938.769,78.736 L938.769,71.083 z M1014.738,71.083 L995.745,71.083 L995.745,78.736 L1014.738,78.736 L1014.738,71.083 z M1090.707,71.083 L1071.714,71.083 L1071.714,78.736 L1090.707,78.736 L1090.707,71.083 z M1166.675,71.083 L1147.683,71.083 L1147.683,78.736 L1166.675,78.736 L1166.675,71.083 z" fill-opacity="0" stroke="#000000" stroke-width="1"/>
    </g>
    <g>
      <path d="M539.933,205.445 L539.933,213.098 L558.925,213.098 L558.925,205.445 L577.917,205.445 L577.917,213.098 L596.909,213.098 L596.909,205.445 L615.902,205.445 L615.902,213.098 L634.894,213.098 L634.894,205.445 L653.886,205.445 L653.886,213.098 L672.878,213.098 L672.878,205.445 L691.87,205.445 L691.87,213.098 L710.862,213.098 L710.862,205.445 L729.854,205.445 L729.854,213.098 L748.846,213.098 L748.846,205.445 L767.839,205.445 L767.839,213.098 L786.831,213.098 L786.831,205.445 L805.823,205.445 L805.823,213.098 L824.815,213.098 L824.815,205.445 L843.807,205.445 L843.807,213.098 L862.799,213.098 L862.799,205.445 L881.791,205.445 L881.791,213.098 L900.784,213.098 L900.784,205.445 L919.776,205.445 L919.776,213.098 L938.768,213.098 L938.768,205.445 L957.76,205.445 L957.76,213.098 L976.752,213.098 L976.752,205.445 L995.744,205.445 L995.744,213.098 L1014.736,213.098 L1014.736,205.445 L1033.728,205.445 L1033.728,213.098 L1052.72,213.098 L1052.72,205.445 L1071.713,205.445 L1071.713,213.098 L1090.705,213.098 L1090.705,205.445 L1109.697,205.445 L1109.697,213.098 L1128.689,213.098 L1128.689,205.445 L1147.681,205.445 L1147.681,213.098 L1166.673,213.098 L1166.673,205.445 L1185.665,205.445 L1185.665,213.098 L1204.66,213.098 L1204.66,232.091 L1223.652,232.091 L1223.652,251.083 L1204.66,251.083 L1204.66,262.421 L1185.667,262.421 L1185.667,270.075 L1223.652,270.075 L1223.652,289.067 L1204.66,289.067 L1204.66,308.059 L1223.652,308.059 L1223.652,327.051 L1204.66,327.051 L1204.66,346.043 L1223.652,346.043 L1223.652,365.035 L1204.66,365.035 L1204.66,384.028 L425.98,384.028 L425.98,365.035 L406.988,365.035 L406.988,346.043 L425.98,346.043 L425.98,327.051 L406.988,327.051 L406.988,308.059 L425.98,308.059 L425.98,289.067 L406.988,289.067 L406.988,270.075 L444.973,270.075 L444.973,262.421 L425.98,262.421 L425.98,251.083 L406.988,251.083 L406.988,232.091 L425.98,232.091 L425.98,213.098 L444.973,213.098 L444.973,205.445 L463.965,205.445 L463.965,213.098 L482.957,213.098 L482.957,205.445 L501.949,205.445 L501.949,213.098 L520.941,213.098 L520.941,205.445 L539.933,205.445 z M1128.691,262.421 L1109.699,262.421 L1109.699,270.075 L1128.691,270.075 L1128.691,262.421 z M1052.722,262.421 L1033.73,262.421 L1033.73,270.075 L1052.722,270.075 L1052.722,262.421 z M976.753,262.421 L957.761,262.421 L957.761,270.075 L976.753,270.075 L976.753,262.421 z M900.785,262.421 L881.792,262.421 L881.792,270.075 L900.785,270.075 L900.785,262.421 z M824.816,262.421 L805.824,262.421 L805.824,270.075 L824.816,270.075 L824.816,262.421 z M748.847,262.421 L729.855,262.421 L729.855,270.075 L748.847,270.075 L748.847,262.421 z M672.878,262.421 L653.886,262.421 L653.886,270.075 L672.878,270.075 L672.878,262.421 z M596.91,262.421 L577.917,262.421 L577.917,270.075 L596.91,270.075 L596.91,262.421 z M520.941,262.421 L501.949,262.421 L501.949,270.075 L520.941,270.075 L520.941,262.421 z M482.957,262.421 L463.965,262.421 L463.965,270.075 L482.957,270.075 L482.957,262.421 z M558.925,262.421 L539.933,262.421 L539.933,270.075 L558.925,270.075 L558.925,262.421 z M634.894,262.421 L615.902,262.421 L615.902,270.075 L634.894,270.075 L634.894,262.421 z M710.863,262.421 L691.87,262.421 L691.87,270.075 L710.863,270.075 L710.863,262.421 z M786.831,262.421 L767.839,262.421 L767.839,270.075 L786.831,270.075 L786.831,262.421 z M862.8,262.421 L843.808,262.421 L843.808,270.075 L862.8,270.075 L862.8,262.421 z M938.769,262.421 L919.777,262.421 L919.777,270.075 L938.769,270.075 L938.769,262.421 z M1014.738,262.421 L995.745,262.421 L995.745,270.075 L1014.738,270.075 L1014.738,262.421 z M1090.707,262.421 L1071.714,262.421 L1071.714,270.075 L1090.707,270.075 L1090.707,262.421 z M1166.675,262.421 L1147.683,262.421 L1147.683,270.075 L1166.675,270.075 L1166.675,262.421 z" fill="#FFFFFF"/>
      <path d="M539.933,205.445 L539.933,213.098 L558.925,213.098 L558.925,205.445 L577.917,205.445 L577.917,213.098 L596.909,213.098 L596.909,205.445 L615.902,205.445 L615.902,213.098 L634.894,213.098 L634.894,205.445 L653.886,205.445 L653.886,213.098 L672.878,213.098 L672.878,205.445 L691.87,205.445 L691.87,213.098 L710.862,213.098 L710.862,205.445 L729.854,205.445 L729.854,213.098 L748.846,213.098 L748.846,205.445 L767.839,205.445 L767.839,213.098 L786.831,213.098 L786.831,205.445 L805.823,205.445 L805.823,213.098 L824.815,213.098 L824.815,205.445 L843.807,205.445 L843.807,213.098 L862.799,213.098 L862.799,205.445 L881.791,205.445 L881.791,213.098 L900.784,213.098 L900.784,205.445 L919.776,205.445 L919.776,213.098 L938.768,213.098 L938.768,205.445 L957.76,205.445 L957.76,213.098 L976.752,213.098 L976.752,205.445 L995.744,205.445 L995.744,213.098 L1014.736,213.098 L1014.736,205.445 L1033.728,205.445 L1033.728,213.098 L1052.72,213.098 L1052.72,205.445 L1071.713,205.445 L1071.713,213.098 L1090.705,213.098 L1090.705,205.445 L1109.697,205.445 L1109.697,213.098 L1128.689,213.098 L1128.689,205.445 L1147.681,205.445 L1147.681,213.098 L1166.673,213.098 L1166.673,205.445 L1185.665,205.445 L1185.665,213.098 L1204.66,213.098 L1204.66,232.091 L1223.652,232.091 L1223.652,251.083 L1204.66,251.083 L1204.66,262.421 L1185.667,262.421 L1185.667,270.075 L1223.652,270.075 L1223.652,289.067 L1204.66,289.067 L1204.66,308.059 L1223.652,308.059 L1223.652,327.051 L1204.66,327.051 L1204.66,346.043 L1223.652,346.043 L1223.652,365.035 L1204.66,365.035 L1204.66,384.028 L425.98,384.028 L425.98,365.035 L406.988,365.035 L406.988,346.043 L425.98,346.043 L425.98,327.051 L406.988,327.051 L406.988,308.059 L425.98,308.059 L425.98,289.067 L406.988,289.067 L406.988,270.075 L444.973,270.075 L444.973,262.421 L425.98,262.421 L425.98,251.083 L406.988,251.083 L406.988,232.091 L425.98,232.091 L425.98,213.098 L444.973,213.098 L444.973,205.445 L463.965,205.445 L463.965,213.098 L482.957,213.098 L482.957,205.445 L501.949,205.445 L501.949,213.098 L520.941,213.098 L520.941,205.445 L539.933,205.445 z M1128.691,262.421 L1109.699,262.421 L1109.699,270.075 L1128.691,270.075 L1128.691,262.421 z M1052.722,262.421 L1033.73,262.421 L1033.73,270.075 L1052.722,270.075 L1052.722,262.421 z M976.753,262.421 L957.761,262.421 L957.761,270.075 L976.753,270.075 L976.753,262.421 z M900.785,262.421 L881.792,262.421 L881.792,270.075 L900.785,270.075 L900.785,262.421 z M824.816,262.421 L805.824,262.421 L805.824,270.075 L824.816,270.075 L824.816,262.421 z M748.847,262.421 L729.855,262.421 L729.855,270.075 L748.847,270.075 L748.847,262.421 z M672.878,262.421 L653.886,262.421 L653.886,270.075 L672.878,270.075 L672.878,262.421 z M596.91,262.421 L577.917,262.421 L577.917,270.075 L596.91,270.075 L596.91,262.421 z M520.941,262.421 L501.949,262.421 L501.949,270.075 L520.941,270.075 L520.941,262.421 z M482.957,262.421 L463.965,262.421 L463.965,270.075 L482.957,270.075 L482.957,262.421 z M558.925,262.421 L539.933,262.421 L539.933,270.075 L558.925,270.075 L558.925,262.421 z M634.894,262.421 L615.902,262.421 L615.902,270.075 L634.894,270.075 L634.894,262.421 z M710.863,262.421 L691.87,262.421 L691.87,270.075 L710.863,270.075 L710.863,262.421 z M786.831,262.421 L767.839,262.421 L767.839,270.075 L786.831,270.075 L786.831,262.421 z M862.8,262.421 L843.808,262.421 L843.808,270.075 L862.8,270.075 L862.8,262.421 z M938.769,262.421 L919.777,262.421 L919.777,270.075 L938.769,270.075 L938.769,262.421 z M1014.738,262.421 L995.745,262.421 L995.745,270.075 L1014.738,270.075 L1014.738,262.421 z M1090.707,262.421 L1071.714,262.421 L1071.714,270.075 L1090.707,270.075 L1090.707,262.421 z M1166.675,262.421 L1147.683,262.421 L1147.683,270.075 L1166.675,270.075 L1166.675,262.421 z" fill-opacity="0" stroke="#000000" stroke-width="1"/>
    </g>
    <g id="logo">
      <path d="M1147.713,340.76 C1147.281,340.76 1146.848,340.76 1146.428,340.724 C1146.104,340.7 1145.779,340.676 1145.455,340.568 C1145.275,340.508 1145.179,340.304 1145.143,340.136 C1145.119,339.98 1145.071,339.836 1145.035,339.679 C1145.023,339.607 1145.023,339.559 1145.119,339.511 C1145.371,339.511 1145.623,339.511 1145.875,339.499 C1146.008,339.499 1146.14,339.475 1146.272,339.451 C1146.308,339.451 1146.98,339.403 1147.269,339.415 C1147.653,339.427 1148.037,339.403 1148.434,339.391 C1148.758,339.379 1149.082,339.343 1149.407,339.343 C1149.575,339.343 1149.755,339.307 1149.923,339.307 C1150.139,339.307 1150.235,339.307 1150.464,339.307 C1150.836,339.343 1151.136,339.427 1151.16,339.775 C1151.172,340.004 1151.136,340.244 1151.1,340.484 C1151.088,340.616 1150.92,340.712 1150.752,340.724 C1150.596,340.724 1150.44,340.724 1150.271,340.724 C1150.283,340.748 1149.286,340.76 1148.794,340.76 L1147.713,340.76 z" fill="#5731F2"/>
      <path d="M1137.18,340.736 C1136.891,340.736 1136.183,340.628 1136.099,340.616 C1135.979,340.616 1135.907,340.544 1135.883,340.448 C1135.847,340.232 1135.811,340.016 1135.798,339.788 C1135.786,339.559 1135.823,339.559 1136.003,339.523 C1136.471,339.427 1136.939,339.355 1137.42,339.379 C1137.792,339.391 1138.165,339.379 1138.525,339.379 C1138.753,339.379 1138.993,339.403 1139.222,339.403 C1139.414,339.403 1140.759,339.379 1141.023,339.343 C1141.083,339.331 1141.335,339.367 1141.396,339.367 C1141.684,339.367 1141.972,339.355 1142.272,339.343 C1142.452,339.343 1142.669,339.812 1142.705,339.872 C1142.813,340.28 1142.705,340.304 1142.597,340.508 C1142.512,340.664 1142.38,340.688 1142.224,340.676 C1142.008,340.664 1141.792,340.652 1141.564,340.652 C1141.468,340.652 1139.846,340.736 1139.654,340.736 L1137.18,340.736 z" fill="#5731F2"/>
      <path d="M1133.096,340.856 C1132.664,340.844 1132.243,340.832 1131.811,340.82 C1131.631,340.808 1131.451,340.796 1131.27,340.796 C1130.934,340.796 1130.61,340.784 1130.274,340.808 C1129.925,340.832 1129.589,340.736 1129.241,340.736 C1128.82,340.736 1128.388,340.688 1127.968,340.652 C1127.595,340.64 1127.343,340.568 1127.055,340.352 C1127.007,340.28 1126.995,340.244 1127.007,340.112 C1127.007,339.98 1127.043,339.812 1127.127,339.739 C1127.307,339.583 1127.523,339.487 1127.787,339.475 C1128.832,339.463 1129.865,339.403 1130.91,339.415 C1131.475,339.415 1132.039,339.523 1132.616,339.583 C1132.832,339.607 1133.048,339.619 1133.264,339.631 C1133.432,339.643 1133.552,339.715 1133.625,339.848 C1133.649,339.896 1133.649,339.968 1133.649,340.028 C1133.649,340.064 1133.577,340.508 1133.48,340.676 C1133.396,340.832 1133.252,340.856 1133.096,340.856 z" fill="#5731F2"/>
      <path d="M1122.082,340.957 C1121.933,340.954 1121.993,340.956 1121.902,340.953 C1121.662,340.929 1121.422,340.904 1121.169,340.88 C1120.857,340.844 1120.545,340.832 1120.245,340.784 C1119.932,340.736 1119.764,340.424 1119.884,340.112 C1119.908,340.028 1119.908,339.944 1119.944,339.86 C1120.04,339.691 1120.437,339.655 1120.593,339.607 C1121.037,339.523 1121.217,339.487 1121.53,339.511 C1121.566,339.511 1121.602,339.523 1121.626,339.523 C1122.094,339.559 1123.427,339.703 1123.56,339.715 C1123.704,339.727 1123.848,339.739 1123.992,339.727 C1124.136,339.727 1124.28,339.691 1124.424,339.691 C1124.713,339.691 1124.989,339.715 1125.277,339.727 C1125.301,339.727 1125.325,339.739 1125.349,339.751 C1125.505,339.836 1125.649,340.184 1125.613,340.388 C1125.565,340.64 1125.433,340.784 1125.181,340.808 C1124.616,340.844 1124.052,340.88 1123.523,340.917 C1123.044,340.948 1122.563,340.955 1122.082,340.957 z" fill="#5731F2"/>
      <path d="M1158.607,340.904 C1158.126,340.892 1157.646,340.868 1157.166,340.844 C1156.997,340.832 1156.829,340.82 1156.673,340.82 C1156.289,340.796 1155.88,340.832 1155.508,340.748 C1154.98,340.628 1154.463,340.676 1153.935,340.64 C1153.658,340.628 1153.55,340.196 1153.526,340.1 C1153.514,340.016 1153.502,339.932 1153.502,339.848 C1153.502,339.667 1153.526,339.643 1153.719,339.631 C1153.923,339.631 1154.127,339.631 1154.343,339.619 C1154.499,339.607 1154.643,339.583 1154.799,339.583 C1155.196,339.583 1155.592,339.607 1155.989,339.607 C1156.517,339.607 1157.046,339.583 1157.586,339.583 C1157.67,339.583 1157.754,339.607 1157.838,339.607 C1157.91,339.607 1157.982,339.607 1158.054,339.607 C1158.319,339.595 1158.583,339.619 1158.751,339.872 C1158.775,339.908 1158.787,339.968 1158.799,340.016 C1158.823,340.196 1158.847,340.364 1158.883,340.544 C1158.931,340.748 1158.811,340.917 1158.607,340.904 z" fill="#5731F2"/>
      <path d="M1163.479,340.917 L1163.423,340.917 C1163.087,340.892 1162.763,340.917 1162.426,340.904 C1162.198,340.904 1161.97,340.917 1161.754,340.868 C1161.514,340.808 1161.357,340.46 1161.429,340.208 C1161.441,340.148 1161.453,340.088 1161.477,340.04 C1161.562,339.775 1161.754,339.679 1162.03,339.703 C1162.354,339.727 1162.679,339.691 1163.003,339.679 C1163.207,339.679 1163.411,339.679 1163.627,339.679 C1163.76,339.679 1165.213,339.739 1165.321,339.739 C1165.441,339.739 1166.93,339.872 1167.087,339.884 C1167.303,339.908 1167.495,340.172 1167.531,340.328 C1167.591,340.604 1167.519,340.688 1167.219,340.724 C1166.954,340.736 1166.678,340.772 1166.294,340.82 C1165.994,340.82 1165.597,340.82 1165.189,340.82 C1164.618,340.845 1164.049,340.9 1163.479,340.917 z" fill="#5731F2"/>
      <path d="M1172.544,340.979 L1172.419,340.977 C1171.855,340.965 1171.29,340.953 1170.726,340.929 C1170.678,340.929 1170.594,340.868 1170.594,340.832 C1170.582,340.652 1170.582,340.484 1170.606,340.304 C1170.618,340.172 1170.726,340.112 1170.858,340.088 C1171.074,340.052 1171.302,340.004 1171.518,339.98 C1171.819,339.944 1172.119,339.92 1172.419,339.896 C1172.972,339.848 1173.536,339.812 1174.089,339.739 C1174.569,339.667 1175.026,339.679 1175.47,339.86 C1175.65,339.932 1175.722,340.016 1175.722,340.22 C1175.734,340.628 1175.554,340.844 1175.146,340.929 C1175.026,340.953 1174.906,340.941 1174.785,340.941 C1174.293,340.941 1173.801,340.941 1173.32,340.941 C1173.311,340.944 1173.303,340.948 1173.294,340.949 C1173.045,340.98 1172.794,340.977 1172.544,340.979 z" fill="#5731F2"/>
      <path d="M1132.665,344.283 L1132.063,344.28 C1131.487,344.28 1130.922,344.231 1130.358,344.195 C1130.021,344.183 1129.673,344.159 1129.337,344.135 C1128.868,344.111 1128.388,344.075 1127.919,344.051 C1127.523,344.027 1127.127,344.003 1126.73,343.967 C1126.262,343.931 1125.806,343.871 1125.337,343.823 C1124.941,343.787 1123.475,343.763 1123.079,343.739 C1122.647,343.703 1121.53,343.703 1121.362,343.667 C1121.037,343.607 1121.001,343.607 1120.389,343.535 C1119.968,343.463 1119.692,343.259 1119.62,342.85 C1119.62,342.814 1119.608,342.79 1119.596,342.754 C1119.56,342.598 1119.644,342.49 1119.812,342.502 C1119.992,342.514 1120.184,342.514 1120.365,342.538 C1120.665,342.574 1120.977,342.61 1121.277,342.646 C1121.494,342.67 1121.698,342.694 1121.914,342.706 C1122.395,342.73 1122.875,342.742 1123.355,342.766 C1123.487,342.778 1123.608,342.766 1123.728,342.766 C1123.908,342.754 1124.556,342.79 1124.688,342.79 C1125.589,342.802 1127.955,342.898 1128.244,342.898 C1128.736,342.91 1129.241,342.922 1129.733,342.922 C1129.937,342.922 1132.243,342.85 1132.411,342.838 C1132.772,342.826 1133.132,342.814 1133.504,342.814 C1133.709,342.814 1135.21,342.862 1135.474,342.874 C1135.786,342.886 1136.099,342.91 1136.411,342.922 C1136.543,342.922 1137.648,342.958 1137.72,342.946 C1138.561,342.934 1141.023,342.85 1141.42,342.802 C1141.588,342.79 1143.161,342.694 1143.401,342.658 C1143.69,342.622 1143.978,342.598 1144.266,342.574 C1144.278,342.574 1144.29,342.574 1144.29,342.574 C1144.674,342.55 1145.059,342.526 1145.443,342.526 C1145.623,342.526 1150.476,342.394 1150.764,342.394 C1151.028,342.394 1151.665,342.406 1151.725,342.406 C1152.289,342.43 1152.854,342.442 1153.418,342.466 C1153.502,342.466 1154.499,342.574 1154.908,342.562 C1155.124,342.55 1156.529,342.622 1156.937,342.61 C1157.19,342.61 1157.442,342.61 1157.694,342.61 C1157.898,342.61 1159.832,342.718 1160.12,342.706 C1160.36,342.706 1160.937,342.742 1160.997,342.742 C1161.153,342.742 1164.516,342.694 1164.54,342.682 C1164.744,342.67 1166.966,342.718 1167.171,342.694 C1167.483,342.658 1169.405,342.586 1169.657,342.49 C1169.765,342.454 1169.885,342.454 1169.993,342.442 C1170.233,342.418 1172.311,342.31 1172.479,342.298 C1172.719,342.286 1175.014,342.07 1175.41,342.082 C1175.77,342.13 1176.095,342.286 1176.419,342.442 C1176.527,342.49 1176.995,342.862 1177.079,343.138 C1177.115,343.283 1177.115,343.319 1177.079,343.391 C1176.995,343.523 1176.911,343.535 1176.779,343.535 C1176.299,343.559 1175.218,343.619 1174.737,343.643 C1174.377,343.655 1172.852,343.619 1172.539,343.619 C1172.215,343.619 1170.858,343.643 1170.498,343.679 C1170.281,343.703 1170.065,343.715 1169.849,343.739 C1168.888,343.847 1166.51,343.847 1166.27,343.859 C1165.813,343.883 1165.345,343.895 1164.889,343.919 C1164.576,343.931 1162.462,343.835 1162.138,343.835 C1162.126,343.835 1162.114,343.835 1162.09,343.835 C1161.381,343.847 1160.685,343.859 1159.976,343.859 C1159.64,343.859 1159.303,343.835 1158.979,343.835 C1158.487,343.847 1157.994,343.871 1157.502,343.895 C1157.322,343.907 1157.13,343.919 1156.949,343.919 C1156.469,343.943 1156.001,343.967 1155.52,343.979 C1155.052,343.979 1154.571,343.967 1154.103,343.955 C1153.658,343.943 1153.214,343.943 1152.77,343.931 C1152.361,343.919 1151.953,343.895 1151.545,343.871 C1151.364,343.859 1151.196,343.847 1151.016,343.847 C1150.488,343.835 1149.959,343.823 1149.419,343.823 C1148.986,343.823 1148.554,343.835 1148.134,343.847 C1147.761,343.859 1147.377,343.907 1147.005,343.931 C1146.969,343.931 1146.932,343.931 1146.908,343.931 C1146.584,343.943 1146.248,343.943 1145.924,343.955 C1145.575,343.967 1145.215,343.991 1144.867,344.015 C1144.458,344.039 1144.038,344.063 1143.63,344.075 C1143.209,344.087 1142.801,344.099 1142.38,344.111 C1142.164,344.123 1141.936,344.135 1141.72,344.135 C1141.215,344.135 1140.711,344.111 1140.194,344.111 C1139.714,344.111 1139.234,344.135 1138.741,344.135 C1138.609,344.135 1138.489,344.111 1138.357,344.111 C1137.828,344.123 1137.3,344.147 1136.771,344.171 C1136.399,344.183 1136.015,344.207 1135.642,344.231 C1135.246,344.243 1134.862,344.255 1134.465,344.255 C1133.464,344.273 1134.064,344.263 1132.665,344.283 z" fill="#5731F2"/>
      <path d="M1123.254,367.18 C1123.094,367.158 1123.157,367.188 1123.055,367.112 C1122.707,366.764 1122.539,366.367 1122.659,365.863 C1122.683,365.743 1122.695,365.611 1122.719,365.491 C1122.759,365.294 1122.834,365.254 1123.025,365.239 L1123.031,365.226 C1123.091,365.034 1123.127,364.842 1123.199,364.65 C1123.271,364.446 1123.523,363.629 1123.56,363.413 C1123.596,363.124 1123.632,362.848 1123.668,362.56 C1123.68,362.44 1123.692,362.32 1123.704,362.188 C1123.716,362.043 1123.896,359.389 1123.86,359.293 C1123.86,359.293 1123.764,359.101 1123.728,359.293 C1123.632,359.893 1123.391,361.575 1123.271,362.152 C1123.115,362.728 1122.803,363.425 1122.539,363.941 C1122.346,364.325 1122.118,364.71 1121.914,365.082 C1121.902,365.106 1121.902,365.13 1121.89,365.142 C1121.746,365.058 1121.602,364.986 1121.458,364.902 C1121.65,364.506 1121.83,364.097 1122.046,363.713 C1122.262,363.341 1122.443,362.956 1122.575,362.548 C1122.62,362.409 1122.67,362.272 1122.712,362.132 C1122.572,362.084 1122.632,362.087 1122.539,362.091 C1122.348,362.157 1122.467,362.114 1122.183,362.226 C1122.093,362.392 1122.013,362.566 1121.914,362.728 C1121.53,363.293 1121.542,363.425 1121.277,363.713 C1121.073,363.929 1120.869,364.145 1120.641,364.349 C1120.443,364.522 1120.227,364.674 1120.017,364.832 C1120.039,364.899 1120.09,364.949 1120.125,365.01 C1120.257,365.418 1120.088,365.647 1119.872,365.935 C1119.687,366.167 1119.427,366.145 1119.157,366.153 C1118.806,366.063 1118.942,366.127 1118.731,366.007 C1118.671,365.959 1118.611,365.791 1118.563,365.731 C1118.551,365.527 1118.683,365.334 1118.719,365.226 C1118.851,365.058 1119.007,364.866 1119.2,364.77 C1119.346,364.683 1119.523,364.689 1119.688,364.686 C1119.845,364.435 1119.76,364.559 1119.944,364.313 C1120.341,363.893 1121.386,362.344 1121.386,362.272 L1121.396,362.242 C1121.24,362.038 1121.323,362.14 1121.145,361.935 C1121.001,361.779 1120.929,361.611 1120.881,361.407 C1120.809,361.107 1120.713,360.806 1120.629,360.494 L1120.663,360.408 C1120.636,360.468 1120.652,360.432 1120.617,360.518 C1120.341,361.059 1120.125,361.635 1119.956,362.224 C1119.832,362.731 1119.89,362.48 1119.782,362.976 L1119.788,362.992 C1119.8,363.244 1119.752,363.497 1119.596,363.713 C1119.44,363.929 1118.983,364.073 1118.803,363.893 C1118.755,363.845 1118.707,363.761 1118.719,363.713 C1118.743,363.545 1118.779,363.365 1118.863,363.22 C1118.923,363.1 1119.068,363.028 1119.176,362.944 C1119.255,362.859 1119.215,362.899 1119.296,362.823 C1119.318,362.365 1119.48,361.931 1119.632,361.503 C1119.732,361.22 1119.827,360.934 1119.915,360.647 C1119.93,360.601 1119.989,360.433 1119.992,360.354 C1119.657,360.788 1119.829,360.569 1119.476,361.01 C1119.296,361.227 1119.116,361.455 1118.923,361.659 C1118.875,361.719 1118.779,361.755 1118.695,361.755 C1118.383,361.767 1118.095,361.719 1117.842,361.515 C1117.746,361.431 1117.602,361.383 1117.494,361.311 C1117.302,361.191 1117.23,361.01 1117.218,360.794 C1117.206,360.65 1117.17,360.506 1117.134,360.362 C1117.134,360.242 1117.134,360.11 1117.134,359.99 C1117.266,359.653 1117.386,359.317 1117.542,358.993 C1117.674,358.716 1117.854,358.464 1118.011,358.212 C1118.203,357.9 1118.395,357.587 1118.611,357.299 C1118.767,357.083 1118.947,356.879 1119.14,356.687 C1119.5,356.302 1119.836,355.894 1120.136,355.474 C1120.172,355.425 1120.208,355.389 1120.257,355.353 C1120.245,355.51 1120.293,355.63 1120.413,355.726 C1120.628,355.873 1120.5,355.793 1120.803,355.953 C1120.65,355.849 1120.562,355.782 1120.425,355.678 C1120.305,355.594 1120.257,355.462 1120.269,355.305 C1120.341,355.233 1120.401,355.149 1120.473,355.077 C1120.605,354.921 1120.725,354.777 1120.941,354.729 C1121.061,354.705 1121.157,354.621 1121.266,354.549 C1121.5,354.383 1121.777,354.313 1122.057,354.273 C1122.056,354.252 1122.057,354.268 1122.046,354.224 C1121.842,353.912 1121.746,353.564 1121.71,353.203 C1121.698,353.035 1121.662,352.879 1121.662,352.711 C1121.662,352.471 1121.686,352.219 1121.686,351.978 C1121.686,351.81 1121.626,351.654 1121.638,351.486 C1121.662,351.15 1121.71,350.813 1121.746,350.489 C1121.77,350.249 1121.794,349.997 1121.806,349.756 C1121.818,349.576 1121.83,349.408 1121.842,349.18 C1121.722,349.264 1121.626,349.324 1121.542,349.384 C1121.145,349.696 1120.761,350.021 1120.353,350.333 C1120.064,350.549 1119.752,350.717 1119.38,350.681 C1119.152,350.657 1118.947,350.597 1118.779,350.429 C1118.707,350.369 1118.683,350.297 1118.719,350.189 C1118.791,350.009 1118.875,349.889 1119.043,349.768 C1119.464,349.504 1119.848,349.192 1120.233,348.88 C1120.665,348.543 1121.025,348.111 1121.506,347.835 C1121.554,347.811 1121.77,347.667 1121.914,347.655 C1122.01,347.366 1122.106,347.078 1122.178,346.79 C1122.226,346.622 1122.238,346.441 1122.262,346.261 C1122.298,345.901 1122.31,345.529 1122.358,345.168 C1122.382,345.024 1122.503,344.892 1122.575,344.76 C1122.647,344.628 1122.731,344.604 1122.875,344.64 C1123.127,344.712 1123.391,344.724 1123.632,344.796 C1123.788,344.844 1123.932,344.928 1124.076,345 C1124.58,345.252 1124.989,345.625 1125.433,345.961 C1125.589,346.081 1125.709,346.261 1125.842,346.417 C1125.998,346.61 1126.178,346.79 1126.298,346.994 C1126.466,347.294 1126.598,347.606 1126.73,347.931 C1126.778,348.039 1126.682,348.147 1126.562,348.123 C1126.25,348.063 1125.95,347.979 1125.709,347.775 C1125.265,347.414 1124.833,347.042 1124.388,346.682 C1124.196,346.526 1124.004,346.381 1123.8,346.237 C1123.68,346.153 1123.62,346.177 1123.596,346.309 C1123.547,346.586 1123.523,346.862 1123.475,347.138 C1123.439,347.414 1123.391,347.703 1123.343,347.979 C1123.307,348.231 1123.271,348.483 1123.247,348.736 C1123.211,349.096 1123.175,349.456 1123.139,349.828 C1123.139,349.877 1123.139,349.925 1123.139,349.973 C1123.115,351.222 1123.103,352.459 1123.079,353.708 C1123.079,353.816 1122.995,353.912 1122.947,354.008 L1122.844,354.232 C1123.247,354.183 1123.59,354.381 1123.884,354.633 C1123.968,354.705 1123.98,354.705 1124.04,354.789 C1124.231,354.97 1124.149,354.873 1124.291,355.076 C1124.851,355.329 1125.36,355.675 1125.854,356.038 C1126.118,356.242 1126.322,356.518 1126.55,356.771 C1126.67,356.903 1126.778,357.059 1126.899,357.191 C1127.175,357.479 1127.295,357.852 1127.475,358.188 C1127.619,358.464 1127.751,358.74 1127.835,359.041 C1127.919,359.293 1127.931,359.569 1127.968,359.833 C1127.979,359.905 1127.943,360.002 1127.895,360.074 C1127.775,360.266 1127.607,360.398 1127.367,360.458 C1127.187,360.506 1127.007,360.578 1126.839,360.65 C1126.443,360.79 1126.684,360.724 1126.105,360.801 L1125.854,360.77 C1125.565,360.71 1125.277,360.638 1124.989,360.566 C1124.797,360.518 1124.689,360.362 1124.604,360.194 C1124.556,360.098 1124.496,359.99 1124.448,359.893 L1124.384,359.779 C1124.382,359.987 1124.379,359.896 1124.388,360.05 C1124.352,360.65 1124.352,360.65 1124.316,361.119 C1124.316,361.131 1124.28,361.635 1124.256,361.887 C1124.232,362.224 1124.136,362.668 1124.076,362.992 C1123.992,363.461 1123.884,363.821 1123.776,364.289 C1123.572,364.746 1123.572,364.746 1123.415,365.094 C1123.379,365.19 1123.355,365.274 1123.319,365.37 C1123.251,365.398 1123.278,365.384 1123.236,365.409 C1123.274,365.402 1123.246,365.408 1123.319,365.382 C1123.596,365.466 1123.692,365.671 1123.668,365.935 C1123.644,366.223 1123.632,366.499 1123.572,366.776 C1123.536,366.92 1123.415,367.04 1123.307,367.148 L1123.254,367.18 z M1122.791,361.671 C1122.827,361.419 1122.851,361.167 1122.875,360.914 L1122.791,361.671 z" fill="#5731F2"/>
      <path d="M1131.727,372.024 C1131.523,371.976 1131.294,371.976 1131.078,371.976 C1130.562,371.82 1130.238,371.424 1129.901,371.039 C1129.805,370.931 1129.709,370.811 1129.589,370.739 C1129.361,370.595 1129.277,370.367 1129.205,370.127 C1129.109,369.754 1129.048,369.37 1129.06,368.986 C1129.06,368.878 1129.036,368.781 1129.036,368.673 C1129.012,368.097 1129.109,367.532 1129.313,366.992 C1129.397,366.776 1129.385,366.752 1129.181,366.668 C1128.94,366.571 1128.688,366.511 1128.436,366.415 C1128.28,366.355 1128.136,366.259 1127.968,366.199 C1127.763,366.127 1127.559,366.079 1127.355,366.019 C1127.127,365.947 1126.935,365.827 1126.79,365.623 C1126.718,365.527 1126.622,365.442 1126.526,365.358 C1126.31,365.166 1126.178,364.926 1126.094,364.662 C1125.974,364.289 1125.878,363.929 1125.781,363.557 C1125.745,363.425 1125.757,363.281 1125.781,363.16 C1126.046,362.56 1127.019,362.2 1127.247,362.091 C1127.475,361.911 1127.739,361.791 1128.027,361.743 C1128.34,361.683 1128.64,361.611 1128.952,361.575 C1129.337,361.539 1129.697,361.659 1130.057,361.767 C1130.069,361.767 1130.081,361.767 1130.105,361.767 C1130.538,361.995 1130.982,362.236 1131.427,362.476 C1131.439,362.428 1131.439,362.416 1131.439,362.392 L1131.438,362.383 C1131.436,362.415 1131.438,362.392 1131.427,362.452 C1130.982,362.212 1130.538,361.983 1130.105,361.743 C1130.081,361.503 1130.057,361.275 1130.045,361.035 C1130.033,360.674 1130.033,360.314 1130.009,359.954 C1129.985,359.677 1129.937,359.401 1129.901,359.125 C1129.877,358.945 1129.877,358.752 1129.865,358.572 C1129.853,358.212 1129.841,357.852 1129.829,357.479 C1129.829,357.455 1129.829,357.443 1129.817,357.383 C1129.757,357.443 1129.709,357.479 1129.685,357.527 C1129.397,358.104 1128.892,358.368 1128.292,358.488 C1128.172,358.512 1128.052,358.416 1128.052,358.284 C1128.052,358.008 1128.052,357.744 1128.172,357.491 C1128.244,357.335 1128.244,357.155 1128.304,356.987 C1128.556,356.314 1129.024,355.882 1129.733,355.726 C1129.841,355.702 1129.973,355.486 1129.961,355.365 C1129.913,355.017 1129.877,354.669 1129.841,354.32 C1129.817,354.104 1129.781,353.888 1129.757,353.672 C1129.757,353.636 1129.733,353.612 1129.661,353.528 C1129.613,353.612 1129.553,353.696 1129.505,353.768 C1129.169,354.236 1128.688,354.513 1128.184,354.741 C1128.112,354.765 1128.027,354.765 1127.955,354.765 C1127.859,354.765 1127.823,354.681 1127.823,354.597 C1127.823,354.477 1127.811,354.369 1127.823,354.248 C1127.835,354.176 1127.883,354.104 1127.931,354.056 C1128.376,353.552 1128.94,353.203 1129.553,352.939 C1129.673,352.891 1129.709,352.819 1129.709,352.699 C1129.685,352.087 1129.673,351.462 1129.649,350.849 C1129.637,350.633 1129.613,350.429 1129.589,350.165 C1129.421,350.297 1129.277,350.405 1129.145,350.513 C1128.796,350.813 1128.46,351.126 1128.088,351.414 C1127.931,351.534 1127.739,351.678 1127.511,351.666 C1127.403,351.666 1127.295,351.654 1127.187,351.63 C1127.031,351.606 1126.922,351.414 1126.899,351.222 C1126.862,350.849 1127.007,350.561 1127.319,350.345 C1127.511,350.213 1127.679,350.045 1127.883,349.949 C1128.34,349.744 1128.82,349.552 1129.349,349.624 C1129.409,349.636 1129.457,349.636 1129.541,349.66 C1129.529,349.42 1129.517,349.192 1129.493,348.952 C1129.469,348.675 1129.421,348.411 1129.385,348.135 C1129.337,347.811 1129.301,347.486 1129.253,347.162 C1129.181,346.706 1129.084,346.249 1129.048,345.793 C1129.036,345.625 1129.109,345.397 1129.217,345.276 C1129.349,345.132 1129.565,345.06 1129.757,344.988 C1129.865,344.952 1129.997,344.976 1130.081,345.084 C1130.165,345.204 1130.261,345.336 1130.31,345.469 C1130.406,345.769 1130.466,346.093 1130.55,346.393 C1130.658,346.778 1130.802,347.15 1130.91,347.534 C1130.982,347.811 1131.03,348.087 1131.09,348.363 C1131.162,348.711 1131.234,349.06 1131.307,349.396 C1131.379,349.744 1131.463,350.105 1131.547,350.453 C1131.547,350.477 1131.571,350.609 1131.595,350.873 C1131.595,350.873 1131.655,351.258 1131.703,351.594 C1131.727,351.738 1131.811,351.798 1131.907,351.87 C1131.991,351.93 1132.099,351.942 1132.195,351.966 C1132.303,351.99 1132.988,352.291 1133.084,352.363 C1133.24,352.483 1133.42,352.579 1133.6,352.663 C1134.069,352.867 1134.489,353.131 1134.754,353.588 C1134.862,353.78 1134.91,353.996 1134.874,354.236 C1134.838,354.477 1134.754,354.705 1134.646,354.909 C1134.585,355.029 1134.453,355.077 1134.345,355.041 C1133.997,354.945 1133.661,354.825 1133.312,354.705 C1133.204,354.669 1133.12,354.561 1133.024,354.477 C1132.82,354.284 1132.64,354.092 1132.435,353.9 C1132.279,353.756 1132.111,353.624 1132.027,353.42 C1132.015,353.372 1131.967,353.336 1131.907,353.276 C1131.895,353.36 1131.883,353.396 1131.883,353.444 C1131.883,354.044 1131.883,354.657 1131.883,355.257 C1131.883,355.389 1131.931,355.474 1132.075,355.498 C1132.435,355.558 1132.796,355.606 1133.168,355.666 C1133.336,355.69 1133.492,355.738 1133.661,355.75 C1133.973,355.786 1134.273,355.882 1134.561,356.014 C1134.922,356.182 1135.066,356.482 1135.126,356.843 C1135.15,357.011 1135.186,357.179 1135.198,357.347 C1135.198,357.395 1135.15,357.467 1135.114,357.479 C1134.165,357.732 1133.288,357.575 1132.495,356.999 C1132.303,356.855 1132.135,356.687 1132.039,356.458 C1132.027,356.41 1131.991,356.374 1131.931,356.29 C1131.907,356.386 1131.895,356.434 1131.895,356.494 C1131.895,357.491 1131.895,358.488 1131.895,359.473 C1131.859,359.785 1131.895,360.062 1131.919,360.338 C1131.895,360.374 1131.883,360.41 1131.859,360.434 C1131.641,360.708 1131.463,361.022 1131.432,361.378 C1131.479,361.035 1131.665,360.735 1131.859,360.458 C1131.883,360.434 1131.895,360.398 1131.919,360.362 C1132.135,360.134 1132.351,359.906 1132.568,359.677 C1132.928,359.293 1133.384,359.065 1133.865,358.873 C1134.057,358.789 1134.249,358.668 1134.453,358.632 C1134.91,358.56 1135.366,358.44 1135.834,358.5 C1136.411,358.56 1136.952,358.716 1137.372,359.161 C1137.792,359.593 1137.996,360.098 1137.936,360.71 C1137.9,361.083 1137.768,361.443 1137.492,361.707 C1137.06,362.128 1136.627,362.548 1136.183,362.956 C1135.786,363.317 1135.366,363.665 1134.958,364.013 C1134.922,364.049 1134.874,364.085 1134.85,364.121 C1134.814,364.181 1134.814,364.253 1134.898,364.265 C1135.258,364.325 1135.618,364.386 1135.979,364.446 C1136.375,364.506 1136.771,364.566 1137.156,364.614 C1137.66,364.59 1138.381,364.734 1138.813,365.394 C1138.825,365.707 1138.825,365.707 1138.741,365.827 C1138.465,366.199 1138.201,366.571 1137.888,366.92 C1137.588,367.244 1137.252,367.532 1136.867,367.749 C1136.615,367.893 1136.339,367.893 1136.063,367.941 C1135.931,367.965 1135.798,367.977 1135.666,367.965 C1135.546,367.965 1135.438,367.941 1135.318,367.905 C1134.838,367.797 1134.345,367.676 1133.865,367.556 C1133.793,367.532 1133.709,367.496 1133.637,367.472 C1133.492,367.412 1133.408,367.472 1133.432,367.628 C1133.528,368.253 1133.625,368.866 1133.709,369.49 C1133.745,369.754 1133.769,370.019 1133.733,370.271 C1133.697,370.463 1133.564,370.643 1133.444,370.799 C1133.144,371.208 1132.724,371.484 1132.291,371.712 C1132.099,371.808 1131.919,371.916 1131.727,372.024 z M1131.433,362.328 C1131.43,362.301 1131.432,362.314 1131.427,362.288 L1131.433,362.328 z" fill="#5731F2"/>
      <path d="M1172.641,355.67 L1171.735,355.666 C1171.723,355.63 1169.344,355.594 1168.167,355.57 C1167.819,355.57 1167.519,355.462 1167.219,355.353 C1167.183,355.341 1167.135,355.293 1167.123,355.257 C1166.966,354.513 1167.062,352.327 1167.062,352.291 C1167.062,351.798 1167.038,351.306 1167.062,350.825 C1167.11,349.432 1167.171,348.039 1167.243,346.646 C1167.255,346.357 1167.303,346.069 1167.339,345.793 C1167.363,345.577 1167.495,345.445 1167.711,345.409 C1168.083,345.336 1168.468,345.276 1168.852,345.24 C1169.344,345.192 1169.837,345.18 1170.329,345.156 C1170.485,345.144 1170.485,345.156 1170.474,345.324 C1170.449,345.661 1170.462,345.985 1170.438,346.321 C1170.389,346.898 1170.317,347.474 1170.269,348.051 C1170.233,348.483 1170.233,348.928 1170.233,349.36 C1170.233,349.865 1170.245,350.357 1170.257,350.861 C1170.269,351.174 1170.377,351.294 1170.69,351.318 C1171.338,351.378 1171.975,351.438 1172.623,351.498 C1172.696,351.51 1172.768,351.522 1172.84,351.534 C1173.044,351.582 1173.176,351.498 1173.2,351.294 C1173.272,350.453 1173.344,349.612 1173.404,348.772 C1173.476,347.727 1173.548,346.694 1173.62,345.649 C1173.632,345.541 1173.632,345.433 1173.656,345.324 C1173.692,345.132 1173.74,345.096 1173.933,345.084 C1174.473,345.06 1175.002,345.144 1175.53,345.276 C1175.686,345.312 1175.842,345.348 1175.986,345.397 C1176.203,345.457 1176.251,345.505 1176.251,345.721 C1176.239,346.49 1176.263,347.27 1176.215,348.039 C1176.167,348.796 1176.287,349.54 1176.275,350.297 C1176.263,351.15 1176.263,352.002 1176.227,352.855 C1176.203,353.672 1176.155,354.501 1176.119,355.317 C1176.107,355.534 1176.083,355.57 1175.866,355.582 C1175.098,355.618 1174.317,355.654 1173.548,355.666 L1172.641,355.67 z" fill="#5731F2"/>
      <path d="M1158.644,367.978 C1158.438,367.887 1158.523,367.94 1158.379,367.833 C1157.394,367.04 1156.481,366.175 1155.64,365.238 C1154.163,363.593 1152.71,361.935 1151.292,360.23 C1151.028,359.918 1150.764,359.593 1150.5,359.269 C1150.392,359.137 1150.392,359.089 1150.512,358.981 C1150.68,358.837 1150.86,358.704 1151.028,358.56 C1151.064,358.524 1151.112,358.464 1151.112,358.416 C1151.196,357.419 1151.28,356.422 1151.34,355.413 C1151.388,354.561 1151.412,353.72 1151.46,352.867 C1151.473,352.735 1151.497,352.615 1151.509,352.483 C1151.569,351.906 1151.629,351.318 1151.677,350.741 C1151.761,349.877 1151.821,349 1151.917,348.135 C1151.989,347.486 1152.109,346.85 1152.205,346.201 C1152.217,346.081 1152.277,346.021 1152.409,346.021 C1152.662,345.997 1154.703,345.997 1155.004,345.961 C1155.1,345.949 1157.334,345.853 1157.586,345.817 C1157.766,345.793 1158.379,345.793 1158.499,345.781 C1158.787,345.757 1159.075,345.721 1159.352,345.673 C1159.52,345.649 1160.457,345.481 1160.673,345.469 C1160.925,345.457 1161.165,345.397 1161.417,345.384 C1161.694,345.372 1163.171,345.421 1163.627,345.397 C1163.892,345.384 1163.94,345.409 1163.964,345.673 C1164.024,346.237 1164.072,346.802 1164.144,347.354 C1164.216,347.859 1164.288,348.375 1164.408,348.868 C1164.516,349.312 1164.54,349.756 1164.504,350.201 C1164.444,350.909 1164.396,351.63 1164.336,352.339 C1164.324,352.543 1164.288,352.735 1164.288,352.939 C1164.288,353.24 1164.312,353.528 1164.3,353.828 C1164.288,354.513 1164.276,355.197 1164.264,355.882 C1164.264,356.002 1164.264,356.122 1164.252,356.242 C1164.24,356.386 1164.312,356.47 1164.432,356.494 C1164.901,356.579 1165.309,356.807 1165.729,356.999 C1165.909,357.083 1166.078,357.155 1166.246,357.251 C1166.354,357.311 1166.45,357.395 1166.522,357.491 C1166.606,357.587 1166.618,357.696 1166.546,357.816 C1166.198,358.368 1165.849,358.921 1165.513,359.473 C1164.816,360.602 1163.928,361.575 1163.171,362.644 C1162.715,363.281 1162.15,363.821 1161.754,364.494 C1161.61,364.734 1161.417,364.95 1161.237,365.166 C1161.081,365.358 1160.913,365.527 1160.757,365.719 C1160.745,365.731 1160.745,365.743 1160.733,365.743 C1160.493,365.803 1160.445,366.043 1160.312,366.211 C1160.156,366.415 1159.964,366.608 1159.808,366.812 C1159.664,366.992 1159.532,367.172 1159.388,367.352 C1159.28,367.496 1159.159,367.64 1159.039,367.773 C1158.881,367.948 1158.869,367.959 1158.644,367.978 z M1154.736,356.292 C1154.78,356.292 1154.82,356.27 1154.859,356.254 C1154.896,356.23 1154.92,356.182 1154.932,356.146 C1154.944,355.966 1154.956,355.774 1154.944,355.594 C1154.944,355.389 1154.92,355.173 1154.908,354.969 C1154.896,354.465 1155.028,353.972 1154.944,353.468 C1154.944,353.444 1154.944,353.408 1154.944,353.384 C1154.968,353.119 1154.98,352.855 1155.004,352.591 C1155.016,352.291 1155.004,351.99 1155.04,351.69 C1155.088,351.234 1155.172,350.777 1155.232,350.321 C1155.256,350.153 1155.256,349.985 1155.268,349.816 C1156.001,349.66 1156.733,349.576 1157.478,349.588 C1157.874,349.588 1158.271,349.576 1158.667,349.576 C1158.835,349.576 1158.991,349.588 1159.159,349.6 C1159.195,349.6 1159.231,349.612 1159.255,349.6 C1159.784,349.516 1160.312,349.636 1160.829,349.612 C1160.829,349.612 1160.841,349.612 1160.841,349.612 C1160.961,349.636 1161.045,349.696 1161.045,349.828 C1161.057,350.021 1161.069,350.225 1161.093,350.417 C1161.105,350.549 1161.081,350.621 1160.937,350.621 C1160.817,350.633 1160.769,350.693 1160.793,350.813 C1160.805,350.861 1160.805,350.909 1160.817,350.957 C1160.901,351.246 1160.913,351.546 1160.925,351.846 C1160.937,352.171 1160.997,352.507 1161.057,352.831 C1161.141,353.36 1161.201,353.9 1161.381,354.417 C1161.49,354.717 1161.537,355.017 1161.514,355.341 C1161.49,355.606 1161.537,355.702 1161.778,355.81 C1161.886,355.858 1161.994,355.798 1161.994,355.678 C1161.994,355.63 1161.982,355.582 1161.982,355.534 C1161.97,355.293 1161.97,355.053 1161.958,354.813 C1161.958,354.717 1161.982,354.609 1161.946,354.513 C1161.862,354.26 1161.958,354.008 1161.982,353.768 C1162.006,353.504 1162.114,353.24 1162.162,352.975 C1162.27,352.363 1162.366,351.762 1162.486,351.15 C1162.583,350.645 1162.606,350.153 1162.558,349.648 C1162.546,349.468 1162.606,349.288 1162.63,349.108 C1162.643,349.048 1162.667,349 1162.667,348.94 C1162.655,348.663 1162.643,348.399 1162.619,348.123 C1162.594,347.907 1162.583,347.907 1162.354,347.931 C1161.874,347.991 1161.393,348.039 1160.913,348.111 C1159.832,348.267 1158.751,348.291 1157.67,348.303 C1156.829,348.303 1155.977,348.267 1155.136,348.255 C1154.763,348.243 1154.391,348.255 1154.031,348.255 C1154.019,348.231 1153.971,348.231 1153.899,348.231 C1153.899,348.315 1153.899,348.375 1153.911,348.435 C1154.091,349.144 1154.151,349.877 1154.259,350.609 C1154.379,351.438 1154.523,352.255 1154.643,353.083 C1154.667,353.216 1154.631,353.348 1154.619,353.48 C1154.619,353.528 1154.595,353.576 1154.595,353.624 C1154.523,354.417 1154.463,355.209 1154.403,356.002 C1154.403,356.074 1154.415,356.182 1154.463,356.23 C1154.53,356.279 1154.486,356.253 1154.603,356.291 C1154.69,356.29 1154.646,356.29 1154.736,356.292 z M1155.796,352.675 C1155.953,352.639 1155.989,352.531 1156.001,352.411 C1156.013,352.291 1156.061,352.243 1156.169,352.243 C1156.649,352.231 1157.118,352.231 1157.598,352.219 C1157.694,352.219 1157.79,352.207 1157.898,352.207 C1157.91,351.738 1157.922,351.27 1157.934,350.813 C1157.934,350.705 1157.874,350.645 1157.766,350.633 C1157.622,350.609 1157.478,350.585 1157.322,350.573 C1156.841,350.537 1156.361,350.513 1155.868,350.489 C1155.58,350.477 1155.544,350.525 1155.568,350.813 C1155.628,351.378 1155.676,351.954 1155.736,352.519 C1155.76,352.567 1155.784,352.615 1155.796,352.675 z M1159.928,352.291 C1159.928,352.279 1159.928,352.267 1159.928,352.267 C1160.024,352.267 1160.132,352.279 1160.228,352.267 C1160.349,352.255 1160.432,352.219 1160.421,352.062 C1160.396,351.678 1160.385,351.282 1160.36,350.897 C1160.349,350.705 1160.324,350.693 1160.12,350.705 C1159.664,350.717 1159.195,350.729 1158.739,350.705 C1158.463,350.693 1158.427,350.693 1158.451,350.97 C1158.487,351.33 1158.547,351.678 1158.607,352.038 C1158.631,352.171 1158.703,352.207 1158.847,352.207 C1159.027,352.207 1159.219,352.207 1159.4,352.219 C1159.58,352.231 1159.76,352.267 1159.928,352.291 z M1156.627,355.988 C1156.669,355.988 1156.707,355.968 1156.745,355.954 C1156.841,355.906 1156.937,355.87 1157.033,355.834 C1157.262,355.774 1157.478,355.738 1157.706,355.678 C1157.898,355.63 1157.982,355.546 1157.982,355.377 C1157.982,355.005 1157.97,354.645 1157.958,354.272 C1157.958,354.128 1157.862,354.056 1157.718,354.08 C1157.634,354.092 1157.55,354.116 1157.466,354.104 C1157.021,354.104 1156.613,354.08 1156.157,354.056 C1156.061,354.044 1156.001,354.104 1156.037,354.224 C1156.133,354.657 1156.241,355.089 1156.337,355.522 C1156.349,355.57 1156.373,355.618 1156.361,355.654 C1156.301,355.774 1156.349,355.87 1156.433,355.942 L1156.502,355.986 C1156.583,355.986 1156.542,355.986 1156.627,355.988 z M1160.432,355.522 C1160.541,355.522 1160.601,355.474 1160.601,355.353 C1160.589,355.233 1160.601,355.101 1160.601,354.969 C1160.613,354.969 1160.625,354.969 1160.637,354.969 C1160.613,354.741 1160.601,354.525 1160.577,354.296 C1160.565,354.2 1160.529,354.104 1160.385,354.14 C1159.988,354.248 1159.592,354.32 1159.171,354.248 C1159.051,354.224 1158.991,354.284 1158.979,354.417 C1158.955,354.729 1158.895,355.041 1158.979,355.353 C1159.015,355.486 1159.051,355.522 1159.171,355.51 C1159.544,355.51 1159.916,355.51 1160.288,355.51 L1160.432,355.522 z M1158.675,360.256 L1158.715,360.206 C1158.835,359.966 1159.027,359.749 1159.147,359.521 C1159.292,359.269 1159.892,358.5 1159.988,358.308 C1159.988,358.296 1160,358.296 1160,358.284 C1160.324,357.852 1160.661,357.419 1160.985,356.987 C1161.033,356.927 1161.057,356.867 1161.117,356.771 C1160.949,356.783 1160.829,356.795 1160.709,356.807 C1160.385,356.843 1160.048,356.903 1159.724,356.903 C1159.4,356.903 1159.087,356.843 1158.763,356.831 C1157.802,356.771 1156.841,356.723 1155.868,356.663 C1155.736,356.651 1155.652,356.699 1155.652,356.831 C1155.64,356.999 1155.628,357.179 1155.64,357.347 C1155.64,357.383 1155.736,357.455 1155.784,357.455 C1155.965,357.455 1156.301,357.9 1156.385,357.996 C1156.481,358.092 1156.589,358.176 1156.673,358.272 C1156.985,358.608 1157.286,358.957 1157.61,359.293 C1157.91,359.605 1158.223,359.905 1158.523,360.206 C1158.602,360.271 1158.553,360.248 1158.675,360.256 z" fill="#5731F2"/>
      <path d="M1142.957,361.167 C1142.693,361.167 1141.42,361.119 1141.047,361.107 C1140.615,361.095 1140.194,361.083 1139.762,361.047 C1139.474,361.022 1139.173,360.962 1138.885,360.902 C1138.717,360.866 1138.597,360.794 1138.573,360.59 C1138.549,360.314 1138.477,360.05 1138.525,359.773 C1138.573,359.449 1138.813,359.245 1139.089,359.185 C1139.258,359.149 1139.426,359.149 1139.618,359.113 C1139.534,359.089 1139.45,359.065 1139.366,359.041 C1139.161,359.005 1138.945,358.969 1138.741,358.921 C1138.729,358.921 1138.717,358.921 1138.717,358.921 C1138.477,358.861 1138.381,358.716 1138.345,358.548 C1138.345,358.344 1138.357,358.14 1138.357,357.936 C1138.357,357.684 1138.333,357.431 1138.333,357.179 C1138.333,356.951 1138.333,356.723 1138.333,356.494 C1138.321,355.882 1138.321,355.281 1138.297,354.669 C1138.285,354.381 1138.237,353.528 1138.237,353.384 C1138.237,353.24 1138.237,353.107 1138.237,352.963 C1138.249,352.627 1138.117,350.597 1138.117,350.045 C1138.129,349.216 1138.117,348.387 1138.117,347.558 C1138.117,347.426 1138.129,347.294 1138.153,347.162 C1138.189,346.946 1138.393,346.79 1138.633,346.79 C1139.029,346.778 1139.438,346.766 1139.834,346.766 C1140.134,346.754 1140.447,346.742 1140.747,346.742 C1141.071,346.73 1141.407,346.73 1141.732,346.718 C1142.164,346.706 1142.597,346.682 1143.029,346.658 C1143.137,346.658 1143.185,346.694 1143.185,346.802 C1143.185,346.802 1143.185,346.814 1143.185,346.814 C1143.197,347.594 1143.209,348.387 1143.209,349.168 C1143.209,349.42 1143.209,349.684 1143.209,349.937 C1143.221,350.357 1143.233,350.789 1143.233,351.21 C1143.233,351.462 1143.245,352.255 1143.269,352.411 C1144.35,352.447 1145.407,352.507 1146.488,352.351 C1146.5,352.255 1146.524,352.147 1146.524,352.038 C1146.524,351.582 1146.536,351.114 1146.524,350.657 C1146.512,350.177 1146.488,349.696 1146.476,349.216 C1146.476,349.06 1146.5,348.892 1146.5,348.736 C1146.488,348.159 1146.452,347.378 1146.44,346.814 C1146.488,346.393 1146.704,346.477 1147.209,346.441 C1147.677,346.514 1148.134,346.634 1148.614,346.61 C1148.662,346.61 1148.698,346.61 1148.746,346.61 C1148.974,346.634 1149.022,346.694 1149.046,346.934 C1149.07,347.354 1149.118,347.787 1149.154,348.207 L1149.154,349.925 C1149.154,350.285 1149.142,350.645 1149.118,351.006 C1149.106,351.246 1149.07,353.167 1149.13,353.492 C1149.142,353.576 1149.118,355.017 1149.13,355.197 L1149.13,358.044 C1149.13,358.248 1149.19,358.32 1149.395,358.332 C1149.491,358.344 1149.527,358.368 1149.539,358.476 C1149.599,358.837 1149.575,358.861 1149.226,358.885 C1148.866,358.909 1148.506,358.957 1148.134,358.993 C1147.941,359.017 1147.737,359.029 1147.545,359.053 C1147.509,359.053 1147.461,359.077 1147.425,359.089 C1147.425,359.101 1147.425,359.125 1147.437,359.137 C1147.557,359.137 1147.689,359.137 1147.809,359.137 C1148.17,359.149 1149.203,359.329 1149.407,359.389 C1149.767,359.485 1149.971,359.773 1149.959,360.11 C1149.947,360.254 1149.959,360.41 1149.959,360.554 C1149.959,360.578 1149.959,360.614 1149.959,360.638 C1149.959,360.95 1149.911,361.01 1149.611,361.035 C1149.431,361.047 1149.263,361.059 1149.082,361.059 C1148.374,361.071 1147.677,361.083 1146.969,361.095 C1146.56,361.107 1146.152,361.107 1145.743,361.119 C1145.503,361.131 1145.263,361.143 1145.011,361.143 C1144.71,361.143 1143.341,361.167 1142.957,361.167 z M1148.125,358.285 L1148.374,358.284 C1148.41,358.284 1148.422,358.056 1148.422,358.02 C1148.386,357.527 1148.35,356.518 1148.35,356.518 C1148.35,356.302 1148.362,356.098 1148.35,355.882 C1148.326,355.594 1148.254,355.426 1147.929,355.45 C1147.785,355.462 1147.641,355.474 1147.485,355.474 C1147.161,355.486 1147.137,355.498 1147.149,355.822 C1147.149,355.882 1147.149,355.942 1147.149,356.014 C1147.149,356.194 1147.137,356.374 1147.125,356.542 C1147.113,356.675 1147.089,356.807 1147.089,356.939 C1147.101,357.275 1147.125,357.623 1147.137,357.96 C1147.149,358.14 1147.197,358.248 1147.377,358.26 C1147.787,358.292 1147.538,358.278 1148.125,358.285 z M1139.786,358.45 C1140.046,358.442 1139.934,358.446 1140.122,358.44 C1140.218,358.44 1140.302,358.428 1140.399,358.428 C1140.519,358.44 1140.639,358.38 1140.663,358.26 C1140.687,358.116 1140.723,357.972 1140.711,357.828 C1140.699,357.419 1140.663,356.999 1140.627,356.591 C1140.603,356.314 1140.555,356.038 1140.507,355.762 C1140.507,355.738 1140.459,355.702 1140.435,355.69 C1140.158,355.642 1139.882,355.594 1139.618,355.546 C1139.462,355.51 1139.414,355.546 1139.414,355.714 C1139.426,356.05 1139.45,356.398 1139.39,356.735 C1139.366,356.879 1139.354,357.023 1139.366,357.155 C1139.366,357.323 1139.39,357.672 1139.39,357.672 C1139.39,357.792 1139.39,357.9 1139.39,358.02 C1139.39,358.248 1139.498,358.416 1139.678,358.44 L1139.786,358.45 z M1146.149,358.326 L1146.32,358.296 C1146.368,358.284 1146.416,358.212 1146.416,358.176 C1146.416,358.02 1146.404,357.876 1146.392,357.72 C1146.38,357.551 1146.356,357.383 1146.332,357.215 C1146.32,357.107 1146.296,356.999 1146.272,356.891 C1146.224,356.627 1146.152,356.122 1146.164,356.122 C1146.164,356.002 1146.176,355.882 1146.164,355.762 C1146.152,355.714 1146.092,355.642 1146.044,355.642 C1145.936,355.63 1145.815,355.63 1145.695,355.642 C1145.467,355.666 1145.443,355.702 1145.443,355.942 C1145.443,356.098 1145.467,356.266 1145.443,356.422 C1145.395,356.699 1145.407,356.975 1145.443,357.251 C1145.479,357.503 1145.539,357.756 1145.479,358.008 C1145.443,358.14 1145.503,358.212 1145.635,358.26 C1145.917,358.333 1145.748,358.301 1146.149,358.326 z M1144.134,358.404 C1144.326,358.404 1144.53,358.344 1144.722,358.308 C1144.759,358.296 1144.807,358.236 1144.807,358.2 C1144.807,357.984 1144.795,357.768 1144.771,357.563 C1144.734,357.251 1144.674,356.939 1144.638,356.627 C1144.602,356.374 1144.578,356.134 1144.542,355.882 C1144.542,355.846 1144.482,355.798 1144.446,355.798 C1144.218,355.786 1144.002,355.774 1143.774,355.762 C1143.69,355.762 1143.617,355.75 1143.533,355.738 C1143.365,355.714 1143.269,355.762 1143.245,355.942 C1143.221,356.134 1143.197,356.326 1143.185,356.518 C1143.185,356.987 1143.197,357.467 1143.197,357.96 C1143.209,357.96 1143.221,358.092 1143.221,358.164 C1143.209,358.26 1143.257,358.332 1143.353,358.344 C1143.617,358.368 1143.87,358.404 1144.134,358.404 z M1142.483,358.442 C1142.63,358.417 1142.81,358.364 1142.849,358.2 C1142.849,357.912 1142.837,357.623 1142.825,357.323 C1142.789,356.867 1142.741,356.422 1142.717,355.966 C1142.705,355.774 1142.693,355.75 1142.5,355.762 C1142.272,355.75 1142.044,355.774 1141.792,355.786 C1141.756,355.99 1141.72,356.206 1141.696,356.422 C1141.684,356.579 1141.684,356.747 1141.696,356.903 C1141.708,357.323 1141.732,357.744 1141.756,358.164 C1141.768,358.32 1141.816,358.368 1141.972,358.38 C1142.128,358.392 1142.272,358.416 1142.416,358.44 L1142.483,358.442 z" fill="#5731F2"/>
      <path d="M1134.597,351.799 L1134.513,351.798 C1134.297,351.774 1134.081,351.738 1133.865,351.75 C1133.637,351.75 1133.42,351.69 1133.24,351.57 C1133.12,351.486 1133.012,351.366 1132.916,351.258 C1132.748,351.078 1132.604,350.885 1132.435,350.705 C1132.387,350.645 1131.811,350.045 1131.751,349.997 C1131.595,349.877 1131.475,349.732 1131.415,349.54 C1131.354,349.336 1131.415,349.264 1131.619,349.24 C1131.859,349.216 1132.111,349.168 1132.423,349.12 C1132.592,349.168 1132.832,349.216 1133.048,349.3 C1133.396,349.432 1133.733,349.588 1134.069,349.756 C1134.357,349.901 1134.597,350.117 1134.778,350.393 C1134.838,350.489 1134.874,350.597 1134.874,350.717 C1134.898,351.042 1134.874,351.354 1134.766,351.654 C1134.7,351.776 1134.75,351.72 1134.597,351.799 z" fill="#5731F2"/>
      <path d="M1170.913,364.681 L1170.774,364.65 C1170.654,364.602 1170.389,364.398 1170.353,364.349 C1169.945,363.785 1169.753,363.341 1169.489,362.776 C1169.068,361.995 1168.624,361.239 1168.228,360.458 C1167.999,360.014 1167.819,359.533 1167.639,359.065 C1167.435,358.536 1167.255,357.996 1167.062,357.455 C1166.954,357.167 1166.906,356.867 1166.954,356.555 C1166.99,356.362 1167.062,356.278 1167.267,356.266 C1167.483,356.254 1167.699,356.242 1167.915,356.242 C1168.396,356.23 1168.864,356.206 1169.344,356.218 C1170.077,356.242 1170.822,356.278 1171.554,356.314 C1172.047,356.338 1172.515,356.35 1173.092,356.374 C1173.632,356.35 1174.269,356.314 1174.917,356.278 C1175.074,356.266 1175.242,356.314 1175.398,356.314 C1175.662,356.326 1175.926,356.326 1176.179,356.326 C1176.359,356.326 1176.419,356.398 1176.383,356.579 C1176.371,356.639 1176.347,356.687 1176.323,356.735 C1175.794,357.756 1175.254,358.776 1174.725,359.797 C1174.437,360.35 1174.185,360.914 1173.873,361.443 C1173.608,361.899 1171.795,363.953 1171.278,364.518 C1171.1,364.671 1171.214,364.602 1170.913,364.681 z" fill="#5731F2"/>
      <path d="M1121.721,366.89 L1121.662,366.86 C1121.506,366.74 1121.338,366.62 1121.181,366.487 C1121.133,366.439 1121.097,366.379 1121.061,366.319 C1121.001,366.223 1120.941,366.127 1120.893,366.031 C1120.821,365.923 1120.797,365.803 1120.845,365.671 C1120.929,365.442 1121.049,365.238 1121.217,365.082 C1121.277,364.998 1121.374,364.962 1121.446,364.914 C1121.59,364.998 1121.734,365.07 1121.878,365.154 C1121.926,365.394 1121.974,365.647 1122.034,365.887 C1122.106,366.223 1122.046,366.535 1121.854,366.824 C1121.794,366.893 1121.835,366.864 1121.721,366.89 z" fill="#5731F2"/>
    </g>
  </g>
</svg>
