<?xml version="1.0" encoding="UTF-8"?>
<!DOCTYPE svg PUBLIC "-//W3C//DTD SVG 1.1//EN" "http://www.w3.org/Graphics/SVG/1.1/DTD/svg11.dtd">
<svg version="1.1" xmlns="http://www.w3.org/2000/svg" xmlns:xlink="http://www.w3.org/1999/xlink" x="0" y="0" width="2239.37" height="1088.504" viewBox="0, 0, 2239.37, 1088.504">
  <g id="Layer_1">
    <g>
      <path d="M987.526,486.642 L968.534,486.642 L968.534,505.634 L987.526,505.634 L987.526,524.626 L968.534,524.626 L968.534,543.618 L987.526,543.618 L987.526,562.61 L968.534,562.61 L968.534,581.602 L987.526,581.602 L987.526,600.595 L987.526,600.595 L987.526,619.587 L949.541,619.587 L949.541,600.595 L930.55,600.595 L930.55,619.587 L911.557,619.587 L911.557,600.595 L892.565,600.595 L892.565,619.587 L873.573,619.587 L873.573,600.595 L854.581,600.595 L854.581,619.587 L835.589,619.587 L835.589,600.595 L816.597,600.595 L816.597,619.587 L797.604,619.587 L797.604,600.595 L778.612,600.595 L778.612,619.587 L759.62,619.587 L759.62,600.595 L740.628,600.595 L740.628,619.587 L721.636,619.587 L721.636,600.595 L702.643,600.595 L702.643,619.587 L683.651,619.587 L683.651,600.595 L664.659,600.595 L664.659,619.587 L645.667,619.587 L645.667,600.595 L626.675,600.595 L626.675,619.587 L607.683,619.587 L607.683,600.595 L588.69,600.595 L588.69,619.587 L569.698,619.587 L569.698,600.595 L550.706,600.595 L550.706,619.587 L531.714,619.587 L531.714,600.595 L512.722,600.595 L512.722,619.587 L493.729,619.587 L493.729,600.595 L474.737,600.595 L474.737,619.587 L455.745,619.587 L455.745,600.595 L436.753,600.595 L436.753,619.587 L417.761,619.587 L417.761,600.595 L398.768,600.595 L398.768,619.587 L379.776,619.587 L379.776,600.595 L360.784,600.595 L360.784,619.587 L341.792,619.587 L341.792,600.595 L322.8,600.595 L322.8,619.587 L303.808,619.587 L303.808,600.595 L284.815,600.595 L284.815,619.587 L265.823,619.587 L265.823,600.595 L246.831,600.595 L246.831,619.587 L227.839,619.587 L227.839,600.595 L208.847,600.595 L208.847,619.587 L189.854,619.587 L189.854,600.595 L170.862,600.595 L170.862,619.587 L151.87,619.587 L151.87,600.595 L132.878,600.595 L132.878,619.587 L113.886,619.587 L113.886,600.595 L94.893,600.595 L94.893,619.587 L75.901,619.587 L75.901,600.595 L56.909,600.595 L56.909,619.587 L18.925,619.587 L18.925,581.602 L37.917,581.602 L37.917,562.61 L18.925,562.61 L18.925,543.618 L37.917,543.618 L37.917,524.626 L18.925,524.626 L18.925,505.634 L37.917,505.634 L37.917,486.642 L18.925,486.642 L18.925,467.65 L37.917,467.65 L37.917,448.658 L18.925,448.658 L18.925,429.665 L37.917,429.665 L37.917,410.673 L18.925,410.673 L18.925,391.681 L37.917,391.681 L37.917,372.689 L18.925,372.689 L18.925,353.697 L37.917,353.697 L37.917,334.705 L18.925,334.705 L18.925,315.713 L37.917,315.713 L37.917,296.72 L18.925,296.72 L18.925,277.728 L37.917,277.728 L37.917,258.736 L18.925,258.736 L18.925,239.744 L37.917,239.744 L37.917,220.752 L18.925,220.752 L18.925,201.76 L37.917,201.76 L37.917,182.768 L18.925,182.768 L18.925,163.776 L37.917,163.776 L37.917,144.783 L18.925,144.783 L18.925,125.791 L37.917,125.791 L37.917,106.799 L18.925,106.799 L18.925,87.807 L37.917,87.807 L37.917,68.815 L18.925,68.815 L18.925,30.831 L37.917,30.831 L37.917,30.831 L56.909,30.831 L56.909,49.823 L75.901,49.823 L75.901,30.831 L94.893,30.831 L94.893,49.823 L113.886,49.823 L113.886,30.831 L132.878,30.831 L132.878,49.823 L151.87,49.823 L151.87,30.831 L170.862,30.831 L170.862,49.823 L189.854,49.823 L189.854,30.831 L208.847,30.831 L208.847,49.823 L227.839,49.823 L227.839,30.831 L246.831,30.831 L246.831,49.823 L265.823,49.823 L265.823,30.831 L284.815,30.831 L284.815,49.823 L303.808,49.823 L303.808,30.831 L322.8,30.831 L322.8,49.823 L341.792,49.823 L341.792,30.831 L360.784,30.831 L360.784,49.823 L379.776,49.823 L379.776,30.831 L398.768,30.831 L398.768,49.823 L417.761,49.823 L417.761,30.831 L436.753,30.831 L436.753,49.823 L455.745,49.823 L455.745,30.831 L474.737,30.831 L474.737,49.823 L493.729,49.823 L493.729,30.831 L512.722,30.831 L512.722,49.823 L531.714,49.823 L531.714,30.831 L550.706,30.831 L550.706,49.823 L569.698,49.823 L569.698,30.831 L588.69,30.831 L588.69,49.823 L607.683,49.823 L607.683,30.831 L626.675,30.831 L626.675,49.823 L645.667,49.823 L645.667,30.831 L664.659,30.831 L664.659,49.823 L683.651,49.823 L683.651,30.831 L702.643,30.831 L702.643,49.823 L721.636,49.823 L721.636,30.831 L740.628,30.831 L740.628,49.823 L759.62,49.823 L759.62,30.831 L778.612,30.831 L778.612,49.823 L797.604,49.823 L797.604,30.831 L816.597,30.831 L816.597,49.823 L835.589,49.823 L835.589,30.831 L854.581,30.831 L854.581,49.823 L873.573,49.823 L873.573,30.831 L892.565,30.831 L892.565,49.823 L911.557,49.823 L911.557,30.831 L930.55,30.831 L930.55,49.823 L949.541,49.823 L949.541,30.831 L968.534,30.831 L968.534,30.831 L987.526,30.831 L987.526,49.823 L987.526,49.823 L987.526,68.815 L968.534,68.815 L968.534,87.807 L987.526,87.807 L987.526,106.799 L968.534,106.799 L968.534,125.791 L987.526,125.791 L987.526,144.783 L968.534,144.783 L968.534,163.776 L987.526,163.776 L987.526,182.768 L968.534,182.768 L968.534,201.76 L987.526,201.76 L987.526,220.752 L968.534,220.752 L968.534,239.744 L987.526,239.744 L987.526,258.736 L968.534,258.736 L968.534,277.728 L987.526,277.728 L987.526,296.72 L968.534,296.72 L968.534,315.713 L987.526,315.713 L987.526,334.705 L968.534,334.705 L968.534,353.697 L987.526,353.697 L987.526,372.689 L968.534,372.689 L968.534,391.681 L987.526,391.681 L987.526,410.673 L968.534,410.673 L968.534,429.665 L987.526,429.665 L987.526,448.658 L968.534,448.658 L968.534,467.65 L987.526,467.65 L987.526,486.642 z" fill="#FFFFFF"/>
      <path d="M987.526,486.642 L968.534,486.642 L968.534,505.634 L987.526,505.634 L987.526,524.626 L968.534,524.626 L968.534,543.618 L987.526,543.618 L987.526,562.61 L968.534,562.61 L968.534,581.602 L987.526,581.602 L987.526,600.595 L987.526,600.595 L987.526,619.587 L949.541,619.587 L949.541,600.595 L930.55,600.595 L930.55,619.587 L911.557,619.587 L911.557,600.595 L892.565,600.595 L892.565,619.587 L873.573,619.587 L873.573,600.595 L854.581,600.595 L854.581,619.587 L835.589,619.587 L835.589,600.595 L816.597,600.595 L816.597,619.587 L797.604,619.587 L797.604,600.595 L778.612,600.595 L778.612,619.587 L759.62,619.587 L759.62,600.595 L740.628,600.595 L740.628,619.587 L721.636,619.587 L721.636,600.595 L702.643,600.595 L702.643,619.587 L683.651,619.587 L683.651,600.595 L664.659,600.595 L664.659,619.587 L645.667,619.587 L645.667,600.595 L626.675,600.595 L626.675,619.587 L607.683,619.587 L607.683,600.595 L588.69,600.595 L588.69,619.587 L569.698,619.587 L569.698,600.595 L550.706,600.595 L550.706,619.587 L531.714,619.587 L531.714,600.595 L512.722,600.595 L512.722,619.587 L493.729,619.587 L493.729,600.595 L474.737,600.595 L474.737,619.587 L455.745,619.587 L455.745,600.595 L436.753,600.595 L436.753,619.587 L417.761,619.587 L417.761,600.595 L398.768,600.595 L398.768,619.587 L379.776,619.587 L379.776,600.595 L360.784,600.595 L360.784,619.587 L341.792,619.587 L341.792,600.595 L322.8,600.595 L322.8,619.587 L303.808,619.587 L303.808,600.595 L284.815,600.595 L284.815,619.587 L265.823,619.587 L265.823,600.595 L246.831,600.595 L246.831,619.587 L227.839,619.587 L227.839,600.595 L208.847,600.595 L208.847,619.587 L189.854,619.587 L189.854,600.595 L170.862,600.595 L170.862,619.587 L151.87,619.587 L151.87,600.595 L132.878,600.595 L132.878,619.587 L113.886,619.587 L113.886,600.595 L94.893,600.595 L94.893,619.587 L75.901,619.587 L75.901,600.595 L56.909,600.595 L56.909,619.587 L18.925,619.587 L18.925,581.602 L37.917,581.602 L37.917,562.61 L18.925,562.61 L18.925,543.618 L37.917,543.618 L37.917,524.626 L18.925,524.626 L18.925,505.634 L37.917,505.634 L37.917,486.642 L18.925,486.642 L18.925,467.65 L37.917,467.65 L37.917,448.658 L18.925,448.658 L18.925,429.665 L37.917,429.665 L37.917,410.673 L18.925,410.673 L18.925,391.681 L37.917,391.681 L37.917,372.689 L18.925,372.689 L18.925,353.697 L37.917,353.697 L37.917,334.705 L18.925,334.705 L18.925,315.713 L37.917,315.713 L37.917,296.72 L18.925,296.72 L18.925,277.728 L37.917,277.728 L37.917,258.736 L18.925,258.736 L18.925,239.744 L37.917,239.744 L37.917,220.752 L18.925,220.752 L18.925,201.76 L37.917,201.76 L37.917,182.768 L18.925,182.768 L18.925,163.776 L37.917,163.776 L37.917,144.783 L18.925,144.783 L18.925,125.791 L37.917,125.791 L37.917,106.799 L18.925,106.799 L18.925,87.807 L37.917,87.807 L37.917,68.815 L18.925,68.815 L18.925,30.831 L37.917,30.831 L37.917,30.831 L56.909,30.831 L56.909,49.823 L75.901,49.823 L75.901,30.831 L94.893,30.831 L94.893,49.823 L113.886,49.823 L113.886,30.831 L132.878,30.831 L132.878,49.823 L151.87,49.823 L151.87,30.831 L170.862,30.831 L170.862,49.823 L189.854,49.823 L189.854,30.831 L208.847,30.831 L208.847,49.823 L227.839,49.823 L227.839,30.831 L246.831,30.831 L246.831,49.823 L265.823,49.823 L265.823,30.831 L284.815,30.831 L284.815,49.823 L303.808,49.823 L303.808,30.831 L322.8,30.831 L322.8,49.823 L341.792,49.823 L341.792,30.831 L360.784,30.831 L360.784,49.823 L379.776,49.823 L379.776,30.831 L398.768,30.831 L398.768,49.823 L417.761,49.823 L417.761,30.831 L436.753,30.831 L436.753,49.823 L455.745,49.823 L455.745,30.831 L474.737,30.831 L474.737,49.823 L493.729,49.823 L493.729,30.831 L512.722,30.831 L512.722,49.823 L531.714,49.823 L531.714,30.831 L550.706,30.831 L550.706,49.823 L569.698,49.823 L569.698,30.831 L588.69,30.831 L588.69,49.823 L607.683,49.823 L607.683,30.831 L626.675,30.831 L626.675,49.823 L645.667,49.823 L645.667,30.831 L664.659,30.831 L664.659,49.823 L683.651,49.823 L683.651,30.831 L702.643,30.831 L702.643,49.823 L721.636,49.823 L721.636,30.831 L740.628,30.831 L740.628,49.823 L759.62,49.823 L759.62,30.831 L778.612,30.831 L778.612,49.823 L797.604,49.823 L797.604,30.831 L816.597,30.831 L816.597,49.823 L835.589,49.823 L835.589,30.831 L854.581,30.831 L854.581,49.823 L873.573,49.823 L873.573,30.831 L892.565,30.831 L892.565,49.823 L911.557,49.823 L911.557,30.831 L930.55,30.831 L930.55,49.823 L949.541,49.823 L949.541,30.831 L968.534,30.831 L968.534,30.831 L987.526,30.831 L987.526,49.823 L987.526,49.823 L987.526,68.815 L968.534,68.815 L968.534,87.807 L987.526,87.807 L987.526,106.799 L968.534,106.799 L968.534,125.791 L987.526,125.791 L987.526,144.783 L968.534,144.783 L968.534,163.776 L987.526,163.776 L987.526,182.768 L968.534,182.768 L968.534,201.76 L987.526,201.76 L987.526,220.752 L968.534,220.752 L968.534,239.744 L987.526,239.744 L987.526,258.736 L968.534,258.736 L968.534,277.728 L987.526,277.728 L987.526,296.72 L968.534,296.72 L968.534,315.713 L987.526,315.713 L987.526,334.705 L968.534,334.705 L968.534,353.697 L987.526,353.697 L987.526,372.689 L968.534,372.689 L968.534,391.681 L987.526,391.681 L987.526,410.673 L968.534,410.673 L968.534,429.665 L987.526,429.665 L987.526,448.658 L968.534,448.658 L968.534,467.65 L987.526,467.65 L987.526,486.642 z" fill-opacity="0" stroke="#000000" stroke-width="1"/>
    </g>
    <g id="logo">
      <path d="M502.132,339.614 C502.565,339.614 502.997,339.614 503.417,339.65 C503.742,339.674 504.066,339.698 504.39,339.806 C504.571,339.866 504.667,340.07 504.703,340.239 C504.727,340.395 504.775,340.539 504.811,340.695 C504.823,340.767 504.823,340.815 504.727,340.863 C504.474,340.863 504.222,340.863 503.97,340.875 C503.838,340.875 503.706,340.899 503.574,340.923 C503.538,340.923 502.865,340.971 502.577,340.959 C502.192,340.947 501.808,340.971 501.412,340.983 C501.087,340.995 500.763,341.031 500.439,341.031 C500.271,341.031 500.091,341.067 499.922,341.067 C499.706,341.067 499.61,341.067 499.382,341.067 C499.01,341.031 498.709,340.947 498.685,340.599 C498.673,340.371 498.709,340.13 498.745,339.89 C498.757,339.758 498.925,339.662 499.094,339.65 C499.25,339.65 499.406,339.65 499.574,339.65 C499.562,339.626 500.559,339.614 501.051,339.614 L502.132,339.614 z" fill="#5731F2"/>
      <path d="M512.666,339.638 C512.954,339.638 513.663,339.746 513.747,339.758 C513.867,339.758 513.939,339.83 513.963,339.926 C513.999,340.142 514.035,340.359 514.047,340.587 C514.059,340.815 514.023,340.815 513.843,340.851 C513.374,340.947 512.906,341.019 512.426,340.995 C512.053,340.983 511.681,340.995 511.321,340.995 C511.092,340.995 510.852,340.971 510.624,340.971 C510.432,340.971 509.087,340.995 508.822,341.031 C508.762,341.043 508.51,341.007 508.45,341.007 C508.162,341.007 507.873,341.019 507.573,341.031 C507.393,341.031 507.177,340.563 507.141,340.503 C507.033,340.094 507.141,340.07 507.249,339.866 C507.333,339.71 507.465,339.686 507.621,339.698 C507.837,339.71 508.054,339.722 508.282,339.722 C508.378,339.722 509.999,339.638 510.192,339.638 L512.666,339.638 z" fill="#5731F2"/>
      <path d="M516.749,339.518 C517.182,339.53 517.602,339.542 518.035,339.554 C518.215,339.566 518.395,339.578 518.575,339.578 C518.911,339.578 519.236,339.59 519.572,339.566 C519.92,339.542 520.257,339.638 520.605,339.638 C521.025,339.638 521.458,339.686 521.878,339.722 C522.25,339.734 522.503,339.806 522.791,340.022 C522.839,340.094 522.851,340.13 522.839,340.263 C522.839,340.395 522.803,340.563 522.719,340.635 C522.539,340.791 522.322,340.887 522.058,340.899 C521.013,340.911 519.98,340.971 518.935,340.959 C518.371,340.959 517.806,340.851 517.23,340.791 C517.014,340.767 516.797,340.755 516.581,340.743 C516.413,340.731 516.293,340.659 516.221,340.527 C516.197,340.479 516.197,340.407 516.197,340.347 C516.197,340.311 516.269,339.866 516.365,339.698 C516.449,339.542 516.593,339.518 516.749,339.518 z" fill="#5731F2"/>
      <path d="M527.763,339.418 C527.913,339.42 527.853,339.418 527.943,339.422 C528.184,339.446 528.424,339.47 528.676,339.494 C528.988,339.53 529.301,339.542 529.601,339.59 C529.913,339.638 530.081,339.95 529.961,340.263 C529.937,340.347 529.937,340.431 529.901,340.515 C529.805,340.683 529.409,340.719 529.253,340.767 C528.808,340.851 528.628,340.887 528.316,340.863 C528.28,340.863 528.244,340.851 528.22,340.851 C527.751,340.815 526.418,340.671 526.286,340.659 C526.142,340.647 525.998,340.635 525.854,340.647 C525.709,340.647 525.565,340.683 525.421,340.683 C525.133,340.683 524.857,340.659 524.568,340.647 C524.544,340.647 524.52,340.635 524.496,340.623 C524.34,340.539 524.196,340.191 524.232,339.986 C524.28,339.734 524.412,339.59 524.664,339.566 C525.229,339.53 525.794,339.494 526.322,339.458 C526.802,339.427 527.283,339.419 527.763,339.418 z" fill="#5731F2"/>
      <path d="M491.239,339.47 C491.719,339.482 492.199,339.506 492.68,339.53 C492.848,339.542 493.016,339.554 493.172,339.554 C493.557,339.578 493.965,339.542 494.337,339.626 C494.866,339.746 495.382,339.698 495.911,339.734 C496.187,339.746 496.295,340.178 496.319,340.275 C496.331,340.359 496.343,340.443 496.343,340.527 C496.343,340.707 496.319,340.731 496.127,340.743 C495.923,340.743 495.719,340.743 495.502,340.755 C495.346,340.767 495.202,340.791 495.046,340.791 C494.65,340.791 494.253,340.767 493.857,340.767 C493.328,340.767 492.8,340.791 492.259,340.791 C492.175,340.791 492.091,340.767 492.007,340.767 C491.935,340.767 491.863,340.767 491.791,340.767 C491.527,340.779 491.263,340.755 491.094,340.503 C491.07,340.467 491.058,340.407 491.046,340.359 C491.022,340.178 490.998,340.01 490.962,339.83 C490.914,339.626 491.034,339.458 491.239,339.47 z" fill="#5731F2"/>
      <path d="M486.367,339.457 L486.422,339.458 C486.759,339.482 487.083,339.458 487.419,339.47 C487.647,339.47 487.876,339.458 488.092,339.506 C488.332,339.566 488.488,339.914 488.416,340.167 C488.404,340.227 488.392,340.287 488.368,340.335 C488.284,340.599 488.092,340.695 487.816,340.671 C487.491,340.647 487.167,340.683 486.843,340.695 C486.638,340.695 486.434,340.695 486.218,340.695 C486.086,340.695 484.633,340.635 484.525,340.635 C484.404,340.635 482.915,340.503 482.759,340.491 C482.543,340.467 482.351,340.203 482.315,340.046 C482.255,339.77 482.327,339.686 482.627,339.65 C482.891,339.638 483.167,339.602 483.552,339.554 C483.852,339.554 484.248,339.554 484.657,339.554 C485.227,339.529 485.796,339.474 486.367,339.457 z" fill="#5731F2"/>
      <path d="M477.301,339.395 L477.426,339.398 C477.991,339.41 478.555,339.422 479.12,339.446 C479.168,339.446 479.252,339.506 479.252,339.542 C479.264,339.722 479.264,339.89 479.24,340.07 C479.228,340.203 479.12,340.263 478.988,340.287 C478.771,340.323 478.543,340.371 478.327,340.395 C478.027,340.431 477.727,340.455 477.426,340.479 C476.874,340.527 476.309,340.563 475.757,340.635 C475.276,340.707 474.82,340.695 474.375,340.515 C474.195,340.443 474.123,340.359 474.123,340.154 C474.111,339.746 474.291,339.53 474.7,339.446 C474.82,339.422 474.94,339.434 475.06,339.434 C475.553,339.434 476.045,339.434 476.525,339.434 C476.534,339.431 476.543,339.426 476.552,339.425 C476.8,339.395 477.052,339.397 477.301,339.395 z" fill="#5731F2"/>
      <path d="M517.181,336.092 L517.782,336.095 C518.359,336.095 518.923,336.143 519.488,336.179 C519.824,336.191 520.172,336.215 520.509,336.239 C520.977,336.263 521.458,336.299 521.926,336.323 C522.322,336.347 522.719,336.371 523.115,336.407 C523.584,336.443 524.04,336.503 524.508,336.551 C524.905,336.587 526.37,336.611 526.766,336.635 C527.199,336.671 528.316,336.671 528.484,336.707 C528.808,336.767 528.844,336.767 529.457,336.84 C529.877,336.912 530.153,337.116 530.225,337.524 C530.225,337.56 530.237,337.584 530.25,337.62 C530.286,337.776 530.201,337.884 530.033,337.872 C529.853,337.86 529.661,337.86 529.481,337.836 C529.181,337.8 528.868,337.764 528.568,337.728 C528.352,337.704 528.148,337.68 527.931,337.668 C527.451,337.644 526.971,337.632 526.49,337.608 C526.358,337.596 526.238,337.608 526.118,337.608 C525.938,337.62 525.289,337.584 525.157,337.584 C524.256,337.572 521.89,337.476 521.602,337.476 C521.109,337.464 520.605,337.452 520.112,337.452 C519.908,337.452 517.602,337.524 517.434,337.536 C517.074,337.548 516.713,337.56 516.341,337.56 C516.137,337.56 514.636,337.512 514.371,337.5 C514.059,337.488 513.747,337.464 513.434,337.452 C513.302,337.452 512.197,337.416 512.125,337.428 C511.285,337.44 508.822,337.524 508.426,337.572 C508.258,337.584 506.684,337.68 506.444,337.716 C506.156,337.752 505.868,337.776 505.579,337.8 C505.567,337.8 505.555,337.8 505.555,337.8 C505.171,337.824 504.787,337.848 504.402,337.848 C504.222,337.848 499.37,337.981 499.082,337.981 C498.817,337.981 498.181,337.969 498.121,337.969 C497.556,337.944 496.992,337.932 496.427,337.908 C496.343,337.908 495.346,337.8 494.938,337.812 C494.722,337.824 493.316,337.752 492.908,337.764 C492.656,337.764 492.404,337.764 492.151,337.764 C491.947,337.764 490.013,337.656 489.725,337.668 C489.485,337.668 488.909,337.632 488.848,337.632 C488.692,337.632 485.329,337.68 485.305,337.692 C485.101,337.704 482.879,337.656 482.675,337.68 C482.363,337.716 480.441,337.788 480.189,337.884 C480.081,337.92 479.961,337.92 479.852,337.932 C479.612,337.957 477.534,338.065 477.366,338.077 C477.126,338.089 474.832,338.305 474.436,338.293 C474.075,338.245 473.751,338.089 473.427,337.932 C473.319,337.884 472.85,337.512 472.766,337.236 C472.73,337.092 472.73,337.056 472.766,336.984 C472.85,336.852 472.934,336.84 473.066,336.84 C473.547,336.815 474.628,336.755 475.108,336.731 C475.468,336.719 476.994,336.755 477.306,336.755 C477.63,336.755 478.988,336.731 479.348,336.695 C479.564,336.671 479.78,336.659 479.997,336.635 C480.957,336.527 483.336,336.527 483.576,336.515 C484.032,336.491 484.501,336.479 484.957,336.455 C485.269,336.443 487.383,336.539 487.707,336.539 C487.719,336.539 487.731,336.539 487.755,336.539 C488.464,336.527 489.161,336.515 489.869,336.515 C490.206,336.515 490.542,336.539 490.866,336.539 C491.359,336.527 491.851,336.503 492.344,336.479 C492.524,336.467 492.716,336.455 492.896,336.455 C493.376,336.431 493.845,336.407 494.325,336.395 C494.794,336.395 495.274,336.407 495.743,336.419 C496.187,336.431 496.631,336.431 497.076,336.443 C497.484,336.455 497.893,336.479 498.301,336.503 C498.481,336.515 498.649,336.527 498.829,336.527 C499.358,336.539 499.886,336.551 500.427,336.551 C500.859,336.551 501.292,336.539 501.712,336.527 C502.084,336.515 502.469,336.467 502.841,336.443 C502.877,336.443 502.913,336.443 502.937,336.443 C503.261,336.431 503.598,336.431 503.922,336.419 C504.27,336.407 504.631,336.383 504.979,336.359 C505.387,336.335 505.808,336.311 506.216,336.299 C506.636,336.287 507.045,336.275 507.465,336.263 C507.681,336.251 507.91,336.239 508.126,336.239 C508.63,336.239 509.135,336.263 509.651,336.263 C510.132,336.263 510.612,336.239 511.104,336.239 C511.236,336.239 511.357,336.263 511.489,336.263 C512.017,336.251 512.546,336.227 513.074,336.203 C513.446,336.191 513.831,336.167 514.203,336.143 C514.599,336.131 514.984,336.119 515.38,336.119 C516.381,336.101 515.781,336.111 517.181,336.092 z" fill="#5731F2"/>
      <path d="M526.591,313.195 C526.751,313.217 526.688,313.186 526.79,313.262 C527.139,313.611 527.307,314.007 527.187,314.512 C527.163,314.632 527.151,314.764 527.127,314.884 C527.086,315.081 527.011,315.12 526.821,315.136 L526.814,315.148 C526.754,315.34 526.718,315.532 526.646,315.725 C526.574,315.929 526.322,316.746 526.286,316.962 C526.25,317.25 526.214,317.526 526.178,317.814 C526.166,317.935 526.154,318.055 526.142,318.187 C526.13,318.331 525.95,320.985 525.986,321.081 C525.986,321.081 526.082,321.274 526.118,321.081 C526.214,320.481 526.454,318.799 526.574,318.223 C526.73,317.646 527.043,316.95 527.307,316.433 C527.499,316.049 527.727,315.665 527.931,315.292 C527.943,315.268 527.943,315.244 527.955,315.232 C528.1,315.316 528.244,315.388 528.388,315.472 C528.196,315.869 528.016,316.277 527.799,316.661 C527.583,317.034 527.403,317.418 527.271,317.827 C527.225,317.965 527.175,318.103 527.133,318.243 C527.273,318.291 527.214,318.288 527.307,318.283 C527.498,318.218 527.379,318.26 527.662,318.149 C527.753,317.982 527.832,317.809 527.931,317.646 C528.316,317.082 528.304,316.95 528.568,316.661 C528.772,316.445 528.976,316.229 529.205,316.025 C529.403,315.852 529.619,315.701 529.828,315.542 C529.806,315.475 529.755,315.425 529.721,315.364 C529.589,314.956 529.757,314.728 529.973,314.439 C530.159,314.208 530.419,314.229 530.689,314.221 C531.039,314.311 530.903,314.248 531.114,314.367 C531.174,314.415 531.234,314.584 531.282,314.644 C531.294,314.848 531.162,315.04 531.126,315.148 C530.994,315.316 530.838,315.508 530.646,315.604 C530.499,315.691 530.322,315.685 530.158,315.689 C530.001,315.94 530.086,315.815 529.901,316.061 C529.505,316.481 528.46,318.031 528.46,318.103 L528.449,318.132 C528.606,318.337 528.522,318.234 528.7,318.439 C528.844,318.595 528.916,318.763 528.964,318.968 C529.036,319.268 529.133,319.568 529.217,319.88 L529.183,319.966 C529.21,319.906 529.194,319.943 529.229,319.856 C529.505,319.316 529.721,318.739 529.889,318.151 C530.014,317.643 529.956,317.894 530.063,317.398 L530.057,317.382 C530.045,317.13 530.093,316.878 530.25,316.661 C530.406,316.445 530.862,316.301 531.042,316.481 C531.09,316.529 531.138,316.613 531.126,316.661 C531.102,316.83 531.066,317.01 530.982,317.154 C530.922,317.274 530.778,317.346 530.67,317.43 C530.59,317.516 530.63,317.476 530.55,317.551 C530.528,318.009 530.366,318.444 530.214,318.871 C530.114,319.155 530.019,319.44 529.93,319.727 C529.916,319.774 529.857,319.941 529.853,320.021 C530.189,319.587 530.017,319.806 530.37,319.364 C530.55,319.148 530.73,318.919 530.922,318.715 C530.97,318.655 531.066,318.619 531.15,318.619 C531.463,318.607 531.751,318.655 532.003,318.859 C532.099,318.943 532.243,318.992 532.351,319.064 C532.544,319.184 532.616,319.364 532.628,319.58 C532.64,319.724 532.676,319.868 532.712,320.012 C532.712,320.133 532.712,320.265 532.712,320.385 C532.58,320.721 532.459,321.057 532.303,321.382 C532.171,321.658 531.991,321.91 531.835,322.162 C531.643,322.475 531.451,322.787 531.234,323.075 C531.078,323.291 530.898,323.496 530.706,323.688 C530.346,324.072 530.009,324.48 529.709,324.901 C529.673,324.949 529.637,324.985 529.589,325.021 C529.601,324.865 529.553,324.745 529.433,324.649 C529.217,324.501 529.345,324.581 529.042,324.421 C529.196,324.525 529.284,324.593 529.421,324.697 C529.541,324.781 529.589,324.913 529.577,325.069 C529.505,325.141 529.445,325.225 529.373,325.297 C529.241,325.453 529.12,325.597 528.904,325.646 C528.784,325.67 528.688,325.754 528.58,325.826 C528.345,325.991 528.068,326.061 527.789,326.102 C527.789,326.122 527.788,326.106 527.799,326.15 C528.003,326.462 528.1,326.811 528.136,327.171 C528.148,327.339 528.184,327.495 528.184,327.663 C528.184,327.904 528.16,328.156 528.16,328.396 C528.16,328.564 528.22,328.72 528.208,328.888 C528.184,329.225 528.136,329.561 528.1,329.885 C528.076,330.126 528.052,330.378 528.04,330.618 C528.028,330.798 528.016,330.966 528.003,331.194 C528.124,331.11 528.22,331.05 528.304,330.99 C528.7,330.678 529.084,330.354 529.493,330.041 C529.781,329.825 530.093,329.657 530.466,329.693 C530.694,329.717 530.898,329.777 531.066,329.945 C531.138,330.005 531.162,330.077 531.126,330.186 C531.054,330.366 530.97,330.486 530.802,330.606 C530.382,330.87 529.997,331.182 529.613,331.495 C529.181,331.831 528.82,332.263 528.34,332.54 C528.292,332.564 528.076,332.708 527.931,332.72 C527.835,333.008 527.739,333.296 527.667,333.585 C527.619,333.753 527.607,333.933 527.583,334.113 C527.547,334.473 527.535,334.846 527.487,335.206 C527.463,335.35 527.343,335.482 527.271,335.614 C527.199,335.747 527.115,335.771 526.971,335.735 C526.718,335.662 526.454,335.65 526.214,335.578 C526.058,335.53 525.914,335.446 525.769,335.374 C525.265,335.122 524.857,334.75 524.412,334.413 C524.256,334.293 524.136,334.113 524.004,333.957 C523.848,333.765 523.668,333.585 523.547,333.38 C523.379,333.08 523.247,332.768 523.115,332.444 C523.067,332.335 523.163,332.227 523.283,332.251 C523.596,332.311 523.896,332.396 524.136,332.6 C524.58,332.96 525.013,333.332 525.457,333.693 C525.649,333.849 525.842,333.993 526.046,334.137 C526.166,334.221 526.226,334.197 526.25,334.065 C526.298,333.789 526.322,333.513 526.37,333.236 C526.406,332.96 526.454,332.672 526.502,332.396 C526.538,332.143 526.574,331.891 526.598,331.639 C526.634,331.279 526.67,330.918 526.706,330.546 C526.706,330.498 526.706,330.45 526.706,330.402 C526.73,329.153 526.742,327.916 526.766,326.666 C526.766,326.558 526.85,326.462 526.898,326.366 L527.001,326.142 C526.599,326.192 526.255,325.993 525.962,325.742 C525.878,325.67 525.866,325.67 525.806,325.585 C525.614,325.404 525.697,325.501 525.555,325.298 C524.994,325.046 524.485,324.7 523.992,324.336 C523.728,324.132 523.523,323.856 523.295,323.604 C523.175,323.472 523.067,323.315 522.947,323.183 C522.671,322.895 522.551,322.523 522.37,322.186 C522.226,321.91 522.094,321.634 522.01,321.334 C521.926,321.081 521.914,320.805 521.878,320.541 C521.866,320.469 521.902,320.373 521.95,320.301 C522.07,320.109 522.238,319.976 522.479,319.916 C522.659,319.868 522.839,319.796 523.007,319.724 C523.402,319.584 523.162,319.651 523.74,319.574 L523.992,319.604 C524.28,319.664 524.568,319.736 524.857,319.808 C525.049,319.856 525.157,320.012 525.241,320.181 C525.289,320.277 525.349,320.385 525.397,320.481 L525.462,320.596 C525.463,320.388 525.467,320.478 525.457,320.325 C525.493,319.724 525.493,319.724 525.529,319.256 C525.529,319.244 525.565,318.739 525.589,318.487 C525.613,318.151 525.709,317.706 525.769,317.382 C525.854,316.914 525.962,316.553 526.07,316.085 C526.274,315.629 526.274,315.629 526.43,315.28 C526.466,315.184 526.49,315.1 526.526,315.004 C526.594,314.976 526.567,314.99 526.609,314.966 C526.571,314.972 526.6,314.967 526.526,314.992 C526.25,314.908 526.154,314.704 526.178,314.439 C526.202,314.151 526.214,313.875 526.274,313.599 C526.31,313.455 526.43,313.334 526.538,313.226 L526.591,313.195 z M527.055,318.703 C527.019,318.956 526.995,319.208 526.971,319.46 L527.055,318.703 z" fill="#5731F2"/>
      <path d="M518.119,308.35 C518.323,308.398 518.551,308.398 518.767,308.398 C519.284,308.554 519.608,308.951 519.944,309.335 C520.04,309.443 520.136,309.563 520.257,309.635 C520.485,309.779 520.569,310.007 520.641,310.248 C520.737,310.62 520.797,311.004 520.785,311.389 C520.785,311.497 520.809,311.593 520.809,311.701 C520.833,312.278 520.737,312.842 520.533,313.383 C520.449,313.599 520.461,313.623 520.665,313.707 C520.905,313.803 521.157,313.863 521.41,313.959 C521.566,314.019 521.71,314.115 521.878,314.175 C522.082,314.247 522.286,314.295 522.491,314.355 C522.719,314.427 522.911,314.548 523.055,314.752 C523.127,314.848 523.223,314.932 523.319,315.016 C523.536,315.208 523.668,315.448 523.752,315.713 C523.872,316.085 523.968,316.445 524.064,316.818 C524.1,316.95 524.088,317.094 524.064,317.214 C523.8,317.814 522.827,318.175 522.599,318.283 C522.37,318.463 522.106,318.583 521.818,318.631 C521.506,318.691 521.205,318.763 520.893,318.799 C520.509,318.835 520.148,318.715 519.788,318.607 C519.776,318.607 519.764,318.607 519.74,318.607 C519.308,318.379 518.863,318.139 518.419,317.899 C518.407,317.947 518.407,317.959 518.407,317.983 L518.408,317.992 C518.409,317.959 518.408,317.983 518.419,317.923 C518.863,318.163 519.308,318.391 519.74,318.631 C519.764,318.871 519.788,319.1 519.8,319.34 C519.812,319.7 519.812,320.06 519.836,320.421 C519.86,320.697 519.908,320.973 519.944,321.25 C519.968,321.43 519.968,321.622 519.98,321.802 C519.992,322.162 520.004,322.523 520.016,322.895 C520.016,322.919 520.016,322.931 520.028,322.991 C520.088,322.931 520.136,322.895 520.16,322.847 C520.449,322.27 520.953,322.006 521.554,321.886 C521.674,321.862 521.794,321.958 521.794,322.09 C521.794,322.367 521.794,322.631 521.674,322.883 C521.602,323.039 521.602,323.219 521.542,323.387 C521.289,324.06 520.821,324.492 520.112,324.649 C520.004,324.673 519.872,324.889 519.884,325.009 C519.932,325.357 519.968,325.706 520.004,326.054 C520.028,326.27 520.064,326.486 520.088,326.702 C520.088,326.738 520.112,326.762 520.185,326.847 C520.233,326.762 520.293,326.678 520.341,326.606 C520.677,326.138 521.157,325.862 521.662,325.633 C521.734,325.609 521.818,325.609 521.89,325.609 C521.986,325.609 522.022,325.694 522.022,325.778 C522.022,325.898 522.034,326.006 522.022,326.126 C522.01,326.198 521.962,326.27 521.914,326.318 C521.47,326.823 520.905,327.171 520.293,327.435 C520.172,327.483 520.136,327.555 520.136,327.675 C520.16,328.288 520.172,328.912 520.197,329.525 C520.208,329.741 520.233,329.945 520.257,330.21 C520.425,330.077 520.569,329.969 520.701,329.861 C521.049,329.561 521.386,329.249 521.758,328.96 C521.914,328.84 522.106,328.696 522.334,328.708 C522.443,328.708 522.551,328.72 522.659,328.744 C522.815,328.768 522.923,328.96 522.947,329.153 C522.983,329.525 522.839,329.813 522.527,330.029 C522.334,330.162 522.166,330.33 521.962,330.426 C521.506,330.63 521.025,330.822 520.497,330.75 C520.437,330.738 520.389,330.738 520.305,330.714 C520.317,330.954 520.329,331.182 520.353,331.423 C520.377,331.699 520.425,331.963 520.461,332.239 C520.509,332.564 520.545,332.888 520.593,333.212 C520.665,333.669 520.761,334.125 520.797,334.581 C520.809,334.75 520.737,334.978 520.629,335.098 C520.497,335.242 520.281,335.314 520.088,335.386 C519.98,335.422 519.848,335.398 519.764,335.29 C519.68,335.17 519.584,335.038 519.536,334.906 C519.44,334.605 519.38,334.281 519.296,333.981 C519.188,333.597 519.043,333.224 518.935,332.84 C518.863,332.564 518.815,332.287 518.755,332.011 C518.683,331.663 518.611,331.315 518.539,330.978 C518.467,330.63 518.383,330.27 518.299,329.921 C518.299,329.897 518.275,329.765 518.251,329.501 C518.251,329.501 518.191,329.117 518.143,328.78 C518.119,328.636 518.035,328.576 517.938,328.504 C517.854,328.444 517.746,328.432 517.65,328.408 C517.542,328.384 516.858,328.084 516.761,328.012 C516.605,327.892 516.425,327.795 516.245,327.711 C515.777,327.507 515.356,327.243 515.092,326.786 C514.984,326.594 514.936,326.378 514.972,326.138 C515.008,325.898 515.092,325.67 515.2,325.465 C515.26,325.345 515.392,325.297 515.5,325.333 C515.849,325.429 516.185,325.549 516.533,325.67 C516.641,325.706 516.725,325.814 516.821,325.898 C517.026,326.09 517.206,326.282 517.41,326.474 C517.566,326.618 517.734,326.75 517.818,326.955 C517.83,327.003 517.878,327.039 517.938,327.099 C517.951,327.015 517.963,326.979 517.963,326.931 C517.963,326.33 517.963,325.718 517.963,325.117 C517.963,324.985 517.914,324.901 517.77,324.877 C517.41,324.817 517.05,324.769 516.677,324.709 C516.509,324.685 516.353,324.637 516.185,324.625 C515.873,324.589 515.572,324.492 515.284,324.36 C514.924,324.192 514.78,323.892 514.72,323.532 C514.696,323.363 514.66,323.195 514.648,323.027 C514.648,322.979 514.696,322.907 514.732,322.895 C515.68,322.643 516.557,322.799 517.35,323.375 C517.542,323.52 517.71,323.688 517.806,323.916 C517.818,323.964 517.854,324 517.914,324.084 C517.938,323.988 517.951,323.94 517.951,323.88 C517.951,322.883 517.951,321.886 517.951,320.901 C517.987,320.589 517.951,320.313 517.926,320.036 C517.951,320 517.963,319.964 517.987,319.94 C518.204,319.667 518.383,319.352 518.413,318.996 C518.367,319.339 518.181,319.64 517.987,319.916 C517.963,319.94 517.951,319.976 517.926,320.012 C517.71,320.241 517.494,320.469 517.278,320.697 C516.918,321.081 516.461,321.31 515.981,321.502 C515.789,321.586 515.596,321.706 515.392,321.742 C514.936,321.814 514.479,321.934 514.011,321.874 C513.434,321.814 512.894,321.658 512.474,321.214 C512.053,320.781 511.849,320.277 511.909,319.664 C511.945,319.292 512.077,318.931 512.354,318.667 C512.786,318.247 513.218,317.826 513.663,317.418 C514.059,317.058 514.479,316.71 514.888,316.361 C514.924,316.325 514.972,316.289 514.996,316.253 C515.032,316.193 515.032,316.121 514.948,316.109 C514.587,316.049 514.227,315.989 513.867,315.929 C513.471,315.869 513.074,315.809 512.69,315.761 C512.185,315.785 511.465,315.641 511.032,314.98 C511.02,314.668 511.02,314.668 511.104,314.548 C511.381,314.175 511.645,313.803 511.957,313.455 C512.257,313.13 512.594,312.842 512.978,312.626 C513.23,312.482 513.507,312.482 513.783,312.434 C513.915,312.41 514.047,312.398 514.179,312.41 C514.299,312.41 514.407,312.434 514.527,312.47 C515.008,312.578 515.5,312.698 515.981,312.818 C516.053,312.842 516.137,312.878 516.209,312.902 C516.353,312.962 516.437,312.902 516.413,312.746 C516.317,312.121 516.221,311.509 516.137,310.884 C516.101,310.62 516.077,310.356 516.113,310.104 C516.149,309.911 516.281,309.731 516.401,309.575 C516.701,309.167 517.122,308.891 517.554,308.662 C517.746,308.566 517.926,308.458 518.119,308.35 z M518.413,318.047 C518.415,318.073 518.413,318.06 518.418,318.087 L518.413,318.047 z" fill="#5731F2"/>
      <path d="M477.204,324.704 L478.111,324.709 C478.123,324.745 480.501,324.781 481.678,324.805 C482.026,324.805 482.327,324.913 482.627,325.021 C482.663,325.033 482.711,325.081 482.723,325.117 C482.879,325.862 482.783,328.048 482.783,328.084 C482.783,328.576 482.807,329.069 482.783,329.549 C482.735,330.942 482.675,332.335 482.603,333.729 C482.591,334.017 482.543,334.305 482.507,334.581 C482.483,334.798 482.351,334.93 482.134,334.966 C481.762,335.038 481.378,335.098 480.993,335.134 C480.501,335.182 480.009,335.194 479.516,335.218 C479.36,335.23 479.36,335.218 479.372,335.05 C479.396,334.714 479.384,334.389 479.408,334.053 C479.456,333.477 479.528,332.9 479.576,332.323 C479.612,331.891 479.612,331.447 479.612,331.014 C479.612,330.51 479.6,330.017 479.588,329.513 C479.576,329.201 479.468,329.081 479.156,329.057 C478.507,328.996 477.871,328.936 477.222,328.876 C477.15,328.864 477.078,328.852 477.006,328.84 C476.802,328.792 476.67,328.876 476.646,329.081 C476.573,329.921 476.501,330.762 476.441,331.603 C476.369,332.648 476.297,333.681 476.225,334.726 C476.213,334.834 476.213,334.942 476.189,335.05 C476.153,335.242 476.105,335.278 475.913,335.29 C475.372,335.314 474.844,335.23 474.315,335.098 C474.159,335.062 474.003,335.026 473.859,334.978 C473.643,334.918 473.595,334.87 473.595,334.654 C473.607,333.885 473.583,333.104 473.631,332.335 C473.679,331.579 473.559,330.834 473.571,330.077 C473.583,329.225 473.583,328.372 473.619,327.519 C473.643,326.702 473.691,325.874 473.727,325.057 C473.739,324.841 473.763,324.805 473.979,324.793 C474.748,324.757 475.529,324.721 476.297,324.709 L477.204,324.704 z" fill="#5731F2"/>
      <path d="M491.202,312.396 C491.408,312.487 491.322,312.435 491.467,312.542 C492.452,313.334 493.364,314.199 494.205,315.136 C495.683,316.782 497.136,318.439 498.553,320.145 C498.817,320.457 499.082,320.781 499.346,321.105 C499.454,321.238 499.454,321.286 499.334,321.394 C499.166,321.538 498.986,321.67 498.817,321.814 C498.781,321.85 498.733,321.91 498.733,321.958 C498.649,322.955 498.565,323.952 498.505,324.961 C498.457,325.814 498.433,326.654 498.385,327.507 C498.373,327.639 498.349,327.759 498.337,327.892 C498.277,328.468 498.217,329.057 498.169,329.633 C498.085,330.498 498.025,331.375 497.929,332.239 C497.857,332.888 497.736,333.525 497.64,334.173 C497.628,334.293 497.568,334.353 497.436,334.353 C497.184,334.377 495.142,334.377 494.842,334.413 C494.746,334.425 492.512,334.521 492.259,334.557 C492.079,334.581 491.467,334.581 491.347,334.594 C491.058,334.618 490.77,334.654 490.494,334.702 C490.326,334.726 489.389,334.894 489.173,334.906 C488.921,334.918 488.68,334.978 488.428,334.99 C488.152,335.002 486.674,334.954 486.218,334.978 C485.954,334.99 485.906,334.966 485.882,334.702 C485.822,334.137 485.774,333.573 485.702,333.02 C485.63,332.516 485.557,331.999 485.437,331.507 C485.329,331.062 485.305,330.618 485.341,330.174 C485.401,329.465 485.449,328.744 485.509,328.036 C485.521,327.831 485.557,327.639 485.557,327.435 C485.557,327.135 485.533,326.847 485.546,326.546 C485.557,325.862 485.57,325.177 485.582,324.492 C485.582,324.372 485.582,324.252 485.594,324.132 C485.606,323.988 485.533,323.904 485.413,323.88 C484.945,323.796 484.537,323.568 484.116,323.375 C483.936,323.291 483.768,323.219 483.6,323.123 C483.492,323.063 483.396,322.979 483.323,322.883 C483.239,322.787 483.227,322.679 483.299,322.559 C483.648,322.006 483.996,321.454 484.332,320.901 C485.029,319.772 485.918,318.799 486.674,317.73 C487.131,317.094 487.695,316.553 488.092,315.881 C488.236,315.641 488.428,315.424 488.608,315.208 C488.764,315.016 488.933,314.848 489.089,314.656 C489.101,314.644 489.101,314.632 489.113,314.632 C489.353,314.572 489.401,314.331 489.533,314.163 C489.689,313.959 489.881,313.767 490.038,313.563 C490.182,313.383 490.314,313.202 490.458,313.022 C490.566,312.878 490.686,312.734 490.806,312.602 C490.965,312.426 490.977,312.416 491.202,312.396 z M495.109,324.083 C495.065,324.082 495.026,324.104 494.986,324.12 C494.95,324.144 494.926,324.192 494.914,324.228 C494.902,324.408 494.89,324.601 494.902,324.781 C494.902,324.985 494.926,325.201 494.938,325.405 C494.95,325.91 494.818,326.402 494.902,326.907 C494.902,326.931 494.902,326.967 494.902,326.991 C494.878,327.255 494.866,327.519 494.842,327.783 C494.83,328.084 494.842,328.384 494.806,328.684 C494.758,329.141 494.674,329.597 494.614,330.053 C494.59,330.222 494.59,330.39 494.578,330.558 C493.845,330.714 493.112,330.798 492.368,330.786 C491.971,330.786 491.575,330.798 491.179,330.798 C491.01,330.798 490.854,330.786 490.686,330.774 C490.65,330.774 490.614,330.762 490.59,330.774 C490.062,330.858 489.533,330.738 489.017,330.762 C489.017,330.762 489.005,330.762 489.005,330.762 C488.884,330.738 488.8,330.678 488.8,330.546 C488.788,330.354 488.776,330.15 488.752,329.957 C488.74,329.825 488.764,329.753 488.909,329.753 C489.029,329.741 489.077,329.681 489.053,329.561 C489.041,329.513 489.041,329.465 489.029,329.417 C488.945,329.129 488.933,328.828 488.921,328.528 C488.909,328.204 488.848,327.867 488.788,327.543 C488.704,327.015 488.644,326.474 488.464,325.958 C488.356,325.658 488.308,325.357 488.332,325.033 C488.356,324.769 488.308,324.673 488.068,324.565 C487.96,324.516 487.852,324.577 487.852,324.697 C487.852,324.745 487.864,324.793 487.864,324.841 C487.876,325.081 487.876,325.321 487.888,325.561 C487.888,325.658 487.864,325.766 487.9,325.862 C487.984,326.114 487.888,326.366 487.864,326.606 C487.84,326.871 487.731,327.135 487.683,327.399 C487.575,328.012 487.479,328.612 487.359,329.225 C487.263,329.729 487.239,330.222 487.287,330.726 C487.299,330.906 487.239,331.086 487.215,331.267 C487.203,331.327 487.179,331.375 487.179,331.435 C487.191,331.711 487.203,331.975 487.227,332.251 C487.251,332.468 487.263,332.468 487.491,332.444 C487.972,332.384 488.452,332.335 488.933,332.263 C490.013,332.107 491.094,332.083 492.175,332.071 C493.016,332.071 493.869,332.107 494.71,332.119 C495.082,332.131 495.454,332.119 495.815,332.119 C495.827,332.143 495.875,332.143 495.947,332.143 C495.947,332.059 495.947,331.999 495.935,331.939 C495.755,331.23 495.695,330.498 495.586,329.765 C495.466,328.936 495.322,328.12 495.202,327.291 C495.178,327.159 495.214,327.027 495.226,326.895 C495.226,326.847 495.25,326.799 495.25,326.75 C495.322,325.958 495.382,325.165 495.442,324.372 C495.442,324.3 495.43,324.192 495.382,324.144 C495.316,324.095 495.359,324.121 495.242,324.084 C495.156,324.084 495.2,324.085 495.109,324.083 z M494.049,327.699 C493.893,327.735 493.857,327.843 493.845,327.964 C493.833,328.084 493.785,328.132 493.677,328.132 C493.196,328.144 492.728,328.144 492.247,328.156 C492.151,328.156 492.055,328.168 491.947,328.168 C491.935,328.636 491.923,329.105 491.911,329.561 C491.911,329.669 491.971,329.729 492.079,329.741 C492.223,329.765 492.368,329.789 492.524,329.801 C493.004,329.837 493.485,329.861 493.977,329.885 C494.265,329.897 494.301,329.849 494.277,329.561 C494.217,328.996 494.169,328.42 494.109,327.855 C494.085,327.807 494.061,327.759 494.049,327.699 z M489.917,328.084 C489.917,328.096 489.917,328.108 489.917,328.108 C489.821,328.108 489.713,328.096 489.617,328.108 C489.497,328.12 489.413,328.156 489.425,328.312 C489.449,328.696 489.461,329.093 489.485,329.477 C489.497,329.669 489.521,329.681 489.725,329.669 C490.182,329.657 490.65,329.645 491.106,329.669 C491.383,329.681 491.419,329.681 491.395,329.405 C491.359,329.045 491.299,328.696 491.239,328.336 C491.215,328.204 491.142,328.168 490.998,328.168 C490.818,328.168 490.626,328.168 490.446,328.156 C490.266,328.144 490.086,328.108 489.917,328.084 z M493.218,324.387 C493.176,324.386 493.138,324.406 493.1,324.42 C493.004,324.468 492.908,324.504 492.812,324.54 C492.584,324.601 492.368,324.637 492.139,324.697 C491.947,324.745 491.863,324.829 491.863,324.997 C491.863,325.369 491.875,325.73 491.887,326.102 C491.887,326.246 491.983,326.318 492.127,326.294 C492.211,326.282 492.296,326.258 492.38,326.27 C492.824,326.27 493.232,326.294 493.689,326.318 C493.785,326.33 493.845,326.27 493.809,326.15 C493.713,325.718 493.605,325.285 493.509,324.853 C493.497,324.805 493.473,324.757 493.485,324.721 C493.545,324.601 493.497,324.504 493.413,324.432 L493.343,324.388 C493.262,324.388 493.304,324.389 493.218,324.387 z M489.413,324.853 C489.305,324.853 489.245,324.901 489.245,325.021 C489.257,325.141 489.245,325.273 489.245,325.405 C489.233,325.405 489.221,325.405 489.209,325.405 C489.233,325.633 489.245,325.85 489.269,326.078 C489.281,326.174 489.317,326.27 489.461,326.234 C489.857,326.126 490.254,326.054 490.674,326.126 C490.794,326.15 490.854,326.09 490.866,325.958 C490.89,325.645 490.95,325.333 490.866,325.021 C490.83,324.889 490.794,324.853 490.674,324.865 C490.302,324.865 489.929,324.865 489.557,324.865 L489.413,324.853 z M491.171,320.118 L491.13,320.169 C491.01,320.409 490.818,320.625 490.698,320.853 C490.554,321.105 489.953,321.874 489.857,322.066 C489.857,322.078 489.845,322.078 489.845,322.09 C489.521,322.523 489.185,322.955 488.86,323.387 C488.812,323.448 488.788,323.508 488.728,323.604 C488.896,323.592 489.017,323.58 489.137,323.568 C489.461,323.532 489.797,323.472 490.122,323.472 C490.446,323.472 490.758,323.532 491.082,323.544 C492.043,323.604 493.004,323.652 493.977,323.712 C494.109,323.724 494.193,323.676 494.193,323.544 C494.205,323.375 494.217,323.195 494.205,323.027 C494.205,322.991 494.109,322.919 494.061,322.919 C493.881,322.919 493.545,322.475 493.461,322.379 C493.364,322.282 493.256,322.198 493.172,322.102 C492.86,321.766 492.56,321.418 492.235,321.081 C491.935,320.769 491.623,320.469 491.323,320.169 C491.244,320.104 491.292,320.126 491.171,320.118 z" fill="#5731F2"/>
      <path d="M506.889,319.208 C507.153,319.208 508.426,319.256 508.798,319.268 C509.231,319.28 509.651,319.292 510.083,319.328 C510.372,319.352 510.672,319.412 510.96,319.472 C511.128,319.508 511.249,319.58 511.273,319.784 C511.297,320.06 511.369,320.325 511.321,320.601 C511.273,320.925 511.032,321.129 510.756,321.19 C510.588,321.226 510.42,321.226 510.228,321.262 C510.312,321.286 510.396,321.31 510.48,321.334 C510.684,321.37 510.9,321.406 511.104,321.454 C511.116,321.454 511.128,321.454 511.128,321.454 C511.369,321.514 511.465,321.658 511.501,321.826 C511.501,322.03 511.489,322.234 511.489,322.439 C511.489,322.691 511.513,322.943 511.513,323.195 C511.513,323.423 511.513,323.652 511.513,323.88 C511.525,324.492 511.525,325.093 511.549,325.706 C511.561,325.994 511.609,326.847 511.609,326.991 C511.609,327.135 511.609,327.267 511.609,327.411 C511.597,327.747 511.729,329.777 511.729,330.33 C511.717,331.158 511.729,331.987 511.729,332.816 C511.729,332.948 511.717,333.08 511.693,333.212 C511.657,333.428 511.453,333.585 511.212,333.585 C510.816,333.597 510.408,333.609 510.011,333.609 C509.711,333.621 509.399,333.633 509.099,333.633 C508.774,333.645 508.438,333.645 508.114,333.657 C507.681,333.669 507.249,333.693 506.817,333.717 C506.708,333.717 506.66,333.681 506.66,333.573 C506.66,333.573 506.66,333.561 506.66,333.561 C506.648,332.78 506.636,331.987 506.636,331.206 C506.636,330.954 506.636,330.69 506.636,330.438 C506.624,330.017 506.612,329.585 506.612,329.165 C506.612,328.912 506.6,328.12 506.576,327.964 C505.495,327.928 504.438,327.867 503.357,328.024 C503.345,328.12 503.321,328.228 503.321,328.336 C503.321,328.792 503.309,329.261 503.321,329.717 C503.333,330.198 503.357,330.678 503.369,331.158 C503.369,331.315 503.345,331.483 503.345,331.639 C503.357,332.215 503.393,332.996 503.405,333.561 C503.357,333.981 503.141,333.897 502.637,333.933 C502.168,333.861 501.712,333.741 501.232,333.765 C501.184,333.765 501.147,333.765 501.099,333.765 C500.871,333.741 500.823,333.681 500.799,333.44 C500.775,333.02 500.727,332.588 500.691,332.167 L500.691,330.45 C500.691,330.089 500.703,329.729 500.727,329.369 C500.739,329.129 500.775,327.207 500.715,326.883 C500.703,326.799 500.727,325.357 500.715,325.177 L500.715,322.331 C500.715,322.126 500.655,322.054 500.451,322.042 C500.355,322.03 500.319,322.006 500.307,321.898 C500.247,321.538 500.271,321.514 500.619,321.49 C500.979,321.466 501.34,321.418 501.712,321.382 C501.904,321.358 502.108,321.346 502.301,321.322 C502.337,321.322 502.385,321.298 502.421,321.286 C502.421,321.274 502.421,321.25 502.409,321.238 C502.288,321.238 502.156,321.238 502.036,321.238 C501.676,321.226 500.643,321.045 500.439,320.985 C500.078,320.889 499.874,320.601 499.886,320.265 C499.898,320.121 499.886,319.964 499.886,319.82 C499.886,319.796 499.886,319.76 499.886,319.736 C499.886,319.424 499.934,319.364 500.235,319.34 C500.415,319.328 500.583,319.316 500.763,319.316 C501.472,319.304 502.168,319.292 502.877,319.28 C503.285,319.268 503.694,319.268 504.102,319.256 C504.342,319.244 504.583,319.232 504.835,319.232 C505.135,319.232 506.504,319.208 506.889,319.208 z M501.72,322.089 L501.472,322.09 C501.436,322.09 501.424,322.319 501.424,322.355 C501.46,322.847 501.496,323.856 501.496,323.856 C501.496,324.072 501.484,324.276 501.496,324.492 C501.52,324.781 501.592,324.949 501.916,324.925 C502.06,324.913 502.204,324.901 502.361,324.901 C502.685,324.889 502.709,324.877 502.697,324.553 C502.697,324.492 502.697,324.432 502.697,324.36 C502.697,324.18 502.709,324 502.721,323.832 C502.733,323.7 502.757,323.568 502.757,323.436 C502.745,323.099 502.721,322.751 502.709,322.415 C502.697,322.234 502.649,322.126 502.469,322.114 C502.058,322.082 502.308,322.096 501.72,322.089 z M510.059,321.924 C509.8,321.932 509.912,321.929 509.723,321.934 C509.627,321.934 509.543,321.946 509.447,321.946 C509.327,321.934 509.207,321.994 509.183,322.114 C509.159,322.258 509.123,322.403 509.135,322.547 C509.147,322.955 509.183,323.375 509.219,323.784 C509.243,324.06 509.291,324.336 509.339,324.613 C509.339,324.637 509.387,324.673 509.411,324.685 C509.687,324.733 509.963,324.781 510.228,324.829 C510.384,324.865 510.432,324.829 510.432,324.661 C510.42,324.324 510.396,323.976 510.456,323.64 C510.48,323.496 510.492,323.351 510.48,323.219 C510.48,323.051 510.456,322.703 510.456,322.703 C510.456,322.583 510.456,322.475 510.456,322.355 C510.456,322.126 510.348,321.958 510.168,321.934 L510.059,321.924 z M503.697,322.048 L503.526,322.078 C503.478,322.09 503.43,322.162 503.43,322.198 C503.43,322.355 503.442,322.499 503.454,322.655 C503.466,322.823 503.49,322.991 503.514,323.159 C503.526,323.267 503.55,323.375 503.574,323.484 C503.622,323.748 503.694,324.252 503.682,324.252 C503.682,324.372 503.67,324.492 503.682,324.613 C503.694,324.661 503.754,324.733 503.802,324.733 C503.91,324.745 504.03,324.745 504.15,324.733 C504.378,324.709 504.402,324.673 504.402,324.432 C504.402,324.276 504.378,324.108 504.402,323.952 C504.45,323.676 504.438,323.399 504.402,323.123 C504.366,322.871 504.306,322.619 504.366,322.367 C504.402,322.234 504.342,322.162 504.21,322.114 C503.928,322.041 504.098,322.074 503.697,322.048 z M505.712,321.97 C505.519,321.97 505.315,322.03 505.123,322.066 C505.087,322.078 505.039,322.138 505.039,322.174 C505.039,322.391 505.051,322.607 505.075,322.811 C505.111,323.123 505.171,323.436 505.207,323.748 C505.243,324 505.267,324.24 505.303,324.492 C505.303,324.528 505.363,324.577 505.399,324.577 C505.627,324.589 505.844,324.601 506.072,324.613 C506.156,324.613 506.228,324.625 506.312,324.637 C506.48,324.661 506.576,324.613 506.6,324.432 C506.624,324.24 506.648,324.048 506.66,323.856 C506.66,323.387 506.648,322.907 506.648,322.415 C506.636,322.415 506.624,322.282 506.624,322.21 C506.636,322.114 506.588,322.042 506.492,322.03 C506.228,322.006 505.976,321.97 505.712,321.97 z M507.362,321.932 C507.215,321.958 507.036,322.01 506.997,322.174 C506.997,322.463 507.009,322.751 507.021,323.051 C507.057,323.508 507.105,323.952 507.129,324.408 C507.141,324.601 507.153,324.625 507.345,324.613 C507.573,324.625 507.801,324.601 508.054,324.589 C508.09,324.384 508.126,324.168 508.15,323.952 C508.162,323.796 508.162,323.628 508.15,323.472 C508.138,323.051 508.114,322.631 508.09,322.21 C508.078,322.054 508.03,322.006 507.873,321.994 C507.717,321.982 507.573,321.958 507.429,321.934 L507.362,321.932 z" fill="#5731F2"/>
      <path d="M515.249,328.575 L515.332,328.576 C515.548,328.6 515.765,328.636 515.981,328.624 C516.209,328.624 516.425,328.684 516.605,328.804 C516.725,328.888 516.833,329.008 516.93,329.117 C517.098,329.297 517.242,329.489 517.41,329.669 C517.458,329.729 518.035,330.33 518.095,330.378 C518.251,330.498 518.371,330.642 518.431,330.834 C518.491,331.038 518.431,331.11 518.227,331.134 C517.987,331.158 517.734,331.206 517.422,331.255 C517.254,331.206 517.014,331.158 516.797,331.074 C516.449,330.942 516.113,330.786 515.777,330.618 C515.488,330.474 515.248,330.258 515.068,329.981 C515.008,329.885 514.972,329.777 514.972,329.657 C514.948,329.333 514.972,329.021 515.08,328.72 C515.145,328.599 515.096,328.654 515.249,328.575 z" fill="#5731F2"/>
      <path d="M478.932,315.693 L479.072,315.725 C479.192,315.773 479.456,315.977 479.492,316.025 C479.9,316.589 480.093,317.034 480.357,317.598 C480.777,318.379 481.222,319.136 481.618,319.916 C481.846,320.361 482.026,320.841 482.207,321.31 C482.411,321.838 482.591,322.379 482.783,322.919 C482.891,323.207 482.939,323.508 482.891,323.82 C482.855,324.012 482.783,324.096 482.579,324.108 C482.363,324.12 482.146,324.132 481.93,324.132 C481.45,324.144 480.981,324.168 480.501,324.156 C479.768,324.132 479.024,324.096 478.291,324.06 C477.799,324.036 477.33,324.024 476.754,324 C476.213,324.024 475.577,324.06 474.928,324.096 C474.772,324.108 474.604,324.06 474.448,324.06 C474.183,324.048 473.919,324.048 473.667,324.048 C473.487,324.048 473.427,323.976 473.463,323.796 C473.475,323.736 473.499,323.688 473.523,323.64 C474.051,322.619 474.592,321.598 475.12,320.577 C475.408,320.024 475.661,319.46 475.973,318.931 C476.237,318.475 478.051,316.421 478.567,315.857 C478.746,315.703 478.632,315.773 478.932,315.693 z" fill="#5731F2"/>
      <path d="M528.125,313.485 L528.184,313.515 C528.34,313.635 528.508,313.755 528.664,313.887 C528.712,313.935 528.748,313.995 528.784,314.055 C528.844,314.151 528.904,314.247 528.952,314.343 C529.024,314.451 529.048,314.572 529,314.704 C528.916,314.932 528.796,315.136 528.628,315.292 C528.568,315.376 528.472,315.412 528.4,315.46 C528.256,315.376 528.112,315.304 527.967,315.22 C527.919,314.98 527.871,314.728 527.811,314.488 C527.739,314.151 527.799,313.839 527.992,313.551 C528.051,313.482 528.011,313.51 528.125,313.485 z" fill="#5731F2"/>
    </g>
  </g>
</svg>
