<?xml version="1.0" encoding="UTF-8"?>
<!DOCTYPE svg PUBLIC "-//W3C//DTD SVG 1.1//EN" "http://www.w3.org/Graphics/SVG/1.1/DTD/svg11.dtd">
<svg version="1.1" xmlns="http://www.w3.org/2000/svg" xmlns:xlink="http://www.w3.org/1999/xlink" x="0" y="0" width="2239.37" height="1088.504" viewBox="0, 0, 2239.37, 1088.504">
  <g id="Layer_1">
    <g>
      <path d="M135.713,18.925 L135.713,37.917 L154.705,37.917 L154.705,18.925 L154.706,18.925 L154.706,18.925 L173.698,18.925 L173.698,37.917 L192.689,37.917 L192.689,18.925 L192.69,18.925 L192.69,18.925 L211.682,18.925 L211.682,37.917 L230.674,37.917 L230.674,18.925 L249.666,18.925 L249.666,37.917 L268.659,37.917 L268.659,18.925 L287.651,18.925 L287.651,37.917 L306.643,37.917 L306.643,18.925 L325.635,18.925 L325.635,37.917 L344.627,37.917 L344.627,18.925 L363.62,18.925 L363.62,37.917 L382.612,37.917 L382.612,18.925 L401.604,18.925 L401.604,37.917 L420.596,37.917 L420.596,18.925 L439.588,18.925 L439.588,37.917 L458.581,37.917 L458.581,18.925 L477.573,18.925 L477.573,37.917 L496.565,37.917 L496.565,18.925 L515.557,18.925 L515.557,37.917 L534.549,37.917 L534.549,18.925 L553.541,18.925 L553.541,37.917 L572.534,37.917 L572.534,18.925 L591.526,18.925 L591.526,37.917 L610.518,37.917 L610.518,18.925 L629.51,18.925 L629.51,37.917 L648.502,37.917 L648.502,18.925 L667.495,18.925 L667.495,37.917 L686.486,37.917 L686.486,18.925 L705.479,18.925 L705.479,37.917 L724.471,37.917 L724.471,18.925 L743.463,18.925 L743.463,18.925 L762.455,18.925 L762.455,37.917 L762.455,37.917 L762.455,56.91 L743.463,56.91 L743.463,75.902 L762.455,75.902 L762.455,94.894 L743.463,94.894 L743.463,113.886 L762.455,113.886 L762.455,132.878 L743.463,132.878 L743.463,151.87 L762.455,151.87 L762.455,170.862 L743.463,170.862 L743.463,189.854 L762.455,189.854 L762.455,208.847 L743.463,208.847 L743.463,227.839 L762.455,227.839 L762.455,246.831 L743.463,246.831 L743.463,265.823 L762.455,265.823 L762.455,284.815 L743.463,284.815 L743.463,303.807 L762.455,303.807 L762.455,322.799 L743.463,322.799 L743.463,341.791 L762.455,341.791 L762.455,360.784 L743.463,360.784 L743.463,379.776 L762.455,379.776 L762.455,398.768 L743.463,398.768 L743.463,417.76 L762.455,417.76 L762.455,436.752 L743.463,436.752 L743.463,455.744 L762.455,455.744 L762.455,474.736 L743.463,474.736 L743.463,493.728 L762.455,493.728 L762.455,512.721 L743.463,512.721 L743.463,531.713 L762.455,531.713 L762.455,550.705 L743.463,550.705 L743.463,569.697 L762.455,569.697 L762.455,588.689 L762.455,588.689 L762.455,607.681 L724.471,607.681 L724.471,588.689 L705.479,588.689 L705.479,607.681 L686.486,607.681 L686.486,588.689 L667.495,588.689 L667.495,607.681 L648.502,607.681 L648.502,588.689 L629.51,588.689 L629.51,607.681 L610.518,607.681 L610.518,588.689 L591.526,588.689 L591.526,607.681 L572.534,607.681 L572.534,588.689 L553.541,588.689 L553.541,607.681 L534.549,607.681 L534.549,588.689 L515.557,588.689 L515.557,607.681 L496.565,607.681 L496.565,588.689 L477.573,588.689 L477.573,607.681 L458.581,607.681 L458.581,588.689 L439.588,588.689 L439.588,607.681 L420.596,607.681 L420.596,588.689 L401.604,588.689 L401.604,607.681 L382.612,607.681 L382.612,588.689 L363.62,588.689 L363.62,607.681 L344.627,607.681 L344.627,588.689 L325.635,588.689 L325.635,607.681 L306.643,607.681 L306.643,588.689 L287.651,588.689 L287.651,607.681 L268.659,607.681 L268.659,588.689 L249.666,588.689 L249.666,607.681 L230.674,607.681 L230.674,588.689 L221.319,588.689 L221.319,588.689 L211.682,588.689 L211.682,607.681 L211.681,607.681 L211.681,607.681 L192.689,607.681 L192.689,588.689 L173.698,588.689 L173.698,607.681 L173.697,607.681 L173.697,607.681 L154.705,607.681 L154.705,588.689 L135.713,588.689 L135.713,607.681 L135.713,607.681 L135.713,607.681 L116.721,607.681 L116.721,588.689 L97.728,588.689 L97.728,607.681 L78.736,607.681 L78.736,588.689 L59.744,588.689 L59.744,607.681 L21.76,607.681 L21.76,569.697 L40.752,569.697 L40.752,550.705 L21.76,550.705 L21.76,531.713 L40.752,531.713 L40.752,512.721 L21.76,512.721 L21.76,493.728 L40.752,493.728 L40.752,474.736 L21.76,474.736 L21.76,455.744 L40.752,455.744 L40.752,436.752 L21.76,436.752 L21.76,417.76 L40.752,417.76 L40.752,398.768 L21.76,398.768 L21.76,379.776 L40.752,379.776 L40.752,360.784 L21.76,360.784 L21.76,341.792 L40.752,341.792 L40.752,322.799 L21.76,322.799 L21.76,303.807 L40.752,303.807 L40.752,284.815 L21.76,284.815 L21.76,265.823 L40.752,265.823 L40.752,246.831 L21.76,246.831 L21.76,227.839 L40.752,227.839 L40.752,208.847 L21.76,208.847 L21.76,189.855 L40.752,189.855 L40.752,170.862 L21.76,170.862 L21.76,151.87 L40.752,151.87 L40.752,132.878 L21.76,132.878 L21.76,113.886 L40.752,113.886 L40.752,94.894 L21.76,94.894 L21.76,75.902 L40.752,75.902 L40.752,56.91 L21.76,56.91 L21.76,18.925 L40.752,18.925 L40.752,18.925 L59.744,18.925 L59.744,37.918 L78.736,37.918 L78.736,18.925 L97.728,18.925 L97.728,37.918 L116.437,37.918 L116.437,37.917 L116.721,37.917 L116.721,18.925 L116.721,18.925 L116.721,18.925 L135.713,18.925 z" fill="#FFFFFF"/>
      <path d="M135.713,18.925 L135.713,37.917 L154.705,37.917 L154.705,18.925 L154.706,18.925 L154.706,18.925 L173.698,18.925 L173.698,37.917 L192.689,37.917 L192.689,18.925 L192.69,18.925 L192.69,18.925 L211.682,18.925 L211.682,37.917 L230.674,37.917 L230.674,18.925 L249.666,18.925 L249.666,37.917 L268.659,37.917 L268.659,18.925 L287.651,18.925 L287.651,37.917 L306.643,37.917 L306.643,18.925 L325.635,18.925 L325.635,37.917 L344.627,37.917 L344.627,18.925 L363.62,18.925 L363.62,37.917 L382.612,37.917 L382.612,18.925 L401.604,18.925 L401.604,37.917 L420.596,37.917 L420.596,18.925 L439.588,18.925 L439.588,37.917 L458.581,37.917 L458.581,18.925 L477.573,18.925 L477.573,37.917 L496.565,37.917 L496.565,18.925 L515.557,18.925 L515.557,37.917 L534.549,37.917 L534.549,18.925 L553.541,18.925 L553.541,37.917 L572.534,37.917 L572.534,18.925 L591.526,18.925 L591.526,37.917 L610.518,37.917 L610.518,18.925 L629.51,18.925 L629.51,37.917 L648.502,37.917 L648.502,18.925 L667.495,18.925 L667.495,37.917 L686.486,37.917 L686.486,18.925 L705.479,18.925 L705.479,37.917 L724.471,37.917 L724.471,18.925 L743.463,18.925 L743.463,18.925 L762.455,18.925 L762.455,37.917 L762.455,37.917 L762.455,56.91 L743.463,56.91 L743.463,75.902 L762.455,75.902 L762.455,94.894 L743.463,94.894 L743.463,113.886 L762.455,113.886 L762.455,132.878 L743.463,132.878 L743.463,151.87 L762.455,151.87 L762.455,170.862 L743.463,170.862 L743.463,189.854 L762.455,189.854 L762.455,208.847 L743.463,208.847 L743.463,227.839 L762.455,227.839 L762.455,246.831 L743.463,246.831 L743.463,265.823 L762.455,265.823 L762.455,284.815 L743.463,284.815 L743.463,303.807 L762.455,303.807 L762.455,322.799 L743.463,322.799 L743.463,341.791 L762.455,341.791 L762.455,360.784 L743.463,360.784 L743.463,379.776 L762.455,379.776 L762.455,398.768 L743.463,398.768 L743.463,417.76 L762.455,417.76 L762.455,436.752 L743.463,436.752 L743.463,455.744 L762.455,455.744 L762.455,474.736 L743.463,474.736 L743.463,493.728 L762.455,493.728 L762.455,512.721 L743.463,512.721 L743.463,531.713 L762.455,531.713 L762.455,550.705 L743.463,550.705 L743.463,569.697 L762.455,569.697 L762.455,588.689 L762.455,588.689 L762.455,607.681 L724.471,607.681 L724.471,588.689 L705.479,588.689 L705.479,607.681 L686.486,607.681 L686.486,588.689 L667.495,588.689 L667.495,607.681 L648.502,607.681 L648.502,588.689 L629.51,588.689 L629.51,607.681 L610.518,607.681 L610.518,588.689 L591.526,588.689 L591.526,607.681 L572.534,607.681 L572.534,588.689 L553.541,588.689 L553.541,607.681 L534.549,607.681 L534.549,588.689 L515.557,588.689 L515.557,607.681 L496.565,607.681 L496.565,588.689 L477.573,588.689 L477.573,607.681 L458.581,607.681 L458.581,588.689 L439.588,588.689 L439.588,607.681 L420.596,607.681 L420.596,588.689 L401.604,588.689 L401.604,607.681 L382.612,607.681 L382.612,588.689 L363.62,588.689 L363.62,607.681 L344.627,607.681 L344.627,588.689 L325.635,588.689 L325.635,607.681 L306.643,607.681 L306.643,588.689 L287.651,588.689 L287.651,607.681 L268.659,607.681 L268.659,588.689 L249.666,588.689 L249.666,607.681 L230.674,607.681 L230.674,588.689 L221.319,588.689 L221.319,588.689 L211.682,588.689 L211.682,607.681 L211.681,607.681 L211.681,607.681 L192.689,607.681 L192.689,588.689 L173.698,588.689 L173.698,607.681 L173.697,607.681 L173.697,607.681 L154.705,607.681 L154.705,588.689 L135.713,588.689 L135.713,607.681 L135.713,607.681 L135.713,607.681 L116.721,607.681 L116.721,588.689 L97.728,588.689 L97.728,607.681 L78.736,607.681 L78.736,588.689 L59.744,588.689 L59.744,607.681 L21.76,607.681 L21.76,569.697 L40.752,569.697 L40.752,550.705 L21.76,550.705 L21.76,531.713 L40.752,531.713 L40.752,512.721 L21.76,512.721 L21.76,493.728 L40.752,493.728 L40.752,474.736 L21.76,474.736 L21.76,455.744 L40.752,455.744 L40.752,436.752 L21.76,436.752 L21.76,417.76 L40.752,417.76 L40.752,398.768 L21.76,398.768 L21.76,379.776 L40.752,379.776 L40.752,360.784 L21.76,360.784 L21.76,341.792 L40.752,341.792 L40.752,322.799 L21.76,322.799 L21.76,303.807 L40.752,303.807 L40.752,284.815 L21.76,284.815 L21.76,265.823 L40.752,265.823 L40.752,246.831 L21.76,246.831 L21.76,227.839 L40.752,227.839 L40.752,208.847 L21.76,208.847 L21.76,189.855 L40.752,189.855 L40.752,170.862 L21.76,170.862 L21.76,151.87 L40.752,151.87 L40.752,132.878 L21.76,132.878 L21.76,113.886 L40.752,113.886 L40.752,94.894 L21.76,94.894 L21.76,75.902 L40.752,75.902 L40.752,56.91 L21.76,56.91 L21.76,18.925 L40.752,18.925 L40.752,18.925 L59.744,18.925 L59.744,37.918 L78.736,37.918 L78.736,18.925 L97.728,18.925 L97.728,37.918 L116.437,37.918 L116.437,37.917 L116.721,37.917 L116.721,18.925 L116.721,18.925 L116.721,18.925 L135.713,18.925 z" fill-opacity="0" stroke="#000000" stroke-width="1"/>
    </g>
    <g id="logo">
      <path d="M391.014,327.709 C391.447,327.709 391.879,327.709 392.299,327.745 C392.624,327.769 392.948,327.793 393.272,327.901 C393.453,327.961 393.549,328.165 393.585,328.333 C393.609,328.489 393.657,328.633 393.693,328.79 C393.705,328.862 393.705,328.91 393.609,328.958 C393.356,328.958 393.104,328.958 392.852,328.97 C392.72,328.97 392.588,328.994 392.456,329.018 C392.42,329.018 391.747,329.066 391.459,329.054 C391.074,329.042 390.69,329.066 390.294,329.078 C389.969,329.09 389.645,329.126 389.321,329.126 C389.153,329.126 388.973,329.162 388.804,329.162 C388.588,329.162 388.492,329.162 388.264,329.162 C387.892,329.126 387.591,329.042 387.567,328.693 C387.555,328.465 387.591,328.225 387.627,327.985 C387.639,327.853 387.807,327.757 387.976,327.745 C388.132,327.745 388.288,327.745 388.456,327.745 C388.444,327.721 389.441,327.709 389.933,327.709 L391.014,327.709 z" fill="#5731F2"/>
      <path d="M401.548,327.733 C401.836,327.733 402.545,327.841 402.629,327.853 C402.749,327.853 402.821,327.925 402.845,328.021 C402.881,328.237 402.917,328.453 402.929,328.681 C402.941,328.91 402.905,328.91 402.725,328.946 C402.256,329.042 401.788,329.114 401.308,329.09 C400.935,329.078 400.563,329.09 400.203,329.09 C399.974,329.09 399.734,329.066 399.506,329.066 C399.314,329.066 397.969,329.09 397.704,329.126 C397.644,329.138 397.392,329.102 397.332,329.102 C397.044,329.102 396.755,329.114 396.455,329.126 C396.275,329.126 396.059,328.657 396.023,328.597 C395.915,328.189 396.023,328.165 396.131,327.961 C396.215,327.805 396.347,327.781 396.503,327.793 C396.719,327.805 396.936,327.817 397.164,327.817 C397.26,327.817 398.881,327.733 399.074,327.733 L401.548,327.733 z" fill="#5731F2"/>
      <path d="M405.631,327.613 C406.064,327.625 406.484,327.637 406.917,327.649 C407.097,327.661 407.277,327.673 407.457,327.673 C407.793,327.673 408.118,327.685 408.454,327.661 C408.802,327.637 409.139,327.733 409.487,327.733 C409.907,327.733 410.34,327.781 410.76,327.817 C411.132,327.829 411.385,327.901 411.673,328.117 C411.721,328.189 411.733,328.225 411.721,328.357 C411.721,328.489 411.685,328.657 411.601,328.73 C411.421,328.886 411.204,328.982 410.94,328.994 C409.895,329.006 408.862,329.066 407.817,329.054 C407.253,329.054 406.688,328.946 406.112,328.886 C405.896,328.862 405.679,328.85 405.463,328.838 C405.295,328.826 405.175,328.754 405.103,328.621 C405.079,328.573 405.079,328.501 405.079,328.441 C405.079,328.405 405.151,327.961 405.247,327.793 C405.331,327.637 405.475,327.613 405.631,327.613 z" fill="#5731F2"/>
      <path d="M416.645,327.512 C416.795,327.515 416.735,327.513 416.825,327.516 C417.066,327.54 417.306,327.564 417.558,327.589 C417.87,327.625 418.183,327.637 418.483,327.685 C418.795,327.733 418.963,328.045 418.843,328.357 C418.819,328.441 418.819,328.525 418.783,328.609 C418.687,328.778 418.291,328.814 418.135,328.862 C417.69,328.946 417.51,328.982 417.198,328.958 C417.162,328.958 417.126,328.946 417.102,328.946 C416.633,328.91 415.3,328.766 415.168,328.754 C415.024,328.742 414.88,328.73 414.736,328.742 C414.591,328.742 414.447,328.778 414.303,328.778 C414.015,328.778 413.739,328.754 413.45,328.742 C413.426,328.742 413.402,328.73 413.378,328.717 C413.222,328.633 413.078,328.285 413.114,328.081 C413.162,327.829 413.294,327.685 413.547,327.661 C414.111,327.625 414.676,327.589 415.204,327.552 C415.684,327.521 416.165,327.514 416.645,327.512 z" fill="#5731F2"/>
      <path d="M380.121,327.564 C380.601,327.576 381.081,327.6 381.562,327.625 C381.73,327.637 381.898,327.649 382.054,327.649 C382.439,327.673 382.847,327.637 383.219,327.721 C383.748,327.841 384.264,327.793 384.793,327.829 C385.069,327.841 385.177,328.273 385.201,328.369 C385.213,328.453 385.225,328.537 385.225,328.621 C385.225,328.802 385.201,328.826 385.009,328.838 C384.805,328.838 384.601,328.838 384.384,328.85 C384.228,328.862 384.084,328.886 383.928,328.886 C383.532,328.886 383.135,328.862 382.739,328.862 C382.21,328.862 381.682,328.886 381.141,328.886 C381.057,328.886 380.973,328.862 380.889,328.862 C380.817,328.862 380.745,328.862 380.673,328.862 C380.409,328.874 380.145,328.85 379.976,328.597 C379.952,328.561 379.94,328.501 379.928,328.453 C379.904,328.273 379.88,328.105 379.844,327.925 C379.796,327.721 379.916,327.552 380.121,327.564 z" fill="#5731F2"/>
      <path d="M375.249,327.552 L375.304,327.552 C375.641,327.576 375.965,327.552 376.301,327.564 C376.529,327.564 376.758,327.552 376.974,327.6 C377.214,327.661 377.37,328.009 377.298,328.261 C377.286,328.321 377.274,328.381 377.25,328.429 C377.166,328.693 376.974,328.79 376.698,328.766 C376.373,328.742 376.049,328.778 375.725,328.79 C375.52,328.79 375.316,328.79 375.1,328.79 C374.968,328.79 373.515,328.73 373.407,328.73 C373.286,328.73 371.797,328.597 371.641,328.585 C371.425,328.561 371.233,328.297 371.197,328.141 C371.137,327.865 371.209,327.781 371.509,327.745 C371.773,327.733 372.049,327.697 372.434,327.649 C372.734,327.649 373.13,327.649 373.539,327.649 C374.109,327.624 374.678,327.569 375.249,327.552 z" fill="#5731F2"/>
      <path d="M366.183,327.49 L366.308,327.492 C366.873,327.504 367.437,327.516 368.002,327.54 C368.05,327.54 368.134,327.6 368.134,327.637 C368.146,327.817 368.146,327.985 368.122,328.165 C368.11,328.297 368.002,328.357 367.87,328.381 C367.653,328.417 367.425,328.465 367.209,328.489 C366.909,328.525 366.608,328.549 366.308,328.573 C365.756,328.621 365.191,328.657 364.639,328.73 C364.158,328.802 363.702,328.79 363.257,328.609 C363.077,328.537 363.005,328.453 363.005,328.249 C362.993,327.841 363.173,327.625 363.582,327.54 C363.702,327.516 363.822,327.528 363.942,327.528 C364.435,327.528 364.927,327.528 365.407,327.528 C365.416,327.525 365.425,327.521 365.434,327.52 C365.682,327.489 365.934,327.492 366.183,327.49 z" fill="#5731F2"/>
      <path d="M406.063,324.186 L406.664,324.189 C407.241,324.189 407.805,324.237 408.37,324.274 C408.706,324.286 409.054,324.31 409.391,324.334 C409.859,324.358 410.34,324.394 410.808,324.418 C411.204,324.442 411.601,324.466 411.997,324.502 C412.466,324.538 412.922,324.598 413.39,324.646 C413.787,324.682 415.252,324.706 415.648,324.73 C416.081,324.766 417.198,324.766 417.366,324.802 C417.69,324.862 417.726,324.862 418.339,324.934 C418.759,325.006 419.035,325.21 419.107,325.619 C419.107,325.655 419.119,325.679 419.132,325.715 C419.168,325.871 419.083,325.979 418.915,325.967 C418.735,325.955 418.543,325.955 418.363,325.931 C418.063,325.895 417.75,325.859 417.45,325.823 C417.234,325.799 417.03,325.775 416.813,325.763 C416.333,325.739 415.853,325.727 415.372,325.703 C415.24,325.691 415.12,325.703 415,325.703 C414.82,325.715 414.171,325.679 414.039,325.679 C413.138,325.667 410.772,325.571 410.484,325.571 C409.991,325.559 409.487,325.547 408.994,325.547 C408.79,325.547 406.484,325.619 406.316,325.631 C405.956,325.643 405.595,325.655 405.223,325.655 C405.019,325.655 403.518,325.607 403.253,325.595 C402.941,325.583 402.629,325.559 402.316,325.547 C402.184,325.547 401.079,325.511 401.007,325.523 C400.167,325.535 397.704,325.619 397.308,325.667 C397.14,325.679 395.566,325.775 395.326,325.811 C395.038,325.847 394.75,325.871 394.461,325.895 C394.449,325.895 394.437,325.895 394.437,325.895 C394.053,325.919 393.669,325.943 393.284,325.943 C393.104,325.943 388.252,326.075 387.964,326.075 C387.699,326.075 387.063,326.063 387.003,326.063 C386.438,326.039 385.874,326.027 385.309,326.003 C385.225,326.003 384.228,325.895 383.82,325.907 C383.604,325.919 382.198,325.847 381.79,325.859 C381.538,325.859 381.286,325.859 381.033,325.859 C380.829,325.859 378.895,325.751 378.607,325.763 C378.367,325.763 377.79,325.727 377.73,325.727 C377.574,325.727 374.211,325.775 374.187,325.787 C373.983,325.799 371.761,325.751 371.557,325.775 C371.245,325.811 369.323,325.883 369.071,325.979 C368.963,326.015 368.842,326.015 368.734,326.027 C368.494,326.051 366.416,326.159 366.248,326.171 C366.008,326.183 363.714,326.399 363.318,326.387 C362.957,326.339 362.633,326.183 362.309,326.027 C362.201,325.979 361.732,325.607 361.648,325.33 C361.612,325.186 361.612,325.15 361.648,325.078 C361.732,324.946 361.816,324.934 361.948,324.934 C362.429,324.91 363.51,324.85 363.99,324.826 C364.35,324.814 365.876,324.85 366.188,324.85 C366.512,324.85 367.87,324.826 368.23,324.79 C368.446,324.766 368.662,324.754 368.879,324.73 C369.839,324.622 372.217,324.622 372.458,324.61 C372.914,324.586 373.383,324.574 373.839,324.55 C374.151,324.538 376.265,324.634 376.589,324.634 C376.601,324.634 376.613,324.634 376.637,324.634 C377.346,324.622 378.043,324.61 378.751,324.61 C379.088,324.61 379.424,324.634 379.748,324.634 C380.241,324.622 380.733,324.598 381.226,324.574 C381.406,324.562 381.598,324.55 381.778,324.55 C382.258,324.526 382.727,324.502 383.207,324.49 C383.676,324.49 384.156,324.502 384.625,324.514 C385.069,324.526 385.513,324.526 385.958,324.538 C386.366,324.55 386.775,324.574 387.183,324.598 C387.363,324.61 387.531,324.622 387.711,324.622 C388.24,324.634 388.768,324.646 389.309,324.646 C389.741,324.646 390.174,324.634 390.594,324.622 C390.966,324.61 391.351,324.562 391.723,324.538 C391.759,324.538 391.795,324.538 391.819,324.538 C392.143,324.526 392.48,324.526 392.804,324.514 C393.152,324.502 393.513,324.478 393.861,324.454 C394.269,324.43 394.69,324.406 395.098,324.394 C395.518,324.382 395.927,324.37 396.347,324.358 C396.563,324.346 396.792,324.334 397.008,324.334 C397.512,324.334 398.017,324.358 398.533,324.358 C399.013,324.358 399.494,324.334 399.986,324.334 C400.118,324.334 400.239,324.358 400.371,324.358 C400.899,324.346 401.428,324.322 401.956,324.298 C402.328,324.286 402.713,324.262 403.085,324.237 C403.482,324.225 403.866,324.213 404.262,324.213 C405.263,324.196 404.663,324.206 406.063,324.186 z" fill="#5731F2"/>
      <path d="M415.473,301.289 C415.633,301.311 415.57,301.281 415.672,301.357 C416.021,301.705 416.189,302.102 416.069,302.606 C416.045,302.726 416.033,302.858 416.009,302.978 C415.968,303.175 415.893,303.215 415.703,303.23 L415.696,303.243 C415.636,303.435 415.6,303.627 415.528,303.819 C415.456,304.023 415.204,304.84 415.168,305.056 C415.132,305.345 415.096,305.621 415.06,305.909 C415.048,306.029 415.036,306.149 415.024,306.281 C415.012,306.426 414.832,309.08 414.868,309.176 C414.868,309.176 414.964,309.368 415,309.176 C415.096,308.575 415.336,306.894 415.456,306.317 C415.612,305.741 415.925,305.044 416.189,304.528 C416.381,304.143 416.609,303.759 416.813,303.387 C416.825,303.363 416.825,303.339 416.837,303.327 C416.982,303.411 417.126,303.483 417.27,303.567 C417.078,303.963 416.897,304.372 416.681,304.756 C416.465,305.128 416.285,305.513 416.153,305.921 C416.107,306.06 416.057,306.197 416.015,306.337 C416.155,306.385 416.096,306.382 416.189,306.378 C416.38,306.312 416.261,306.355 416.544,306.243 C416.635,306.076 416.714,305.903 416.813,305.741 C417.198,305.176 417.186,305.044 417.45,304.756 C417.654,304.54 417.858,304.324 418.087,304.119 C418.285,303.947 418.501,303.795 418.71,303.637 C418.688,303.57 418.637,303.52 418.603,303.459 C418.471,303.051 418.639,302.822 418.855,302.534 C419.041,302.302 419.301,302.324 419.571,302.316 C419.921,302.406 419.785,302.342 419.996,302.462 C420.056,302.51 420.116,302.678 420.164,302.738 C420.176,302.942 420.044,303.135 420.008,303.243 C419.876,303.411 419.72,303.603 419.528,303.699 C419.381,303.786 419.204,303.78 419.04,303.783 C418.883,304.034 418.968,303.91 418.783,304.156 C418.387,304.576 417.342,306.125 417.342,306.197 L417.331,306.227 C417.488,306.431 417.404,306.329 417.582,306.534 C417.726,306.69 417.798,306.858 417.846,307.062 C417.918,307.362 418.014,307.663 418.099,307.975 L418.065,308.061 C418.092,308.001 418.076,308.037 418.111,307.951 C418.387,307.41 418.603,306.834 418.771,306.245 C418.896,305.738 418.838,305.989 418.945,305.493 L418.939,305.477 C418.927,305.224 418.975,304.972 419.132,304.756 C419.288,304.54 419.744,304.396 419.924,304.576 C419.972,304.624 420.02,304.708 420.008,304.756 C419.984,304.924 419.948,305.104 419.864,305.249 C419.804,305.369 419.66,305.441 419.552,305.525 C419.472,305.61 419.512,305.57 419.432,305.646 C419.41,306.104 419.248,306.538 419.095,306.966 C418.996,307.249 418.901,307.535 418.812,307.822 C418.798,307.868 418.739,308.036 418.735,308.115 C419.071,307.681 418.899,307.9 419.252,307.458 C419.432,307.242 419.612,307.014 419.804,306.81 C419.852,306.75 419.948,306.714 420.032,306.714 C420.345,306.702 420.633,306.75 420.885,306.954 C420.981,307.038 421.125,307.086 421.233,307.158 C421.426,307.278 421.498,307.458 421.51,307.675 C421.522,307.819 421.558,307.963 421.594,308.107 C421.594,308.227 421.594,308.359 421.594,308.479 C421.462,308.816 421.341,309.152 421.185,309.476 C421.053,309.753 420.873,310.005 420.717,310.257 C420.525,310.569 420.333,310.882 420.116,311.17 C419.96,311.386 419.78,311.59 419.588,311.782 C419.228,312.167 418.891,312.575 418.591,312.995 C418.555,313.043 418.519,313.079 418.471,313.116 C418.483,312.959 418.435,312.839 418.315,312.743 C418.099,312.596 418.227,312.676 417.924,312.516 C418.078,312.62 418.166,312.687 418.303,312.791 C418.423,312.875 418.471,313.007 418.459,313.164 C418.387,313.236 418.327,313.32 418.255,313.392 C418.123,313.548 418.002,313.692 417.786,313.74 C417.666,313.764 417.57,313.848 417.462,313.92 C417.227,314.086 416.95,314.156 416.671,314.196 C416.671,314.217 416.67,314.201 416.681,314.245 C416.885,314.557 416.982,314.905 417.018,315.265 C417.03,315.434 417.066,315.59 417.066,315.758 C417.066,315.998 417.042,316.25 417.042,316.491 C417.042,316.659 417.102,316.815 417.09,316.983 C417.066,317.319 417.018,317.656 416.982,317.98 C416.958,318.22 416.934,318.472 416.922,318.713 C416.91,318.893 416.897,319.061 416.885,319.289 C417.006,319.205 417.102,319.145 417.186,319.085 C417.582,318.773 417.966,318.448 418.375,318.136 C418.663,317.92 418.975,317.752 419.348,317.788 C419.576,317.812 419.78,317.872 419.948,318.04 C420.02,318.1 420.044,318.172 420.008,318.28 C419.936,318.46 419.852,318.58 419.684,318.701 C419.264,318.965 418.879,319.277 418.495,319.589 C418.063,319.926 417.702,320.358 417.222,320.634 C417.174,320.658 416.958,320.802 416.813,320.814 C416.717,321.103 416.621,321.391 416.549,321.679 C416.501,321.847 416.489,322.028 416.465,322.208 C416.429,322.568 416.417,322.94 416.369,323.301 C416.345,323.445 416.225,323.577 416.153,323.709 C416.081,323.841 415.997,323.865 415.853,323.829 C415.6,323.757 415.336,323.745 415.096,323.673 C414.94,323.625 414.796,323.541 414.651,323.469 C414.147,323.217 413.739,322.844 413.294,322.508 C413.138,322.388 413.018,322.208 412.886,322.052 C412.73,321.859 412.55,321.679 412.43,321.475 C412.261,321.175 412.129,320.862 411.997,320.538 C411.949,320.43 412.045,320.322 412.165,320.346 C412.478,320.406 412.778,320.49 413.018,320.694 C413.462,321.055 413.895,321.427 414.339,321.787 C414.531,321.943 414.724,322.088 414.928,322.232 C415.048,322.316 415.108,322.292 415.132,322.16 C415.18,321.883 415.204,321.607 415.252,321.331 C415.288,321.055 415.336,320.766 415.384,320.49 C415.42,320.238 415.456,319.986 415.48,319.733 C415.516,319.373 415.552,319.013 415.588,318.64 C415.588,318.592 415.588,318.544 415.588,318.496 C415.612,317.247 415.624,316.01 415.648,314.761 C415.648,314.653 415.732,314.557 415.78,314.461 L415.883,314.237 C415.481,314.286 415.137,314.088 414.844,313.836 C414.76,313.764 414.748,313.764 414.688,313.68 C414.496,313.499 414.579,313.596 414.437,313.393 C413.876,313.14 413.367,312.794 412.874,312.431 C412.61,312.227 412.405,311.951 412.177,311.698 C412.057,311.566 411.949,311.41 411.829,311.278 C411.553,310.99 411.433,310.617 411.252,310.281 C411.108,310.005 410.976,309.729 410.892,309.428 C410.808,309.176 410.796,308.9 410.76,308.636 C410.748,308.563 410.784,308.467 410.832,308.395 C410.952,308.203 411.12,308.071 411.361,308.011 C411.541,307.963 411.721,307.891 411.889,307.819 C412.284,307.678 412.044,307.745 412.622,307.668 L412.874,307.699 C413.162,307.759 413.45,307.831 413.739,307.903 C413.931,307.951 414.039,308.107 414.123,308.275 C414.171,308.371 414.231,308.479 414.279,308.575 L414.344,308.69 C414.345,308.482 414.349,308.573 414.339,308.419 C414.375,307.819 414.375,307.819 414.411,307.35 C414.411,307.338 414.447,306.834 414.471,306.582 C414.495,306.245 414.591,305.801 414.651,305.477 C414.736,305.008 414.844,304.648 414.952,304.18 C415.156,303.723 415.156,303.723 415.312,303.375 C415.348,303.279 415.372,303.195 415.408,303.099 C415.476,303.07 415.449,303.085 415.491,303.06 C415.453,303.067 415.482,303.061 415.408,303.087 C415.132,303.002 415.036,302.798 415.06,302.534 C415.084,302.246 415.096,301.97 415.156,301.693 C415.192,301.549 415.312,301.429 415.42,301.321 L415.473,301.289 z M415.937,306.798 C415.901,307.05 415.877,307.302 415.853,307.555 L415.937,306.798 z" fill="#5731F2"/>
      <path d="M407.001,296.445 C407.205,296.493 407.433,296.493 407.649,296.493 C408.166,296.649 408.49,297.045 408.826,297.43 C408.922,297.538 409.018,297.658 409.139,297.73 C409.367,297.874 409.451,298.102 409.523,298.342 C409.619,298.715 409.679,299.099 409.667,299.483 C409.667,299.591 409.691,299.688 409.691,299.796 C409.715,300.372 409.619,300.937 409.415,301.477 C409.331,301.693 409.343,301.717 409.547,301.801 C409.787,301.897 410.039,301.958 410.292,302.054 C410.448,302.114 410.592,302.21 410.76,302.27 C410.964,302.342 411.168,302.39 411.373,302.45 C411.601,302.522 411.793,302.642 411.937,302.846 C412.009,302.942 412.105,303.026 412.201,303.111 C412.417,303.303 412.55,303.543 412.634,303.807 C412.754,304.18 412.85,304.54 412.946,304.912 C412.982,305.044 412.97,305.188 412.946,305.309 C412.682,305.909 411.709,306.269 411.481,306.378 C411.252,306.558 410.988,306.678 410.7,306.726 C410.388,306.786 410.087,306.858 409.775,306.894 C409.391,306.93 409.03,306.81 408.67,306.702 C408.658,306.702 408.646,306.702 408.622,306.702 C408.19,306.474 407.745,306.233 407.301,305.993 C407.289,306.041 407.289,306.053 407.289,306.077 L407.29,306.086 C407.291,306.054 407.29,306.077 407.301,306.017 C407.745,306.257 408.19,306.486 408.622,306.726 C408.646,306.966 408.67,307.194 408.682,307.434 C408.694,307.795 408.694,308.155 408.718,308.515 C408.742,308.792 408.79,309.068 408.826,309.344 C408.85,309.524 408.85,309.716 408.862,309.897 C408.874,310.257 408.886,310.617 408.898,310.99 C408.898,311.014 408.898,311.026 408.91,311.086 C408.97,311.026 409.018,310.99 409.042,310.942 C409.331,310.365 409.835,310.101 410.436,309.981 C410.556,309.957 410.676,310.053 410.676,310.185 C410.676,310.461 410.676,310.725 410.556,310.978 C410.484,311.134 410.484,311.314 410.424,311.482 C410.171,312.155 409.703,312.587 408.994,312.743 C408.886,312.767 408.754,312.983 408.766,313.104 C408.814,313.452 408.85,313.8 408.886,314.148 C408.91,314.365 408.946,314.581 408.97,314.797 C408.97,314.833 408.994,314.857 409.066,314.941 C409.115,314.857 409.175,314.773 409.223,314.701 C409.559,314.233 410.039,313.956 410.544,313.728 C410.616,313.704 410.7,313.704 410.772,313.704 C410.868,313.704 410.904,313.788 410.904,313.872 C410.904,313.992 410.916,314.1 410.904,314.221 C410.892,314.293 410.844,314.365 410.796,314.413 C410.352,314.917 409.787,315.265 409.175,315.53 C409.054,315.578 409.018,315.65 409.018,315.77 C409.042,316.382 409.054,317.007 409.078,317.62 C409.091,317.836 409.115,318.04 409.139,318.304 C409.307,318.172 409.451,318.064 409.583,317.956 C409.931,317.656 410.268,317.343 410.64,317.055 C410.796,316.935 410.988,316.791 411.216,316.803 C411.325,316.803 411.433,316.815 411.541,316.839 C411.697,316.863 411.805,317.055 411.829,317.247 C411.865,317.62 411.721,317.908 411.409,318.124 C411.216,318.256 411.048,318.424 410.844,318.52 C410.388,318.725 409.907,318.917 409.379,318.845 C409.319,318.833 409.271,318.833 409.187,318.809 C409.199,319.049 409.211,319.277 409.235,319.517 C409.259,319.794 409.307,320.058 409.343,320.334 C409.391,320.658 409.427,320.983 409.475,321.307 C409.547,321.763 409.643,322.22 409.679,322.676 C409.691,322.844 409.619,323.072 409.511,323.193 C409.379,323.337 409.163,323.409 408.97,323.481 C408.862,323.517 408.73,323.493 408.646,323.385 C408.562,323.265 408.466,323.133 408.418,323 C408.322,322.7 408.262,322.376 408.178,322.076 C408.07,321.691 407.925,321.319 407.817,320.935 C407.745,320.658 407.697,320.382 407.637,320.106 C407.565,319.757 407.493,319.409 407.421,319.073 C407.349,318.725 407.265,318.364 407.181,318.016 C407.181,317.992 407.157,317.86 407.133,317.596 C407.133,317.596 407.073,317.211 407.025,316.875 C407.001,316.731 406.917,316.671 406.82,316.599 C406.736,316.539 406.628,316.527 406.532,316.503 C406.424,316.479 405.74,316.178 405.643,316.106 C405.487,315.986 405.307,315.89 405.127,315.806 C404.659,315.602 404.238,315.338 403.974,314.881 C403.866,314.689 403.818,314.473 403.854,314.233 C403.89,313.992 403.974,313.764 404.082,313.56 C404.142,313.44 404.274,313.392 404.382,313.428 C404.731,313.524 405.067,313.644 405.415,313.764 C405.523,313.8 405.607,313.908 405.703,313.992 C405.908,314.184 406.088,314.377 406.292,314.569 C406.448,314.713 406.616,314.845 406.7,315.049 C406.712,315.097 406.76,315.133 406.82,315.193 C406.832,315.109 406.845,315.073 406.845,315.025 C406.845,314.425 406.845,313.812 406.845,313.212 C406.845,313.079 406.796,312.995 406.652,312.971 C406.292,312.911 405.932,312.863 405.559,312.803 C405.391,312.779 405.235,312.731 405.067,312.719 C404.755,312.683 404.454,312.587 404.166,312.455 C403.806,312.287 403.662,311.987 403.602,311.626 C403.578,311.458 403.542,311.29 403.53,311.122 C403.53,311.074 403.578,311.002 403.614,310.99 C404.562,310.737 405.439,310.894 406.232,311.47 C406.424,311.614 406.592,311.782 406.688,312.011 C406.7,312.059 406.736,312.095 406.796,312.179 C406.82,312.083 406.832,312.035 406.832,311.975 C406.832,310.978 406.832,309.981 406.832,308.996 C406.869,308.684 406.832,308.407 406.808,308.131 C406.832,308.095 406.845,308.059 406.869,308.035 C407.086,307.761 407.265,307.447 407.295,307.091 C407.249,307.434 407.063,307.734 406.869,308.011 C406.845,308.035 406.832,308.071 406.808,308.107 C406.592,308.335 406.376,308.563 406.16,308.792 C405.8,309.176 405.343,309.404 404.863,309.596 C404.671,309.68 404.478,309.801 404.274,309.837 C403.818,309.909 403.361,310.029 402.893,309.969 C402.316,309.909 401.776,309.753 401.356,309.308 C400.935,308.876 400.731,308.371 400.791,307.759 C400.827,307.386 400.959,307.026 401.235,306.762 C401.668,306.341 402.1,305.921 402.545,305.513 C402.941,305.152 403.361,304.804 403.77,304.456 C403.806,304.42 403.854,304.384 403.878,304.348 C403.914,304.288 403.914,304.216 403.83,304.204 C403.469,304.143 403.109,304.083 402.749,304.023 C402.352,303.963 401.956,303.903 401.572,303.855 C401.067,303.879 400.347,303.735 399.914,303.075 C399.902,302.762 399.902,302.762 399.986,302.642 C400.263,302.27 400.527,301.897 400.839,301.549 C401.139,301.225 401.476,300.937 401.86,300.72 C402.112,300.576 402.389,300.576 402.665,300.528 C402.797,300.504 402.929,300.492 403.061,300.504 C403.181,300.504 403.289,300.528 403.409,300.564 C403.89,300.672 404.382,300.793 404.863,300.913 C404.935,300.937 405.019,300.973 405.091,300.997 C405.235,301.057 405.319,300.997 405.295,300.841 C405.199,300.216 405.103,299.603 405.019,298.979 C404.983,298.715 404.959,298.45 404.995,298.198 C405.031,298.006 405.163,297.826 405.283,297.67 C405.583,297.261 406.004,296.985 406.436,296.757 C406.628,296.661 406.808,296.553 407.001,296.445 z M407.295,306.141 C407.297,306.168 407.295,306.155 407.3,306.181 L407.295,306.141 z" fill="#5731F2"/>
      <path d="M366.086,312.799 L366.993,312.803 C367.005,312.839 369.383,312.875 370.56,312.899 C370.908,312.899 371.209,313.007 371.509,313.116 C371.545,313.128 371.593,313.176 371.605,313.212 C371.761,313.956 371.665,316.142 371.665,316.178 C371.665,316.671 371.689,317.163 371.665,317.644 C371.617,319.037 371.557,320.43 371.485,321.823 C371.473,322.112 371.425,322.4 371.389,322.676 C371.365,322.892 371.233,323.024 371.016,323.06 C370.644,323.133 370.26,323.193 369.875,323.229 C369.383,323.277 368.891,323.289 368.398,323.313 C368.242,323.325 368.242,323.313 368.254,323.145 C368.278,322.808 368.266,322.484 368.29,322.148 C368.338,321.571 368.41,320.995 368.458,320.418 C368.494,319.986 368.494,319.541 368.494,319.109 C368.494,318.604 368.482,318.112 368.47,317.608 C368.458,317.295 368.35,317.175 368.038,317.151 C367.389,317.091 366.753,317.031 366.104,316.971 C366.032,316.959 365.96,316.947 365.888,316.935 C365.684,316.887 365.552,316.971 365.528,317.175 C365.455,318.016 365.383,318.857 365.323,319.697 C365.251,320.742 365.179,321.775 365.107,322.82 C365.095,322.928 365.095,323.036 365.071,323.145 C365.035,323.337 364.987,323.373 364.795,323.385 C364.254,323.409 363.726,323.325 363.197,323.193 C363.041,323.157 362.885,323.12 362.741,323.072 C362.525,323.012 362.477,322.964 362.477,322.748 C362.489,321.979 362.465,321.199 362.513,320.43 C362.561,319.673 362.441,318.929 362.453,318.172 C362.465,317.319 362.465,316.467 362.501,315.614 C362.525,314.797 362.573,313.968 362.609,313.152 C362.621,312.935 362.645,312.899 362.861,312.887 C363.63,312.851 364.411,312.815 365.179,312.803 L366.086,312.799 z" fill="#5731F2"/>
      <path d="M380.084,300.491 C380.29,300.582 380.204,300.529 380.349,300.636 C381.334,301.429 382.246,302.294 383.087,303.231 C384.565,304.876 386.018,306.534 387.435,308.239 C387.699,308.551 387.964,308.876 388.228,309.2 C388.336,309.332 388.336,309.38 388.216,309.488 C388.048,309.632 387.867,309.765 387.699,309.909 C387.663,309.945 387.615,310.005 387.615,310.053 C387.531,311.05 387.447,312.047 387.387,313.055 C387.339,313.908 387.315,314.749 387.267,315.602 C387.255,315.734 387.231,315.854 387.219,315.986 C387.159,316.563 387.099,317.151 387.051,317.728 C386.967,318.592 386.907,319.469 386.811,320.334 C386.738,320.983 386.618,321.619 386.522,322.268 C386.51,322.388 386.45,322.448 386.318,322.448 C386.066,322.472 384.024,322.472 383.724,322.508 C383.628,322.52 381.394,322.616 381.141,322.652 C380.961,322.676 380.349,322.676 380.229,322.688 C379.94,322.712 379.652,322.748 379.376,322.796 C379.208,322.82 378.271,322.988 378.055,323 C377.802,323.012 377.562,323.072 377.31,323.084 C377.034,323.096 375.556,323.048 375.1,323.072 C374.836,323.084 374.788,323.06 374.764,322.796 C374.704,322.232 374.656,321.667 374.584,321.115 C374.512,320.61 374.439,320.094 374.319,319.601 C374.211,319.157 374.187,318.713 374.223,318.268 C374.283,317.56 374.331,316.839 374.391,316.13 C374.403,315.926 374.439,315.734 374.439,315.53 C374.439,315.229 374.415,314.941 374.427,314.641 C374.439,313.956 374.452,313.272 374.464,312.587 C374.464,312.467 374.464,312.347 374.476,312.227 C374.488,312.083 374.415,311.999 374.295,311.975 C373.827,311.89 373.419,311.662 372.998,311.47 C372.818,311.386 372.65,311.314 372.482,311.218 C372.374,311.158 372.278,311.074 372.205,310.978 C372.121,310.882 372.109,310.773 372.181,310.653 C372.53,310.101 372.878,309.548 373.214,308.996 C373.911,307.867 374.8,306.894 375.556,305.825 C376.013,305.188 376.577,304.648 376.974,303.975 C377.118,303.735 377.31,303.519 377.49,303.303 C377.646,303.111 377.815,302.942 377.971,302.75 C377.983,302.738 377.983,302.726 377.995,302.726 C378.235,302.666 378.283,302.426 378.415,302.258 C378.571,302.054 378.763,301.861 378.919,301.657 C379.064,301.477 379.196,301.297 379.34,301.117 C379.448,300.973 379.568,300.829 379.688,300.696 C379.847,300.521 379.859,300.51 380.084,300.491 z M383.991,312.177 C383.947,312.177 383.908,312.199 383.868,312.215 C383.832,312.239 383.808,312.287 383.796,312.323 C383.784,312.503 383.772,312.695 383.784,312.875 C383.784,313.079 383.808,313.296 383.82,313.5 C383.832,314.004 383.7,314.497 383.784,315.001 C383.784,315.025 383.784,315.061 383.784,315.085 C383.76,315.35 383.748,315.614 383.724,315.878 C383.712,316.178 383.724,316.479 383.688,316.779 C383.64,317.235 383.556,317.692 383.496,318.148 C383.472,318.316 383.472,318.484 383.46,318.652 C382.727,318.809 381.994,318.893 381.25,318.881 C380.853,318.881 380.457,318.893 380.061,318.893 C379.892,318.893 379.736,318.881 379.568,318.869 C379.532,318.869 379.496,318.857 379.472,318.869 C378.944,318.953 378.415,318.833 377.899,318.857 C377.899,318.857 377.887,318.857 377.887,318.857 C377.766,318.833 377.682,318.773 377.682,318.64 C377.67,318.448 377.658,318.244 377.634,318.052 C377.622,317.92 377.646,317.848 377.79,317.848 C377.911,317.836 377.959,317.776 377.935,317.656 C377.923,317.608 377.923,317.56 377.911,317.511 C377.827,317.223 377.815,316.923 377.802,316.623 C377.79,316.298 377.73,315.962 377.67,315.638 C377.586,315.109 377.526,314.569 377.346,314.052 C377.238,313.752 377.19,313.452 377.214,313.128 C377.238,312.863 377.19,312.767 376.95,312.659 C376.842,312.611 376.734,312.671 376.734,312.791 C376.734,312.839 376.746,312.887 376.746,312.935 C376.758,313.176 376.758,313.416 376.77,313.656 C376.77,313.752 376.746,313.86 376.782,313.956 C376.866,314.209 376.77,314.461 376.746,314.701 C376.722,314.965 376.613,315.229 376.565,315.494 C376.457,316.106 376.361,316.707 376.241,317.319 C376.145,317.824 376.121,318.316 376.169,318.821 C376.181,319.001 376.121,319.181 376.097,319.361 C376.085,319.421 376.061,319.469 376.061,319.529 C376.073,319.806 376.085,320.07 376.109,320.346 C376.133,320.562 376.145,320.562 376.373,320.538 C376.854,320.478 377.334,320.43 377.815,320.358 C378.895,320.202 379.976,320.178 381.057,320.166 C381.898,320.166 382.751,320.202 383.592,320.214 C383.964,320.226 384.336,320.214 384.697,320.214 C384.709,320.238 384.757,320.238 384.829,320.238 C384.829,320.154 384.829,320.094 384.817,320.034 C384.637,319.325 384.577,318.592 384.468,317.86 C384.348,317.031 384.204,316.214 384.084,315.386 C384.06,315.253 384.096,315.121 384.108,314.989 C384.108,314.941 384.132,314.893 384.132,314.845 C384.204,314.052 384.264,313.26 384.324,312.467 C384.324,312.395 384.312,312.287 384.264,312.239 C384.198,312.19 384.241,312.216 384.124,312.178 C384.038,312.179 384.082,312.179 383.991,312.177 z M382.931,315.794 C382.775,315.83 382.739,315.938 382.727,316.058 C382.715,316.178 382.667,316.226 382.559,316.226 C382.078,316.238 381.61,316.238 381.129,316.25 C381.033,316.25 380.937,316.262 380.829,316.262 C380.817,316.731 380.805,317.199 380.793,317.656 C380.793,317.764 380.853,317.824 380.961,317.836 C381.105,317.86 381.25,317.884 381.406,317.896 C381.886,317.932 382.367,317.956 382.859,317.98 C383.147,317.992 383.183,317.944 383.159,317.656 C383.099,317.091 383.051,316.515 382.991,315.95 C382.967,315.902 382.943,315.854 382.931,315.794 z M378.799,316.178 C378.799,316.19 378.799,316.202 378.799,316.202 C378.703,316.202 378.595,316.19 378.499,316.202 C378.379,316.214 378.295,316.25 378.307,316.406 C378.331,316.791 378.343,317.187 378.367,317.572 C378.379,317.764 378.403,317.776 378.607,317.764 C379.064,317.752 379.532,317.74 379.988,317.764 C380.265,317.776 380.301,317.776 380.277,317.499 C380.241,317.139 380.181,316.791 380.121,316.431 C380.097,316.298 380.024,316.262 379.88,316.262 C379.7,316.262 379.508,316.262 379.328,316.25 C379.148,316.238 378.968,316.202 378.799,316.178 z M382.1,312.481 C382.058,312.481 382.02,312.501 381.982,312.515 C381.886,312.563 381.79,312.599 381.694,312.635 C381.466,312.695 381.25,312.731 381.021,312.791 C380.829,312.839 380.745,312.923 380.745,313.092 C380.745,313.464 380.757,313.824 380.769,314.197 C380.769,314.341 380.865,314.413 381.009,314.389 C381.093,314.377 381.178,314.353 381.262,314.365 C381.706,314.365 382.114,314.389 382.571,314.413 C382.667,314.425 382.727,314.365 382.691,314.245 C382.595,313.812 382.487,313.38 382.391,312.947 C382.379,312.899 382.355,312.851 382.367,312.815 C382.427,312.695 382.379,312.599 382.295,312.527 L382.225,312.483 C382.144,312.483 382.186,312.483 382.1,312.481 z M378.295,312.947 C378.187,312.947 378.127,312.995 378.127,313.116 C378.139,313.236 378.127,313.368 378.127,313.5 C378.115,313.5 378.103,313.5 378.091,313.5 C378.115,313.728 378.127,313.944 378.151,314.172 C378.163,314.269 378.199,314.365 378.343,314.329 C378.739,314.221 379.136,314.148 379.556,314.221 C379.676,314.245 379.736,314.185 379.748,314.052 C379.772,313.74 379.832,313.428 379.748,313.116 C379.712,312.983 379.676,312.947 379.556,312.959 C379.184,312.959 378.811,312.959 378.439,312.959 L378.295,312.947 z M380.053,308.213 L380.012,308.263 C379.892,308.503 379.7,308.72 379.58,308.948 C379.436,309.2 378.835,309.969 378.739,310.161 C378.739,310.173 378.727,310.173 378.727,310.185 C378.403,310.617 378.067,311.05 377.742,311.482 C377.694,311.542 377.67,311.602 377.61,311.698 C377.778,311.686 377.899,311.674 378.019,311.662 C378.343,311.626 378.679,311.566 379.004,311.566 C379.328,311.566 379.64,311.626 379.964,311.638 C380.925,311.698 381.886,311.746 382.859,311.806 C382.991,311.818 383.075,311.77 383.075,311.638 C383.087,311.47 383.099,311.29 383.087,311.122 C383.087,311.086 382.991,311.014 382.943,311.014 C382.763,311.014 382.427,310.569 382.343,310.473 C382.246,310.377 382.138,310.293 382.054,310.197 C381.742,309.861 381.442,309.512 381.117,309.176 C380.817,308.864 380.505,308.563 380.205,308.263 C380.126,308.198 380.174,308.221 380.053,308.213 z" fill="#5731F2"/>
      <path d="M395.771,307.302 C396.035,307.302 397.308,307.35 397.68,307.362 C398.113,307.374 398.533,307.386 398.965,307.422 C399.254,307.446 399.554,307.507 399.842,307.567 C400.01,307.603 400.13,307.675 400.155,307.879 C400.179,308.155 400.251,308.419 400.203,308.696 C400.155,309.02 399.914,309.224 399.638,309.284 C399.47,309.32 399.302,309.32 399.11,309.356 C399.194,309.38 399.278,309.404 399.362,309.428 C399.566,309.464 399.782,309.5 399.986,309.548 C399.998,309.548 400.01,309.548 400.01,309.548 C400.251,309.608 400.347,309.753 400.383,309.921 C400.383,310.125 400.371,310.329 400.371,310.533 C400.371,310.785 400.395,311.038 400.395,311.29 C400.395,311.518 400.395,311.746 400.395,311.975 C400.407,312.587 400.407,313.188 400.431,313.8 C400.443,314.088 400.491,314.941 400.491,315.085 C400.491,315.229 400.491,315.362 400.491,315.506 C400.479,315.842 400.611,317.872 400.611,318.424 C400.599,319.253 400.611,320.082 400.611,320.911 C400.611,321.043 400.599,321.175 400.575,321.307 C400.539,321.523 400.335,321.679 400.094,321.679 C399.698,321.691 399.29,321.703 398.893,321.703 C398.593,321.715 398.281,321.727 397.981,321.727 C397.656,321.739 397.32,321.739 396.996,321.751 C396.563,321.763 396.131,321.787 395.699,321.811 C395.59,321.811 395.542,321.775 395.542,321.667 C395.542,321.667 395.542,321.655 395.542,321.655 C395.53,320.874 395.518,320.082 395.518,319.301 C395.518,319.049 395.518,318.785 395.518,318.532 C395.506,318.112 395.494,317.68 395.494,317.259 C395.494,317.007 395.482,316.214 395.458,316.058 C394.377,316.022 393.32,315.962 392.239,316.118 C392.227,316.214 392.203,316.322 392.203,316.431 C392.203,316.887 392.191,317.355 392.203,317.812 C392.215,318.292 392.239,318.773 392.251,319.253 C392.251,319.409 392.227,319.577 392.227,319.733 C392.239,320.31 392.275,321.091 392.287,321.655 C392.239,322.076 392.023,321.991 391.519,322.027 C391.05,321.955 390.594,321.835 390.114,321.859 C390.065,321.859 390.029,321.859 389.981,321.859 C389.753,321.835 389.705,321.775 389.681,321.535 C389.657,321.115 389.609,320.682 389.573,320.262 L389.573,318.544 C389.573,318.184 389.585,317.824 389.609,317.463 C389.621,317.223 389.657,315.301 389.597,314.977 C389.585,314.893 389.609,313.452 389.597,313.272 L389.597,310.425 C389.597,310.221 389.537,310.149 389.333,310.137 C389.237,310.125 389.201,310.101 389.189,309.993 C389.129,309.632 389.153,309.608 389.501,309.584 C389.861,309.56 390.222,309.512 390.594,309.476 C390.786,309.452 390.99,309.44 391.182,309.416 C391.219,309.416 391.267,309.392 391.303,309.38 C391.303,309.368 391.303,309.344 391.291,309.332 C391.17,309.332 391.038,309.332 390.918,309.332 C390.558,309.32 389.525,309.14 389.321,309.08 C388.96,308.984 388.756,308.696 388.768,308.359 C388.78,308.215 388.768,308.059 388.768,307.915 C388.768,307.891 388.768,307.855 388.768,307.831 C388.768,307.519 388.816,307.458 389.117,307.434 C389.297,307.422 389.465,307.41 389.645,307.41 C390.354,307.398 391.05,307.386 391.759,307.374 C392.167,307.362 392.576,307.362 392.984,307.35 C393.224,307.338 393.465,307.326 393.717,307.326 C394.017,307.326 395.386,307.302 395.771,307.302 z M390.602,310.184 L390.354,310.185 C390.318,310.185 390.306,310.413 390.306,310.449 C390.342,310.942 390.378,311.951 390.378,311.951 C390.378,312.167 390.366,312.371 390.378,312.587 C390.402,312.875 390.474,313.043 390.798,313.019 C390.942,313.007 391.086,312.995 391.243,312.995 C391.567,312.983 391.591,312.971 391.579,312.647 C391.579,312.587 391.579,312.527 391.579,312.455 C391.579,312.275 391.591,312.095 391.603,311.926 C391.615,311.794 391.639,311.662 391.639,311.53 C391.627,311.194 391.603,310.845 391.591,310.509 C391.579,310.329 391.531,310.221 391.351,310.209 C390.94,310.177 391.19,310.191 390.602,310.184 z M398.941,310.019 C398.682,310.027 398.794,310.023 398.605,310.029 C398.509,310.029 398.425,310.041 398.329,310.041 C398.209,310.029 398.089,310.089 398.065,310.209 C398.041,310.353 398.005,310.497 398.017,310.641 C398.029,311.05 398.065,311.47 398.101,311.878 C398.125,312.155 398.173,312.431 398.221,312.707 C398.221,312.731 398.269,312.767 398.293,312.779 C398.569,312.827 398.845,312.875 399.11,312.923 C399.266,312.959 399.314,312.923 399.314,312.755 C399.302,312.419 399.278,312.071 399.338,311.734 C399.362,311.59 399.374,311.446 399.362,311.314 C399.362,311.146 399.338,310.797 399.338,310.797 C399.338,310.677 399.338,310.569 399.338,310.449 C399.338,310.221 399.23,310.053 399.05,310.029 L398.941,310.019 z M392.579,310.143 L392.408,310.173 C392.36,310.185 392.311,310.257 392.311,310.293 C392.311,310.449 392.324,310.593 392.336,310.749 C392.348,310.918 392.372,311.086 392.396,311.254 C392.408,311.362 392.432,311.47 392.456,311.578 C392.504,311.842 392.576,312.347 392.564,312.347 C392.564,312.467 392.552,312.587 392.564,312.707 C392.576,312.755 392.636,312.827 392.684,312.827 C392.792,312.839 392.912,312.839 393.032,312.827 C393.26,312.803 393.284,312.767 393.284,312.527 C393.284,312.371 393.26,312.203 393.284,312.047 C393.332,311.77 393.32,311.494 393.284,311.218 C393.248,310.966 393.188,310.713 393.248,310.461 C393.284,310.329 393.224,310.257 393.092,310.209 C392.81,310.136 392.98,310.168 392.579,310.143 z M394.594,310.065 C394.401,310.065 394.197,310.125 394.005,310.161 C393.969,310.173 393.921,310.233 393.921,310.269 C393.921,310.485 393.933,310.701 393.957,310.906 C393.993,311.218 394.053,311.53 394.089,311.842 C394.125,312.095 394.149,312.335 394.185,312.587 C394.185,312.623 394.245,312.671 394.281,312.671 C394.509,312.683 394.726,312.695 394.954,312.707 C395.038,312.707 395.11,312.719 395.194,312.731 C395.362,312.755 395.458,312.707 395.482,312.527 C395.506,312.335 395.53,312.143 395.542,311.951 C395.542,311.482 395.53,311.002 395.53,310.509 C395.518,310.509 395.506,310.377 395.506,310.305 C395.518,310.209 395.47,310.137 395.374,310.125 C395.11,310.101 394.858,310.065 394.594,310.065 z M396.244,310.027 C396.097,310.052 395.918,310.105 395.879,310.269 C395.879,310.557 395.891,310.845 395.903,311.146 C395.939,311.602 395.987,312.047 396.011,312.503 C396.023,312.695 396.035,312.719 396.227,312.707 C396.455,312.719 396.683,312.695 396.936,312.683 C396.972,312.479 397.008,312.263 397.032,312.047 C397.044,311.89 397.044,311.722 397.032,311.566 C397.02,311.146 396.996,310.725 396.972,310.305 C396.96,310.149 396.912,310.101 396.755,310.089 C396.599,310.077 396.455,310.053 396.311,310.029 L396.244,310.027 z" fill="#5731F2"/>
      <path d="M404.131,316.67 L404.214,316.671 C404.43,316.695 404.647,316.731 404.863,316.719 C405.091,316.719 405.307,316.779 405.487,316.899 C405.607,316.983 405.715,317.103 405.812,317.211 C405.98,317.391 406.124,317.584 406.292,317.764 C406.34,317.824 406.917,318.424 406.977,318.472 C407.133,318.592 407.253,318.737 407.313,318.929 C407.373,319.133 407.313,319.205 407.109,319.229 C406.869,319.253 406.616,319.301 406.304,319.349 C406.136,319.301 405.896,319.253 405.679,319.169 C405.331,319.037 404.995,318.881 404.659,318.713 C404.37,318.568 404.13,318.352 403.95,318.076 C403.89,317.98 403.854,317.872 403.854,317.752 C403.83,317.427 403.854,317.115 403.962,316.815 C404.027,316.693 403.978,316.749 404.131,316.67 z" fill="#5731F2"/>
      <path d="M367.814,303.788 L367.954,303.819 C368.074,303.867 368.338,304.071 368.374,304.119 C368.782,304.684 368.975,305.128 369.239,305.693 C369.659,306.474 370.104,307.23 370.5,308.011 C370.728,308.455 370.908,308.936 371.089,309.404 C371.293,309.933 371.473,310.473 371.665,311.014 C371.773,311.302 371.821,311.602 371.773,311.914 C371.737,312.107 371.665,312.191 371.461,312.203 C371.245,312.215 371.028,312.227 370.812,312.227 C370.332,312.239 369.863,312.263 369.383,312.251 C368.65,312.227 367.906,312.191 367.173,312.155 C366.681,312.131 366.212,312.119 365.636,312.095 C365.095,312.119 364.459,312.155 363.81,312.191 C363.654,312.203 363.486,312.155 363.33,312.155 C363.065,312.143 362.801,312.143 362.549,312.143 C362.369,312.143 362.309,312.071 362.345,311.89 C362.357,311.83 362.381,311.782 362.405,311.734 C362.933,310.713 363.474,309.692 364.002,308.672 C364.29,308.119 364.543,307.555 364.855,307.026 C365.119,306.57 366.933,304.516 367.449,303.951 C367.628,303.798 367.514,303.867 367.814,303.788 z" fill="#5731F2"/>
      <path d="M417.007,301.579 L417.066,301.609 C417.222,301.729 417.39,301.849 417.546,301.982 C417.594,302.03 417.63,302.09 417.666,302.15 C417.726,302.246 417.786,302.342 417.834,302.438 C417.906,302.546 417.93,302.666 417.882,302.798 C417.798,303.027 417.678,303.231 417.51,303.387 C417.45,303.471 417.354,303.507 417.282,303.555 C417.138,303.471 416.994,303.399 416.849,303.315 C416.801,303.075 416.753,302.822 416.693,302.582 C416.621,302.246 416.681,301.934 416.873,301.645 C416.933,301.576 416.893,301.605 417.007,301.579 z" fill="#5731F2"/>
    </g>
    <g>
      <path d="M886.894,18.925 L886.894,37.917 L905.886,37.917 L905.886,18.925 L905.887,18.925 L905.887,18.925 L924.879,18.925 L924.879,37.917 L943.87,37.917 L943.87,18.925 L943.871,18.925 L943.871,18.925 L962.863,18.925 L962.863,37.917 L981.855,37.917 L981.855,18.925 L1000.848,18.925 L1000.848,37.917 L1019.84,37.917 L1019.84,18.925 L1038.832,18.925 L1038.832,37.917 L1057.824,37.917 L1057.824,18.925 L1076.816,18.925 L1076.816,37.917 L1095.808,37.917 L1095.808,18.925 L1114.801,18.925 L1114.801,37.917 L1133.793,37.917 L1133.793,18.925 L1152.785,18.925 L1152.785,37.917 L1171.777,37.917 L1171.777,18.925 L1190.769,18.925 L1190.769,37.917 L1209.762,37.917 L1209.762,18.925 L1228.754,18.925 L1228.754,37.917 L1247.746,37.917 L1247.746,18.925 L1266.738,18.925 L1266.738,37.917 L1285.73,37.917 L1285.73,18.925 L1304.723,18.925 L1304.723,37.917 L1323.715,37.917 L1323.715,18.925 L1342.707,18.925 L1342.707,37.917 L1361.699,37.917 L1361.699,18.925 L1380.691,18.925 L1380.691,37.917 L1399.683,37.917 L1399.683,18.925 L1418.676,18.925 L1418.676,37.917 L1437.667,37.917 L1437.667,18.925 L1456.66,18.925 L1456.66,37.917 L1475.652,37.917 L1475.652,18.925 L1494.644,18.925 L1494.644,18.925 L1513.636,18.925 L1513.636,37.917 L1513.636,37.917 L1513.636,56.91 L1494.644,56.91 L1494.644,75.902 L1513.636,75.902 L1513.636,94.894 L1494.644,94.894 L1494.644,113.886 L1513.636,113.886 L1513.636,132.878 L1494.644,132.878 L1494.644,151.87 L1513.636,151.87 L1513.636,170.862 L1494.644,170.862 L1494.644,189.854 L1513.636,189.854 L1513.636,208.847 L1494.644,208.847 L1494.644,227.839 L1513.636,227.839 L1513.636,246.831 L1494.644,246.831 L1494.644,265.823 L1513.636,265.823 L1513.636,284.815 L1494.644,284.815 L1494.644,303.807 L1513.636,303.807 L1513.636,322.799 L1494.644,322.799 L1494.644,341.791 L1513.636,341.791 L1513.636,360.784 L1494.644,360.784 L1494.644,379.776 L1513.636,379.776 L1513.636,398.768 L1494.644,398.768 L1494.644,417.76 L1513.636,417.76 L1513.636,436.752 L1494.644,436.752 L1494.644,455.744 L1513.636,455.744 L1513.636,474.736 L1494.644,474.736 L1494.644,493.728 L1513.636,493.728 L1513.636,512.721 L1494.644,512.721 L1494.644,531.713 L1513.636,531.713 L1513.636,550.705 L1494.644,550.705 L1494.644,569.697 L1513.636,569.697 L1513.636,588.689 L1513.636,588.689 L1513.636,607.681 L1475.652,607.681 L1475.652,588.689 L1456.66,588.689 L1456.66,607.681 L1437.667,607.681 L1437.667,588.689 L1418.676,588.689 L1418.676,607.681 L1399.683,607.681 L1399.683,588.689 L1380.691,588.689 L1380.691,607.681 L1361.699,607.681 L1361.699,588.689 L1342.707,588.689 L1342.707,607.681 L1323.715,607.681 L1323.715,588.689 L1304.723,588.689 L1304.723,607.681 L1285.73,607.681 L1285.73,588.689 L1266.738,588.689 L1266.738,607.681 L1247.746,607.681 L1247.746,588.689 L1228.754,588.689 L1228.754,607.681 L1209.762,607.681 L1209.762,588.689 L1190.769,588.689 L1190.769,607.681 L1171.777,607.681 L1171.777,588.689 L1152.785,588.689 L1152.785,607.681 L1133.793,607.681 L1133.793,588.689 L1114.801,588.689 L1114.801,607.681 L1095.808,607.681 L1095.808,588.689 L1076.816,588.689 L1076.816,607.681 L1057.824,607.681 L1057.824,588.689 L1038.832,588.689 L1038.832,607.681 L1019.84,607.681 L1019.84,588.689 L1000.848,588.689 L1000.848,607.681 L981.855,607.681 L981.855,588.689 L972.5,588.689 L972.5,588.689 L962.863,588.689 L962.863,607.681 L962.862,607.681 L962.862,607.681 L943.87,607.681 L943.87,588.689 L924.879,588.689 L924.879,607.681 L924.878,607.681 L924.878,607.681 L905.886,607.681 L905.886,588.689 L886.894,588.689 L886.894,607.681 L886.894,607.681 L886.894,607.681 L867.902,607.681 L867.902,588.689 L848.909,588.689 L848.909,607.681 L829.917,607.681 L829.917,588.689 L810.925,588.689 L810.925,607.681 L772.941,607.681 L772.941,569.697 L791.933,569.697 L791.933,550.705 L772.941,550.705 L772.941,531.713 L791.933,531.713 L791.933,512.721 L772.941,512.721 L772.941,493.728 L791.933,493.728 L791.933,474.736 L772.941,474.736 L772.941,455.744 L791.933,455.744 L791.933,436.752 L772.941,436.752 L772.941,417.76 L791.933,417.76 L791.933,398.768 L772.941,398.768 L772.941,379.776 L791.933,379.776 L791.933,360.784 L772.941,360.784 L772.941,341.792 L791.933,341.792 L791.933,322.799 L772.941,322.799 L772.941,303.807 L791.933,303.807 L791.933,284.815 L772.941,284.815 L772.941,265.823 L791.933,265.823 L791.933,246.831 L772.941,246.831 L772.941,227.839 L791.933,227.839 L791.933,208.847 L772.941,208.847 L772.941,189.855 L791.933,189.855 L791.933,170.862 L772.941,170.862 L772.941,151.87 L791.933,151.87 L791.933,132.878 L772.941,132.878 L772.941,113.886 L791.933,113.886 L791.933,94.894 L772.941,94.894 L772.941,75.902 L791.933,75.902 L791.933,56.91 L772.941,56.91 L772.941,18.925 L791.933,18.925 L791.933,18.925 L810.925,18.925 L810.925,37.918 L829.917,37.918 L829.917,18.925 L848.909,18.925 L848.909,37.918 L867.618,37.918 L867.618,37.917 L867.902,37.917 L867.902,18.925 L867.902,18.925 L867.902,18.925 L886.894,18.925 z" fill="#FFFFFF"/>
      <path d="M886.894,18.925 L886.894,37.917 L905.886,37.917 L905.886,18.925 L905.887,18.925 L905.887,18.925 L924.879,18.925 L924.879,37.917 L943.87,37.917 L943.87,18.925 L943.871,18.925 L943.871,18.925 L962.863,18.925 L962.863,37.917 L981.855,37.917 L981.855,18.925 L1000.848,18.925 L1000.848,37.917 L1019.84,37.917 L1019.84,18.925 L1038.832,18.925 L1038.832,37.917 L1057.824,37.917 L1057.824,18.925 L1076.816,18.925 L1076.816,37.917 L1095.808,37.917 L1095.808,18.925 L1114.801,18.925 L1114.801,37.917 L1133.793,37.917 L1133.793,18.925 L1152.785,18.925 L1152.785,37.917 L1171.777,37.917 L1171.777,18.925 L1190.769,18.925 L1190.769,37.917 L1209.762,37.917 L1209.762,18.925 L1228.754,18.925 L1228.754,37.917 L1247.746,37.917 L1247.746,18.925 L1266.738,18.925 L1266.738,37.917 L1285.73,37.917 L1285.73,18.925 L1304.723,18.925 L1304.723,37.917 L1323.715,37.917 L1323.715,18.925 L1342.707,18.925 L1342.707,37.917 L1361.699,37.917 L1361.699,18.925 L1380.691,18.925 L1380.691,37.917 L1399.683,37.917 L1399.683,18.925 L1418.676,18.925 L1418.676,37.917 L1437.667,37.917 L1437.667,18.925 L1456.66,18.925 L1456.66,37.917 L1475.652,37.917 L1475.652,18.925 L1494.644,18.925 L1494.644,18.925 L1513.636,18.925 L1513.636,37.917 L1513.636,37.917 L1513.636,56.91 L1494.644,56.91 L1494.644,75.902 L1513.636,75.902 L1513.636,94.894 L1494.644,94.894 L1494.644,113.886 L1513.636,113.886 L1513.636,132.878 L1494.644,132.878 L1494.644,151.87 L1513.636,151.87 L1513.636,170.862 L1494.644,170.862 L1494.644,189.854 L1513.636,189.854 L1513.636,208.847 L1494.644,208.847 L1494.644,227.839 L1513.636,227.839 L1513.636,246.831 L1494.644,246.831 L1494.644,265.823 L1513.636,265.823 L1513.636,284.815 L1494.644,284.815 L1494.644,303.807 L1513.636,303.807 L1513.636,322.799 L1494.644,322.799 L1494.644,341.791 L1513.636,341.791 L1513.636,360.784 L1494.644,360.784 L1494.644,379.776 L1513.636,379.776 L1513.636,398.768 L1494.644,398.768 L1494.644,417.76 L1513.636,417.76 L1513.636,436.752 L1494.644,436.752 L1494.644,455.744 L1513.636,455.744 L1513.636,474.736 L1494.644,474.736 L1494.644,493.728 L1513.636,493.728 L1513.636,512.721 L1494.644,512.721 L1494.644,531.713 L1513.636,531.713 L1513.636,550.705 L1494.644,550.705 L1494.644,569.697 L1513.636,569.697 L1513.636,588.689 L1513.636,588.689 L1513.636,607.681 L1475.652,607.681 L1475.652,588.689 L1456.66,588.689 L1456.66,607.681 L1437.667,607.681 L1437.667,588.689 L1418.676,588.689 L1418.676,607.681 L1399.683,607.681 L1399.683,588.689 L1380.691,588.689 L1380.691,607.681 L1361.699,607.681 L1361.699,588.689 L1342.707,588.689 L1342.707,607.681 L1323.715,607.681 L1323.715,588.689 L1304.723,588.689 L1304.723,607.681 L1285.73,607.681 L1285.73,588.689 L1266.738,588.689 L1266.738,607.681 L1247.746,607.681 L1247.746,588.689 L1228.754,588.689 L1228.754,607.681 L1209.762,607.681 L1209.762,588.689 L1190.769,588.689 L1190.769,607.681 L1171.777,607.681 L1171.777,588.689 L1152.785,588.689 L1152.785,607.681 L1133.793,607.681 L1133.793,588.689 L1114.801,588.689 L1114.801,607.681 L1095.808,607.681 L1095.808,588.689 L1076.816,588.689 L1076.816,607.681 L1057.824,607.681 L1057.824,588.689 L1038.832,588.689 L1038.832,607.681 L1019.84,607.681 L1019.84,588.689 L1000.848,588.689 L1000.848,607.681 L981.855,607.681 L981.855,588.689 L972.5,588.689 L972.5,588.689 L962.863,588.689 L962.863,607.681 L962.862,607.681 L962.862,607.681 L943.87,607.681 L943.87,588.689 L924.879,588.689 L924.879,607.681 L924.878,607.681 L924.878,607.681 L905.886,607.681 L905.886,588.689 L886.894,588.689 L886.894,607.681 L886.894,607.681 L886.894,607.681 L867.902,607.681 L867.902,588.689 L848.909,588.689 L848.909,607.681 L829.917,607.681 L829.917,588.689 L810.925,588.689 L810.925,607.681 L772.941,607.681 L772.941,569.697 L791.933,569.697 L791.933,550.705 L772.941,550.705 L772.941,531.713 L791.933,531.713 L791.933,512.721 L772.941,512.721 L772.941,493.728 L791.933,493.728 L791.933,474.736 L772.941,474.736 L772.941,455.744 L791.933,455.744 L791.933,436.752 L772.941,436.752 L772.941,417.76 L791.933,417.76 L791.933,398.768 L772.941,398.768 L772.941,379.776 L791.933,379.776 L791.933,360.784 L772.941,360.784 L772.941,341.792 L791.933,341.792 L791.933,322.799 L772.941,322.799 L772.941,303.807 L791.933,303.807 L791.933,284.815 L772.941,284.815 L772.941,265.823 L791.933,265.823 L791.933,246.831 L772.941,246.831 L772.941,227.839 L791.933,227.839 L791.933,208.847 L772.941,208.847 L772.941,189.855 L791.933,189.855 L791.933,170.862 L772.941,170.862 L772.941,151.87 L791.933,151.87 L791.933,132.878 L772.941,132.878 L772.941,113.886 L791.933,113.886 L791.933,94.894 L772.941,94.894 L772.941,75.902 L791.933,75.902 L791.933,56.91 L772.941,56.91 L772.941,18.925 L791.933,18.925 L791.933,18.925 L810.925,18.925 L810.925,37.918 L829.917,37.918 L829.917,18.925 L848.909,18.925 L848.909,37.918 L867.618,37.918 L867.618,37.917 L867.902,37.917 L867.902,18.925 L867.902,18.925 L867.902,18.925 L886.894,18.925 z" fill-opacity="0" stroke="#000000" stroke-width="1"/>
    </g>
  </g>
</svg>
