<?xml version="1.0" encoding="UTF-8"?>
<!DOCTYPE svg PUBLIC "-//W3C//DTD SVG 1.1//EN" "http://www.w3.org/Graphics/SVG/1.1/DTD/svg11.dtd">
<svg version="1.1" xmlns="http://www.w3.org/2000/svg" xmlns:xlink="http://www.w3.org/1999/xlink" x="0" y="0" width="2239.37" height="1088.504" viewBox="0, 0, 2239.37, 1088.504">
  <g id="Layer_1">
    <g id="logo">
      <path d="M2114.674,123.405 L2114.674,123.486 C2114.34,123.487 2114.296,123.568 2114.362,123.783 L2114.793,125.141 L2115.342,123.405 L2115.394,123.405 L2115.943,125.141 L2116.373,123.791 C2116.44,123.576 2116.381,123.494 2116.099,123.494 L2116.099,123.412 L2116.982,123.412 L2116.982,123.494 C2116.655,123.494 2116.596,123.576 2116.514,123.835 L2115.876,125.839 L2115.824,125.839 L2115.275,124.095 L2114.719,125.839 L2114.667,125.839 L2114.043,123.828 C2113.954,123.538 2113.902,123.487 2113.576,123.487 L2113.576,123.405 L2114.674,123.405 z" fill="#5731F2"/>
      <path d="M2135.954,123.323 L2135.954,124.191 L2135.873,124.191 C2135.843,123.88 2135.724,123.501 2135.271,123.501 C2135.049,123.501 2134.893,123.657 2134.893,123.85 C2134.893,124.058 2135.034,124.162 2135.375,124.34 L2135.746,124.533 C2136.051,124.689 2136.162,124.911 2136.162,125.134 C2136.162,125.564 2135.813,125.839 2135.413,125.839 C2135.116,125.839 2134.923,125.683 2134.797,125.653 C2134.752,125.69 2134.7,125.75 2134.685,125.839 L2134.596,125.839 L2134.596,124.963 L2134.678,124.963 C2134.678,124.963 2134.685,125.668 2135.405,125.668 C2135.687,125.668 2135.895,125.49 2135.895,125.238 C2135.895,125.06 2135.717,124.904 2135.442,124.763 L2135.064,124.57 C2134.834,124.451 2134.626,124.221 2134.626,123.924 C2134.626,123.598 2134.901,123.338 2135.279,123.338 C2135.509,123.338 2135.643,123.412 2135.761,123.501 C2135.806,123.464 2135.858,123.405 2135.873,123.323 L2135.954,123.323 z" fill="#5731F2"/>
      <path d="M2141.757,124.384 C2142.194,124.384 2142.551,124.703 2142.551,125.104 C2142.551,125.505 2142.194,125.831 2141.757,125.831 C2141.319,125.831 2140.963,125.505 2140.963,125.104 C2140.963,124.703 2141.319,124.384 2141.757,124.384 z M2141.757,124.533 C2141.438,124.533 2141.282,124.785 2141.282,125.104 C2141.282,125.416 2141.438,125.675 2141.757,125.675 C2142.083,125.675 2142.231,125.423 2142.231,125.104 C2142.231,124.792 2142.083,124.533 2141.757,124.533 z" fill="#5731F2"/>
      <path d="M2137.527,124.384 C2137.854,124.384 2137.995,124.525 2137.995,124.666 C2137.995,124.726 2137.958,124.837 2137.824,124.837 C2137.735,124.837 2137.668,124.763 2137.668,124.681 C2137.668,124.555 2137.594,124.51 2137.527,124.51 C2137.319,124.51 2137.149,124.778 2137.149,125.141 C2137.149,125.453 2137.305,125.661 2137.624,125.661 C2137.75,125.661 2137.913,125.601 2138.047,125.482 L2138.113,125.571 C2137.965,125.735 2137.75,125.831 2137.527,125.831 C2137.089,125.831 2136.83,125.534 2136.83,125.141 C2136.83,124.674 2137.208,124.384 2137.527,124.384 z" fill="#5731F2"/>
      <path d="M2127.466,124.451 L2127.466,124.533 C2127.288,124.533 2127.266,124.577 2127.347,124.763 L2127.614,125.408 L2128.022,124.451 L2128.104,124.451 L2128.505,125.408 L2128.779,124.763 C2128.853,124.592 2128.839,124.533 2128.668,124.533 L2128.668,124.451 L2129.217,124.451 L2129.217,124.533 C2129.076,124.533 2129.009,124.592 2128.935,124.763 L2128.475,125.831 L2128.393,125.831 L2127.993,124.896 L2127.592,125.831 L2127.51,125.831 L2127.035,124.763 C2126.961,124.592 2126.895,124.533 2126.768,124.533 L2126.768,124.451 L2127.466,124.451 z" fill="#5731F2"/>
      <path d="M2125.537,124.384 C2125.974,124.384 2126.331,124.703 2126.331,125.104 C2126.331,125.505 2125.974,125.831 2125.537,125.831 C2125.099,125.831 2124.743,125.505 2124.743,125.104 C2124.743,124.703 2125.099,124.384 2125.537,124.384 z M2125.537,124.533 C2125.218,124.533 2125.062,124.785 2125.062,125.104 C2125.062,125.416 2125.218,125.675 2125.537,125.675 C2125.863,125.675 2126.011,125.423 2126.011,125.104 C2126.011,124.792 2125.863,124.533 2125.537,124.533 z" fill="#5731F2"/>
      <path d="M2130.323,124.384 C2130.671,124.384 2130.953,124.666 2130.857,125.008 L2129.907,125.008 C2129.863,125.379 2130.011,125.661 2130.419,125.661 C2130.545,125.661 2130.738,125.586 2130.849,125.482 L2130.924,125.571 C2130.782,125.72 2130.545,125.831 2130.323,125.831 C2129.892,125.831 2129.595,125.505 2129.595,125.104 C2129.595,124.689 2129.959,124.384 2130.323,124.384 z M2130.3,124.54 C2130.13,124.54 2129.989,124.666 2129.929,124.859 L2130.582,124.859 C2130.627,124.733 2130.56,124.54 2130.3,124.54 z" fill="#5731F2"/>
      <path d="M2143.99,124.384 C2144.428,124.384 2144.784,124.703 2144.784,125.104 C2144.784,125.505 2144.428,125.831 2143.99,125.831 C2143.552,125.831 2143.196,125.505 2143.196,125.104 C2143.196,124.703 2143.552,124.384 2143.99,124.384 z M2143.99,124.533 C2143.671,124.533 2143.515,124.785 2143.515,125.104 C2143.515,125.416 2143.671,125.675 2143.99,125.675 C2144.316,125.675 2144.465,125.423 2144.465,125.104 C2144.465,124.792 2144.316,124.533 2143.99,124.533 z" fill="#5731F2"/>
      <path d="M2121.344,123.338 L2121.344,125.223 C2121.344,125.594 2121.404,125.646 2121.619,125.646 L2121.619,125.72 L2121.137,125.816 C2121.115,125.779 2121.085,125.653 2121.077,125.586 C2120.966,125.727 2120.81,125.824 2120.595,125.824 C2120.217,125.831 2119.905,125.505 2119.905,125.104 C2119.905,124.703 2120.217,124.384 2120.588,124.384 C2120.781,124.384 2120.951,124.473 2121.07,124.614 L2121.07,123.976 C2121.07,123.583 2121.025,123.516 2120.758,123.516 L2120.758,123.435 L2121.344,123.338 z M2120.669,124.548 C2120.365,124.548 2120.224,124.792 2120.224,125.111 C2120.224,125.423 2120.365,125.675 2120.669,125.675 C2120.855,125.668 2121.003,125.542 2121.07,125.364 L2121.07,124.859 C2120.996,124.674 2120.847,124.548 2120.669,124.548 z" fill="#5731F2"/>
      <path d="M2147.618,124.384 L2147.618,124.837 L2147.537,124.837 C2147.537,124.674 2147.418,124.503 2147.218,124.503 C2147.084,124.503 2147.017,124.577 2147.017,124.674 C2147.017,124.77 2147.077,124.822 2147.255,124.911 L2147.44,125.015 C2147.611,125.111 2147.715,125.252 2147.715,125.393 C2147.715,125.653 2147.5,125.824 2147.247,125.824 C2147.069,125.824 2146.936,125.698 2146.876,125.698 C2146.839,125.698 2146.824,125.727 2146.824,125.824 L2146.743,125.824 L2146.743,125.252 L2146.832,125.252 C2146.832,125.431 2146.98,125.69 2147.262,125.69 C2147.388,125.69 2147.485,125.601 2147.485,125.49 C2147.485,125.393 2147.396,125.319 2147.262,125.252 L2147.04,125.134 C2146.854,125.03 2146.78,124.867 2146.78,124.74 C2146.78,124.525 2146.973,124.384 2147.18,124.384 C2147.388,124.384 2147.462,124.473 2147.514,124.473 C2147.529,124.473 2147.537,124.444 2147.537,124.384 L2147.618,124.384 z" fill="#5731F2"/>
      <path d="M2132.482,124.392 C2132.697,124.392 2132.793,124.54 2132.793,124.637 C2132.793,124.726 2132.756,124.822 2132.637,124.822 C2132.563,124.822 2132.497,124.755 2132.497,124.681 C2132.497,124.599 2132.452,124.555 2132.37,124.555 C2132.281,124.555 2132.066,124.703 2132.066,125.015 L2132.066,125.23 C2132.066,125.623 2132.111,125.69 2132.378,125.69 L2132.378,125.772 L2131.48,125.772 L2131.48,125.675 C2131.74,125.675 2131.792,125.609 2131.792,125.215 L2131.792,125.022 C2131.792,124.629 2131.74,124.57 2131.48,124.57 L2131.48,124.488 L2132,124.392 C2132.022,124.429 2132.051,124.592 2132.066,124.674 C2132.148,124.518 2132.318,124.392 2132.482,124.392 z" fill="#5731F2"/>
      <path d="M2145.897,123.338 L2145.897,125.223 C2145.897,125.616 2145.949,125.683 2146.208,125.683 L2146.208,125.764 L2145.311,125.764 L2145.311,125.675 C2145.578,125.675 2145.622,125.609 2145.622,125.215 L2145.622,123.976 C2145.622,123.583 2145.578,123.516 2145.311,123.516 L2145.311,123.435 L2145.897,123.338 z" fill="#5731F2"/>
      <path d="M2123.904,123.397 L2123.904,125.215 C2123.904,125.609 2123.949,125.675 2124.216,125.675 L2124.216,125.757 L2123.318,125.757 L2123.318,125.675 C2123.578,125.675 2123.63,125.609 2123.63,125.215 L2123.63,123.976 C2123.63,123.62 2123.556,123.531 2123.348,123.531 C2122.91,123.531 2122.747,123.605 2122.747,124.139 L2122.747,124.451 L2123.14,124.451 L2123.14,124.592 L2122.747,124.592 L2122.747,125.223 C2122.747,125.616 2122.791,125.683 2123.059,125.683 L2123.059,125.764 L2122.161,125.764 L2122.161,125.675 L2122.153,125.675 C2122.413,125.675 2122.465,125.609 2122.465,125.215 L2122.465,124.585 L2122.146,124.585 L2122.146,124.444 L2122.465,124.444 L2122.465,124.132 C2122.465,123.598 2122.747,123.397 2123.177,123.397 L2123.904,123.397 z" fill="#5731F2"/>
      <path d="M2119.059,123.338 L2119.059,125.223 C2119.059,125.616 2119.111,125.683 2119.371,125.683 L2119.371,125.764 L2118.473,125.764 L2118.473,125.675 C2118.74,125.675 2118.785,125.609 2118.785,125.215 L2118.785,123.976 C2118.785,123.583 2118.74,123.516 2118.473,123.516 L2118.473,123.435 L2119.059,123.338 z" fill="#5731F2"/>
      <path d="M2117.746,124.392 L2117.746,125.223 C2117.746,125.616 2117.79,125.683 2118.058,125.683 L2118.058,125.764 L2117.16,125.764 L2117.16,125.675 C2117.419,125.675 2117.471,125.609 2117.471,125.215 L2117.471,125.022 C2117.471,124.629 2117.419,124.57 2117.16,124.57 L2117.16,124.488 L2117.746,124.392 z" fill="#5731F2"/>
      <path d="M2139.108,123.338 L2139.108,124.674 C2139.219,124.54 2139.397,124.392 2139.62,124.392 C2139.983,124.392 2140.102,124.644 2140.102,124.978 L2140.102,125.223 C2140.102,125.616 2140.154,125.683 2140.414,125.683 L2140.414,125.764 L2139.538,125.764 L2139.538,125.683 C2139.783,125.683 2139.82,125.631 2139.82,125.223 L2139.82,124.993 C2139.82,124.74 2139.731,124.57 2139.523,124.57 C2139.323,124.57 2139.1,124.74 2139.1,124.963 L2139.1,125.215 C2139.1,125.623 2139.13,125.675 2139.345,125.675 L2139.345,125.757 L2138.507,125.757 L2138.507,125.675 L2138.521,125.675 C2138.789,125.675 2138.833,125.609 2138.833,125.215 L2138.833,123.976 C2138.833,123.583 2138.789,123.516 2138.521,123.516 L2138.521,123.435 L2139.108,123.338 z" fill="#5731F2"/>
      <path d="M2117.605,123.65 C2117.701,123.65 2117.776,123.731 2117.776,123.82 C2117.776,123.917 2117.694,123.998 2117.605,123.998 C2117.509,123.998 2117.434,123.924 2117.434,123.82 C2117.434,123.724 2117.516,123.65 2117.605,123.65 z" fill="#5731F2"/>
      <path d="M2131.109,120.852 C2131.376,120.852 2131.643,120.852 2131.903,120.875 C2132.103,120.89 2132.304,120.904 2132.504,120.971 C2132.615,121.008 2132.675,121.134 2132.697,121.238 C2132.712,121.335 2132.741,121.424 2132.764,121.52 C2132.771,121.565 2132.771,121.594 2132.712,121.624 C2132.556,121.624 2132.4,121.624 2132.244,121.632 C2132.163,121.632 2132.081,121.646 2132,121.661 C2131.977,121.661 2131.562,121.691 2131.384,121.683 C2131.146,121.676 2130.909,121.691 2130.664,121.698 C2130.463,121.706 2130.263,121.728 2130.063,121.728 C2129.959,121.728 2129.848,121.75 2129.744,121.75 C2129.61,121.75 2129.551,121.75 2129.41,121.75 C2129.18,121.728 2128.994,121.676 2128.979,121.461 C2128.972,121.32 2128.994,121.172 2129.017,121.023 C2129.024,120.941 2129.128,120.882 2129.232,120.875 C2129.328,120.875 2129.425,120.875 2129.529,120.875 C2129.521,120.86 2130.137,120.852 2130.441,120.852 L2131.109,120.852 z" fill="#5731F2"/>
      <path d="M2137.616,120.867 C2137.794,120.867 2138.232,120.934 2138.284,120.941 C2138.358,120.941 2138.403,120.986 2138.417,121.045 C2138.44,121.179 2138.462,121.312 2138.469,121.453 C2138.477,121.594 2138.455,121.594 2138.343,121.617 C2138.054,121.676 2137.765,121.721 2137.468,121.706 C2137.238,121.698 2137.008,121.706 2136.785,121.706 C2136.644,121.706 2136.496,121.691 2136.355,121.691 C2136.236,121.691 2135.405,121.706 2135.242,121.728 C2135.205,121.735 2135.049,121.713 2135.012,121.713 C2134.834,121.713 2134.656,121.721 2134.47,121.728 C2134.359,121.728 2134.225,121.439 2134.203,121.402 C2134.136,121.149 2134.203,121.134 2134.27,121.008 C2134.322,120.912 2134.403,120.897 2134.5,120.904 C2134.634,120.912 2134.767,120.919 2134.908,120.919 C2134.967,120.919 2135.969,120.867 2136.088,120.867 L2137.616,120.867 z" fill="#5731F2"/>
      <path d="M2140.139,120.793 C2140.406,120.801 2140.666,120.808 2140.933,120.815 C2141.044,120.823 2141.156,120.83 2141.267,120.83 C2141.475,120.83 2141.675,120.838 2141.883,120.823 C2142.098,120.808 2142.306,120.867 2142.521,120.867 C2142.781,120.867 2143.048,120.897 2143.307,120.919 C2143.537,120.927 2143.693,120.971 2143.871,121.105 C2143.901,121.149 2143.908,121.172 2143.901,121.253 C2143.901,121.335 2143.879,121.439 2143.827,121.483 C2143.715,121.58 2143.582,121.639 2143.418,121.646 C2142.773,121.654 2142.135,121.691 2141.49,121.683 C2141.141,121.683 2140.792,121.617 2140.436,121.58 C2140.302,121.565 2140.169,121.557 2140.035,121.55 C2139.931,121.543 2139.857,121.498 2139.812,121.416 C2139.798,121.387 2139.798,121.342 2139.798,121.305 C2139.798,121.283 2139.842,121.008 2139.902,120.904 C2139.953,120.808 2140.042,120.793 2140.139,120.793 z" fill="#5731F2"/>
      <path d="M2146.943,120.731 C2147.035,120.733 2146.998,120.731 2147.054,120.734 C2147.203,120.749 2147.351,120.763 2147.507,120.778 C2147.7,120.801 2147.893,120.808 2148.078,120.838 C2148.271,120.867 2148.375,121.06 2148.301,121.253 C2148.286,121.305 2148.286,121.357 2148.264,121.409 C2148.204,121.513 2147.959,121.535 2147.863,121.565 C2147.589,121.617 2147.477,121.639 2147.284,121.624 C2147.262,121.624 2147.24,121.617 2147.225,121.617 C2146.936,121.594 2146.112,121.505 2146.03,121.498 C2145.941,121.491 2145.852,121.483 2145.763,121.491 C2145.674,121.491 2145.585,121.513 2145.496,121.513 C2145.318,121.513 2145.147,121.498 2144.969,121.491 C2144.954,121.491 2144.94,121.483 2144.925,121.476 C2144.828,121.424 2144.739,121.209 2144.761,121.082 C2144.791,120.927 2144.873,120.838 2145.029,120.823 C2145.377,120.801 2145.726,120.778 2146.052,120.756 C2146.349,120.737 2146.646,120.732 2146.943,120.731 z" fill="#5731F2"/>
      <path d="M2124.379,120.763 C2124.676,120.771 2124.973,120.786 2125.27,120.801 C2125.374,120.808 2125.477,120.815 2125.574,120.815 C2125.811,120.83 2126.063,120.808 2126.293,120.86 C2126.62,120.934 2126.939,120.904 2127.266,120.927 C2127.436,120.934 2127.503,121.201 2127.518,121.261 C2127.525,121.312 2127.533,121.364 2127.533,121.416 C2127.533,121.528 2127.518,121.543 2127.399,121.55 C2127.273,121.55 2127.147,121.55 2127.013,121.557 C2126.917,121.565 2126.828,121.58 2126.731,121.58 C2126.486,121.58 2126.242,121.565 2125.997,121.565 C2125.67,121.565 2125.344,121.58 2125.01,121.58 C2124.958,121.58 2124.906,121.565 2124.854,121.565 C2124.81,121.565 2124.765,121.565 2124.72,121.565 C2124.557,121.572 2124.394,121.557 2124.29,121.402 C2124.275,121.379 2124.268,121.342 2124.26,121.312 C2124.246,121.201 2124.231,121.097 2124.208,120.986 C2124.179,120.86 2124.253,120.756 2124.379,120.763 z" fill="#5731F2"/>
      <path d="M2121.37,120.755 L2121.404,120.756 C2121.612,120.771 2121.812,120.756 2122.02,120.763 C2122.161,120.763 2122.302,120.756 2122.435,120.786 C2122.583,120.823 2122.68,121.038 2122.635,121.194 C2122.628,121.231 2122.621,121.268 2122.606,121.298 C2122.554,121.461 2122.435,121.52 2122.265,121.505 C2122.064,121.491 2121.864,121.513 2121.664,121.52 C2121.537,121.52 2121.411,121.52 2121.278,121.52 C2121.196,121.52 2120.298,121.483 2120.231,121.483 C2120.157,121.483 2119.237,121.402 2119.141,121.394 C2119.007,121.379 2118.888,121.216 2118.866,121.12 C2118.829,120.949 2118.874,120.897 2119.059,120.875 C2119.222,120.867 2119.393,120.845 2119.631,120.815 C2119.816,120.815 2120.061,120.815 2120.313,120.815 C2120.666,120.8 2121.017,120.766 2121.37,120.755 z" fill="#5731F2"/>
      <path d="M2115.769,120.717 L2115.846,120.719 C2116.195,120.726 2116.544,120.734 2116.893,120.749 C2116.922,120.749 2116.974,120.786 2116.974,120.808 C2116.982,120.919 2116.982,121.023 2116.967,121.134 C2116.959,121.216 2116.893,121.253 2116.811,121.268 C2116.677,121.29 2116.536,121.32 2116.403,121.335 C2116.217,121.357 2116.032,121.372 2115.846,121.387 C2115.505,121.416 2115.156,121.439 2114.815,121.483 C2114.518,121.528 2114.236,121.52 2113.962,121.409 C2113.85,121.364 2113.806,121.312 2113.806,121.186 C2113.799,120.934 2113.91,120.801 2114.162,120.749 C2114.236,120.734 2114.311,120.741 2114.385,120.741 C2114.689,120.741 2114.993,120.741 2115.29,120.741 C2115.295,120.739 2115.301,120.736 2115.306,120.736 C2115.46,120.717 2115.615,120.719 2115.769,120.717 z" fill="#5731F2"/>
      <path d="M2140.406,118.677 L2140.777,118.678 C2141.133,118.678 2141.482,118.708 2141.831,118.73 C2142.039,118.738 2142.254,118.753 2142.461,118.767 C2142.751,118.782 2143.048,118.805 2143.337,118.819 C2143.582,118.834 2143.827,118.849 2144.072,118.871 C2144.361,118.894 2144.643,118.931 2144.932,118.96 C2145.177,118.983 2146.082,118.997 2146.327,119.012 C2146.594,119.035 2147.284,119.035 2147.388,119.057 C2147.589,119.094 2147.611,119.094 2147.989,119.138 C2148.249,119.183 2148.419,119.309 2148.464,119.561 C2148.464,119.584 2148.471,119.599 2148.479,119.621 C2148.501,119.717 2148.449,119.784 2148.345,119.777 C2148.234,119.769 2148.115,119.769 2148.004,119.754 C2147.819,119.732 2147.626,119.71 2147.44,119.688 C2147.307,119.673 2147.18,119.658 2147.047,119.65 C2146.75,119.636 2146.453,119.628 2146.156,119.613 C2146.075,119.606 2146.001,119.613 2145.927,119.613 C2145.815,119.621 2145.415,119.599 2145.333,119.599 C2144.776,119.591 2143.315,119.532 2143.137,119.532 C2142.832,119.524 2142.521,119.517 2142.217,119.517 C2142.09,119.517 2140.666,119.561 2140.562,119.569 C2140.339,119.576 2140.117,119.584 2139.887,119.584 C2139.76,119.584 2138.833,119.554 2138.67,119.547 C2138.477,119.539 2138.284,119.524 2138.091,119.517 C2138.01,119.517 2137.327,119.495 2137.282,119.502 C2136.763,119.509 2135.242,119.561 2134.997,119.591 C2134.893,119.599 2133.921,119.658 2133.773,119.68 C2133.595,119.702 2133.417,119.717 2133.239,119.732 C2133.231,119.732 2133.224,119.732 2133.224,119.732 C2132.986,119.747 2132.749,119.762 2132.511,119.762 C2132.4,119.762 2129.402,119.843 2129.224,119.843 C2129.061,119.843 2128.668,119.836 2128.631,119.836 C2128.282,119.821 2127.933,119.814 2127.584,119.799 C2127.533,119.799 2126.917,119.732 2126.665,119.739 C2126.531,119.747 2125.663,119.702 2125.411,119.71 C2125.255,119.71 2125.099,119.71 2124.943,119.71 C2124.817,119.71 2123.622,119.643 2123.444,119.65 C2123.296,119.65 2122.94,119.628 2122.903,119.628 C2122.806,119.628 2120.729,119.658 2120.714,119.665 C2120.588,119.673 2119.215,119.643 2119.089,119.658 C2118.896,119.68 2117.709,119.725 2117.553,119.784 C2117.486,119.806 2117.412,119.806 2117.345,119.814 C2117.197,119.829 2115.913,119.895 2115.809,119.903 C2115.661,119.91 2114.244,120.044 2113.999,120.036 C2113.776,120.007 2113.576,119.91 2113.375,119.814 C2113.309,119.784 2113.02,119.554 2112.968,119.383 C2112.945,119.294 2112.945,119.272 2112.968,119.228 C2113.02,119.146 2113.071,119.138 2113.153,119.138 C2113.45,119.124 2114.118,119.087 2114.414,119.072 C2114.637,119.064 2115.579,119.087 2115.772,119.087 C2115.972,119.087 2116.811,119.072 2117.033,119.049 C2117.167,119.035 2117.301,119.027 2117.434,119.012 C2118.028,118.946 2119.497,118.946 2119.645,118.938 C2119.927,118.923 2120.217,118.916 2120.499,118.901 C2120.692,118.894 2121.998,118.953 2122.198,118.953 C2122.205,118.953 2122.213,118.953 2122.228,118.953 C2122.665,118.946 2123.095,118.938 2123.533,118.938 C2123.741,118.938 2123.949,118.953 2124.149,118.953 C2124.453,118.946 2124.758,118.931 2125.062,118.916 C2125.173,118.908 2125.292,118.901 2125.403,118.901 C2125.7,118.886 2125.989,118.871 2126.286,118.864 C2126.575,118.864 2126.872,118.871 2127.162,118.879 C2127.436,118.886 2127.711,118.886 2127.985,118.894 C2128.238,118.901 2128.49,118.916 2128.742,118.931 C2128.853,118.938 2128.957,118.946 2129.069,118.946 C2129.395,118.953 2129.721,118.96 2130.055,118.96 C2130.323,118.96 2130.59,118.953 2130.849,118.946 C2131.079,118.938 2131.317,118.908 2131.547,118.894 C2131.569,118.894 2131.591,118.894 2131.606,118.894 C2131.806,118.886 2132.014,118.886 2132.215,118.879 C2132.43,118.871 2132.652,118.857 2132.867,118.842 C2133.12,118.827 2133.379,118.812 2133.632,118.805 C2133.891,118.797 2134.144,118.79 2134.403,118.782 C2134.537,118.775 2134.678,118.767 2134.812,118.767 C2135.123,118.767 2135.435,118.782 2135.754,118.782 C2136.051,118.782 2136.347,118.767 2136.652,118.767 C2136.733,118.767 2136.807,118.782 2136.889,118.782 C2137.216,118.775 2137.542,118.76 2137.868,118.745 C2138.099,118.738 2138.336,118.723 2138.566,118.708 C2138.811,118.701 2139.048,118.693 2139.293,118.693 C2139.912,118.682 2139.541,118.688 2140.406,118.677 z" fill="#5731F2"/>
      <path d="M2146.219,104.532 C2146.318,104.545 2146.279,104.526 2146.342,104.573 C2146.557,104.788 2146.661,105.033 2146.587,105.345 C2146.572,105.419 2146.564,105.501 2146.55,105.575 C2146.525,105.697 2146.478,105.721 2146.361,105.73 L2146.357,105.738 C2146.32,105.857 2146.297,105.976 2146.253,106.094 C2146.208,106.221 2146.052,106.725 2146.03,106.859 C2146.008,107.037 2145.986,107.207 2145.964,107.385 C2145.956,107.46 2145.949,107.534 2145.941,107.615 C2145.934,107.704 2145.823,109.344 2145.845,109.404 C2145.845,109.404 2145.904,109.522 2145.927,109.404 C2145.986,109.033 2146.134,107.994 2146.208,107.638 C2146.305,107.282 2146.498,106.851 2146.661,106.532 C2146.78,106.295 2146.921,106.057 2147.047,105.827 C2147.054,105.812 2147.054,105.798 2147.062,105.79 C2147.151,105.842 2147.24,105.887 2147.329,105.939 C2147.21,106.183 2147.099,106.436 2146.965,106.673 C2146.832,106.903 2146.72,107.141 2146.639,107.393 C2146.611,107.479 2146.58,107.563 2146.554,107.65 C2146.64,107.68 2146.604,107.678 2146.661,107.675 C2146.779,107.634 2146.706,107.661 2146.88,107.592 C2146.937,107.489 2146.986,107.382 2147.047,107.282 C2147.284,106.933 2147.277,106.851 2147.44,106.673 C2147.566,106.54 2147.692,106.406 2147.833,106.28 C2147.956,106.173 2148.089,106.08 2148.219,105.982 C2148.205,105.94 2148.174,105.909 2148.152,105.872 C2148.071,105.619 2148.175,105.479 2148.308,105.3 C2148.423,105.157 2148.583,105.17 2148.75,105.166 C2148.967,105.221 2148.883,105.182 2149.013,105.256 C2149.05,105.286 2149.087,105.389 2149.117,105.427 C2149.125,105.553 2149.043,105.671 2149.021,105.738 C2148.939,105.842 2148.843,105.961 2148.724,106.02 C2148.633,106.074 2148.524,106.07 2148.422,106.072 C2148.325,106.227 2148.378,106.15 2148.264,106.302 C2148.019,106.562 2147.373,107.519 2147.373,107.564 L2147.367,107.582 C2147.463,107.708 2147.412,107.645 2147.522,107.771 C2147.611,107.868 2147.655,107.972 2147.685,108.098 C2147.729,108.283 2147.789,108.469 2147.841,108.662 L2147.82,108.715 C2147.836,108.678 2147.827,108.7 2147.848,108.647 C2148.019,108.313 2148.152,107.957 2148.256,107.593 C2148.333,107.28 2148.297,107.435 2148.364,107.128 L2148.36,107.118 C2148.353,106.962 2148.382,106.807 2148.479,106.673 C2148.575,106.54 2148.857,106.451 2148.969,106.562 C2148.998,106.591 2149.028,106.643 2149.021,106.673 C2149.006,106.777 2148.983,106.888 2148.931,106.977 C2148.894,107.052 2148.805,107.096 2148.739,107.148 C2148.689,107.201 2148.714,107.176 2148.664,107.223 C2148.651,107.506 2148.551,107.774 2148.457,108.038 C2148.395,108.213 2148.336,108.39 2148.282,108.567 C2148.273,108.596 2148.236,108.699 2148.234,108.748 C2148.441,108.48 2148.335,108.615 2148.553,108.343 C2148.664,108.209 2148.776,108.068 2148.894,107.942 C2148.924,107.905 2148.983,107.883 2149.035,107.883 C2149.228,107.875 2149.406,107.905 2149.562,108.031 C2149.622,108.083 2149.711,108.113 2149.777,108.157 C2149.896,108.231 2149.941,108.343 2149.948,108.476 C2149.955,108.565 2149.978,108.654 2150,108.743 C2150,108.817 2150,108.899 2150,108.973 C2149.918,109.181 2149.844,109.389 2149.748,109.589 C2149.666,109.76 2149.555,109.916 2149.458,110.071 C2149.34,110.264 2149.221,110.457 2149.087,110.635 C2148.991,110.769 2148.88,110.895 2148.761,111.014 C2148.538,111.251 2148.331,111.503 2148.145,111.763 C2148.123,111.793 2148.101,111.815 2148.071,111.837 C2148.078,111.741 2148.049,111.667 2147.974,111.607 C2147.841,111.516 2147.92,111.566 2147.733,111.467 C2147.828,111.531 2147.882,111.573 2147.967,111.637 C2148.041,111.689 2148.071,111.771 2148.063,111.867 C2148.019,111.912 2147.982,111.963 2147.937,112.008 C2147.856,112.104 2147.781,112.193 2147.648,112.223 C2147.574,112.238 2147.514,112.29 2147.448,112.334 C2147.302,112.437 2147.131,112.48 2146.958,112.505 C2146.959,112.518 2146.958,112.508 2146.965,112.535 C2147.091,112.728 2147.151,112.943 2147.173,113.165 C2147.18,113.269 2147.203,113.366 2147.203,113.47 C2147.203,113.618 2147.188,113.774 2147.188,113.922 C2147.188,114.026 2147.225,114.123 2147.218,114.227 C2147.203,114.434 2147.173,114.642 2147.151,114.842 C2147.136,114.991 2147.121,115.147 2147.114,115.295 C2147.106,115.406 2147.099,115.51 2147.091,115.651 C2147.166,115.599 2147.225,115.562 2147.277,115.525 C2147.522,115.332 2147.759,115.132 2148.011,114.939 C2148.189,114.805 2148.382,114.701 2148.613,114.724 C2148.753,114.739 2148.88,114.776 2148.983,114.879 C2149.028,114.917 2149.043,114.961 2149.021,115.028 C2148.976,115.139 2148.924,115.213 2148.82,115.288 C2148.561,115.451 2148.323,115.644 2148.086,115.837 C2147.819,116.044 2147.596,116.312 2147.299,116.482 C2147.27,116.497 2147.136,116.586 2147.047,116.593 C2146.988,116.772 2146.928,116.95 2146.884,117.128 C2146.854,117.232 2146.846,117.343 2146.832,117.454 C2146.809,117.677 2146.802,117.907 2146.772,118.129 C2146.758,118.218 2146.683,118.3 2146.639,118.382 C2146.594,118.463 2146.542,118.478 2146.453,118.456 C2146.297,118.411 2146.134,118.404 2145.986,118.359 C2145.889,118.33 2145.8,118.278 2145.711,118.233 C2145.4,118.077 2145.147,117.847 2144.873,117.64 C2144.776,117.565 2144.702,117.454 2144.621,117.358 C2144.524,117.239 2144.413,117.128 2144.339,117.002 C2144.235,116.816 2144.153,116.623 2144.072,116.423 C2144.042,116.356 2144.101,116.289 2144.175,116.304 C2144.368,116.341 2144.554,116.393 2144.702,116.519 C2144.977,116.742 2145.244,116.972 2145.518,117.194 C2145.637,117.291 2145.756,117.38 2145.882,117.469 C2145.956,117.521 2145.993,117.506 2146.008,117.424 C2146.038,117.254 2146.052,117.083 2146.082,116.913 C2146.104,116.742 2146.134,116.564 2146.164,116.393 C2146.186,116.237 2146.208,116.081 2146.223,115.926 C2146.246,115.703 2146.268,115.48 2146.29,115.25 C2146.29,115.221 2146.29,115.191 2146.29,115.161 C2146.305,114.39 2146.312,113.626 2146.327,112.854 C2146.327,112.787 2146.379,112.728 2146.409,112.668 L2146.472,112.53 C2146.223,112.561 2146.011,112.438 2145.83,112.283 C2145.778,112.238 2145.771,112.238 2145.734,112.186 C2145.615,112.074 2145.666,112.134 2145.579,112.008 C2145.232,111.853 2144.918,111.639 2144.613,111.414 C2144.45,111.288 2144.324,111.118 2144.183,110.962 C2144.109,110.88 2144.042,110.784 2143.968,110.702 C2143.797,110.524 2143.723,110.294 2143.612,110.086 C2143.522,109.916 2143.441,109.745 2143.389,109.559 C2143.337,109.404 2143.33,109.233 2143.307,109.07 C2143.3,109.025 2143.322,108.966 2143.352,108.921 C2143.426,108.803 2143.53,108.721 2143.678,108.684 C2143.79,108.654 2143.901,108.61 2144.005,108.565 C2144.249,108.479 2144.1,108.52 2144.458,108.472 L2144.613,108.491 C2144.791,108.528 2144.969,108.573 2145.147,108.617 C2145.266,108.647 2145.333,108.743 2145.385,108.847 C2145.415,108.906 2145.452,108.973 2145.481,109.033 L2145.521,109.104 C2145.522,108.975 2145.524,109.031 2145.518,108.936 C2145.541,108.565 2145.541,108.565 2145.563,108.276 C2145.563,108.268 2145.585,107.957 2145.6,107.801 C2145.615,107.593 2145.674,107.319 2145.711,107.118 C2145.763,106.829 2145.83,106.606 2145.897,106.317 C2146.023,106.035 2146.023,106.035 2146.119,105.82 C2146.142,105.76 2146.156,105.709 2146.179,105.649 C2146.221,105.632 2146.204,105.641 2146.23,105.626 C2146.207,105.63 2146.224,105.626 2146.179,105.642 C2146.008,105.59 2145.949,105.464 2145.964,105.3 C2145.979,105.122 2145.986,104.952 2146.023,104.781 C2146.045,104.692 2146.119,104.618 2146.186,104.551 L2146.219,104.532 z M2146.505,107.934 C2146.483,108.09 2146.468,108.246 2146.453,108.402 L2146.505,107.934 z" fill="#5731F2"/>
      <path d="M2140.985,101.539 C2141.111,101.568 2141.252,101.568 2141.385,101.568 C2141.705,101.665 2141.905,101.91 2142.113,102.147 C2142.172,102.214 2142.231,102.288 2142.306,102.333 C2142.447,102.422 2142.499,102.563 2142.543,102.711 C2142.602,102.941 2142.639,103.178 2142.632,103.416 C2142.632,103.483 2142.647,103.542 2142.647,103.609 C2142.662,103.965 2142.602,104.314 2142.476,104.647 C2142.424,104.781 2142.432,104.796 2142.558,104.848 C2142.706,104.907 2142.862,104.944 2143.018,105.004 C2143.114,105.041 2143.203,105.1 2143.307,105.137 C2143.433,105.182 2143.56,105.211 2143.686,105.249 C2143.827,105.293 2143.945,105.367 2144.034,105.493 C2144.079,105.553 2144.138,105.605 2144.198,105.657 C2144.331,105.775 2144.413,105.924 2144.465,106.087 C2144.539,106.317 2144.598,106.54 2144.658,106.77 C2144.68,106.851 2144.673,106.94 2144.658,107.014 C2144.494,107.385 2143.893,107.608 2143.752,107.675 C2143.612,107.786 2143.448,107.86 2143.27,107.89 C2143.077,107.927 2142.892,107.972 2142.699,107.994 C2142.461,108.016 2142.239,107.942 2142.016,107.875 C2142.009,107.875 2142.001,107.875 2141.987,107.875 C2141.719,107.734 2141.445,107.586 2141.17,107.437 C2141.163,107.467 2141.163,107.474 2141.163,107.489 L2141.163,107.495 C2141.165,107.475 2141.163,107.489 2141.17,107.452 C2141.445,107.601 2141.719,107.742 2141.987,107.89 C2142.001,108.038 2142.016,108.179 2142.024,108.328 C2142.031,108.55 2142.031,108.773 2142.046,108.996 C2142.061,109.166 2142.09,109.337 2142.113,109.508 C2142.127,109.619 2142.127,109.738 2142.135,109.849 C2142.142,110.071 2142.15,110.294 2142.157,110.524 C2142.157,110.539 2142.157,110.546 2142.165,110.583 C2142.202,110.546 2142.231,110.524 2142.246,110.494 C2142.424,110.138 2142.736,109.975 2143.107,109.901 C2143.181,109.886 2143.255,109.945 2143.255,110.027 C2143.255,110.198 2143.255,110.361 2143.181,110.517 C2143.137,110.613 2143.137,110.724 2143.1,110.828 C2142.944,111.244 2142.654,111.511 2142.217,111.607 C2142.15,111.622 2142.068,111.756 2142.076,111.83 C2142.105,112.045 2142.127,112.26 2142.15,112.475 C2142.165,112.609 2142.187,112.743 2142.202,112.876 C2142.202,112.898 2142.217,112.913 2142.261,112.965 C2142.291,112.913 2142.328,112.861 2142.357,112.817 C2142.565,112.527 2142.862,112.357 2143.174,112.216 C2143.218,112.201 2143.27,112.201 2143.315,112.201 C2143.374,112.201 2143.396,112.253 2143.396,112.305 C2143.396,112.379 2143.404,112.446 2143.396,112.52 C2143.389,112.564 2143.359,112.609 2143.33,112.639 C2143.055,112.95 2142.706,113.165 2142.328,113.329 C2142.254,113.358 2142.231,113.403 2142.231,113.477 C2142.246,113.856 2142.254,114.241 2142.269,114.62 C2142.276,114.753 2142.291,114.879 2142.306,115.043 C2142.409,114.961 2142.499,114.894 2142.58,114.828 C2142.795,114.642 2143.003,114.449 2143.233,114.271 C2143.33,114.197 2143.448,114.108 2143.589,114.115 C2143.656,114.115 2143.723,114.123 2143.79,114.137 C2143.886,114.152 2143.953,114.271 2143.968,114.39 C2143.99,114.62 2143.901,114.798 2143.708,114.931 C2143.589,115.013 2143.485,115.117 2143.359,115.176 C2143.077,115.302 2142.781,115.421 2142.454,115.377 C2142.417,115.369 2142.387,115.369 2142.335,115.354 C2142.343,115.503 2142.35,115.644 2142.365,115.792 C2142.38,115.963 2142.409,116.126 2142.432,116.297 C2142.461,116.497 2142.484,116.697 2142.513,116.898 C2142.558,117.18 2142.617,117.462 2142.639,117.744 C2142.647,117.847 2142.602,117.988 2142.536,118.063 C2142.454,118.152 2142.32,118.196 2142.202,118.241 C2142.135,118.263 2142.053,118.248 2142.001,118.181 C2141.949,118.107 2141.89,118.025 2141.86,117.944 C2141.801,117.758 2141.764,117.558 2141.712,117.373 C2141.645,117.135 2141.556,116.905 2141.49,116.668 C2141.445,116.497 2141.415,116.326 2141.378,116.156 C2141.333,115.941 2141.289,115.725 2141.245,115.518 C2141.2,115.302 2141.148,115.08 2141.096,114.865 C2141.096,114.85 2141.081,114.768 2141.066,114.605 C2141.066,114.605 2141.029,114.368 2141,114.16 C2140.985,114.071 2140.933,114.034 2140.874,113.989 C2140.822,113.952 2140.755,113.945 2140.696,113.93 C2140.629,113.915 2140.206,113.729 2140.146,113.685 C2140.05,113.611 2139.939,113.551 2139.827,113.499 C2139.538,113.373 2139.278,113.21 2139.115,112.928 C2139.048,112.809 2139.019,112.676 2139.041,112.527 C2139.063,112.379 2139.115,112.238 2139.182,112.112 C2139.219,112.038 2139.301,112.008 2139.367,112.03 C2139.583,112.09 2139.79,112.164 2140.005,112.238 C2140.072,112.26 2140.124,112.327 2140.184,112.379 C2140.31,112.498 2140.421,112.616 2140.547,112.735 C2140.644,112.824 2140.747,112.906 2140.799,113.032 C2140.807,113.062 2140.836,113.084 2140.874,113.121 C2140.881,113.069 2140.888,113.047 2140.888,113.017 C2140.888,112.646 2140.888,112.268 2140.888,111.897 C2140.888,111.815 2140.859,111.763 2140.77,111.748 C2140.547,111.711 2140.324,111.682 2140.094,111.644 C2139.99,111.63 2139.894,111.6 2139.79,111.592 C2139.597,111.57 2139.412,111.511 2139.234,111.429 C2139.011,111.325 2138.922,111.14 2138.885,110.917 C2138.87,110.813 2138.848,110.71 2138.841,110.606 C2138.841,110.576 2138.87,110.531 2138.892,110.524 C2139.479,110.368 2140.02,110.465 2140.51,110.821 C2140.629,110.91 2140.733,111.014 2140.792,111.155 C2140.799,111.184 2140.822,111.207 2140.859,111.259 C2140.874,111.199 2140.881,111.17 2140.881,111.132 C2140.881,110.517 2140.881,109.901 2140.881,109.292 C2140.903,109.099 2140.881,108.929 2140.866,108.758 C2140.881,108.736 2140.888,108.714 2140.903,108.699 C2141.038,108.53 2141.148,108.335 2141.167,108.115 C2141.138,108.327 2141.023,108.513 2140.903,108.684 C2140.888,108.699 2140.881,108.721 2140.866,108.743 C2140.733,108.884 2140.599,109.025 2140.465,109.166 C2140.243,109.404 2139.961,109.545 2139.664,109.663 C2139.545,109.715 2139.427,109.789 2139.301,109.812 C2139.019,109.856 2138.737,109.93 2138.447,109.893 C2138.091,109.856 2137.757,109.76 2137.498,109.485 C2137.238,109.218 2137.112,108.906 2137.149,108.528 C2137.171,108.298 2137.253,108.075 2137.423,107.912 C2137.69,107.653 2137.958,107.393 2138.232,107.141 C2138.477,106.918 2138.737,106.703 2138.989,106.488 C2139.011,106.465 2139.041,106.443 2139.056,106.421 C2139.078,106.384 2139.078,106.339 2139.026,106.332 C2138.803,106.295 2138.581,106.258 2138.358,106.221 C2138.113,106.183 2137.868,106.146 2137.631,106.117 C2137.319,106.131 2136.874,106.042 2136.607,105.634 C2136.6,105.441 2136.6,105.441 2136.652,105.367 C2136.822,105.137 2136.986,104.907 2137.178,104.692 C2137.364,104.492 2137.572,104.314 2137.809,104.18 C2137.965,104.091 2138.136,104.091 2138.306,104.061 C2138.388,104.046 2138.469,104.039 2138.551,104.046 C2138.625,104.046 2138.692,104.061 2138.766,104.084 C2139.063,104.15 2139.367,104.225 2139.664,104.299 C2139.709,104.314 2139.76,104.336 2139.805,104.351 C2139.894,104.388 2139.946,104.351 2139.931,104.254 C2139.872,103.868 2139.812,103.49 2139.76,103.104 C2139.738,102.941 2139.723,102.778 2139.746,102.622 C2139.768,102.503 2139.85,102.392 2139.924,102.295 C2140.109,102.043 2140.369,101.872 2140.636,101.731 C2140.755,101.672 2140.866,101.605 2140.985,101.539 z M2141.167,107.529 C2141.168,107.545 2141.167,107.537 2141.17,107.554 L2141.167,107.529 z" fill="#5731F2"/>
      <path d="M2115.709,111.642 L2116.269,111.644 C2116.277,111.667 2117.746,111.689 2118.473,111.704 C2118.688,111.704 2118.874,111.771 2119.059,111.837 C2119.082,111.845 2119.111,111.874 2119.119,111.897 C2119.215,112.357 2119.156,113.707 2119.156,113.729 C2119.156,114.034 2119.17,114.338 2119.156,114.635 C2119.126,115.495 2119.089,116.356 2119.044,117.217 C2119.037,117.395 2119.007,117.573 2118.985,117.744 C2118.97,117.877 2118.888,117.959 2118.755,117.981 C2118.525,118.025 2118.288,118.063 2118.05,118.085 C2117.746,118.115 2117.442,118.122 2117.137,118.137 C2117.041,118.144 2117.041,118.137 2117.048,118.033 C2117.063,117.825 2117.056,117.625 2117.071,117.417 C2117.1,117.061 2117.145,116.705 2117.175,116.349 C2117.197,116.081 2117.197,115.807 2117.197,115.54 C2117.197,115.228 2117.189,114.924 2117.182,114.612 C2117.175,114.419 2117.108,114.345 2116.915,114.33 C2116.514,114.293 2116.121,114.256 2115.72,114.219 C2115.676,114.212 2115.631,114.204 2115.587,114.197 C2115.46,114.167 2115.379,114.219 2115.364,114.345 C2115.32,114.865 2115.275,115.384 2115.238,115.903 C2115.193,116.549 2115.149,117.187 2115.104,117.833 C2115.097,117.899 2115.097,117.966 2115.082,118.033 C2115.06,118.152 2115.03,118.174 2114.911,118.181 C2114.578,118.196 2114.251,118.144 2113.925,118.063 C2113.828,118.04 2113.732,118.018 2113.643,117.988 C2113.509,117.951 2113.479,117.922 2113.479,117.788 C2113.487,117.313 2113.472,116.831 2113.502,116.356 C2113.531,115.889 2113.457,115.429 2113.465,114.961 C2113.472,114.434 2113.472,113.907 2113.494,113.381 C2113.509,112.876 2113.539,112.364 2113.561,111.86 C2113.569,111.726 2113.583,111.704 2113.717,111.696 C2114.192,111.674 2114.674,111.652 2115.149,111.644 L2115.709,111.642 z" fill="#5731F2"/>
      <path d="M2124.356,104.038 C2124.484,104.095 2124.431,104.062 2124.52,104.128 C2125.129,104.618 2125.693,105.152 2126.212,105.731 C2127.125,106.747 2128.022,107.771 2128.898,108.825 C2129.061,109.018 2129.224,109.218 2129.388,109.418 C2129.454,109.5 2129.454,109.53 2129.38,109.597 C2129.276,109.686 2129.165,109.767 2129.061,109.856 C2129.039,109.879 2129.009,109.916 2129.009,109.945 C2128.957,110.561 2128.905,111.177 2128.868,111.8 C2128.839,112.327 2128.824,112.846 2128.794,113.373 C2128.787,113.455 2128.772,113.529 2128.764,113.611 C2128.727,113.967 2128.69,114.33 2128.66,114.687 C2128.609,115.221 2128.572,115.762 2128.512,116.297 C2128.468,116.697 2128.393,117.091 2128.334,117.491 C2128.327,117.565 2128.29,117.603 2128.208,117.603 C2128.052,117.617 2126.791,117.617 2126.605,117.64 C2126.546,117.647 2125.166,117.706 2125.01,117.729 C2124.899,117.744 2124.52,117.744 2124.446,117.751 C2124.268,117.766 2124.09,117.788 2123.919,117.818 C2123.815,117.833 2123.237,117.936 2123.103,117.944 C2122.947,117.951 2122.799,117.988 2122.643,117.996 C2122.472,118.003 2121.56,117.974 2121.278,117.988 C2121.115,117.996 2121.085,117.981 2121.07,117.818 C2121.033,117.469 2121.003,117.12 2120.959,116.779 C2120.914,116.467 2120.87,116.148 2120.795,115.844 C2120.729,115.57 2120.714,115.295 2120.736,115.02 C2120.773,114.583 2120.803,114.137 2120.84,113.7 C2120.847,113.574 2120.87,113.455 2120.87,113.329 C2120.87,113.143 2120.855,112.965 2120.862,112.78 C2120.87,112.357 2120.877,111.934 2120.885,111.511 C2120.885,111.437 2120.885,111.362 2120.892,111.288 C2120.899,111.199 2120.855,111.147 2120.781,111.132 C2120.491,111.081 2120.239,110.94 2119.979,110.821 C2119.868,110.769 2119.764,110.724 2119.66,110.665 C2119.594,110.628 2119.534,110.576 2119.49,110.517 C2119.438,110.457 2119.43,110.39 2119.475,110.316 C2119.69,109.975 2119.905,109.634 2120.113,109.292 C2120.543,108.595 2121.092,107.994 2121.56,107.333 C2121.842,106.94 2122.19,106.606 2122.435,106.191 C2122.524,106.042 2122.643,105.909 2122.754,105.775 C2122.851,105.657 2122.955,105.553 2123.051,105.434 C2123.059,105.427 2123.059,105.419 2123.066,105.419 C2123.214,105.382 2123.244,105.234 2123.326,105.13 C2123.422,105.004 2123.541,104.885 2123.637,104.759 C2123.726,104.647 2123.808,104.536 2123.897,104.425 C2123.964,104.336 2124.038,104.247 2124.112,104.165 C2124.21,104.057 2124.217,104.05 2124.356,104.038 z M2126.77,111.258 C2126.743,111.258 2126.719,111.271 2126.694,111.281 C2126.672,111.296 2126.657,111.325 2126.65,111.348 C2126.642,111.459 2126.635,111.578 2126.642,111.689 C2126.642,111.815 2126.657,111.949 2126.665,112.075 C2126.672,112.386 2126.59,112.691 2126.642,113.002 C2126.642,113.017 2126.642,113.039 2126.642,113.054 C2126.627,113.217 2126.62,113.381 2126.605,113.544 C2126.598,113.729 2126.605,113.915 2126.583,114.1 C2126.553,114.382 2126.501,114.664 2126.464,114.946 C2126.449,115.05 2126.449,115.154 2126.442,115.258 C2125.989,115.354 2125.537,115.406 2125.077,115.399 C2124.832,115.399 2124.587,115.406 2124.342,115.406 C2124.238,115.406 2124.142,115.399 2124.038,115.391 C2124.016,115.391 2123.993,115.384 2123.979,115.391 C2123.652,115.443 2123.326,115.369 2123.007,115.384 C2123.007,115.384 2122.999,115.384 2122.999,115.384 C2122.925,115.369 2122.873,115.332 2122.873,115.25 C2122.865,115.132 2122.858,115.006 2122.843,114.887 C2122.836,114.805 2122.851,114.761 2122.94,114.761 C2123.014,114.753 2123.044,114.716 2123.029,114.642 C2123.021,114.612 2123.021,114.583 2123.014,114.553 C2122.962,114.375 2122.955,114.189 2122.947,114.004 C2122.94,113.804 2122.903,113.596 2122.865,113.396 C2122.814,113.069 2122.777,112.735 2122.665,112.416 C2122.598,112.231 2122.569,112.045 2122.583,111.845 C2122.598,111.682 2122.569,111.622 2122.42,111.555 C2122.354,111.526 2122.287,111.563 2122.287,111.637 C2122.287,111.667 2122.294,111.696 2122.294,111.726 C2122.302,111.874 2122.302,112.023 2122.309,112.171 C2122.309,112.231 2122.294,112.297 2122.316,112.357 C2122.368,112.513 2122.309,112.668 2122.294,112.817 C2122.279,112.98 2122.213,113.143 2122.183,113.306 C2122.116,113.685 2122.057,114.056 2121.983,114.434 C2121.923,114.746 2121.908,115.05 2121.938,115.362 C2121.946,115.473 2121.908,115.584 2121.894,115.696 C2121.886,115.733 2121.871,115.762 2121.871,115.8 C2121.879,115.97 2121.886,116.133 2121.901,116.304 C2121.916,116.438 2121.923,116.438 2122.064,116.423 C2122.361,116.386 2122.658,116.356 2122.955,116.312 C2123.622,116.215 2124.29,116.2 2124.958,116.193 C2125.477,116.193 2126.004,116.215 2126.523,116.222 C2126.754,116.23 2126.984,116.222 2127.206,116.222 C2127.214,116.237 2127.243,116.237 2127.288,116.237 C2127.288,116.185 2127.288,116.148 2127.28,116.111 C2127.169,115.673 2127.132,115.221 2127.065,114.768 C2126.991,114.256 2126.902,113.752 2126.828,113.24 C2126.813,113.158 2126.835,113.076 2126.843,112.995 C2126.843,112.965 2126.857,112.935 2126.857,112.906 C2126.902,112.416 2126.939,111.926 2126.976,111.437 C2126.976,111.392 2126.969,111.325 2126.939,111.296 C2126.898,111.266 2126.925,111.282 2126.853,111.258 C2126.799,111.259 2126.826,111.259 2126.77,111.258 z M2126.115,113.492 C2126.019,113.514 2125.997,113.581 2125.989,113.655 C2125.982,113.729 2125.952,113.759 2125.885,113.759 C2125.589,113.767 2125.299,113.767 2125.002,113.774 C2124.943,113.774 2124.884,113.781 2124.817,113.781 C2124.81,114.071 2124.802,114.36 2124.795,114.642 C2124.795,114.709 2124.832,114.746 2124.899,114.753 C2124.988,114.768 2125.077,114.783 2125.173,114.79 C2125.47,114.813 2125.767,114.828 2126.071,114.842 C2126.249,114.85 2126.271,114.82 2126.256,114.642 C2126.219,114.293 2126.19,113.937 2126.153,113.588 C2126.138,113.559 2126.123,113.529 2126.115,113.492 z M2123.563,113.729 C2123.563,113.737 2123.563,113.744 2123.563,113.744 C2123.504,113.744 2123.437,113.737 2123.377,113.744 C2123.303,113.752 2123.251,113.774 2123.259,113.87 C2123.274,114.108 2123.281,114.353 2123.296,114.59 C2123.303,114.709 2123.318,114.716 2123.444,114.709 C2123.726,114.701 2124.016,114.694 2124.298,114.709 C2124.468,114.716 2124.49,114.716 2124.476,114.546 C2124.453,114.323 2124.416,114.108 2124.379,113.885 C2124.364,113.804 2124.32,113.781 2124.231,113.781 C2124.12,113.781 2124.001,113.781 2123.889,113.774 C2123.778,113.767 2123.667,113.744 2123.563,113.729 z M2125.602,111.445 C2125.576,111.445 2125.553,111.458 2125.529,111.466 C2125.47,111.496 2125.411,111.518 2125.351,111.541 C2125.21,111.578 2125.077,111.6 2124.936,111.637 C2124.817,111.667 2124.765,111.719 2124.765,111.823 C2124.765,112.053 2124.772,112.275 2124.78,112.505 C2124.78,112.594 2124.839,112.639 2124.928,112.624 C2124.98,112.616 2125.032,112.602 2125.084,112.609 C2125.359,112.609 2125.611,112.624 2125.893,112.639 C2125.952,112.646 2125.989,112.609 2125.967,112.535 C2125.908,112.268 2125.841,112.001 2125.781,111.733 C2125.774,111.704 2125.759,111.674 2125.767,111.652 C2125.804,111.578 2125.774,111.518 2125.722,111.474 L2125.679,111.447 C2125.629,111.447 2125.655,111.447 2125.602,111.445 z M2123.251,111.733 C2123.185,111.733 2123.147,111.763 2123.147,111.837 C2123.155,111.912 2123.147,111.993 2123.147,112.075 C2123.14,112.075 2123.133,112.075 2123.125,112.075 C2123.14,112.216 2123.147,112.349 2123.162,112.49 C2123.17,112.55 2123.192,112.609 2123.281,112.587 C2123.526,112.52 2123.771,112.475 2124.031,112.52 C2124.105,112.535 2124.142,112.498 2124.149,112.416 C2124.164,112.223 2124.201,112.03 2124.149,111.837 C2124.127,111.756 2124.105,111.733 2124.031,111.741 C2123.801,111.741 2123.571,111.741 2123.34,111.741 L2123.251,111.733 z M2124.337,108.808 L2124.312,108.84 C2124.238,108.988 2124.12,109.122 2124.045,109.263 C2123.956,109.418 2123.585,109.893 2123.526,110.012 C2123.526,110.019 2123.519,110.019 2123.519,110.027 C2123.318,110.294 2123.11,110.561 2122.91,110.828 C2122.88,110.865 2122.865,110.902 2122.828,110.962 C2122.932,110.954 2123.007,110.947 2123.081,110.94 C2123.281,110.917 2123.489,110.88 2123.689,110.88 C2123.889,110.88 2124.083,110.917 2124.283,110.925 C2124.876,110.962 2125.47,110.991 2126.071,111.029 C2126.153,111.036 2126.205,111.006 2126.205,110.925 C2126.212,110.821 2126.219,110.71 2126.212,110.606 C2126.212,110.583 2126.153,110.539 2126.123,110.539 C2126.011,110.539 2125.804,110.264 2125.752,110.205 C2125.693,110.146 2125.626,110.094 2125.574,110.034 C2125.381,109.827 2125.195,109.611 2124.995,109.404 C2124.81,109.211 2124.617,109.025 2124.431,108.84 C2124.382,108.8 2124.412,108.814 2124.337,108.808 z" fill="#5731F2"/>
      <path d="M2134.047,108.246 C2134.21,108.246 2134.997,108.276 2135.227,108.283 C2135.494,108.291 2135.754,108.298 2136.021,108.32 C2136.199,108.335 2136.385,108.372 2136.562,108.409 C2136.667,108.432 2136.741,108.476 2136.756,108.602 C2136.77,108.773 2136.815,108.936 2136.785,109.107 C2136.756,109.307 2136.607,109.433 2136.437,109.47 C2136.333,109.493 2136.229,109.493 2136.11,109.515 C2136.162,109.53 2136.214,109.545 2136.266,109.559 C2136.392,109.582 2136.526,109.604 2136.652,109.634 C2136.659,109.634 2136.667,109.634 2136.667,109.634 C2136.815,109.671 2136.874,109.76 2136.896,109.864 C2136.896,109.99 2136.889,110.116 2136.889,110.242 C2136.889,110.398 2136.904,110.554 2136.904,110.71 C2136.904,110.85 2136.904,110.991 2136.904,111.132 C2136.911,111.511 2136.911,111.882 2136.926,112.26 C2136.934,112.438 2136.963,112.965 2136.963,113.054 C2136.963,113.143 2136.963,113.225 2136.963,113.314 C2136.956,113.522 2137.038,114.776 2137.038,115.117 C2137.03,115.629 2137.038,116.141 2137.038,116.653 C2137.038,116.734 2137.03,116.816 2137.015,116.898 C2136.993,117.031 2136.867,117.128 2136.719,117.128 C2136.474,117.135 2136.221,117.143 2135.977,117.143 C2135.791,117.15 2135.598,117.157 2135.413,117.157 C2135.212,117.165 2135.004,117.165 2134.804,117.172 C2134.537,117.18 2134.27,117.194 2134.003,117.209 C2133.936,117.209 2133.906,117.187 2133.906,117.12 C2133.906,117.12 2133.906,117.113 2133.906,117.113 C2133.899,116.631 2133.891,116.141 2133.891,115.659 C2133.891,115.503 2133.891,115.34 2133.891,115.184 C2133.884,114.924 2133.877,114.657 2133.877,114.397 C2133.877,114.241 2133.869,113.752 2133.854,113.655 C2133.187,113.633 2132.534,113.596 2131.866,113.692 C2131.858,113.752 2131.844,113.818 2131.844,113.885 C2131.844,114.167 2131.836,114.457 2131.844,114.739 C2131.851,115.035 2131.866,115.332 2131.873,115.629 C2131.873,115.725 2131.858,115.829 2131.858,115.926 C2131.866,116.282 2131.888,116.764 2131.896,117.113 C2131.866,117.373 2131.732,117.321 2131.421,117.343 C2131.131,117.298 2130.849,117.224 2130.552,117.239 C2130.523,117.239 2130.5,117.239 2130.471,117.239 C2130.33,117.224 2130.3,117.187 2130.285,117.039 C2130.271,116.779 2130.241,116.512 2130.219,116.252 L2130.219,115.191 C2130.219,114.969 2130.226,114.746 2130.241,114.523 C2130.248,114.375 2130.271,113.188 2130.233,112.987 C2130.226,112.935 2130.241,112.045 2130.233,111.934 L2130.233,110.175 C2130.233,110.049 2130.196,110.005 2130.07,109.997 C2130.011,109.99 2129.989,109.975 2129.981,109.908 C2129.944,109.686 2129.959,109.671 2130.174,109.656 C2130.397,109.641 2130.619,109.611 2130.849,109.589 C2130.968,109.574 2131.094,109.567 2131.213,109.552 C2131.235,109.552 2131.265,109.537 2131.287,109.53 C2131.287,109.522 2131.287,109.507 2131.28,109.5 C2131.206,109.5 2131.124,109.5 2131.05,109.5 C2130.827,109.493 2130.189,109.381 2130.063,109.344 C2129.84,109.285 2129.714,109.107 2129.721,108.899 C2129.729,108.81 2129.721,108.714 2129.721,108.625 C2129.721,108.61 2129.721,108.587 2129.721,108.573 C2129.721,108.38 2129.751,108.343 2129.937,108.328 C2130.048,108.32 2130.152,108.313 2130.263,108.313 C2130.701,108.305 2131.131,108.298 2131.569,108.291 C2131.821,108.283 2132.073,108.283 2132.326,108.276 C2132.474,108.268 2132.623,108.261 2132.779,108.261 C2132.964,108.261 2133.81,108.246 2134.047,108.246 z M2130.854,110.026 L2130.701,110.027 C2130.679,110.027 2130.671,110.168 2130.671,110.19 C2130.694,110.494 2130.716,111.118 2130.716,111.118 C2130.716,111.251 2130.708,111.377 2130.716,111.511 C2130.731,111.689 2130.775,111.793 2130.975,111.778 C2131.064,111.771 2131.154,111.763 2131.25,111.763 C2131.45,111.756 2131.465,111.748 2131.458,111.548 C2131.458,111.511 2131.458,111.474 2131.458,111.429 C2131.458,111.318 2131.465,111.207 2131.473,111.103 C2131.48,111.021 2131.495,110.94 2131.495,110.858 C2131.488,110.65 2131.473,110.435 2131.465,110.227 C2131.458,110.116 2131.428,110.049 2131.317,110.042 C2131.063,110.022 2131.217,110.031 2130.854,110.026 z M2136.006,109.924 C2135.846,109.929 2135.915,109.927 2135.798,109.93 C2135.739,109.93 2135.687,109.938 2135.628,109.938 C2135.553,109.93 2135.479,109.968 2135.464,110.042 C2135.45,110.131 2135.427,110.22 2135.435,110.309 C2135.442,110.561 2135.464,110.821 2135.487,111.073 C2135.501,111.244 2135.531,111.414 2135.561,111.585 C2135.561,111.6 2135.591,111.622 2135.605,111.63 C2135.776,111.659 2135.947,111.689 2136.11,111.719 C2136.207,111.741 2136.236,111.719 2136.236,111.615 C2136.229,111.407 2136.214,111.192 2136.251,110.984 C2136.266,110.895 2136.273,110.806 2136.266,110.724 C2136.266,110.62 2136.251,110.405 2136.251,110.405 C2136.251,110.331 2136.251,110.264 2136.251,110.19 C2136.251,110.049 2136.184,109.945 2136.073,109.93 L2136.006,109.924 z M2132.075,110.001 L2131.97,110.019 C2131.94,110.027 2131.91,110.071 2131.91,110.094 C2131.91,110.19 2131.918,110.279 2131.925,110.376 C2131.933,110.48 2131.948,110.583 2131.962,110.687 C2131.97,110.754 2131.985,110.821 2132,110.888 C2132.029,111.051 2132.073,111.362 2132.066,111.362 C2132.066,111.437 2132.059,111.511 2132.066,111.585 C2132.073,111.615 2132.111,111.659 2132.14,111.659 C2132.207,111.667 2132.281,111.667 2132.355,111.659 C2132.497,111.644 2132.511,111.622 2132.511,111.474 C2132.511,111.377 2132.497,111.273 2132.511,111.177 C2132.541,111.006 2132.534,110.836 2132.511,110.665 C2132.489,110.509 2132.452,110.353 2132.489,110.198 C2132.511,110.116 2132.474,110.071 2132.393,110.042 C2132.219,109.996 2132.323,110.017 2132.075,110.001 z M2133.32,109.953 C2133.201,109.953 2133.075,109.99 2132.957,110.012 C2132.934,110.019 2132.905,110.057 2132.905,110.079 C2132.905,110.212 2132.912,110.346 2132.927,110.472 C2132.949,110.665 2132.986,110.858 2133.009,111.051 C2133.031,111.207 2133.046,111.355 2133.068,111.511 C2133.068,111.533 2133.105,111.563 2133.127,111.563 C2133.268,111.57 2133.402,111.578 2133.543,111.585 C2133.595,111.585 2133.639,111.592 2133.691,111.6 C2133.795,111.615 2133.854,111.585 2133.869,111.474 C2133.884,111.355 2133.899,111.236 2133.906,111.118 C2133.906,110.828 2133.899,110.531 2133.899,110.227 C2133.891,110.227 2133.884,110.146 2133.884,110.101 C2133.891,110.042 2133.862,109.997 2133.802,109.99 C2133.639,109.975 2133.483,109.953 2133.32,109.953 z M2134.34,109.929 C2134.249,109.945 2134.138,109.977 2134.114,110.079 C2134.114,110.257 2134.122,110.435 2134.129,110.62 C2134.151,110.902 2134.181,111.177 2134.196,111.459 C2134.203,111.578 2134.21,111.592 2134.329,111.585 C2134.47,111.592 2134.611,111.578 2134.767,111.57 C2134.789,111.444 2134.812,111.311 2134.826,111.177 C2134.834,111.081 2134.834,110.977 2134.826,110.88 C2134.819,110.62 2134.804,110.361 2134.789,110.101 C2134.782,110.005 2134.752,109.975 2134.656,109.968 C2134.559,109.96 2134.47,109.945 2134.381,109.93 L2134.34,109.929 z" fill="#5731F2"/>
      <path d="M2139.212,114.033 L2139.263,114.034 C2139.397,114.048 2139.531,114.071 2139.664,114.063 C2139.805,114.063 2139.939,114.1 2140.05,114.175 C2140.124,114.227 2140.191,114.301 2140.25,114.368 C2140.354,114.479 2140.443,114.598 2140.547,114.709 C2140.577,114.746 2140.933,115.117 2140.97,115.147 C2141.066,115.221 2141.141,115.31 2141.178,115.429 C2141.215,115.555 2141.178,115.599 2141.052,115.614 C2140.903,115.629 2140.747,115.659 2140.554,115.688 C2140.451,115.659 2140.302,115.629 2140.169,115.577 C2139.953,115.495 2139.746,115.399 2139.538,115.295 C2139.36,115.206 2139.211,115.072 2139.1,114.902 C2139.063,114.842 2139.041,114.776 2139.041,114.701 C2139.026,114.501 2139.041,114.308 2139.108,114.123 C2139.148,114.047 2139.117,114.082 2139.212,114.033 z" fill="#5731F2"/>
      <path d="M2116.777,106.075 L2116.863,106.094 C2116.937,106.124 2117.1,106.25 2117.123,106.28 C2117.375,106.629 2117.494,106.903 2117.657,107.252 C2117.917,107.734 2118.191,108.202 2118.436,108.684 C2118.577,108.958 2118.688,109.255 2118.8,109.545 C2118.926,109.871 2119.037,110.205 2119.156,110.539 C2119.222,110.717 2119.252,110.902 2119.222,111.095 C2119.2,111.214 2119.156,111.266 2119.03,111.273 C2118.896,111.281 2118.762,111.288 2118.629,111.288 C2118.332,111.296 2118.043,111.311 2117.746,111.303 C2117.293,111.288 2116.833,111.266 2116.381,111.244 C2116.076,111.229 2115.787,111.221 2115.431,111.207 C2115.097,111.221 2114.704,111.244 2114.303,111.266 C2114.207,111.273 2114.103,111.244 2114.006,111.244 C2113.843,111.236 2113.68,111.236 2113.524,111.236 C2113.413,111.236 2113.375,111.192 2113.398,111.081 C2113.405,111.043 2113.42,111.014 2113.435,110.984 C2113.761,110.353 2114.095,109.723 2114.422,109.092 C2114.6,108.751 2114.756,108.402 2114.948,108.075 C2115.112,107.794 2116.232,106.525 2116.551,106.176 C2116.662,106.081 2116.591,106.124 2116.777,106.075 z" fill="#5731F2"/>
      <path d="M2147.167,104.711 L2147.203,104.729 C2147.299,104.803 2147.403,104.878 2147.5,104.959 C2147.529,104.989 2147.552,105.026 2147.574,105.063 C2147.611,105.122 2147.648,105.182 2147.677,105.241 C2147.722,105.308 2147.737,105.382 2147.707,105.464 C2147.655,105.605 2147.581,105.731 2147.477,105.827 C2147.44,105.879 2147.381,105.901 2147.336,105.931 C2147.247,105.879 2147.158,105.835 2147.069,105.783 C2147.04,105.634 2147.01,105.479 2146.973,105.33 C2146.928,105.122 2146.965,104.929 2147.084,104.751 C2147.121,104.709 2147.096,104.727 2147.167,104.711 z" fill="#5731F2"/>
    </g>
    <path d="M913.89,70.016 L894.898,70.016 L894.898,359.15 L913.89,359.15 L913.89,427.181 L894.898,427.181 L894.898,642.614 L913.89,642.614 L913.89,710.646 L894.898,710.646 L894.898,999.78 L913.89,999.78 L913.89,1058.457 L894.898,1058.457 L894.898,1058.457 L855.213,1058.457 L855.213,1039.465 L514.661,1039.465 L514.661,1058.457 L446.63,1058.457 L446.63,1039.465 L70.016,1039.465 L70.016,1058.457 L30.331,1058.457 L30.331,1058.457 L11.339,1058.457 L11.339,999.78 L30.331,999.78 L30.331,710.646 L11.339,710.646 L11.339,642.614 L30.331,642.614 L30.331,428.181 L11.339,428.181 L11.339,360.15 L30.331,360.15 L30.331,70.016 L11.339,70.016 L11.339,11.339 L70.016,11.339 L70.016,30.331 L446.63,30.331 L446.63,11.339 L514.661,11.339 L514.661,30.331 L855.213,30.331 L855.213,11.339 L913.89,11.339 L913.89,70.016 z" fill-opacity="0" stroke="#000000" stroke-width="1"/>
    <path d="M1396.63,1067.811 L1396.63,1009.134 L1388.976,1009.134 L1388.976,720 L1396.63,720 L1396.63,651.969 L1388.976,651.969 L1388.976,436.535 L1396.63,436.535 L1396.63,368.504 L1388.976,368.504 L1388.976,79.37 L1396.63,79.37 L1396.63,20.693 L1610.079,20.693 L1610.079,1067.811 L1396.63,1067.811 z" fill-opacity="0" stroke="#000000" stroke-width="1"/>
    <path d="M1435.63,20.693 L1435.63,79.37 L1427.976,79.37 L1427.976,20.693 L1435.63,20.693 z" fill-opacity="0" stroke="#000000" stroke-width="1"/>
    <path d="M1435.63,1009.134 L1435.63,1067.811 L1427.976,1067.811 L1427.976,1009.134 L1435.63,1009.134 z" fill-opacity="0" stroke="#000000" stroke-width="1"/>
  </g>
</svg>
