<?xml version="1.0" encoding="UTF-8"?>
<!DOCTYPE svg PUBLIC "-//W3C//DTD SVG 1.1//EN" "http://www.w3.org/Graphics/SVG/1.1/DTD/svg11.dtd">
<svg version="1.1" xmlns="http://www.w3.org/2000/svg" xmlns:xlink="http://www.w3.org/1999/xlink" x="0" y="0" width="2239.37" height="1088.504" viewBox="0, 0, 2239.37, 1088.504">
  <g id="Layer_1">
    <g>
      <path d="M76.547,154.532 L76.547,154.917 C74.973,154.917 74.764,155.302 75.078,156.316 L77.106,162.714 L79.693,154.532 L79.938,154.532 L82.525,162.714 L84.553,156.35 C84.868,155.337 84.588,154.952 83.259,154.952 L83.259,154.567 L87.42,154.567 L87.42,154.952 C85.881,154.952 85.602,155.337 85.217,156.56 L82.21,166 L81.966,166 L79.379,157.784 L76.756,166 L76.512,166 L73.575,156.525 C73.155,155.162 72.911,154.917 71.372,154.917 L71.372,154.532 L76.547,154.532 z" fill="#5731F2"/>
      <path d="M176.817,154.148 L176.817,158.238 L176.433,158.238 C176.293,156.77 175.733,154.987 173.601,154.987 C172.552,154.987 171.818,155.721 171.818,156.63 C171.818,157.609 172.482,158.099 174.09,158.938 L175.838,159.847 C177.272,160.581 177.796,161.63 177.796,162.679 C177.796,164.706 176.153,166 174.265,166 C172.867,166 171.958,165.266 171.363,165.126 C171.153,165.301 170.909,165.58 170.839,166 L170.419,166 L170.419,161.874 L170.804,161.874 C170.804,161.875 170.839,165.196 174.23,165.196 C175.559,165.196 176.538,164.357 176.538,163.168 C176.538,162.329 175.698,161.595 174.405,160.931 L172.622,160.021 C171.538,159.462 170.559,158.378 170.559,156.98 C170.559,155.442 171.853,154.218 173.636,154.218 C174.72,154.218 175.349,154.567 175.908,154.987 C176.118,154.812 176.363,154.533 176.433,154.148 L176.817,154.148 z" fill="#5731F2"/>
      <path d="M204.157,159.147 C206.22,159.147 207.898,160.651 207.898,162.539 C207.898,164.427 206.22,165.965 204.157,165.965 C202.095,165.965 200.416,164.427 200.416,162.539 C200.416,160.651 202.095,159.147 204.157,159.147 z M204.157,159.847 C202.654,159.847 201.92,161.035 201.92,162.539 C201.92,164.007 202.654,165.231 204.157,165.231 C205.696,165.231 206.395,164.042 206.395,162.539 C206.395,161.07 205.696,159.847 204.157,159.847 z" fill="#5731F2"/>
      <path d="M184.229,159.147 C185.767,159.147 186.432,159.812 186.432,160.476 C186.432,160.756 186.257,161.28 185.628,161.28 C185.208,161.28 184.893,160.931 184.893,160.546 C184.893,159.952 184.544,159.742 184.229,159.742 C183.25,159.742 182.446,161 182.446,162.714 C182.446,164.182 183.18,165.161 184.684,165.161 C185.278,165.161 186.047,164.881 186.676,164.322 L186.991,164.741 C186.292,165.511 185.278,165.965 184.229,165.965 C182.166,165.965 180.943,164.567 180.943,162.714 C180.943,160.511 182.726,159.147 184.229,159.147 z" fill="#5731F2"/>
      <path d="M136.821,159.462 L136.821,159.847 C135.982,159.847 135.877,160.056 136.261,160.931 L137.52,163.972 L139.443,159.462 L139.828,159.462 L141.716,163.972 L143.009,160.93 C143.359,160.126 143.289,159.847 142.485,159.847 L142.485,159.462 L145.072,159.462 L145.072,159.847 C144.408,159.847 144.093,160.126 143.743,160.931 L141.576,165.965 L141.191,165.965 L139.303,161.56 L137.415,165.965 L137.031,165.965 L134.793,160.93 C134.443,160.126 134.129,159.847 133.534,159.847 L133.534,159.462 L136.821,159.462 z" fill="#5731F2"/>
      <path d="M127.731,159.147 C129.794,159.147 131.472,160.651 131.472,162.539 C131.472,164.427 129.794,165.965 127.731,165.965 C125.668,165.965 123.99,164.427 123.99,162.539 C123.99,160.651 125.668,159.147 127.731,159.147 z M127.731,159.847 C126.227,159.847 125.493,161.035 125.493,162.539 C125.493,164.007 126.227,165.231 127.731,165.231 C129.269,165.231 129.968,164.042 129.968,162.539 C129.968,161.07 129.269,159.847 127.731,159.847 z" fill="#5731F2"/>
      <path d="M150.281,159.147 C151.924,159.147 153.253,160.476 152.798,162.084 L148.323,162.084 C148.114,163.832 148.813,165.161 150.736,165.161 C151.33,165.161 152.239,164.811 152.763,164.322 L153.113,164.741 C152.449,165.441 151.33,165.965 150.281,165.965 C148.253,165.965 146.855,164.427 146.855,162.539 C146.855,160.581 148.568,159.147 150.281,159.147 z M150.176,159.882 C149.372,159.882 148.708,160.476 148.428,161.385 L151.505,161.385 C151.715,160.791 151.4,159.882 150.176,159.882 z" fill="#5731F2"/>
      <path d="M214.681,159.147 C216.744,159.147 218.422,160.651 218.422,162.539 C218.422,164.427 216.744,165.965 214.681,165.965 C212.618,165.965 210.94,164.427 210.94,162.539 C210.94,160.651 212.618,159.147 214.681,159.147 z M214.681,159.847 C213.178,159.847 212.443,161.035 212.443,162.539 C212.443,164.007 213.178,165.231 214.681,165.231 C216.219,165.231 216.918,164.042 216.918,162.539 C216.918,161.07 216.219,159.847 214.681,159.847 z" fill="#5731F2"/>
      <path d="M107.977,154.218 L107.977,163.098 C107.977,164.846 108.257,165.091 109.271,165.091 L109.271,165.441 L106.998,165.895 C106.894,165.72 106.754,165.126 106.719,164.811 C106.194,165.476 105.46,165.93 104.446,165.93 C102.663,165.965 101.195,164.427 101.195,162.539 C101.195,160.651 102.663,159.147 104.411,159.147 C105.32,159.147 106.124,159.567 106.684,160.231 L106.684,157.225 C106.684,155.372 106.474,155.057 105.215,155.057 L105.215,154.672 L107.977,154.218 z M104.796,159.917 C103.362,159.917 102.698,161.07 102.698,162.574 C102.698,164.042 103.362,165.231 104.796,165.231 C105.67,165.196 106.369,164.602 106.684,163.762 L106.684,161.385 C106.334,160.511 105.635,159.917 104.796,159.917 z" fill="#5731F2"/>
      <path d="M231.777,159.147 L231.777,161.28 L231.393,161.28 C231.393,160.511 230.833,159.707 229.889,159.707 C229.26,159.707 228.945,160.056 228.945,160.511 C228.945,160.965 229.225,161.21 230.064,161.63 L230.938,162.119 C231.742,162.574 232.232,163.238 232.232,163.902 C232.232,165.126 231.218,165.93 230.029,165.93 C229.19,165.93 228.561,165.336 228.281,165.336 C228.106,165.336 228.036,165.476 228.036,165.93 L227.652,165.93 L227.652,163.238 L228.071,163.238 C228.071,164.077 228.771,165.301 230.099,165.301 C230.693,165.301 231.148,164.881 231.148,164.357 C231.148,163.902 230.728,163.553 230.099,163.238 L229.05,162.679 C228.176,162.189 227.827,161.42 227.827,160.826 C227.827,159.812 228.736,159.147 229.714,159.147 C230.693,159.147 231.043,159.567 231.288,159.567 C231.358,159.567 231.393,159.427 231.393,159.147 L231.777,159.147 z" fill="#5731F2"/>
      <path d="M160.455,159.182 C161.469,159.182 161.923,159.882 161.923,160.336 C161.923,160.756 161.749,161.21 161.189,161.21 C160.84,161.21 160.525,160.896 160.525,160.546 C160.525,160.161 160.315,159.952 159.931,159.952 C159.511,159.952 158.497,160.651 158.497,162.119 L158.497,163.133 C158.497,164.986 158.707,165.301 159.966,165.301 L159.966,165.685 L155.735,165.685 L155.735,165.231 C156.959,165.231 157.204,164.916 157.204,163.063 L157.204,162.154 C157.204,160.301 156.959,160.022 155.735,160.022 L155.735,159.637 L158.183,159.182 C158.287,159.357 158.427,160.126 158.497,160.511 C158.882,159.777 159.686,159.182 160.455,159.182 z" fill="#5731F2"/>
      <path d="M223.666,154.218 L223.666,163.098 C223.666,164.951 223.911,165.266 225.134,165.266 L225.134,165.65 L220.904,165.65 L220.904,165.231 C222.163,165.231 222.372,164.916 222.372,163.063 L222.372,157.225 C222.372,155.372 222.163,155.057 220.904,155.057 L220.904,154.672 L223.666,154.218 z" fill="#5731F2"/>
      <path d="M120.039,154.498 L120.039,163.063 C120.039,164.916 120.249,165.231 121.508,165.231 L121.508,165.615 L117.277,165.615 L117.277,165.231 C118.501,165.231 118.746,164.916 118.746,163.063 L118.746,157.225 C118.746,155.546 118.396,155.127 117.417,155.127 C115.354,155.127 114.585,155.476 114.585,157.994 L114.585,159.462 L116.438,159.462 L116.438,160.126 L114.585,160.126 L114.585,163.098 C114.585,164.951 114.795,165.266 116.054,165.266 L116.054,165.65 L111.823,165.65 L111.823,165.231 L111.788,165.231 C113.012,165.231 113.257,164.916 113.257,163.063 L113.257,160.091 L111.753,160.091 L111.753,159.427 L113.257,159.427 L113.257,157.959 C113.257,155.442 114.585,154.498 116.613,154.498 L120.039,154.498 z" fill="#5731F2"/>
      <path d="M97.209,154.218 L97.209,163.098 C97.209,164.951 97.454,165.266 98.678,165.266 L98.677,165.65 L94.447,165.65 L94.447,165.231 C95.706,165.231 95.916,164.916 95.916,163.063 L95.916,157.225 C95.916,155.372 95.706,155.057 94.447,155.057 L94.447,154.672 L97.209,154.218 z" fill="#5731F2"/>
      <path d="M91.021,159.182 L91.021,163.098 C91.021,164.951 91.231,165.266 92.489,165.266 L92.489,165.65 L88.259,165.65 L88.259,165.231 C89.483,165.231 89.727,164.916 89.727,163.063 L89.727,162.154 C89.727,160.301 89.483,160.022 88.259,160.022 L88.259,159.637 L91.021,159.182 z" fill="#5731F2"/>
      <path d="M191.676,154.218 L191.676,160.511 C192.2,159.882 193.04,159.182 194.088,159.182 C195.801,159.182 196.361,160.371 196.361,161.944 L196.361,163.098 C196.361,164.951 196.606,165.266 197.829,165.266 L197.829,165.65 L193.704,165.65 L193.704,165.266 C194.858,165.266 195.032,165.021 195.032,163.098 L195.032,162.014 C195.032,160.826 194.613,160.022 193.634,160.022 C192.69,160.022 191.641,160.826 191.641,161.874 L191.641,163.063 C191.641,164.986 191.781,165.231 192.795,165.231 L192.795,165.615 L188.844,165.615 L188.844,165.231 L188.914,165.231 C190.173,165.231 190.382,164.916 190.382,163.063 L190.382,157.225 C190.382,155.372 190.173,155.057 188.914,155.057 L188.914,154.672 L191.676,154.218 z" fill="#5731F2"/>
      <path d="M90.357,155.686 C90.811,155.686 91.161,156.071 91.161,156.49 C91.161,156.945 90.776,157.329 90.357,157.329 C89.902,157.329 89.552,156.98 89.552,156.49 C89.552,156.036 89.937,155.686 90.357,155.686 z" fill="#5731F2"/>
      <path d="M153.987,142.506 C155.246,142.506 156.504,142.506 157.728,142.611 C158.672,142.68 159.616,142.75 160.56,143.065 C161.084,143.24 161.364,143.834 161.469,144.324 C161.539,144.778 161.679,145.198 161.784,145.652 C161.819,145.862 161.819,146.002 161.539,146.142 C160.805,146.142 160.071,146.142 159.336,146.177 C158.952,146.177 158.567,146.247 158.183,146.316 C158.078,146.316 156.12,146.456 155.281,146.421 C154.162,146.386 153.043,146.456 151.889,146.491 C150.945,146.526 150.001,146.631 149.058,146.631 C148.568,146.631 148.044,146.736 147.554,146.736 C146.925,146.736 146.645,146.736 145.981,146.736 C144.897,146.631 144.023,146.386 143.953,145.373 C143.918,144.708 144.023,144.009 144.128,143.31 C144.163,142.925 144.652,142.645 145.142,142.611 C145.596,142.611 146.051,142.611 146.54,142.611 C146.505,142.541 149.407,142.506 150.841,142.506 L153.987,142.506 z" fill="#5731F2"/>
      <path d="M184.649,142.576 C185.488,142.576 187.551,142.89 187.795,142.925 C188.145,142.925 188.355,143.135 188.425,143.415 C188.529,144.044 188.634,144.673 188.669,145.338 C188.704,146.002 188.599,146.002 188.075,146.107 C186.711,146.386 185.348,146.596 183.949,146.526 C182.866,146.491 181.782,146.526 180.733,146.526 C180.069,146.526 179.369,146.456 178.705,146.456 C178.146,146.456 174.23,146.526 173.461,146.631 C173.286,146.666 172.552,146.561 172.377,146.561 C171.538,146.561 170.699,146.596 169.825,146.631 C169.3,146.631 168.671,145.268 168.566,145.093 C168.252,143.904 168.566,143.834 168.881,143.24 C169.126,142.785 169.51,142.715 169.965,142.75 C170.594,142.785 171.223,142.82 171.888,142.82 C172.167,142.82 176.887,142.576 177.447,142.576 L184.649,142.576 z" fill="#5731F2"/>
      <path d="M196.536,142.226 C197.794,142.261 199.018,142.296 200.277,142.331 C200.801,142.366 201.325,142.401 201.85,142.401 C202.829,142.401 203.773,142.436 204.752,142.366 C205.766,142.296 206.745,142.576 207.758,142.576 C208.982,142.576 210.241,142.715 211.464,142.82 C212.548,142.855 213.282,143.065 214.122,143.694 C214.261,143.904 214.296,144.009 214.261,144.394 C214.261,144.778 214.156,145.268 213.912,145.477 C213.387,145.932 212.758,146.212 211.989,146.247 C208.947,146.282 205.94,146.456 202.899,146.421 C201.256,146.421 199.612,146.107 197.934,145.932 C197.305,145.862 196.676,145.827 196.046,145.792 C195.557,145.757 195.207,145.547 194.997,145.163 C194.927,145.023 194.927,144.813 194.927,144.638 C194.927,144.533 195.137,143.24 195.417,142.75 C195.662,142.296 196.081,142.226 196.536,142.226 z" fill="#5731F2"/>
      <path d="M228.596,141.934 C229.031,141.941 228.856,141.935 229.12,141.946 C229.819,142.016 230.519,142.086 231.253,142.156 C232.162,142.261 233.071,142.296 233.945,142.436 C234.854,142.576 235.343,143.485 234.994,144.394 C234.924,144.638 234.924,144.883 234.819,145.128 C234.539,145.617 233.385,145.722 232.931,145.862 C231.637,146.107 231.113,146.212 230.204,146.142 C230.099,146.142 229.994,146.107 229.924,146.107 C228.561,146.002 224.68,145.582 224.295,145.547 C223.876,145.512 223.456,145.477 223.037,145.512 C222.617,145.512 222.198,145.617 221.778,145.617 C220.939,145.617 220.135,145.547 219.296,145.512 C219.226,145.512 219.156,145.477 219.086,145.442 C218.632,145.198 218.212,144.184 218.317,143.589 C218.457,142.855 218.841,142.436 219.576,142.366 C221.219,142.261 222.862,142.156 224.4,142.051 C225.797,141.96 227.197,141.938 228.596,141.934 z" fill="#5731F2"/>
      <path d="M122.277,142.086 C123.675,142.121 125.074,142.191 126.472,142.261 C126.962,142.296 127.451,142.331 127.906,142.331 C129.024,142.401 130.213,142.296 131.297,142.541 C132.835,142.89 134.339,142.75 135.877,142.855 C136.681,142.89 136.996,144.149 137.066,144.429 C137.101,144.673 137.136,144.918 137.136,145.163 C137.136,145.687 137.066,145.757 136.506,145.792 C135.912,145.792 135.318,145.792 134.688,145.827 C134.234,145.862 133.814,145.932 133.36,145.932 C132.206,145.932 131.052,145.862 129.898,145.862 C128.36,145.862 126.822,145.932 125.248,145.932 C125.004,145.932 124.759,145.862 124.514,145.862 C124.305,145.862 124.095,145.862 123.885,145.862 C123.116,145.897 122.347,145.827 121.857,145.093 C121.787,144.988 121.752,144.813 121.717,144.673 C121.647,144.149 121.578,143.659 121.473,143.135 C121.333,142.541 121.682,142.051 122.277,142.086 z" fill="#5731F2"/>
      <path d="M108.096,142.048 L108.257,142.051 C109.236,142.121 110.18,142.051 111.159,142.086 C111.823,142.086 112.487,142.051 113.117,142.191 C113.816,142.366 114.27,143.38 114.061,144.114 C114.026,144.289 113.991,144.464 113.921,144.603 C113.676,145.373 113.117,145.652 112.313,145.582 C111.369,145.512 110.425,145.617 109.481,145.652 C108.886,145.652 108.292,145.652 107.663,145.652 C107.278,145.652 103.048,145.477 102.733,145.477 C102.383,145.477 98.048,145.093 97.594,145.058 C96.964,144.988 96.405,144.219 96.3,143.764 C96.125,142.96 96.335,142.715 97.209,142.611 C97.978,142.576 98.782,142.471 99.901,142.331 C100.775,142.331 101.929,142.331 103.118,142.331 C104.778,142.259 106.434,142.099 108.096,142.049 z" fill="#5731F2"/>
      <path d="M81.707,141.868 L82.071,141.876 C83.714,141.911 85.357,141.946 87,142.016 C87.14,142.016 87.385,142.191 87.385,142.296 C87.42,142.82 87.42,143.31 87.35,143.834 C87.315,144.219 87,144.394 86.616,144.464 C85.986,144.568 85.322,144.708 84.693,144.778 C83.819,144.883 82.945,144.953 82.071,145.023 C80.462,145.163 78.819,145.268 77.211,145.477 C75.812,145.687 74.484,145.652 73.19,145.128 C72.666,144.918 72.456,144.673 72.456,144.079 C72.421,142.89 72.946,142.261 74.134,142.016 C74.484,141.946 74.834,141.981 75.183,141.981 C76.617,141.981 78.05,141.981 79.449,141.981 C79.474,141.973 79.498,141.958 79.525,141.955 C80.248,141.867 80.98,141.875 81.707,141.868 z" fill="#5731F2"/>
      <path d="M197.791,132.253 L199.542,132.262 C201.221,132.262 202.864,132.402 204.507,132.507 C205.486,132.542 206.5,132.611 207.479,132.681 C208.842,132.751 210.241,132.856 211.604,132.926 C212.758,132.996 213.912,133.066 215.065,133.171 C216.429,133.276 217.758,133.451 219.121,133.59 C220.275,133.695 224.54,133.765 225.694,133.835 C226.952,133.94 230.204,133.94 230.693,134.045 C231.637,134.22 231.742,134.22 233.525,134.429 C234.749,134.639 235.553,135.234 235.763,136.422 C235.763,136.527 235.798,136.597 235.833,136.702 C235.938,137.156 235.693,137.471 235.203,137.436 C234.679,137.401 234.12,137.401 233.595,137.331 C232.721,137.226 231.812,137.122 230.938,137.017 C230.309,136.947 229.714,136.877 229.085,136.842 C227.687,136.772 226.288,136.737 224.89,136.667 C224.505,136.632 224.156,136.667 223.806,136.667 C223.281,136.702 221.394,136.597 221.009,136.597 C218.387,136.562 211.499,136.282 210.66,136.282 C209.227,136.247 207.758,136.213 206.325,136.213 C205.731,136.213 199.018,136.422 198.529,136.457 C197.48,136.492 196.431,136.527 195.347,136.527 C194.753,136.527 190.382,136.387 189.613,136.352 C188.704,136.317 187.795,136.247 186.886,136.213 C186.502,136.213 183.285,136.108 183.075,136.143 C180.628,136.178 173.461,136.422 172.307,136.562 C171.818,136.597 167.238,136.877 166.538,136.982 C165.699,137.087 164.86,137.156 164.021,137.226 C163.986,137.226 163.951,137.226 163.951,137.226 C162.832,137.296 161.714,137.366 160.595,137.366 C160.071,137.366 145.946,137.751 145.107,137.751 C144.338,137.751 142.485,137.716 142.31,137.716 C140.667,137.646 139.023,137.611 137.38,137.541 C137.136,137.541 134.234,137.226 133.045,137.261 C132.416,137.296 128.325,137.087 127.136,137.122 C126.402,137.122 125.668,137.122 124.934,137.122 C124.34,137.122 118.711,136.807 117.872,136.842 C117.172,136.842 115.494,136.737 115.319,136.737 C114.865,136.737 105.076,136.877 105.006,136.912 C104.411,136.947 97.943,136.807 97.349,136.877 C96.44,136.982 90.846,137.191 90.112,137.471 C89.797,137.576 89.448,137.576 89.133,137.611 C88.434,137.681 82.385,137.996 81.896,138.031 C81.197,138.066 74.519,138.695 73.365,138.66 C72.316,138.52 71.372,138.066 70.428,137.611 C70.114,137.471 68.75,136.387 68.505,135.583 C68.401,135.164 68.401,135.059 68.505,134.849 C68.75,134.464 68.995,134.429 69.38,134.429 C70.778,134.36 73.925,134.185 75.323,134.115 C76.372,134.08 80.812,134.185 81.721,134.185 C82.665,134.185 86.616,134.115 87.665,134.01 C88.294,133.94 88.923,133.905 89.552,133.835 C92.349,133.52 99.272,133.52 99.971,133.486 C101.3,133.416 102.663,133.381 103.992,133.311 C104.901,133.276 111.054,133.555 111.998,133.555 C112.033,133.555 112.068,133.555 112.138,133.555 C114.201,133.52 116.228,133.486 118.291,133.486 C119.27,133.486 120.249,133.555 121.193,133.555 C122.626,133.52 124.06,133.451 125.493,133.381 C126.018,133.346 126.577,133.311 127.101,133.311 C128.5,133.241 129.863,133.171 131.262,133.136 C132.625,133.136 134.024,133.171 135.387,133.206 C136.681,133.241 137.975,133.241 139.268,133.276 C140.457,133.311 141.646,133.381 142.834,133.451 C143.359,133.486 143.848,133.52 144.373,133.52 C145.911,133.555 147.449,133.59 149.023,133.59 C150.281,133.59 151.54,133.555 152.763,133.52 C153.847,133.486 154.966,133.346 156.05,133.276 C156.155,133.276 156.26,133.276 156.33,133.276 C157.274,133.241 158.252,133.241 159.196,133.206 C160.21,133.171 161.259,133.101 162.273,133.031 C163.462,132.961 164.685,132.891 165.874,132.856 C167.098,132.821 168.287,132.786 169.51,132.751 C170.14,132.716 170.804,132.681 171.433,132.681 C172.902,132.681 174.37,132.751 175.873,132.751 C177.272,132.751 178.67,132.681 180.104,132.681 C180.488,132.681 180.838,132.751 181.222,132.751 C182.761,132.716 184.299,132.646 185.837,132.576 C186.921,132.542 188.04,132.472 189.124,132.402 C190.278,132.367 191.396,132.332 192.55,132.332 C195.465,132.281 193.718,132.309 197.791,132.253 z" fill="#5731F2"/>
      <path d="M225.184,65.603 C225.65,65.666 225.466,65.577 225.764,65.799 C226.778,66.813 227.267,67.967 226.918,69.435 C226.848,69.785 226.813,70.17 226.743,70.519 C226.625,71.092 226.406,71.207 225.853,71.252 L225.834,71.288 C225.659,71.848 225.554,72.407 225.344,72.967 C225.134,73.561 224.4,75.938 224.295,76.568 C224.19,77.407 224.086,78.211 223.981,79.05 C223.946,79.4 223.911,79.749 223.876,80.134 C223.841,80.553 223.316,88.28 223.421,88.56 C223.421,88.56 223.701,89.119 223.806,88.56 C224.086,86.811 224.785,81.917 225.134,80.239 C225.589,78.56 226.498,76.533 227.267,75.029 C227.827,73.911 228.491,72.792 229.085,71.708 C229.12,71.638 229.12,71.568 229.155,71.533 C229.575,71.778 229.994,71.988 230.414,72.232 C229.854,73.386 229.33,74.575 228.701,75.694 C228.071,76.777 227.547,77.896 227.162,79.085 C227.03,79.489 226.884,79.889 226.762,80.296 C227.169,80.436 226.997,80.427 227.267,80.413 C227.823,80.223 227.476,80.347 228.301,80.022 C228.565,79.537 228.797,79.033 229.085,78.56 C230.204,76.917 230.169,76.533 230.938,75.694 C231.532,75.064 232.127,74.435 232.791,73.841 C233.368,73.337 233.996,72.897 234.606,72.436 C234.542,72.241 234.394,72.095 234.294,71.918 C233.91,70.729 234.399,70.065 235.029,69.226 C235.569,68.551 236.326,68.613 237.112,68.591 C238.131,68.851 237.736,68.667 238.35,69.016 C238.525,69.156 238.7,69.645 238.839,69.82 C238.874,70.414 238.49,70.974 238.385,71.288 C238,71.778 237.546,72.337 236.987,72.617 C236.559,72.87 236.045,72.853 235.566,72.861 C235.109,73.592 235.357,73.23 234.819,73.946 C233.665,75.169 230.623,79.679 230.623,79.889 L230.593,79.975 C231.048,80.57 230.806,80.271 231.323,80.868 C231.742,81.322 231.952,81.812 232.092,82.406 C232.302,83.28 232.581,84.154 232.826,85.063 L232.727,85.313 C232.806,85.138 232.76,85.244 232.861,84.993 C233.665,83.42 234.294,81.742 234.784,80.029 C235.146,78.552 234.978,79.282 235.291,77.839 L235.273,77.791 C235.238,77.057 235.378,76.323 235.833,75.694 C236.287,75.064 237.616,74.645 238.14,75.169 C238.28,75.309 238.42,75.554 238.385,75.694 C238.315,76.183 238.21,76.707 237.965,77.127 C237.791,77.477 237.371,77.686 237.056,77.931 C236.824,78.18 236.941,78.064 236.707,78.283 C236.643,79.618 236.171,80.881 235.728,82.127 C235.437,82.951 235.161,83.782 234.903,84.618 C234.862,84.753 234.689,85.241 234.68,85.472 C235.655,84.208 235.155,84.846 236.182,83.56 C236.707,82.931 237.231,82.266 237.791,81.672 C237.93,81.497 238.21,81.392 238.455,81.392 C239.364,81.357 240.203,81.497 240.937,82.092 C241.217,82.336 241.636,82.476 241.951,82.686 C242.51,83.036 242.72,83.56 242.755,84.189 C242.79,84.609 242.895,85.028 243,85.448 C243,85.798 243,86.182 243,86.532 C242.615,87.511 242.266,88.49 241.811,89.434 C241.427,90.238 240.902,90.972 240.448,91.706 C239.888,92.615 239.329,93.524 238.7,94.363 C238.245,94.993 237.721,95.587 237.161,96.146 C236.112,97.265 235.134,98.454 234.26,99.677 C234.155,99.817 234.05,99.922 233.91,100.027 C233.945,99.573 233.805,99.223 233.455,98.943 C232.828,98.514 233.2,98.747 232.319,98.281 C232.765,98.584 233.022,98.781 233.42,99.083 C233.77,99.328 233.91,99.712 233.875,100.167 C233.665,100.377 233.49,100.621 233.281,100.831 C232.896,101.286 232.546,101.705 231.917,101.845 C231.567,101.915 231.288,102.16 230.973,102.369 C230.289,102.851 229.483,103.055 228.669,103.173 C228.671,103.233 228.669,103.185 228.701,103.313 C229.295,104.222 229.575,105.236 229.68,106.285 C229.714,106.775 229.819,107.229 229.819,107.719 C229.819,108.418 229.749,109.152 229.749,109.851 C229.749,110.341 229.924,110.795 229.889,111.285 C229.819,112.264 229.68,113.243 229.575,114.187 C229.505,114.886 229.435,115.62 229.4,116.319 C229.365,116.844 229.33,117.333 229.295,117.997 C229.645,117.753 229.924,117.578 230.169,117.403 C231.323,116.494 232.441,115.55 233.63,114.641 C234.469,114.012 235.378,113.522 236.462,113.627 C237.126,113.697 237.721,113.872 238.21,114.361 C238.42,114.536 238.49,114.746 238.385,115.061 C238.175,115.585 237.93,115.935 237.441,116.284 C236.217,117.053 235.099,117.962 233.98,118.871 C232.721,119.85 231.672,121.109 230.274,121.913 C230.134,121.983 229.505,122.403 229.085,122.438 C228.805,123.277 228.526,124.116 228.316,124.955 C228.176,125.444 228.141,125.969 228.071,126.493 C227.966,127.542 227.931,128.626 227.792,129.675 C227.722,130.094 227.372,130.479 227.162,130.863 C226.952,131.248 226.708,131.318 226.288,131.213 C225.554,131.003 224.785,130.968 224.086,130.758 C223.631,130.619 223.212,130.374 222.792,130.164 C221.324,129.43 220.135,128.346 218.841,127.367 C218.387,127.018 218.037,126.493 217.653,126.039 C217.198,125.479 216.674,124.955 216.324,124.36 C215.835,123.486 215.45,122.577 215.065,121.633 C214.926,121.319 215.205,121.004 215.555,121.074 C216.464,121.249 217.338,121.494 218.037,122.088 C219.331,123.137 220.589,124.221 221.883,125.269 C222.442,125.724 223.002,126.144 223.596,126.563 C223.946,126.808 224.121,126.738 224.19,126.353 C224.33,125.549 224.4,124.745 224.54,123.941 C224.645,123.137 224.785,122.298 224.925,121.494 C225.03,120.759 225.134,120.025 225.204,119.291 C225.309,118.242 225.414,117.193 225.519,116.109 C225.519,115.97 225.519,115.83 225.519,115.69 C225.589,112.054 225.624,108.453 225.694,104.817 C225.694,104.502 225.939,104.222 226.078,103.943 L226.377,103.291 C225.205,103.435 224.206,102.857 223.351,102.125 C223.107,101.915 223.072,101.915 222.897,101.67 C222.341,101.143 222.58,101.425 222.167,100.833 C220.535,100.099 219.053,99.091 217.618,98.034 C216.848,97.44 216.254,96.636 215.59,95.902 C215.24,95.517 214.926,95.062 214.576,94.678 C213.772,93.839 213.422,92.755 212.898,91.776 C212.478,90.972 212.094,90.168 211.849,89.294 C211.604,88.56 211.569,87.755 211.464,86.986 C211.429,86.776 211.534,86.497 211.674,86.287 C212.024,85.728 212.513,85.343 213.212,85.168 C213.737,85.028 214.261,84.819 214.751,84.609 C215.901,84.2 215.201,84.395 216.885,84.171 L217.618,84.259 C218.457,84.434 219.296,84.644 220.135,84.854 C220.694,84.993 221.009,85.448 221.254,85.937 C221.394,86.217 221.568,86.532 221.708,86.811 L221.897,87.146 C221.901,86.54 221.911,86.803 221.883,86.357 C221.988,84.609 221.988,84.609 222.093,83.245 C222.093,83.21 222.198,81.742 222.268,81.008 C222.338,80.029 222.617,78.735 222.792,77.791 C223.037,76.428 223.351,75.379 223.666,74.015 C224.26,72.687 224.26,72.687 224.715,71.673 C224.82,71.393 224.89,71.149 224.995,70.869 C225.193,70.787 225.114,70.829 225.237,70.757 C225.126,70.776 225.209,70.76 224.995,70.834 C224.19,70.589 223.911,69.995 223.981,69.226 C224.051,68.387 224.086,67.582 224.26,66.778 C224.365,66.359 224.715,66.009 225.03,65.695 L225.184,65.603 z M226.533,81.637 C226.428,82.371 226.358,83.105 226.288,83.84 L226.533,81.637 z" fill="#5731F2"/>
      <path d="M200.521,51.5 C201.116,51.64 201.78,51.64 202.409,51.64 C203.913,52.094 204.857,53.248 205.836,54.367 C206.115,54.682 206.395,55.031 206.745,55.241 C207.409,55.66 207.654,56.325 207.863,57.024 C208.143,58.108 208.318,59.227 208.283,60.345 C208.283,60.66 208.353,60.94 208.353,61.254 C208.423,62.933 208.143,64.576 207.549,66.149 C207.304,66.778 207.339,66.848 207.933,67.093 C208.632,67.373 209.367,67.547 210.101,67.827 C210.555,68.002 210.975,68.282 211.464,68.456 C212.059,68.666 212.653,68.806 213.247,68.981 C213.912,69.191 214.471,69.54 214.891,70.135 C215.1,70.414 215.38,70.659 215.66,70.904 C216.289,71.463 216.674,72.162 216.918,72.932 C217.268,74.015 217.548,75.064 217.827,76.148 C217.932,76.533 217.897,76.952 217.827,77.302 C217.058,79.05 214.226,80.099 213.562,80.413 C212.898,80.938 212.129,81.287 211.29,81.427 C210.381,81.602 209.507,81.812 208.598,81.917 C207.479,82.022 206.43,81.672 205.381,81.357 C205.346,81.357 205.311,81.357 205.241,81.357 C203.983,80.693 202.689,79.994 201.395,79.295 C201.36,79.435 201.36,79.469 201.36,79.539 L201.363,79.565 C201.368,79.471 201.362,79.539 201.395,79.365 C202.689,80.064 203.983,80.728 205.241,81.427 C205.311,82.127 205.381,82.791 205.416,83.49 C205.451,84.539 205.451,85.588 205.521,86.637 C205.591,87.441 205.731,88.245 205.836,89.049 C205.905,89.573 205.905,90.133 205.94,90.657 C205.975,91.706 206.01,92.755 206.045,93.839 C206.045,93.909 206.045,93.944 206.08,94.118 C206.255,93.944 206.395,93.839 206.465,93.699 C207.304,92.021 208.772,91.252 210.52,90.902 C210.87,90.832 211.22,91.112 211.22,91.496 C211.22,92.3 211.22,93.07 210.87,93.804 C210.66,94.258 210.66,94.783 210.485,95.272 C209.751,97.23 208.388,98.489 206.325,98.943 C206.01,99.013 205.626,99.642 205.661,99.992 C205.801,101.006 205.905,102.02 206.01,103.034 C206.08,103.663 206.185,104.292 206.255,104.922 C206.255,105.027 206.325,105.096 206.535,105.341 C206.675,105.096 206.849,104.852 206.989,104.642 C207.968,103.278 209.367,102.474 210.835,101.81 C211.045,101.74 211.29,101.74 211.499,101.74 C211.779,101.74 211.884,101.985 211.884,102.23 C211.884,102.579 211.919,102.894 211.884,103.244 C211.849,103.453 211.709,103.663 211.569,103.803 C210.276,105.271 208.632,106.285 206.849,107.054 C206.5,107.194 206.395,107.404 206.395,107.754 C206.465,109.537 206.5,111.355 206.57,113.138 C206.605,113.767 206.675,114.361 206.745,115.131 C207.234,114.746 207.654,114.431 208.038,114.117 C209.052,113.243 210.031,112.334 211.115,111.494 C211.569,111.145 212.129,110.725 212.793,110.76 C213.108,110.76 213.422,110.795 213.737,110.865 C214.191,110.935 214.506,111.494 214.576,112.054 C214.681,113.138 214.261,113.977 213.352,114.606 C212.793,114.991 212.303,115.48 211.709,115.76 C210.381,116.354 208.982,116.914 207.444,116.704 C207.269,116.669 207.129,116.669 206.884,116.599 C206.919,117.298 206.954,117.962 207.024,118.662 C207.094,119.466 207.234,120.235 207.339,121.039 C207.479,121.983 207.584,122.927 207.723,123.871 C207.933,125.2 208.213,126.528 208.318,127.857 C208.353,128.346 208.143,129.01 207.828,129.36 C207.444,129.78 206.814,129.989 206.255,130.199 C205.94,130.304 205.556,130.234 205.311,129.919 C205.066,129.57 204.787,129.185 204.647,128.801 C204.367,127.927 204.192,126.983 203.948,126.109 C203.633,124.99 203.213,123.906 202.899,122.787 C202.689,121.983 202.549,121.179 202.374,120.375 C202.165,119.361 201.955,118.347 201.745,117.368 C201.535,116.354 201.291,115.305 201.046,114.291 C201.046,114.222 200.976,113.837 200.906,113.068 C200.906,113.068 200.731,111.949 200.591,110.97 C200.521,110.551 200.277,110.376 199.997,110.166 C199.752,109.991 199.438,109.956 199.158,109.886 C198.843,109.816 196.85,108.942 196.571,108.733 C196.116,108.383 195.592,108.103 195.067,107.858 C193.704,107.264 192.48,106.495 191.711,105.166 C191.396,104.607 191.256,103.978 191.361,103.278 C191.466,102.579 191.711,101.915 192.026,101.321 C192.2,100.971 192.585,100.831 192.9,100.936 C193.914,101.216 194.893,101.565 195.906,101.915 C196.221,102.02 196.466,102.335 196.745,102.579 C197.34,103.139 197.864,103.698 198.459,104.257 C198.913,104.677 199.403,105.062 199.647,105.656 C199.682,105.796 199.822,105.901 199.997,106.075 C200.032,105.831 200.067,105.726 200.067,105.586 C200.067,103.838 200.067,102.055 200.067,100.307 C200.067,99.922 199.927,99.677 199.507,99.607 C198.459,99.433 197.41,99.293 196.326,99.118 C195.836,99.048 195.382,98.908 194.893,98.873 C193.983,98.768 193.109,98.489 192.27,98.104 C191.221,97.615 190.802,96.741 190.627,95.692 C190.557,95.202 190.452,94.713 190.417,94.223 C190.417,94.084 190.557,93.874 190.662,93.839 C193.424,93.105 195.976,93.559 198.284,95.237 C198.843,95.657 199.333,96.146 199.612,96.811 C199.647,96.95 199.752,97.055 199.927,97.3 C199.997,97.02 200.032,96.88 200.032,96.706 C200.032,93.804 200.032,90.902 200.032,88.035 C200.137,87.126 200.032,86.322 199.962,85.518 C200.032,85.413 200.067,85.308 200.137,85.238 C200.77,84.442 201.291,83.525 201.379,82.49 C201.244,83.489 200.702,84.363 200.137,85.168 C200.067,85.238 200.032,85.343 199.962,85.448 C199.333,86.112 198.703,86.776 198.074,87.441 C197.025,88.56 195.697,89.224 194.298,89.783 C193.739,90.028 193.179,90.378 192.585,90.482 C191.256,90.692 189.928,91.042 188.564,90.867 C186.886,90.692 185.313,90.238 184.089,88.944 C182.866,87.685 182.271,86.217 182.446,84.434 C182.551,83.35 182.936,82.301 183.74,81.532 C184.998,80.309 186.257,79.085 187.551,77.896 C188.704,76.847 189.928,75.833 191.117,74.82 C191.221,74.715 191.361,74.61 191.431,74.505 C191.536,74.33 191.536,74.12 191.291,74.085 C190.243,73.911 189.194,73.736 188.145,73.561 C186.991,73.386 185.837,73.211 184.719,73.071 C183.25,73.141 181.152,72.722 179.894,70.799 C179.859,69.89 179.859,69.89 180.104,69.54 C180.908,68.456 181.677,67.373 182.586,66.359 C183.46,65.415 184.439,64.576 185.558,63.946 C186.292,63.527 187.096,63.527 187.9,63.387 C188.285,63.317 188.669,63.282 189.054,63.317 C189.403,63.317 189.718,63.387 190.068,63.492 C191.466,63.807 192.9,64.156 194.298,64.506 C194.508,64.576 194.753,64.681 194.962,64.751 C195.382,64.925 195.627,64.751 195.557,64.296 C195.277,62.478 194.997,60.695 194.753,58.877 C194.648,58.108 194.578,57.339 194.683,56.604 C194.788,56.045 195.172,55.521 195.522,55.066 C196.396,53.877 197.62,53.073 198.878,52.409 C199.438,52.129 199.962,51.815 200.521,51.5 z M201.377,79.726 C201.384,79.804 201.379,79.765 201.394,79.842 L201.377,79.726 z" fill="#5731F2"/>
      <path d="M81.424,99.105 L84.063,99.118 C84.098,99.223 91.021,99.328 94.447,99.398 C95.461,99.398 96.335,99.712 97.209,100.027 C97.314,100.062 97.454,100.202 97.489,100.307 C97.943,102.474 97.664,108.837 97.664,108.942 C97.664,110.376 97.734,111.809 97.664,113.208 C97.524,117.263 97.349,121.319 97.139,125.374 C97.104,126.213 96.964,127.053 96.859,127.857 C96.79,128.486 96.405,128.871 95.776,128.975 C94.692,129.185 93.573,129.36 92.454,129.465 C91.021,129.605 89.587,129.64 88.154,129.71 C87.7,129.745 87.7,129.71 87.734,129.22 C87.804,128.241 87.769,127.297 87.839,126.318 C87.979,124.64 88.189,122.962 88.329,121.284 C88.434,120.025 88.434,118.732 88.434,117.473 C88.434,116.005 88.399,114.571 88.364,113.103 C88.329,112.194 88.014,111.844 87.105,111.774 C85.217,111.599 83.364,111.425 81.476,111.25 C81.267,111.215 81.057,111.18 80.847,111.145 C80.253,111.005 79.868,111.25 79.798,111.844 C79.588,114.291 79.379,116.739 79.204,119.186 C78.994,122.228 78.784,125.235 78.574,128.276 C78.539,128.591 78.539,128.906 78.47,129.22 C78.365,129.78 78.225,129.884 77.665,129.919 C76.092,129.989 74.554,129.745 73.016,129.36 C72.561,129.255 72.107,129.15 71.687,129.01 C71.058,128.836 70.918,128.696 70.918,128.066 C70.953,125.829 70.883,123.556 71.023,121.319 C71.163,119.116 70.813,116.949 70.848,114.746 C70.883,112.264 70.883,109.781 70.988,107.299 C71.058,104.922 71.198,102.509 71.302,100.132 C71.337,99.503 71.407,99.398 72.037,99.363 C74.274,99.258 76.547,99.153 78.784,99.118 L81.424,99.105 z" fill="#5731F2"/>
      <path d="M122.17,63.278 C122.77,63.543 122.52,63.389 122.941,63.702 C125.808,66.009 128.465,68.526 130.912,71.253 C135.213,76.043 139.443,80.868 143.568,85.833 C144.338,86.742 145.107,87.686 145.876,88.629 C146.191,89.014 146.191,89.154 145.841,89.469 C145.352,89.888 144.827,90.273 144.338,90.692 C144.233,90.797 144.093,90.972 144.093,91.112 C143.848,94.014 143.603,96.915 143.429,99.852 C143.289,102.335 143.219,104.782 143.079,107.264 C143.044,107.649 142.974,107.998 142.939,108.383 C142.764,110.061 142.59,111.774 142.45,113.452 C142.205,115.97 142.03,118.522 141.75,121.039 C141.541,122.927 141.191,124.78 140.911,126.668 C140.876,127.018 140.702,127.192 140.317,127.192 C139.583,127.262 133.639,127.262 132.765,127.367 C132.486,127.402 125.983,127.682 125.248,127.787 C124.724,127.857 122.941,127.857 122.591,127.892 C121.752,127.962 120.913,128.066 120.109,128.206 C119.62,128.276 116.893,128.766 116.263,128.801 C115.529,128.836 114.83,129.01 114.096,129.045 C113.292,129.08 108.991,128.94 107.663,129.01 C106.894,129.045 106.754,128.975 106.684,128.206 C106.509,126.563 106.369,124.92 106.159,123.312 C105.95,121.843 105.74,120.34 105.39,118.906 C105.076,117.613 105.006,116.319 105.11,115.026 C105.285,112.963 105.425,110.865 105.6,108.802 C105.635,108.208 105.74,107.649 105.74,107.054 C105.74,106.18 105.67,105.341 105.705,104.467 C105.74,102.474 105.775,100.482 105.81,98.489 C105.81,98.139 105.81,97.789 105.845,97.44 C105.88,97.02 105.67,96.776 105.32,96.706 C103.957,96.461 102.768,95.797 101.544,95.237 C101.02,94.993 100.53,94.783 100.041,94.503 C99.726,94.328 99.447,94.084 99.237,93.804 C98.992,93.524 98.957,93.209 99.167,92.86 C100.181,91.252 101.195,89.643 102.174,88.035 C104.201,84.749 106.789,81.917 108.991,78.805 C110.32,76.952 111.963,75.379 113.117,73.421 C113.536,72.722 114.096,72.093 114.62,71.463 C115.075,70.904 115.564,70.414 116.019,69.855 C116.054,69.82 116.054,69.785 116.088,69.785 C116.788,69.61 116.928,68.911 117.312,68.422 C117.767,67.827 118.326,67.268 118.781,66.673 C119.2,66.149 119.585,65.625 120.004,65.1 C120.319,64.681 120.668,64.261 121.018,63.876 C121.479,63.365 121.514,63.335 122.17,63.278 z M133.544,97.295 C133.416,97.295 133.301,97.359 133.185,97.405 C133.08,97.475 133.01,97.615 132.975,97.72 C132.94,98.244 132.905,98.803 132.94,99.328 C132.94,99.922 133.01,100.551 133.045,101.146 C133.08,102.614 132.695,104.048 132.94,105.516 C132.94,105.586 132.94,105.691 132.94,105.761 C132.87,106.53 132.835,107.299 132.765,108.068 C132.73,108.942 132.765,109.816 132.66,110.69 C132.521,112.019 132.276,113.347 132.101,114.676 C132.031,115.165 132.031,115.655 131.996,116.144 C129.863,116.599 127.731,116.844 125.563,116.809 C124.409,116.809 123.256,116.844 122.102,116.844 C121.612,116.844 121.158,116.809 120.668,116.774 C120.564,116.774 120.459,116.739 120.389,116.774 C118.85,117.018 117.312,116.669 115.809,116.739 C115.809,116.739 115.774,116.739 115.774,116.739 C115.424,116.669 115.179,116.494 115.179,116.109 C115.145,115.55 115.11,114.956 115.04,114.396 C115.005,114.012 115.075,113.802 115.494,113.802 C115.844,113.767 115.984,113.592 115.914,113.243 C115.879,113.103 115.879,112.963 115.844,112.823 C115.599,111.984 115.564,111.11 115.529,110.236 C115.494,109.292 115.319,108.313 115.145,107.369 C114.9,105.831 114.725,104.257 114.201,102.754 C113.886,101.88 113.746,101.006 113.816,100.062 C113.886,99.293 113.746,99.013 113.047,98.698 C112.732,98.559 112.418,98.733 112.418,99.083 C112.418,99.223 112.452,99.363 112.452,99.503 C112.487,100.202 112.487,100.901 112.522,101.6 C112.522,101.88 112.452,102.195 112.557,102.474 C112.802,103.209 112.522,103.943 112.452,104.642 C112.383,105.411 112.068,106.18 111.928,106.949 C111.613,108.733 111.334,110.481 110.984,112.264 C110.704,113.732 110.634,115.165 110.774,116.634 C110.809,117.158 110.634,117.683 110.565,118.207 C110.53,118.382 110.46,118.522 110.46,118.697 C110.495,119.501 110.53,120.27 110.599,121.074 C110.669,121.703 110.704,121.703 111.369,121.633 C112.767,121.459 114.166,121.319 115.564,121.109 C118.711,120.655 121.857,120.585 125.004,120.55 C127.451,120.55 129.933,120.655 132.381,120.689 C133.465,120.724 134.548,120.689 135.597,120.689 C135.632,120.759 135.772,120.759 135.982,120.759 C135.982,120.515 135.982,120.34 135.947,120.165 C135.422,118.102 135.248,115.97 134.933,113.837 C134.583,111.425 134.164,109.047 133.814,106.635 C133.744,106.25 133.849,105.866 133.884,105.481 C133.884,105.341 133.954,105.201 133.954,105.062 C134.164,102.754 134.339,100.447 134.513,98.139 C134.513,97.929 134.478,97.615 134.339,97.475 C134.145,97.333 134.272,97.408 133.93,97.299 C133.679,97.3 133.808,97.301 133.544,97.295 z M130.458,107.824 C130.003,107.928 129.898,108.243 129.863,108.593 C129.828,108.942 129.689,109.082 129.374,109.082 C127.976,109.117 126.612,109.117 125.214,109.152 C124.934,109.152 124.654,109.187 124.339,109.187 C124.305,110.551 124.27,111.914 124.235,113.243 C124.235,113.557 124.409,113.732 124.724,113.767 C125.144,113.837 125.563,113.907 126.018,113.942 C127.416,114.047 128.815,114.117 130.248,114.187 C131.087,114.222 131.192,114.082 131.122,113.243 C130.947,111.599 130.807,109.921 130.633,108.278 C130.563,108.138 130.493,107.998 130.458,107.824 z M118.431,108.942 C118.431,108.977 118.431,109.012 118.431,109.012 C118.151,109.012 117.837,108.977 117.557,109.012 C117.207,109.047 116.963,109.152 116.998,109.607 C117.067,110.725 117.102,111.879 117.172,112.998 C117.207,113.557 117.277,113.592 117.872,113.557 C119.2,113.522 120.564,113.487 121.892,113.557 C122.696,113.592 122.801,113.592 122.731,112.788 C122.626,111.739 122.452,110.725 122.277,109.676 C122.207,109.292 121.997,109.187 121.578,109.187 C121.053,109.187 120.494,109.187 119.969,109.152 C119.445,109.117 118.92,109.012 118.431,108.942 z M128.039,98.181 C127.917,98.18 127.807,98.237 127.696,98.279 C127.416,98.419 127.136,98.524 126.857,98.629 C126.192,98.803 125.563,98.908 124.899,99.083 C124.339,99.223 124.095,99.468 124.095,99.957 C124.095,101.041 124.13,102.09 124.165,103.174 C124.165,103.593 124.444,103.803 124.864,103.733 C125.109,103.698 125.353,103.628 125.598,103.663 C126.892,103.663 128.08,103.733 129.409,103.803 C129.689,103.838 129.863,103.663 129.759,103.313 C129.479,102.055 129.164,100.796 128.885,99.538 C128.85,99.398 128.78,99.258 128.815,99.153 C128.989,98.803 128.85,98.524 128.605,98.314 L128.404,98.186 C128.167,98.186 128.288,98.187 128.039,98.181 z M116.963,99.538 C116.648,99.538 116.473,99.677 116.473,100.027 C116.508,100.377 116.473,100.761 116.473,101.146 C116.438,101.146 116.403,101.146 116.368,101.146 C116.438,101.81 116.473,102.439 116.543,103.104 C116.578,103.383 116.683,103.663 117.102,103.558 C118.256,103.244 119.41,103.034 120.634,103.244 C120.983,103.313 121.158,103.139 121.193,102.754 C121.263,101.845 121.438,100.936 121.193,100.027 C121.088,99.642 120.983,99.538 120.634,99.573 C119.55,99.573 118.466,99.573 117.382,99.573 L116.963,99.538 z M122.079,85.755 L121.962,85.902 C121.612,86.602 121.053,87.231 120.703,87.895 C120.284,88.629 118.536,90.867 118.256,91.426 C118.256,91.461 118.221,91.461 118.221,91.496 C117.277,92.755 116.298,94.014 115.354,95.272 C115.214,95.447 115.145,95.622 114.97,95.902 C115.459,95.867 115.809,95.832 116.158,95.797 C117.102,95.692 118.081,95.517 119.025,95.517 C119.969,95.517 120.878,95.692 121.822,95.727 C124.619,95.902 127.416,96.041 130.248,96.216 C130.633,96.251 130.877,96.111 130.877,95.727 C130.912,95.237 130.947,94.713 130.912,94.223 C130.912,94.118 130.633,93.909 130.493,93.909 C129.968,93.909 128.989,92.615 128.745,92.335 C128.465,92.056 128.15,91.811 127.906,91.531 C126.997,90.552 126.123,89.538 125.179,88.56 C124.305,87.651 123.396,86.776 122.521,85.902 C122.291,85.714 122.432,85.779 122.079,85.755 z" fill="#5731F2"/>
      <path d="M167.832,83.105 C168.601,83.105 172.307,83.245 173.391,83.28 C174.65,83.315 175.873,83.35 177.132,83.455 C177.971,83.525 178.845,83.7 179.684,83.875 C180.174,83.98 180.523,84.189 180.593,84.784 C180.663,85.588 180.873,86.357 180.733,87.161 C180.593,88.105 179.894,88.699 179.09,88.874 C178.6,88.979 178.111,88.979 177.551,89.084 C177.796,89.154 178.041,89.224 178.286,89.294 C178.88,89.399 179.509,89.504 180.104,89.643 C180.139,89.643 180.174,89.643 180.174,89.643 C180.873,89.818 181.152,90.238 181.257,90.727 C181.257,91.322 181.222,91.916 181.222,92.51 C181.222,93.244 181.292,93.979 181.292,94.713 C181.292,95.377 181.292,96.041 181.292,96.706 C181.327,98.489 181.327,100.237 181.397,102.02 C181.432,102.859 181.572,105.341 181.572,105.761 C181.572,106.18 181.572,106.565 181.572,106.984 C181.537,107.963 181.922,113.872 181.922,115.48 C181.887,117.893 181.922,120.305 181.922,122.717 C181.922,123.102 181.887,123.486 181.817,123.871 C181.712,124.5 181.118,124.955 180.418,124.955 C179.265,124.99 178.076,125.025 176.922,125.025 C176.048,125.06 175.139,125.095 174.265,125.095 C173.321,125.13 172.342,125.13 171.398,125.165 C170.14,125.2 168.881,125.269 167.622,125.339 C167.308,125.339 167.168,125.235 167.168,124.92 C167.168,124.92 167.168,124.885 167.168,124.885 C167.133,122.612 167.098,120.305 167.098,118.032 C167.098,117.298 167.098,116.529 167.098,115.795 C167.063,114.571 167.028,113.313 167.028,112.089 C167.028,111.355 166.993,109.047 166.923,108.593 C163.776,108.488 160.7,108.313 157.553,108.767 C157.518,109.047 157.448,109.362 157.448,109.676 C157.448,111.005 157.413,112.369 157.448,113.697 C157.483,115.096 157.553,116.494 157.588,117.893 C157.588,118.347 157.518,118.836 157.518,119.291 C157.553,120.969 157.658,123.242 157.693,124.885 C157.553,126.109 156.924,125.864 155.456,125.969 C154.092,125.759 152.763,125.409 151.365,125.479 C151.225,125.479 151.12,125.479 150.98,125.479 C150.316,125.409 150.176,125.235 150.106,124.535 C150.036,123.312 149.897,122.053 149.792,120.829 L149.792,115.83 C149.792,114.781 149.827,113.732 149.897,112.683 C149.932,111.984 150.036,106.39 149.862,105.446 C149.827,105.201 149.897,101.006 149.862,100.482 L149.862,92.196 C149.862,91.601 149.687,91.391 149.092,91.356 C148.813,91.322 148.708,91.252 148.673,90.937 C148.498,89.888 148.568,89.818 149.582,89.748 C150.631,89.678 151.68,89.538 152.763,89.434 C153.323,89.364 153.917,89.329 154.477,89.259 C154.581,89.259 154.721,89.189 154.826,89.154 C154.826,89.119 154.826,89.049 154.791,89.014 C154.442,89.014 154.057,89.014 153.707,89.014 C152.659,88.979 149.652,88.455 149.058,88.28 C148.009,88 147.414,87.161 147.449,86.182 C147.484,85.763 147.449,85.308 147.449,84.889 C147.449,84.819 147.449,84.714 147.449,84.644 C147.449,83.735 147.589,83.56 148.463,83.49 C148.988,83.455 149.477,83.42 150.001,83.42 C152.064,83.385 154.092,83.35 156.155,83.315 C157.343,83.28 158.532,83.28 159.721,83.245 C160.42,83.21 161.119,83.175 161.854,83.175 C162.728,83.175 166.713,83.105 167.832,83.105 z M152.788,91.492 L152.064,91.496 C151.959,91.496 151.924,92.161 151.924,92.265 C152.029,93.699 152.134,96.636 152.134,96.636 C152.134,97.265 152.099,97.859 152.134,98.489 C152.204,99.328 152.414,99.817 153.358,99.747 C153.777,99.712 154.197,99.677 154.651,99.677 C155.595,99.642 155.665,99.607 155.63,98.664 C155.63,98.489 155.63,98.314 155.63,98.104 C155.63,97.58 155.665,97.055 155.7,96.566 C155.735,96.181 155.805,95.797 155.805,95.412 C155.77,94.433 155.7,93.419 155.665,92.44 C155.63,91.916 155.491,91.601 154.966,91.566 C153.772,91.473 154.497,91.514 152.788,91.492 z M177.061,91.012 C176.306,91.035 176.632,91.026 176.083,91.042 C175.803,91.042 175.559,91.077 175.279,91.077 C174.929,91.042 174.58,91.217 174.51,91.566 C174.44,91.986 174.335,92.405 174.37,92.825 C174.405,94.014 174.51,95.237 174.615,96.426 C174.685,97.23 174.824,98.034 174.964,98.838 C174.964,98.908 175.104,99.013 175.174,99.048 C175.978,99.188 176.782,99.328 177.551,99.468 C178.006,99.573 178.146,99.468 178.146,98.978 C178.111,97.999 178.041,96.985 178.216,96.006 C178.286,95.587 178.321,95.167 178.286,94.783 C178.286,94.293 178.216,93.279 178.216,93.279 C178.216,92.93 178.216,92.615 178.216,92.265 C178.216,91.601 177.901,91.112 177.377,91.042 L177.061,91.012 z M158.541,91.374 L158.043,91.461 C157.903,91.496 157.763,91.706 157.763,91.811 C157.763,92.265 157.798,92.685 157.833,93.14 C157.868,93.629 157.938,94.118 158.008,94.608 C158.043,94.923 158.113,95.237 158.183,95.552 C158.322,96.321 158.532,97.789 158.497,97.789 C158.497,98.139 158.462,98.489 158.497,98.838 C158.532,98.978 158.707,99.188 158.847,99.188 C159.161,99.223 159.511,99.223 159.861,99.188 C160.525,99.118 160.595,99.013 160.595,98.314 C160.595,97.859 160.525,97.37 160.595,96.915 C160.735,96.111 160.7,95.307 160.595,94.503 C160.49,93.769 160.315,93.035 160.49,92.3 C160.595,91.916 160.42,91.706 160.036,91.566 C159.215,91.353 159.709,91.447 158.541,91.374 z M164.406,91.147 C163.846,91.147 163.252,91.322 162.693,91.426 C162.588,91.461 162.448,91.636 162.448,91.741 C162.448,92.37 162.483,93 162.553,93.594 C162.658,94.503 162.832,95.412 162.937,96.321 C163.042,97.055 163.112,97.755 163.217,98.489 C163.217,98.594 163.392,98.733 163.497,98.733 C164.161,98.768 164.79,98.803 165.455,98.838 C165.699,98.838 165.909,98.873 166.154,98.908 C166.643,98.978 166.923,98.838 166.993,98.314 C167.063,97.755 167.133,97.195 167.168,96.636 C167.168,95.272 167.133,93.874 167.133,92.44 C167.098,92.44 167.063,92.056 167.063,91.846 C167.098,91.566 166.958,91.356 166.678,91.322 C165.909,91.252 165.175,91.147 164.406,91.147 z M169.211,91.036 C168.783,91.111 168.26,91.263 168.147,91.741 C168.147,92.58 168.182,93.419 168.217,94.293 C168.322,95.622 168.461,96.915 168.531,98.244 C168.566,98.803 168.601,98.873 169.161,98.838 C169.825,98.873 170.489,98.803 171.223,98.768 C171.328,98.174 171.433,97.545 171.503,96.915 C171.538,96.461 171.538,95.971 171.503,95.517 C171.468,94.293 171.398,93.07 171.328,91.846 C171.293,91.391 171.153,91.252 170.699,91.217 C170.244,91.182 169.825,91.112 169.405,91.042 L169.211,91.036 z" fill="#5731F2"/>
      <path d="M192.168,110.372 L192.41,110.376 C193.04,110.446 193.669,110.551 194.298,110.516 C194.962,110.516 195.592,110.69 196.116,111.04 C196.466,111.285 196.78,111.634 197.06,111.949 C197.55,112.473 197.969,113.033 198.459,113.557 C198.598,113.732 200.277,115.48 200.451,115.62 C200.906,115.97 201.256,116.389 201.43,116.949 C201.605,117.543 201.43,117.753 200.836,117.823 C200.137,117.893 199.403,118.032 198.494,118.172 C198.004,118.032 197.305,117.893 196.676,117.648 C195.662,117.263 194.683,116.809 193.704,116.319 C192.865,115.9 192.165,115.27 191.641,114.466 C191.466,114.187 191.361,113.872 191.361,113.522 C191.291,112.578 191.361,111.669 191.676,110.795 C191.866,110.441 191.722,110.603 192.168,110.372 z" fill="#5731F2"/>
      <path d="M86.454,72.874 L86.86,72.967 C87.21,73.106 87.979,73.701 88.084,73.841 C89.273,75.484 89.832,76.777 90.601,78.421 C91.825,80.693 93.119,82.896 94.272,85.168 C94.937,86.462 95.461,87.86 95.985,89.224 C96.58,90.762 97.104,92.335 97.664,93.909 C97.978,94.748 98.118,95.622 97.978,96.531 C97.873,97.09 97.664,97.335 97.069,97.37 C96.44,97.405 95.811,97.44 95.181,97.44 C93.783,97.475 92.419,97.545 91.021,97.51 C88.888,97.44 86.721,97.335 84.588,97.23 C83.154,97.16 81.791,97.125 80.113,97.055 C78.539,97.125 76.687,97.23 74.799,97.335 C74.344,97.37 73.855,97.23 73.4,97.23 C72.631,97.195 71.862,97.195 71.128,97.195 C70.603,97.195 70.428,96.985 70.533,96.461 C70.568,96.286 70.638,96.146 70.708,96.006 C72.246,93.035 73.82,90.063 75.358,87.091 C76.197,85.483 76.931,83.84 77.84,82.301 C78.609,80.973 83.889,74.994 85.392,73.351 C85.912,72.905 85.581,73.107 86.454,72.874 z" fill="#5731F2"/>
      <path d="M229.648,66.447 L229.819,66.534 C230.274,66.883 230.763,67.233 231.218,67.617 C231.358,67.757 231.463,67.932 231.567,68.107 C231.742,68.387 231.917,68.666 232.057,68.946 C232.267,69.261 232.337,69.61 232.197,69.995 C231.952,70.659 231.602,71.253 231.113,71.708 C230.938,71.953 230.658,72.058 230.449,72.197 C230.029,71.953 229.61,71.743 229.19,71.498 C229.05,70.799 228.91,70.065 228.736,69.366 C228.526,68.387 228.701,67.478 229.26,66.638 C229.434,66.438 229.316,66.522 229.648,66.447 z" fill="#5731F2"/>
    </g>
    <path d="M913.89,70.016 L894.898,70.016 L894.898,359.15 L913.89,359.15 L913.89,427.181 L894.898,427.181 L894.898,642.614 L913.89,642.614 L913.89,710.646 L894.898,710.646 L894.898,999.78 L913.89,999.78 L913.89,1058.457 L894.898,1058.457 L894.898,1058.457 L855.213,1058.457 L855.213,1039.465 L514.661,1039.465 L514.661,1058.457 L446.63,1058.457 L446.63,1039.465 L70.016,1039.465 L70.016,1058.457 L30.331,1058.457 L30.331,1058.457 L11.339,1058.457 L11.339,999.78 L30.331,999.78 L30.331,710.646 L11.339,710.646 L11.339,642.614 L30.331,642.614 L30.331,428.181 L11.339,428.181 L11.339,360.15 L30.331,360.15 L30.331,70.016 L11.339,70.016 L11.339,11.339 L70.016,11.339 L70.016,30.331 L446.63,30.331 L446.63,11.339 L514.661,11.339 L514.661,30.331 L855.213,30.331 L855.213,11.339 L913.89,11.339 L913.89,70.016 z" fill-opacity="0" stroke="#000000" stroke-width="1"/>
    <path d="M1827.677,70.016 L1808.685,70.016 L1808.685,359.15 L1827.677,359.15 L1827.677,427.181 L1808.685,427.181 L1808.685,642.614 L1827.677,642.614 L1827.677,710.646 L1808.685,710.646 L1808.685,999.78 L1827.677,999.78 L1827.677,1058.457 L1808.685,1058.457 L1808.685,1058.457 L1769,1058.457 L1769,1039.465 L1428.449,1039.465 L1428.449,1058.457 L1360.417,1058.457 L1360.417,1039.465 L983.803,1039.465 L983.803,1058.457 L944.118,1058.457 L944.118,1058.457 L925.126,1058.457 L925.126,999.78 L944.118,999.78 L944.118,710.646 L925.126,710.646 L925.126,642.614 L944.118,642.614 L944.118,428.181 L925.126,428.181 L925.126,360.15 L944.118,360.15 L944.118,70.016 L925.126,70.016 L925.126,11.339 L983.803,11.339 L983.803,30.331 L1360.417,30.331 L1360.417,11.339 L1428.449,11.339 L1428.449,30.331 L1769,30.331 L1769,11.339 L1827.677,11.339 L1827.677,70.016 z" fill-opacity="0" stroke="#000000" stroke-width="1"/>
  </g>
</svg>
