<?xml version="1.0" encoding="UTF-8"?>
<!DOCTYPE svg PUBLIC "-//W3C//DTD SVG 1.1//EN" "http://www.w3.org/Graphics/SVG/1.1/DTD/svg11.dtd">
<svg version="1.1" xmlns="http://www.w3.org/2000/svg" xmlns:xlink="http://www.w3.org/1999/xlink" x="0" y="0" width="200" height="200" viewBox="0, 0, 200, 200">
  <g id="Layer_1">
    <g id="logo">
      <path d="M8.822,9.383 C8.952,9.383 9.082,9.383 9.208,9.394 C9.305,9.401 9.402,9.409 9.5,9.441 C9.554,9.459 9.583,9.52 9.593,9.571 C9.601,9.618 9.615,9.661 9.626,9.708 C9.629,9.73 9.629,9.744 9.601,9.758 C9.525,9.758 9.449,9.758 9.374,9.762 C9.334,9.762 9.294,9.769 9.255,9.776 C9.244,9.776 9.042,9.791 8.955,9.787 C8.84,9.784 8.725,9.791 8.606,9.794 C8.508,9.798 8.411,9.809 8.314,9.809 C8.263,9.809 8.209,9.82 8.159,9.82 C8.094,9.82 8.065,9.82 7.996,9.82 C7.885,9.809 7.795,9.784 7.787,9.679 C7.784,9.611 7.795,9.538 7.805,9.466 C7.809,9.427 7.86,9.398 7.91,9.394 C7.957,9.394 8.004,9.394 8.054,9.394 C8.051,9.387 8.35,9.383 8.498,9.383 L8.822,9.383 z" fill="#5731F2"/>
      <path d="M11.983,9.391 C12.07,9.391 12.283,9.423 12.308,9.427 C12.344,9.427 12.366,9.448 12.373,9.477 C12.384,9.542 12.394,9.607 12.398,9.675 C12.402,9.744 12.391,9.744 12.337,9.755 C12.196,9.784 12.056,9.805 11.911,9.798 C11.8,9.794 11.688,9.798 11.58,9.798 C11.511,9.798 11.439,9.791 11.371,9.791 C11.313,9.791 10.909,9.798 10.83,9.809 C10.812,9.812 10.736,9.802 10.718,9.802 C10.632,9.802 10.545,9.805 10.455,9.809 C10.401,9.809 10.336,9.668 10.325,9.65 C10.293,9.528 10.325,9.52 10.358,9.459 C10.383,9.412 10.423,9.405 10.469,9.409 C10.534,9.412 10.599,9.416 10.668,9.416 C10.697,9.416 11.183,9.391 11.241,9.391 L11.983,9.391 z" fill="#5731F2"/>
      <path d="M13.209,9.355 C13.339,9.358 13.465,9.362 13.595,9.365 C13.649,9.369 13.703,9.373 13.757,9.373 C13.858,9.373 13.955,9.376 14.056,9.369 C14.161,9.362 14.262,9.391 14.366,9.391 C14.492,9.391 14.622,9.405 14.748,9.416 C14.86,9.42 14.936,9.441 15.022,9.506 C15.037,9.528 15.04,9.538 15.037,9.578 C15.037,9.618 15.026,9.668 15.001,9.69 C14.947,9.737 14.882,9.766 14.802,9.769 C14.489,9.773 14.179,9.791 13.865,9.787 C13.696,9.787 13.526,9.755 13.353,9.737 C13.288,9.73 13.224,9.726 13.159,9.722 C13.108,9.719 13.072,9.697 13.051,9.657 C13.043,9.643 13.043,9.621 13.043,9.603 C13.043,9.593 13.065,9.459 13.094,9.409 C13.119,9.362 13.162,9.355 13.209,9.355 z" fill="#5731F2"/>
      <path d="M16.515,9.325 C16.56,9.325 16.542,9.325 16.569,9.326 C16.641,9.333 16.713,9.34 16.789,9.347 C16.882,9.358 16.976,9.362 17.066,9.376 C17.16,9.391 17.211,9.484 17.174,9.578 C17.167,9.603 17.167,9.629 17.156,9.654 C17.128,9.704 17.009,9.715 16.962,9.73 C16.828,9.755 16.774,9.766 16.681,9.758 C16.67,9.758 16.659,9.755 16.652,9.755 C16.511,9.744 16.111,9.701 16.071,9.697 C16.028,9.693 15.985,9.69 15.942,9.693 C15.898,9.693 15.855,9.704 15.812,9.704 C15.725,9.704 15.642,9.697 15.556,9.693 C15.549,9.693 15.541,9.69 15.534,9.686 C15.487,9.661 15.444,9.557 15.455,9.495 C15.469,9.42 15.509,9.376 15.585,9.369 C15.754,9.358 15.924,9.347 16.082,9.337 C16.226,9.327 16.371,9.325 16.515,9.325 z" fill="#5731F2"/>
      <path d="M5.552,9.34 C5.697,9.344 5.841,9.351 5.985,9.358 C6.035,9.362 6.086,9.365 6.133,9.365 C6.248,9.373 6.371,9.362 6.482,9.387 C6.641,9.423 6.796,9.409 6.955,9.42 C7.038,9.423 7.07,9.553 7.077,9.582 C7.081,9.607 7.084,9.632 7.084,9.657 C7.084,9.712 7.077,9.719 7.02,9.722 C6.958,9.722 6.897,9.722 6.832,9.726 C6.785,9.73 6.742,9.737 6.695,9.737 C6.576,9.737 6.457,9.73 6.338,9.73 C6.18,9.73 6.021,9.737 5.859,9.737 C5.834,9.737 5.808,9.73 5.783,9.73 C5.761,9.73 5.74,9.73 5.718,9.73 C5.639,9.733 5.56,9.726 5.509,9.65 C5.502,9.639 5.498,9.621 5.495,9.607 C5.488,9.553 5.48,9.502 5.469,9.448 C5.455,9.387 5.491,9.337 5.552,9.34 z" fill="#5731F2"/>
      <path d="M4.09,9.336 L4.107,9.337 C4.208,9.344 4.305,9.337 4.406,9.34 C4.475,9.34 4.543,9.337 4.608,9.351 C4.68,9.369 4.727,9.474 4.705,9.549 C4.702,9.567 4.698,9.585 4.691,9.6 C4.666,9.679 4.608,9.708 4.525,9.701 C4.428,9.693 4.33,9.704 4.233,9.708 C4.172,9.708 4.11,9.708 4.046,9.708 C4.006,9.708 3.57,9.69 3.537,9.69 C3.501,9.69 3.054,9.65 3.007,9.647 C2.942,9.639 2.885,9.56 2.874,9.513 C2.856,9.43 2.878,9.405 2.968,9.394 C3.047,9.391 3.13,9.38 3.245,9.365 C3.335,9.365 3.454,9.365 3.577,9.365 C3.748,9.358 3.919,9.341 4.09,9.336 z" fill="#5731F2"/>
      <path d="M1.369,9.318 L1.407,9.319 C1.576,9.322 1.746,9.326 1.915,9.333 C1.93,9.333 1.955,9.351 1.955,9.362 C1.958,9.416 1.958,9.466 1.951,9.52 C1.948,9.56 1.915,9.578 1.875,9.585 C1.811,9.596 1.742,9.611 1.677,9.618 C1.587,9.629 1.497,9.636 1.407,9.643 C1.241,9.657 1.072,9.668 0.906,9.69 C0.762,9.712 0.625,9.708 0.491,9.654 C0.437,9.632 0.415,9.607 0.415,9.546 C0.412,9.423 0.466,9.358 0.588,9.333 C0.625,9.326 0.661,9.329 0.697,9.329 C0.844,9.329 0.992,9.329 1.136,9.329 C1.139,9.329 1.142,9.327 1.144,9.327 C1.219,9.318 1.294,9.318 1.369,9.318 z" fill="#5731F2"/>
      <path d="M13.339,8.326 L13.519,8.327 C13.692,8.327 13.862,8.342 14.031,8.352 C14.132,8.356 14.237,8.363 14.337,8.371 C14.478,8.378 14.622,8.389 14.763,8.396 C14.882,8.403 15.001,8.41 15.12,8.421 C15.26,8.432 15.397,8.45 15.538,8.464 C15.657,8.475 16.097,8.482 16.216,8.489 C16.345,8.5 16.681,8.5 16.731,8.511 C16.828,8.529 16.839,8.529 17.023,8.551 C17.149,8.572 17.232,8.634 17.254,8.756 C17.254,8.767 17.257,8.774 17.261,8.785 C17.272,8.832 17.247,8.864 17.196,8.861 C17.142,8.857 17.084,8.857 17.03,8.85 C16.94,8.839 16.846,8.828 16.756,8.818 C16.691,8.81 16.63,8.803 16.565,8.799 C16.421,8.792 16.277,8.789 16.133,8.781 C16.093,8.778 16.057,8.781 16.021,8.781 C15.967,8.785 15.772,8.774 15.733,8.774 C15.462,8.771 14.752,8.742 14.665,8.742 C14.518,8.738 14.366,8.735 14.218,8.735 C14.157,8.735 13.465,8.756 13.415,8.76 C13.306,8.763 13.198,8.767 13.087,8.767 C13.025,8.767 12.575,8.753 12.495,8.749 C12.402,8.745 12.308,8.738 12.214,8.735 C12.175,8.735 11.843,8.724 11.821,8.727 C11.569,8.731 10.83,8.756 10.711,8.771 C10.66,8.774 10.188,8.803 10.116,8.814 C10.03,8.825 9.943,8.832 9.857,8.839 C9.853,8.839 9.849,8.839 9.849,8.839 C9.734,8.846 9.619,8.854 9.503,8.854 C9.449,8.854 7.993,8.893 7.906,8.893 C7.827,8.893 7.636,8.89 7.618,8.89 C7.449,8.882 7.279,8.879 7.11,8.872 C7.084,8.872 6.785,8.839 6.663,8.843 C6.598,8.846 6.176,8.825 6.053,8.828 C5.978,8.828 5.902,8.828 5.826,8.828 C5.765,8.828 5.185,8.796 5.098,8.799 C5.026,8.799 4.853,8.789 4.835,8.789 C4.788,8.789 3.779,8.803 3.772,8.807 C3.71,8.81 3.043,8.796 2.982,8.803 C2.888,8.814 2.312,8.836 2.236,8.864 C2.203,8.875 2.167,8.875 2.135,8.879 C2.063,8.886 1.439,8.918 1.389,8.922 C1.317,8.926 0.628,8.991 0.509,8.987 C0.401,8.973 0.304,8.926 0.206,8.879 C0.174,8.864 0.033,8.753 0.008,8.67 C-0.003,8.626 -0.003,8.616 0.008,8.594 C0.033,8.554 0.059,8.551 0.098,8.551 C0.242,8.544 0.567,8.526 0.711,8.518 C0.819,8.515 1.277,8.526 1.371,8.526 C1.468,8.526 1.875,8.518 1.984,8.507 C2.048,8.5 2.113,8.497 2.178,8.489 C2.467,8.457 3.18,8.457 3.252,8.453 C3.389,8.446 3.53,8.443 3.667,8.435 C3.761,8.432 4.395,8.461 4.493,8.461 C4.496,8.461 4.5,8.461 4.507,8.461 C4.72,8.457 4.929,8.453 5.141,8.453 C5.242,8.453 5.343,8.461 5.441,8.461 C5.588,8.457 5.736,8.45 5.884,8.443 C5.938,8.439 5.996,8.435 6.05,8.435 C6.194,8.428 6.335,8.421 6.479,8.417 C6.619,8.417 6.764,8.421 6.904,8.425 C7.038,8.428 7.171,8.428 7.304,8.432 C7.427,8.435 7.549,8.443 7.672,8.45 C7.726,8.453 7.777,8.457 7.831,8.457 C7.989,8.461 8.148,8.464 8.31,8.464 C8.44,8.464 8.57,8.461 8.696,8.457 C8.808,8.453 8.923,8.439 9.035,8.432 C9.046,8.432 9.056,8.432 9.064,8.432 C9.161,8.428 9.262,8.428 9.359,8.425 C9.464,8.421 9.572,8.414 9.676,8.407 C9.799,8.399 9.925,8.392 10.048,8.389 C10.174,8.385 10.296,8.381 10.423,8.378 C10.487,8.374 10.556,8.371 10.621,8.371 C10.772,8.371 10.924,8.378 11.079,8.378 C11.223,8.378 11.367,8.371 11.515,8.371 C11.554,8.371 11.591,8.378 11.63,8.378 C11.789,8.374 11.947,8.367 12.106,8.36 C12.218,8.356 12.333,8.349 12.445,8.342 C12.564,8.338 12.679,8.334 12.798,8.334 C13.099,8.329 12.919,8.332 13.339,8.326 z" fill="#5731F2"/>
      <path d="M16.163,1.454 C16.211,1.461 16.192,1.451 16.223,1.474 C16.327,1.579 16.378,1.698 16.342,1.849 C16.335,1.885 16.331,1.925 16.324,1.961 C16.312,2.02 16.289,2.032 16.232,2.037 L16.23,2.04 C16.212,2.098 16.201,2.156 16.18,2.213 C16.158,2.275 16.082,2.52 16.071,2.585 C16.061,2.671 16.05,2.754 16.039,2.841 C16.035,2.877 16.032,2.913 16.028,2.952 C16.025,2.996 15.97,3.792 15.981,3.821 C15.981,3.821 16.01,3.879 16.021,3.821 C16.05,3.641 16.122,3.136 16.158,2.963 C16.205,2.79 16.299,2.581 16.378,2.426 C16.435,2.311 16.504,2.195 16.565,2.084 C16.569,2.076 16.569,2.069 16.572,2.066 C16.616,2.091 16.659,2.112 16.702,2.138 C16.645,2.257 16.59,2.379 16.526,2.495 C16.461,2.606 16.407,2.722 16.367,2.844 C16.353,2.886 16.338,2.927 16.326,2.969 C16.368,2.984 16.35,2.983 16.378,2.981 C16.435,2.962 16.399,2.974 16.484,2.941 C16.512,2.891 16.536,2.839 16.565,2.79 C16.681,2.621 16.677,2.581 16.756,2.495 C16.818,2.43 16.879,2.365 16.947,2.304 C17.007,2.252 17.072,2.206 17.135,2.159 C17.128,2.139 17.113,2.123 17.102,2.105 C17.063,1.983 17.113,1.914 17.178,1.828 C17.234,1.758 17.312,1.765 17.393,1.762 C17.498,1.789 17.457,1.77 17.521,1.806 C17.539,1.82 17.557,1.871 17.571,1.889 C17.575,1.95 17.535,2.008 17.524,2.04 C17.485,2.091 17.438,2.149 17.38,2.177 C17.336,2.203 17.283,2.202 17.234,2.203 C17.186,2.278 17.212,2.241 17.156,2.314 C17.038,2.44 16.724,2.906 16.724,2.927 L16.721,2.936 C16.768,2.997 16.743,2.967 16.796,3.028 C16.839,3.075 16.861,3.125 16.875,3.187 C16.897,3.277 16.926,3.367 16.951,3.461 L16.941,3.486 C16.949,3.468 16.944,3.479 16.955,3.453 C17.038,3.291 17.102,3.118 17.153,2.942 C17.19,2.789 17.173,2.865 17.205,2.716 L17.203,2.711 C17.2,2.635 17.214,2.559 17.261,2.495 C17.308,2.43 17.445,2.386 17.499,2.44 C17.513,2.455 17.528,2.48 17.524,2.495 C17.517,2.545 17.506,2.599 17.481,2.642 C17.463,2.678 17.42,2.7 17.387,2.725 C17.363,2.751 17.375,2.739 17.351,2.762 C17.345,2.899 17.296,3.029 17.25,3.158 C17.22,3.243 17.192,3.329 17.165,3.415 C17.161,3.429 17.143,3.479 17.142,3.503 C17.243,3.373 17.191,3.438 17.297,3.306 C17.351,3.241 17.405,3.172 17.463,3.111 C17.477,3.093 17.506,3.082 17.531,3.082 C17.625,3.079 17.712,3.093 17.787,3.154 C17.816,3.179 17.859,3.194 17.892,3.216 C17.95,3.252 17.971,3.306 17.975,3.371 C17.978,3.414 17.989,3.457 18,3.5 C18,3.536 18,3.576 18,3.612 C17.96,3.713 17.924,3.814 17.877,3.911 C17.838,3.994 17.784,4.07 17.737,4.146 C17.679,4.239 17.621,4.333 17.557,4.42 C17.51,4.484 17.456,4.546 17.398,4.603 C17.29,4.719 17.189,4.841 17.099,4.968 C17.088,4.982 17.077,4.993 17.063,5.004 C17.066,4.957 17.052,4.921 17.016,4.892 C16.951,4.848 16.99,4.872 16.899,4.823 C16.945,4.855 16.971,4.875 17.012,4.906 C17.048,4.931 17.063,4.971 17.059,5.018 C17.038,5.04 17.019,5.065 16.998,5.086 C16.958,5.133 16.922,5.177 16.857,5.191 C16.821,5.198 16.792,5.223 16.76,5.245 C16.689,5.295 16.606,5.316 16.522,5.328 C16.523,5.334 16.522,5.329 16.526,5.342 C16.587,5.436 16.616,5.541 16.627,5.649 C16.63,5.699 16.641,5.746 16.641,5.797 C16.641,5.869 16.634,5.944 16.634,6.017 C16.634,6.067 16.652,6.114 16.648,6.164 C16.641,6.265 16.627,6.366 16.616,6.464 C16.609,6.536 16.601,6.611 16.598,6.683 C16.594,6.737 16.59,6.788 16.587,6.856 C16.623,6.831 16.652,6.813 16.677,6.795 C16.796,6.701 16.911,6.604 17.034,6.51 C17.12,6.446 17.214,6.395 17.326,6.406 C17.394,6.413 17.456,6.431 17.506,6.482 C17.528,6.5 17.535,6.521 17.524,6.554 C17.503,6.608 17.477,6.644 17.427,6.68 C17.301,6.759 17.185,6.853 17.07,6.947 C16.94,7.048 16.832,7.177 16.688,7.26 C16.673,7.267 16.609,7.311 16.565,7.314 C16.536,7.401 16.508,7.487 16.486,7.574 C16.472,7.624 16.468,7.678 16.461,7.732 C16.45,7.841 16.446,7.952 16.432,8.06 C16.425,8.104 16.389,8.143 16.367,8.183 C16.345,8.223 16.32,8.23 16.277,8.219 C16.201,8.197 16.122,8.194 16.05,8.172 C16.003,8.158 15.96,8.133 15.916,8.111 C15.765,8.035 15.642,7.923 15.509,7.823 C15.462,7.787 15.426,7.732 15.386,7.686 C15.34,7.628 15.286,7.574 15.249,7.513 C15.199,7.422 15.159,7.329 15.12,7.231 C15.105,7.199 15.134,7.166 15.17,7.174 C15.264,7.192 15.354,7.217 15.426,7.278 C15.56,7.386 15.689,7.498 15.823,7.606 C15.88,7.653 15.938,7.696 15.999,7.74 C16.035,7.765 16.053,7.758 16.061,7.718 C16.075,7.635 16.082,7.552 16.097,7.469 C16.107,7.386 16.122,7.3 16.136,7.217 C16.147,7.141 16.158,7.066 16.165,6.99 C16.176,6.882 16.187,6.774 16.198,6.662 C16.198,6.647 16.198,6.633 16.198,6.619 C16.205,6.244 16.208,5.872 16.216,5.497 C16.216,5.465 16.241,5.436 16.255,5.407 L16.286,5.34 C16.165,5.355 16.062,5.295 15.974,5.22 C15.949,5.198 15.945,5.198 15.927,5.173 C15.87,5.119 15.895,5.148 15.852,5.087 C15.684,5.011 15.531,4.907 15.383,4.798 C15.304,4.737 15.242,4.654 15.174,4.578 C15.138,4.539 15.105,4.492 15.069,4.452 C14.986,4.365 14.95,4.254 14.896,4.153 C14.853,4.07 14.813,3.987 14.788,3.897 C14.763,3.821 14.759,3.738 14.748,3.659 C14.745,3.637 14.756,3.608 14.77,3.587 C14.806,3.529 14.857,3.49 14.929,3.471 C14.983,3.457 15.037,3.435 15.087,3.414 C15.206,3.372 15.134,3.392 15.307,3.369 L15.383,3.378 C15.469,3.396 15.556,3.417 15.642,3.439 C15.7,3.453 15.733,3.5 15.758,3.551 C15.772,3.58 15.79,3.612 15.805,3.641 L15.824,3.675 C15.824,3.613 15.826,3.64 15.823,3.594 C15.833,3.414 15.833,3.414 15.844,3.273 C15.844,3.27 15.855,3.118 15.862,3.043 C15.87,2.942 15.898,2.808 15.916,2.711 C15.942,2.57 15.974,2.462 16.007,2.322 C16.068,2.185 16.068,2.185 16.115,2.08 C16.125,2.051 16.133,2.026 16.143,1.997 C16.164,1.989 16.156,1.993 16.168,1.986 C16.157,1.988 16.166,1.986 16.143,1.993 C16.061,1.968 16.032,1.907 16.039,1.828 C16.046,1.741 16.05,1.658 16.068,1.575 C16.079,1.532 16.115,1.496 16.147,1.464 L16.163,1.454 z M16.302,3.107 C16.291,3.183 16.284,3.259 16.277,3.335 L16.302,3.107 z" fill="#5731F2"/>
      <path d="M13.62,0 C13.681,0.014 13.75,0.014 13.815,0.014 C13.97,0.061 14.067,0.18 14.168,0.296 C14.197,0.328 14.226,0.364 14.262,0.386 C14.33,0.429 14.355,0.497 14.377,0.57 C14.406,0.681 14.424,0.797 14.42,0.912 C14.42,0.944 14.428,0.973 14.428,1.006 C14.435,1.179 14.406,1.348 14.345,1.51 C14.319,1.575 14.323,1.583 14.384,1.608 C14.456,1.637 14.532,1.655 14.608,1.683 C14.655,1.701 14.698,1.73 14.748,1.748 C14.81,1.77 14.871,1.784 14.932,1.802 C15.001,1.824 15.058,1.86 15.102,1.921 C15.123,1.95 15.152,1.975 15.181,2.001 C15.246,2.058 15.286,2.13 15.311,2.21 C15.347,2.322 15.376,2.43 15.404,2.541 C15.415,2.581 15.412,2.624 15.404,2.66 C15.325,2.841 15.033,2.949 14.965,2.981 C14.896,3.035 14.817,3.071 14.73,3.086 C14.637,3.104 14.547,3.125 14.453,3.136 C14.337,3.147 14.229,3.111 14.121,3.079 C14.118,3.079 14.114,3.079 14.107,3.079 C13.977,3.01 13.844,2.938 13.71,2.866 C13.707,2.88 13.707,2.884 13.707,2.891 L13.707,2.894 C13.707,2.884 13.707,2.891 13.71,2.873 C13.844,2.945 13.977,3.014 14.107,3.086 C14.114,3.158 14.121,3.226 14.125,3.298 C14.128,3.407 14.128,3.515 14.136,3.623 C14.143,3.706 14.157,3.789 14.168,3.872 C14.175,3.926 14.175,3.983 14.179,4.037 C14.182,4.146 14.186,4.254 14.19,4.365 C14.19,4.373 14.19,4.376 14.193,4.394 C14.211,4.376 14.226,4.365 14.233,4.351 C14.319,4.178 14.471,4.099 14.651,4.063 C14.687,4.055 14.723,4.084 14.723,4.124 C14.723,4.207 14.723,4.286 14.687,4.362 C14.665,4.409 14.665,4.463 14.647,4.513 C14.572,4.715 14.431,4.845 14.218,4.892 C14.186,4.899 14.146,4.964 14.15,5 C14.164,5.104 14.175,5.209 14.186,5.314 C14.193,5.378 14.204,5.443 14.211,5.508 C14.211,5.519 14.218,5.526 14.24,5.551 C14.255,5.526 14.273,5.501 14.287,5.479 C14.388,5.339 14.532,5.256 14.684,5.187 C14.705,5.18 14.73,5.18 14.752,5.18 C14.781,5.18 14.792,5.205 14.792,5.231 C14.792,5.267 14.795,5.299 14.792,5.335 C14.788,5.357 14.774,5.378 14.759,5.393 C14.626,5.544 14.456,5.649 14.273,5.728 C14.237,5.743 14.226,5.764 14.226,5.8 C14.233,5.984 14.237,6.172 14.244,6.355 C14.247,6.42 14.255,6.482 14.262,6.561 C14.312,6.521 14.355,6.489 14.395,6.456 C14.5,6.366 14.601,6.272 14.712,6.186 C14.759,6.15 14.817,6.107 14.885,6.11 C14.918,6.11 14.95,6.114 14.983,6.121 C15.03,6.128 15.062,6.186 15.069,6.244 C15.08,6.355 15.037,6.442 14.943,6.507 C14.885,6.546 14.835,6.597 14.774,6.626 C14.637,6.687 14.492,6.745 14.334,6.723 C14.316,6.719 14.301,6.719 14.276,6.712 C14.28,6.784 14.283,6.853 14.291,6.925 C14.298,7.008 14.312,7.087 14.323,7.17 C14.337,7.267 14.348,7.365 14.363,7.462 C14.384,7.599 14.413,7.736 14.424,7.873 C14.428,7.923 14.406,7.992 14.374,8.028 C14.334,8.071 14.269,8.093 14.211,8.115 C14.179,8.125 14.139,8.118 14.114,8.086 C14.089,8.05 14.06,8.01 14.045,7.97 C14.017,7.88 13.999,7.783 13.973,7.693 C13.941,7.577 13.898,7.466 13.865,7.35 C13.844,7.267 13.829,7.184 13.811,7.102 C13.79,6.997 13.768,6.893 13.746,6.792 C13.725,6.687 13.699,6.579 13.674,6.474 C13.674,6.467 13.667,6.427 13.66,6.348 C13.66,6.348 13.642,6.233 13.627,6.132 C13.62,6.089 13.595,6.071 13.566,6.049 C13.541,6.031 13.508,6.027 13.479,6.02 C13.447,6.013 13.242,5.923 13.213,5.901 C13.166,5.865 13.112,5.836 13.058,5.811 C12.917,5.75 12.791,5.67 12.712,5.533 C12.679,5.476 12.665,5.411 12.676,5.339 C12.686,5.267 12.712,5.198 12.744,5.137 C12.762,5.101 12.802,5.086 12.834,5.097 C12.939,5.126 13.04,5.162 13.144,5.198 C13.177,5.209 13.202,5.241 13.231,5.267 C13.292,5.324 13.346,5.382 13.407,5.44 C13.454,5.483 13.505,5.523 13.53,5.584 C13.534,5.598 13.548,5.609 13.566,5.627 C13.57,5.602 13.573,5.591 13.573,5.577 C13.573,5.396 13.573,5.213 13.573,5.032 C13.573,4.993 13.559,4.968 13.516,4.96 C13.407,4.942 13.299,4.928 13.188,4.91 C13.137,4.903 13.09,4.888 13.04,4.885 C12.946,4.874 12.856,4.845 12.769,4.805 C12.661,4.755 12.618,4.665 12.6,4.557 C12.593,4.506 12.582,4.456 12.578,4.405 C12.578,4.391 12.593,4.369 12.604,4.365 C12.888,4.29 13.151,4.337 13.389,4.51 C13.447,4.553 13.498,4.603 13.526,4.672 C13.53,4.686 13.541,4.697 13.559,4.722 C13.566,4.694 13.57,4.679 13.57,4.661 C13.57,4.362 13.57,4.063 13.57,3.767 C13.58,3.673 13.57,3.59 13.562,3.508 C13.57,3.497 13.573,3.486 13.58,3.479 C13.646,3.397 13.699,3.302 13.708,3.195 C13.695,3.298 13.639,3.388 13.58,3.471 C13.573,3.479 13.57,3.49 13.562,3.5 C13.498,3.569 13.433,3.637 13.368,3.706 C13.26,3.821 13.123,3.89 12.978,3.947 C12.921,3.973 12.863,4.009 12.802,4.019 C12.665,4.041 12.528,4.077 12.387,4.059 C12.214,4.041 12.052,3.994 11.926,3.861 C11.8,3.731 11.738,3.58 11.756,3.396 C11.767,3.284 11.807,3.176 11.89,3.097 C12.02,2.97 12.149,2.844 12.283,2.722 C12.402,2.614 12.528,2.509 12.65,2.404 C12.661,2.394 12.676,2.383 12.683,2.372 C12.694,2.354 12.694,2.332 12.668,2.329 C12.56,2.311 12.452,2.293 12.344,2.275 C12.225,2.257 12.106,2.239 11.991,2.224 C11.839,2.231 11.623,2.188 11.493,1.99 C11.49,1.896 11.49,1.896 11.515,1.86 C11.598,1.748 11.677,1.637 11.771,1.532 C11.861,1.435 11.962,1.348 12.077,1.283 C12.153,1.24 12.236,1.24 12.319,1.226 C12.358,1.218 12.398,1.215 12.438,1.218 C12.474,1.218 12.506,1.226 12.542,1.236 C12.686,1.269 12.834,1.305 12.978,1.341 C13,1.348 13.025,1.359 13.047,1.366 C13.09,1.384 13.115,1.366 13.108,1.319 C13.079,1.132 13.051,0.948 13.025,0.761 C13.014,0.681 13.007,0.602 13.018,0.526 C13.029,0.469 13.069,0.415 13.105,0.368 C13.195,0.245 13.321,0.162 13.451,0.094 C13.508,0.065 13.562,0.032 13.62,0 z M13.708,2.91 C13.709,2.918 13.708,2.914 13.71,2.922 L13.708,2.91 z" fill="#5731F2"/>
      <path d="M1.34,4.908 L1.612,4.91 C1.616,4.921 2.33,4.931 2.683,4.939 C2.787,4.939 2.878,4.971 2.968,5.004 C2.979,5.007 2.993,5.022 2.997,5.032 C3.043,5.256 3.015,5.912 3.015,5.923 C3.015,6.071 3.022,6.218 3.015,6.363 C3,6.781 2.982,7.199 2.96,7.617 C2.957,7.704 2.942,7.79 2.932,7.873 C2.924,7.938 2.885,7.978 2.82,7.988 C2.708,8.01 2.593,8.028 2.477,8.039 C2.33,8.053 2.182,8.057 2.034,8.064 C1.987,8.068 1.987,8.064 1.991,8.014 C1.998,7.913 1.994,7.815 2.002,7.714 C2.016,7.541 2.038,7.368 2.052,7.195 C2.063,7.066 2.063,6.932 2.063,6.802 C2.063,6.651 2.059,6.503 2.056,6.352 C2.052,6.258 2.02,6.222 1.926,6.215 C1.731,6.197 1.54,6.179 1.346,6.161 C1.324,6.157 1.302,6.154 1.281,6.15 C1.219,6.135 1.18,6.161 1.172,6.222 C1.151,6.474 1.129,6.727 1.111,6.979 C1.09,7.293 1.068,7.603 1.046,7.916 C1.043,7.949 1.043,7.981 1.035,8.014 C1.025,8.071 1.01,8.082 0.953,8.086 C0.79,8.093 0.632,8.068 0.473,8.028 C0.426,8.017 0.379,8.006 0.336,7.992 C0.271,7.974 0.257,7.96 0.257,7.895 C0.26,7.664 0.253,7.43 0.268,7.199 C0.282,6.972 0.246,6.748 0.25,6.521 C0.253,6.265 0.253,6.009 0.264,5.753 C0.271,5.508 0.286,5.26 0.297,5.014 C0.3,4.949 0.307,4.939 0.372,4.935 C0.603,4.924 0.837,4.913 1.068,4.91 L1.34,4.908 z" fill="#5731F2"/>
      <path d="M5.541,1.214 C5.603,1.242 5.577,1.226 5.621,1.258 C5.916,1.496 6.19,1.756 6.443,2.037 C6.886,2.531 7.322,3.028 7.748,3.54 C7.827,3.634 7.906,3.731 7.986,3.828 C8.018,3.868 8.018,3.882 7.982,3.915 C7.932,3.958 7.878,3.998 7.827,4.041 C7.816,4.052 7.802,4.07 7.802,4.084 C7.777,4.384 7.751,4.683 7.733,4.986 C7.719,5.241 7.712,5.494 7.697,5.75 C7.694,5.789 7.686,5.825 7.683,5.865 C7.665,6.038 7.647,6.215 7.632,6.388 C7.607,6.647 7.589,6.911 7.56,7.17 C7.539,7.365 7.503,7.556 7.474,7.75 C7.47,7.787 7.452,7.805 7.413,7.805 C7.337,7.812 6.724,7.812 6.634,7.823 C6.605,7.826 5.935,7.855 5.859,7.866 C5.805,7.873 5.621,7.873 5.585,7.877 C5.498,7.884 5.412,7.895 5.329,7.909 C5.278,7.916 4.997,7.967 4.932,7.97 C4.857,7.974 4.785,7.992 4.709,7.996 C4.626,7.999 4.183,7.985 4.046,7.992 C3.966,7.996 3.952,7.988 3.945,7.909 C3.927,7.74 3.912,7.57 3.891,7.404 C3.869,7.253 3.847,7.098 3.811,6.95 C3.779,6.817 3.772,6.683 3.782,6.55 C3.8,6.337 3.815,6.121 3.833,5.908 C3.836,5.847 3.847,5.789 3.847,5.728 C3.847,5.638 3.84,5.551 3.844,5.461 C3.847,5.256 3.851,5.05 3.855,4.845 C3.855,4.809 3.855,4.773 3.858,4.737 C3.862,4.694 3.84,4.668 3.804,4.661 C3.663,4.636 3.541,4.567 3.415,4.51 C3.361,4.484 3.31,4.463 3.26,4.434 C3.227,4.416 3.198,4.391 3.177,4.362 C3.152,4.333 3.148,4.301 3.17,4.265 C3.274,4.099 3.379,3.933 3.48,3.767 C3.689,3.428 3.955,3.136 4.183,2.815 C4.32,2.624 4.489,2.462 4.608,2.26 C4.651,2.188 4.709,2.123 4.763,2.058 C4.81,2.001 4.86,1.95 4.907,1.893 C4.911,1.889 4.911,1.885 4.914,1.885 C4.986,1.867 5.001,1.795 5.041,1.745 C5.087,1.683 5.145,1.626 5.192,1.565 C5.235,1.51 5.275,1.456 5.318,1.402 C5.351,1.359 5.387,1.316 5.423,1.276 C5.47,1.223 5.474,1.22 5.541,1.214 z M6.714,4.722 C6.701,4.722 6.689,4.728 6.677,4.733 C6.666,4.74 6.659,4.755 6.655,4.766 C6.652,4.82 6.648,4.877 6.652,4.931 C6.652,4.993 6.659,5.058 6.663,5.119 C6.666,5.27 6.627,5.418 6.652,5.57 C6.652,5.577 6.652,5.588 6.652,5.595 C6.645,5.674 6.641,5.753 6.634,5.833 C6.63,5.923 6.634,6.013 6.623,6.103 C6.609,6.24 6.583,6.377 6.565,6.514 C6.558,6.564 6.558,6.615 6.555,6.665 C6.335,6.712 6.115,6.737 5.891,6.734 C5.772,6.734 5.653,6.737 5.534,6.737 C5.484,6.737 5.437,6.734 5.387,6.73 C5.376,6.73 5.365,6.727 5.358,6.73 C5.199,6.756 5.041,6.719 4.885,6.727 C4.885,6.727 4.882,6.727 4.882,6.727 C4.846,6.719 4.821,6.701 4.821,6.662 C4.817,6.604 4.813,6.543 4.806,6.485 C4.803,6.446 4.81,6.424 4.853,6.424 C4.889,6.42 4.904,6.402 4.896,6.366 C4.893,6.352 4.893,6.337 4.889,6.323 C4.864,6.236 4.86,6.146 4.857,6.056 C4.853,5.959 4.835,5.858 4.817,5.761 C4.792,5.602 4.774,5.44 4.72,5.285 C4.687,5.195 4.673,5.104 4.68,5.007 C4.687,4.928 4.673,4.899 4.601,4.867 C4.568,4.852 4.536,4.87 4.536,4.906 C4.536,4.921 4.539,4.935 4.539,4.949 C4.543,5.022 4.543,5.094 4.547,5.166 C4.547,5.195 4.539,5.227 4.55,5.256 C4.575,5.332 4.547,5.407 4.539,5.479 C4.532,5.559 4.5,5.638 4.485,5.717 C4.453,5.901 4.424,6.081 4.388,6.265 C4.359,6.417 4.352,6.564 4.366,6.716 C4.37,6.77 4.352,6.824 4.345,6.878 C4.341,6.896 4.334,6.911 4.334,6.929 C4.338,7.011 4.341,7.091 4.348,7.174 C4.356,7.239 4.359,7.239 4.428,7.231 C4.572,7.213 4.716,7.199 4.86,7.177 C5.185,7.13 5.509,7.123 5.834,7.12 C6.086,7.12 6.342,7.13 6.594,7.134 C6.706,7.138 6.818,7.134 6.926,7.134 C6.929,7.141 6.944,7.141 6.966,7.141 C6.966,7.116 6.966,7.098 6.962,7.08 C6.908,6.867 6.89,6.647 6.857,6.427 C6.821,6.179 6.778,5.934 6.742,5.685 C6.735,5.645 6.746,5.606 6.749,5.566 C6.749,5.551 6.756,5.537 6.756,5.523 C6.778,5.285 6.796,5.047 6.814,4.809 C6.814,4.787 6.81,4.755 6.796,4.74 C6.776,4.726 6.789,4.734 6.754,4.722 C6.728,4.722 6.741,4.723 6.714,4.722 z M6.396,5.807 C6.349,5.818 6.338,5.851 6.335,5.887 C6.331,5.923 6.317,5.937 6.284,5.937 C6.14,5.941 5.999,5.941 5.855,5.944 C5.826,5.944 5.798,5.948 5.765,5.948 C5.761,6.089 5.758,6.229 5.754,6.366 C5.754,6.399 5.772,6.417 5.805,6.42 C5.848,6.427 5.891,6.435 5.938,6.438 C6.082,6.449 6.227,6.456 6.374,6.464 C6.461,6.467 6.472,6.453 6.464,6.366 C6.446,6.197 6.432,6.024 6.414,5.854 C6.407,5.84 6.4,5.825 6.396,5.807 z M5.156,5.923 C5.156,5.926 5.156,5.93 5.156,5.93 C5.127,5.93 5.095,5.926 5.066,5.93 C5.03,5.934 5.004,5.944 5.008,5.991 C5.015,6.107 5.019,6.226 5.026,6.341 C5.03,6.399 5.037,6.402 5.098,6.399 C5.235,6.395 5.376,6.391 5.513,6.399 C5.596,6.402 5.606,6.402 5.599,6.319 C5.588,6.211 5.57,6.107 5.552,5.998 C5.545,5.959 5.524,5.948 5.48,5.948 C5.426,5.948 5.369,5.948 5.314,5.944 C5.26,5.941 5.206,5.93 5.156,5.923 z M6.147,4.813 C6.134,4.813 6.123,4.819 6.111,4.823 C6.082,4.838 6.053,4.849 6.025,4.859 C5.956,4.877 5.891,4.888 5.823,4.906 C5.765,4.921 5.74,4.946 5.74,4.996 C5.74,5.108 5.743,5.216 5.747,5.328 C5.747,5.371 5.776,5.393 5.819,5.386 C5.844,5.382 5.87,5.375 5.895,5.378 C6.028,5.378 6.151,5.386 6.288,5.393 C6.317,5.396 6.335,5.378 6.324,5.342 C6.295,5.213 6.263,5.083 6.234,4.953 C6.23,4.939 6.223,4.924 6.227,4.913 C6.245,4.877 6.23,4.849 6.205,4.827 L6.184,4.814 C6.16,4.814 6.172,4.814 6.147,4.813 z M5.004,4.953 C4.972,4.953 4.954,4.968 4.954,5.004 C4.958,5.04 4.954,5.079 4.954,5.119 C4.95,5.119 4.947,5.119 4.943,5.119 C4.95,5.187 4.954,5.252 4.961,5.321 C4.965,5.35 4.976,5.378 5.019,5.368 C5.138,5.335 5.257,5.314 5.383,5.335 C5.419,5.342 5.437,5.324 5.441,5.285 C5.448,5.191 5.466,5.097 5.441,5.004 C5.43,4.964 5.419,4.953 5.383,4.957 C5.271,4.957 5.159,4.957 5.048,4.957 L5.004,4.953 z M5.532,3.532 L5.52,3.547 C5.484,3.619 5.426,3.684 5.39,3.753 C5.347,3.828 5.167,4.059 5.138,4.117 C5.138,4.12 5.134,4.12 5.134,4.124 C5.037,4.254 4.936,4.384 4.839,4.513 C4.824,4.531 4.817,4.549 4.799,4.578 C4.849,4.575 4.885,4.571 4.922,4.567 C5.019,4.557 5.12,4.539 5.217,4.539 C5.314,4.539 5.408,4.557 5.506,4.56 C5.794,4.578 6.082,4.593 6.374,4.611 C6.414,4.614 6.439,4.6 6.439,4.56 C6.443,4.51 6.446,4.456 6.443,4.405 C6.443,4.394 6.414,4.373 6.4,4.373 C6.345,4.373 6.245,4.239 6.219,4.21 C6.19,4.182 6.158,4.156 6.133,4.128 C6.039,4.027 5.949,3.922 5.852,3.821 C5.761,3.727 5.668,3.637 5.578,3.547 C5.554,3.528 5.568,3.534 5.532,3.532 z" fill="#5731F2"/>
      <path d="M10.25,3.259 C10.329,3.259 10.711,3.273 10.823,3.277 C10.952,3.28 11.079,3.284 11.208,3.295 C11.295,3.302 11.385,3.32 11.472,3.338 C11.522,3.349 11.558,3.371 11.565,3.432 C11.573,3.515 11.594,3.594 11.58,3.677 C11.565,3.774 11.493,3.836 11.41,3.854 C11.36,3.864 11.309,3.864 11.252,3.875 C11.277,3.882 11.302,3.89 11.327,3.897 C11.389,3.908 11.454,3.918 11.515,3.933 C11.518,3.933 11.522,3.933 11.522,3.933 C11.594,3.951 11.623,3.994 11.634,4.045 C11.634,4.106 11.63,4.167 11.63,4.229 C11.63,4.304 11.637,4.38 11.637,4.456 C11.637,4.524 11.637,4.593 11.637,4.661 C11.641,4.845 11.641,5.025 11.648,5.209 C11.652,5.296 11.666,5.551 11.666,5.595 C11.666,5.638 11.666,5.678 11.666,5.721 C11.663,5.822 11.702,6.431 11.702,6.597 C11.699,6.846 11.702,7.094 11.702,7.343 C11.702,7.383 11.699,7.422 11.691,7.462 C11.681,7.527 11.619,7.574 11.547,7.574 C11.428,7.577 11.306,7.581 11.187,7.581 C11.097,7.585 11.003,7.588 10.913,7.588 C10.816,7.592 10.715,7.592 10.617,7.595 C10.487,7.599 10.358,7.606 10.228,7.613 C10.195,7.613 10.181,7.603 10.181,7.57 C10.181,7.57 10.181,7.567 10.181,7.567 C10.177,7.332 10.174,7.094 10.174,6.86 C10.174,6.784 10.174,6.705 10.174,6.629 C10.17,6.503 10.167,6.373 10.167,6.247 C10.167,6.172 10.163,5.934 10.156,5.887 C9.831,5.876 9.514,5.858 9.19,5.905 C9.186,5.934 9.179,5.966 9.179,5.998 C9.179,6.135 9.175,6.276 9.179,6.413 C9.182,6.557 9.19,6.701 9.193,6.846 C9.193,6.893 9.186,6.943 9.186,6.99 C9.19,7.163 9.201,7.397 9.204,7.567 C9.19,7.693 9.125,7.668 8.973,7.678 C8.833,7.657 8.696,7.621 8.552,7.628 C8.537,7.628 8.526,7.628 8.512,7.628 C8.443,7.621 8.429,7.603 8.422,7.531 C8.415,7.404 8.4,7.275 8.389,7.148 L8.389,6.633 C8.389,6.525 8.393,6.417 8.4,6.309 C8.404,6.236 8.415,5.66 8.397,5.562 C8.393,5.537 8.4,5.104 8.397,5.05 L8.397,4.196 C8.397,4.135 8.379,4.113 8.317,4.11 C8.288,4.106 8.278,4.099 8.274,4.066 C8.256,3.958 8.263,3.951 8.368,3.944 C8.476,3.937 8.584,3.922 8.696,3.911 C8.754,3.904 8.815,3.9 8.872,3.893 C8.883,3.893 8.898,3.886 8.909,3.882 C8.909,3.879 8.909,3.872 8.905,3.868 C8.869,3.868 8.829,3.868 8.793,3.868 C8.685,3.864 8.375,3.81 8.314,3.792 C8.206,3.763 8.144,3.677 8.148,3.576 C8.152,3.533 8.148,3.486 8.148,3.443 C8.148,3.435 8.148,3.425 8.148,3.417 C8.148,3.324 8.162,3.306 8.252,3.298 C8.307,3.295 8.357,3.291 8.411,3.291 C8.624,3.288 8.833,3.284 9.046,3.28 C9.168,3.277 9.291,3.277 9.413,3.273 C9.485,3.27 9.557,3.266 9.633,3.266 C9.723,3.266 10.134,3.259 10.25,3.259 z M8.698,4.124 L8.624,4.124 C8.613,4.124 8.609,4.192 8.609,4.203 C8.62,4.351 8.631,4.654 8.631,4.654 C8.631,4.719 8.627,4.78 8.631,4.845 C8.638,4.931 8.66,4.982 8.757,4.975 C8.8,4.971 8.844,4.968 8.891,4.968 C8.988,4.964 8.995,4.96 8.991,4.863 C8.991,4.845 8.991,4.827 8.991,4.805 C8.991,4.751 8.995,4.697 8.999,4.647 C9.002,4.607 9.009,4.567 9.009,4.528 C9.006,4.427 8.999,4.322 8.995,4.221 C8.991,4.167 8.977,4.135 8.923,4.131 C8.8,4.122 8.875,4.126 8.698,4.124 z M11.201,4.074 C11.123,4.076 11.157,4.075 11.1,4.077 C11.071,4.077 11.046,4.081 11.017,4.081 C10.981,4.077 10.945,4.095 10.938,4.131 C10.931,4.174 10.92,4.218 10.924,4.261 C10.927,4.384 10.938,4.51 10.949,4.632 C10.956,4.715 10.971,4.798 10.985,4.881 C10.985,4.888 10.999,4.899 11.007,4.903 C11.089,4.917 11.172,4.931 11.252,4.946 C11.299,4.957 11.313,4.946 11.313,4.895 C11.309,4.794 11.302,4.69 11.32,4.589 C11.327,4.546 11.331,4.502 11.327,4.463 C11.327,4.412 11.32,4.308 11.32,4.308 C11.32,4.272 11.32,4.239 11.32,4.203 C11.32,4.135 11.288,4.084 11.234,4.077 L11.201,4.074 z M9.292,4.111 L9.24,4.12 C9.226,4.124 9.211,4.146 9.211,4.156 C9.211,4.203 9.215,4.247 9.219,4.293 C9.222,4.344 9.229,4.394 9.237,4.445 C9.24,4.477 9.247,4.51 9.255,4.542 C9.269,4.621 9.291,4.773 9.287,4.773 C9.287,4.809 9.283,4.845 9.287,4.881 C9.291,4.895 9.309,4.917 9.323,4.917 C9.356,4.921 9.392,4.921 9.428,4.917 C9.496,4.91 9.503,4.899 9.503,4.827 C9.503,4.78 9.496,4.73 9.503,4.683 C9.518,4.6 9.514,4.517 9.503,4.434 C9.493,4.358 9.474,4.283 9.493,4.207 C9.503,4.167 9.485,4.146 9.446,4.131 C9.361,4.109 9.412,4.119 9.292,4.111 z M9.896,4.088 C9.839,4.088 9.777,4.106 9.72,4.117 C9.709,4.12 9.694,4.138 9.694,4.149 C9.694,4.214 9.698,4.279 9.705,4.34 C9.716,4.434 9.734,4.528 9.745,4.621 C9.756,4.697 9.763,4.769 9.774,4.845 C9.774,4.856 9.792,4.87 9.803,4.87 C9.871,4.874 9.936,4.877 10.004,4.881 C10.03,4.881 10.051,4.885 10.077,4.888 C10.127,4.895 10.156,4.881 10.163,4.827 C10.17,4.769 10.177,4.712 10.181,4.654 C10.181,4.513 10.177,4.369 10.177,4.221 C10.174,4.221 10.17,4.182 10.17,4.16 C10.174,4.131 10.159,4.11 10.131,4.106 C10.051,4.099 9.976,4.088 9.896,4.088 z M10.392,4.077 C10.348,4.084 10.294,4.1 10.282,4.149 C10.282,4.236 10.286,4.322 10.289,4.412 C10.3,4.549 10.314,4.683 10.322,4.82 C10.325,4.877 10.329,4.885 10.387,4.881 C10.455,4.885 10.524,4.877 10.599,4.874 C10.61,4.812 10.621,4.748 10.628,4.683 C10.632,4.636 10.632,4.585 10.628,4.539 C10.624,4.412 10.617,4.286 10.61,4.16 C10.606,4.113 10.592,4.099 10.545,4.095 C10.498,4.092 10.455,4.084 10.412,4.077 L10.392,4.077 z" fill="#5731F2"/>
      <path d="M12.759,6.07 L12.784,6.071 C12.849,6.078 12.914,6.089 12.978,6.085 C13.047,6.085 13.112,6.103 13.166,6.139 C13.202,6.164 13.234,6.2 13.263,6.233 C13.314,6.287 13.357,6.345 13.407,6.399 C13.422,6.417 13.595,6.597 13.613,6.611 C13.66,6.647 13.696,6.691 13.714,6.748 C13.732,6.81 13.714,6.831 13.653,6.838 C13.58,6.846 13.505,6.86 13.411,6.874 C13.361,6.86 13.288,6.846 13.224,6.82 C13.119,6.781 13.018,6.734 12.917,6.683 C12.831,6.64 12.759,6.575 12.704,6.492 C12.686,6.464 12.676,6.431 12.676,6.395 C12.668,6.298 12.676,6.204 12.708,6.114 C12.728,6.077 12.713,6.094 12.759,6.07 z" fill="#5731F2"/>
      <path d="M1.859,2.204 L1.901,2.213 C1.937,2.228 2.016,2.289 2.027,2.304 C2.149,2.473 2.207,2.606 2.286,2.776 C2.413,3.01 2.546,3.237 2.665,3.471 C2.733,3.605 2.787,3.749 2.842,3.89 C2.903,4.048 2.957,4.21 3.015,4.373 C3.047,4.459 3.061,4.549 3.047,4.643 C3.036,4.701 3.015,4.726 2.953,4.73 C2.888,4.733 2.824,4.737 2.759,4.737 C2.614,4.74 2.474,4.748 2.33,4.744 C2.11,4.737 1.886,4.726 1.666,4.715 C1.519,4.708 1.378,4.704 1.205,4.697 C1.043,4.704 0.852,4.715 0.657,4.726 C0.61,4.73 0.56,4.715 0.513,4.715 C0.433,4.712 0.354,4.712 0.278,4.712 C0.224,4.712 0.206,4.69 0.217,4.636 C0.221,4.618 0.228,4.603 0.235,4.589 C0.394,4.283 0.556,3.976 0.715,3.67 C0.801,3.504 0.877,3.335 0.971,3.176 C1.05,3.039 1.594,2.422 1.749,2.253 C1.803,2.207 1.769,2.228 1.859,2.204 z" fill="#5731F2"/>
      <path d="M16.623,1.541 L16.641,1.55 C16.688,1.586 16.738,1.622 16.785,1.662 C16.8,1.676 16.81,1.694 16.821,1.712 C16.839,1.741 16.857,1.77 16.872,1.799 C16.893,1.831 16.901,1.867 16.886,1.907 C16.861,1.975 16.825,2.037 16.774,2.084 C16.756,2.109 16.727,2.12 16.706,2.134 C16.663,2.109 16.619,2.087 16.576,2.062 C16.562,1.99 16.547,1.914 16.529,1.842 C16.508,1.741 16.526,1.647 16.583,1.561 C16.601,1.54 16.589,1.549 16.623,1.541 z" fill="#5731F2"/>
    </g>
  </g>
</svg>
