<?xml version="1.0" encoding="UTF-8"?>
<!DOCTYPE svg PUBLIC "-//W3C//DTD SVG 1.1//EN" "http://www.w3.org/Graphics/SVG/1.1/DTD/svg11.dtd">
<svg version="1.1" xmlns="http://www.w3.org/2000/svg" xmlns:xlink="http://www.w3.org/1999/xlink" x="0" y="0" width="200" height="200" viewBox="0, 0, 200, 200">
  <g id="Layer_1">
    <g id="logo">
      <path d="M4.651,59.02 L4.651,59.24 C3.75,59.24 3.63,59.46 3.81,60.041 L4.972,63.706 L6.454,59.02 L6.594,59.02 L8.076,63.706 L9.237,60.061 C9.418,59.48 9.257,59.26 8.496,59.26 L8.496,59.04 L10.88,59.04 L10.88,59.26 C9.998,59.26 9.838,59.48 9.618,60.181 L7.896,65.589 L7.755,65.589 L6.273,60.882 L4.771,65.589 L4.631,65.589 L2.949,60.161 C2.709,59.38 2.568,59.24 1.687,59.24 L1.687,59.02 L4.651,59.02 z" fill="#5731F2"/>
      <path d="M62.089,58.799 L62.089,61.143 L61.869,61.143 C61.788,60.301 61.468,59.28 60.246,59.28 C59.646,59.28 59.225,59.701 59.225,60.221 C59.225,60.782 59.605,61.062 60.527,61.543 L61.528,62.064 C62.349,62.484 62.65,63.085 62.65,63.686 C62.65,64.848 61.708,65.589 60.627,65.589 C59.826,65.589 59.305,65.168 58.965,65.088 C58.844,65.188 58.704,65.348 58.664,65.589 L58.424,65.589 L58.424,63.225 L58.644,63.225 C58.644,63.225 58.664,65.128 60.607,65.128 C61.368,65.128 61.929,64.647 61.929,63.966 C61.929,63.486 61.448,63.065 60.707,62.685 L59.686,62.164 C59.065,61.843 58.504,61.223 58.504,60.422 C58.504,59.54 59.245,58.839 60.266,58.839 C60.887,58.839 61.248,59.04 61.568,59.28 C61.688,59.18 61.828,59.02 61.869,58.799 L62.089,58.799 z" fill="#5731F2"/>
      <path d="M77.75,61.663 C78.932,61.663 79.893,62.524 79.893,63.606 C79.893,64.687 78.932,65.569 77.75,65.569 C76.568,65.569 75.607,64.687 75.607,63.606 C75.607,62.524 76.568,61.663 77.75,61.663 z M77.75,62.064 C76.889,62.064 76.468,62.745 76.468,63.606 C76.468,64.447 76.889,65.148 77.75,65.148 C78.631,65.148 79.032,64.467 79.032,63.606 C79.032,62.765 78.631,62.064 77.75,62.064 z" fill="#5731F2"/>
      <path d="M66.335,61.663 C67.216,61.663 67.596,62.044 67.596,62.424 C67.596,62.584 67.496,62.885 67.136,62.885 C66.895,62.885 66.715,62.685 66.715,62.464 C66.715,62.124 66.515,62.004 66.335,62.004 C65.774,62.004 65.313,62.725 65.313,63.706 C65.313,64.547 65.734,65.108 66.595,65.108 C66.935,65.108 67.376,64.948 67.736,64.627 L67.917,64.868 C67.516,65.308 66.935,65.569 66.335,65.569 C65.153,65.569 64.452,64.767 64.452,63.706 C64.452,62.444 65.473,61.663 66.335,61.663 z" fill="#5731F2"/>
      <path d="M39.178,61.843 L39.178,62.064 C38.697,62.064 38.637,62.184 38.857,62.685 L39.578,64.427 L40.68,61.843 L40.9,61.843 L41.982,64.427 L42.723,62.685 C42.923,62.224 42.883,62.064 42.422,62.064 L42.422,61.843 L43.904,61.843 L43.904,62.064 C43.524,62.064 43.344,62.224 43.143,62.685 L41.902,65.569 L41.681,65.569 L40.6,63.045 L39.518,65.569 L39.298,65.569 L38.016,62.685 C37.816,62.224 37.636,62.064 37.295,62.064 L37.295,61.843 L39.178,61.843 z" fill="#5731F2"/>
      <path d="M33.971,61.663 C35.152,61.663 36.114,62.524 36.114,63.606 C36.114,64.687 35.152,65.569 33.971,65.569 C32.789,65.569 31.828,64.687 31.828,63.606 C31.828,62.524 32.789,61.663 33.971,61.663 z M33.971,62.064 C33.11,62.064 32.689,62.745 32.689,63.606 C32.689,64.447 33.11,65.148 33.971,65.148 C34.852,65.148 35.253,64.467 35.253,63.606 C35.253,62.765 34.852,62.064 33.971,62.064 z" fill="#5731F2"/>
      <path d="M46.888,61.663 C47.83,61.663 48.591,62.424 48.33,63.346 L45.767,63.346 C45.647,64.347 46.047,65.108 47.149,65.108 C47.489,65.108 48.01,64.908 48.31,64.627 L48.51,64.868 C48.13,65.268 47.489,65.569 46.888,65.569 C45.727,65.569 44.926,64.687 44.926,63.606 C44.926,62.484 45.907,61.663 46.888,61.663 z M46.828,62.084 C46.368,62.084 45.987,62.424 45.827,62.945 L47.589,62.945 C47.709,62.605 47.529,62.084 46.828,62.084 z" fill="#5731F2"/>
      <path d="M83.778,61.663 C84.96,61.663 85.921,62.524 85.921,63.606 C85.921,64.687 84.96,65.569 83.778,65.569 C82.597,65.569 81.635,64.687 81.635,63.606 C81.635,62.524 82.597,61.663 83.778,61.663 z M83.778,62.064 C82.917,62.064 82.496,62.745 82.496,63.606 C82.496,64.447 82.917,65.148 83.778,65.148 C84.659,65.148 85.06,64.467 85.06,63.606 C85.06,62.765 84.659,62.064 83.778,62.064 z" fill="#5731F2"/>
      <path d="M22.656,58.839 L22.656,63.926 C22.656,64.928 22.816,65.068 23.397,65.068 L23.397,65.268 L22.095,65.528 C22.035,65.428 21.955,65.088 21.935,64.908 C21.634,65.288 21.214,65.548 20.633,65.548 C19.611,65.569 18.77,64.687 18.77,63.606 C18.77,62.524 19.611,61.663 20.613,61.663 C21.134,61.663 21.594,61.904 21.915,62.284 L21.915,60.562 C21.915,59.5 21.794,59.32 21.073,59.32 L21.073,59.1 L22.656,58.839 z M20.833,62.104 C20.012,62.104 19.631,62.765 19.631,63.626 C19.631,64.467 20.012,65.148 20.833,65.148 C21.334,65.128 21.734,64.787 21.915,64.307 L21.915,62.945 C21.714,62.444 21.314,62.104 20.833,62.104 z" fill="#5731F2"/>
      <path d="M93.571,61.663 L93.571,62.885 L93.351,62.885 C93.351,62.444 93.031,61.984 92.49,61.984 C92.129,61.984 91.949,62.184 91.949,62.444 C91.949,62.705 92.109,62.845 92.59,63.085 L93.091,63.366 C93.551,63.626 93.832,64.006 93.832,64.387 C93.832,65.088 93.251,65.549 92.57,65.549 C92.089,65.549 91.729,65.208 91.569,65.208 C91.468,65.208 91.428,65.288 91.428,65.549 L91.208,65.548 L91.208,64.006 L91.448,64.006 C91.448,64.487 91.849,65.188 92.61,65.188 C92.95,65.188 93.211,64.948 93.211,64.647 C93.211,64.387 92.971,64.187 92.61,64.006 L92.009,63.686 C91.509,63.406 91.308,62.965 91.308,62.625 C91.308,62.044 91.829,61.663 92.39,61.663 C92.95,61.663 93.151,61.904 93.291,61.904 C93.331,61.904 93.351,61.823 93.351,61.663 L93.571,61.663 z" fill="#5731F2"/>
      <path d="M52.716,61.683 C53.297,61.683 53.557,62.084 53.557,62.344 C53.557,62.584 53.457,62.845 53.137,62.845 C52.936,62.845 52.756,62.665 52.756,62.464 C52.756,62.244 52.636,62.124 52.416,62.124 C52.175,62.124 51.595,62.524 51.595,63.366 L51.595,63.946 C51.595,65.008 51.715,65.188 52.436,65.188 L52.436,65.408 L50.013,65.408 L50.013,65.148 C50.713,65.148 50.854,64.968 50.854,63.906 L50.854,63.386 C50.854,62.324 50.713,62.164 50.013,62.164 L50.013,61.944 L51.414,61.683 C51.474,61.783 51.555,62.224 51.595,62.444 C51.815,62.024 52.276,61.683 52.716,61.683 z" fill="#5731F2"/>
      <path d="M88.925,58.839 L88.925,63.926 C88.925,64.988 89.065,65.168 89.766,65.168 L89.766,65.388 L87.343,65.388 L87.343,65.148 C88.064,65.148 88.184,64.968 88.184,63.906 L88.184,60.562 C88.184,59.5 88.064,59.32 87.343,59.32 L87.343,59.1 L88.925,58.839 z" fill="#5731F2"/>
      <path d="M29.565,59 L29.565,63.906 C29.565,64.968 29.685,65.148 30.406,65.148 L30.406,65.368 L27.983,65.368 L27.983,65.148 C28.684,65.148 28.824,64.968 28.824,63.906 L28.824,60.562 C28.824,59.6 28.624,59.36 28.063,59.36 C26.881,59.36 26.441,59.56 26.441,61.002 L26.441,61.843 L27.502,61.843 L27.502,62.224 L26.441,62.224 L26.441,63.926 C26.441,64.988 26.561,65.168 27.282,65.168 L27.282,65.388 L24.859,65.388 L24.859,65.148 L24.839,65.148 C25.539,65.148 25.68,64.968 25.68,63.906 L25.68,62.204 L24.819,62.204 L24.819,61.823 L25.68,61.823 L25.68,60.982 C25.68,59.54 26.441,59 27.602,59 L29.565,59 z" fill="#5731F2"/>
      <path d="M16.487,58.839 L16.487,63.926 C16.487,64.988 16.627,65.168 17.328,65.168 L17.328,65.388 L14.905,65.388 L14.905,65.148 C15.626,65.148 15.746,64.968 15.746,63.906 L15.746,60.562 C15.746,59.5 15.626,59.32 14.905,59.32 L14.905,59.1 L16.487,58.839 z" fill="#5731F2"/>
      <path d="M12.942,61.683 L12.942,63.926 C12.942,64.988 13.063,65.168 13.784,65.168 L13.784,65.388 L11.36,65.388 L11.36,65.148 C12.061,65.148 12.201,64.968 12.201,63.906 L12.201,63.386 C12.201,62.324 12.061,62.164 11.36,62.164 L11.36,61.944 L12.942,61.683 z" fill="#5731F2"/>
      <path d="M70.6,58.839 L70.6,62.444 C70.901,62.084 71.381,61.683 71.982,61.683 C72.963,61.683 73.284,62.364 73.284,63.265 L73.284,63.926 C73.284,64.988 73.424,65.168 74.125,65.168 L74.125,65.388 L71.762,65.388 L71.762,65.168 C72.423,65.168 72.523,65.028 72.523,63.926 L72.523,63.305 C72.523,62.625 72.283,62.164 71.722,62.164 C71.181,62.164 70.58,62.625 70.58,63.225 L70.58,63.906 C70.58,65.008 70.66,65.148 71.241,65.148 L71.241,65.368 L68.978,65.368 L68.978,65.148 L69.018,65.148 C69.739,65.148 69.859,64.968 69.859,63.906 L69.859,60.562 C69.859,59.5 69.739,59.32 69.018,59.32 L69.018,59.1 L70.6,58.839 z" fill="#5731F2"/>
      <path d="M12.562,59.681 C12.822,59.681 13.023,59.901 13.023,60.141 C13.023,60.402 12.802,60.622 12.562,60.622 C12.302,60.622 12.101,60.422 12.101,60.141 C12.101,59.881 12.322,59.681 12.562,59.681 z" fill="#5731F2"/>
      <path d="M49.011,52.13 C49.732,52.13 50.453,52.13 51.154,52.19 C51.695,52.231 52.236,52.271 52.776,52.451 C53.077,52.551 53.237,52.891 53.297,53.172 C53.337,53.432 53.417,53.672 53.477,53.933 C53.497,54.053 53.497,54.133 53.337,54.213 C52.916,54.213 52.496,54.213 52.075,54.233 C51.855,54.233 51.635,54.273 51.414,54.313 C51.354,54.313 50.233,54.393 49.752,54.373 C49.111,54.353 48.47,54.393 47.81,54.413 C47.269,54.433 46.728,54.494 46.187,54.494 C45.907,54.494 45.607,54.554 45.326,54.554 C44.966,54.554 44.805,54.554 44.425,54.554 C43.804,54.494 43.303,54.353 43.263,53.773 C43.243,53.392 43.303,52.992 43.364,52.591 C43.384,52.371 43.664,52.21 43.944,52.19 C44.205,52.19 44.465,52.19 44.745,52.19 C44.725,52.15 46.388,52.13 47.209,52.13 L49.011,52.13 z" fill="#5731F2"/>
      <path d="M66.575,52.17 C67.056,52.17 68.237,52.351 68.377,52.371 C68.578,52.371 68.698,52.491 68.738,52.651 C68.798,53.012 68.858,53.372 68.878,53.753 C68.898,54.133 68.838,54.133 68.538,54.193 C67.756,54.353 66.975,54.474 66.174,54.433 C65.553,54.413 64.933,54.433 64.332,54.433 C63.951,54.433 63.551,54.393 63.17,54.393 C62.85,54.393 60.607,54.433 60.166,54.494 C60.066,54.514 59.646,54.454 59.545,54.454 C59.065,54.454 58.584,54.474 58.083,54.494 C57.783,54.494 57.423,53.713 57.362,53.612 C57.182,52.931 57.362,52.891 57.543,52.551 C57.683,52.291 57.903,52.251 58.164,52.271 C58.524,52.291 58.884,52.311 59.265,52.311 C59.425,52.311 62.129,52.17 62.449,52.17 L66.575,52.17 z" fill="#5731F2"/>
      <path d="M73.384,51.97 C74.105,51.99 74.806,52.01 75.527,52.03 C75.827,52.05 76.128,52.07 76.428,52.07 C76.989,52.07 77.53,52.09 78.09,52.05 C78.671,52.01 79.232,52.17 79.813,52.17 C80.514,52.17 81.235,52.251 81.936,52.311 C82.556,52.331 82.977,52.451 83.458,52.811 C83.538,52.931 83.558,52.992 83.538,53.212 C83.538,53.432 83.478,53.713 83.338,53.833 C83.037,54.093 82.677,54.253 82.236,54.273 C80.494,54.293 78.771,54.393 77.029,54.373 C76.088,54.373 75.146,54.193 74.185,54.093 C73.825,54.053 73.464,54.033 73.104,54.013 C72.823,53.993 72.623,53.873 72.503,53.652 C72.463,53.572 72.463,53.452 72.463,53.352 C72.463,53.292 72.583,52.551 72.743,52.271 C72.883,52.01 73.124,51.97 73.384,51.97 z" fill="#5731F2"/>
      <path d="M91.749,51.803 C91.998,51.807 91.898,51.803 92.049,51.81 C92.45,51.85 92.85,51.89 93.271,51.93 C93.792,51.99 94.312,52.01 94.813,52.09 C95.334,52.17 95.614,52.691 95.414,53.212 C95.374,53.352 95.374,53.492 95.314,53.632 C95.153,53.913 94.493,53.973 94.232,54.053 C93.491,54.193 93.191,54.253 92.67,54.213 C92.61,54.213 92.55,54.193 92.51,54.193 C91.729,54.133 89.506,53.893 89.286,53.873 C89.045,53.853 88.805,53.833 88.565,53.853 C88.324,53.853 88.084,53.913 87.844,53.913 C87.363,53.913 86.902,53.873 86.422,53.853 C86.382,53.853 86.342,53.833 86.302,53.813 C86.041,53.672 85.801,53.092 85.861,52.751 C85.941,52.331 86.161,52.09 86.582,52.05 C87.523,51.99 88.464,51.93 89.346,51.87 C90.146,51.818 90.947,51.805 91.749,51.803 z" fill="#5731F2"/>
      <path d="M30.847,51.89 C31.648,51.91 32.449,51.95 33.25,51.99 C33.53,52.01 33.811,52.03 34.071,52.03 C34.712,52.07 35.393,52.01 36.014,52.15 C36.895,52.351 37.756,52.271 38.637,52.331 C39.098,52.351 39.278,53.072 39.318,53.232 C39.338,53.372 39.358,53.512 39.358,53.652 C39.358,53.953 39.318,53.993 38.998,54.013 C38.657,54.013 38.317,54.013 37.956,54.033 C37.696,54.053 37.456,54.093 37.195,54.093 C36.534,54.093 35.873,54.053 35.213,54.053 C34.331,54.053 33.45,54.093 32.549,54.093 C32.409,54.093 32.269,54.053 32.128,54.053 C32.008,54.053 31.888,54.053 31.768,54.053 C31.327,54.073 30.887,54.033 30.606,53.612 C30.566,53.552 30.546,53.452 30.526,53.372 C30.486,53.072 30.446,52.791 30.386,52.491 C30.306,52.15 30.506,51.87 30.847,51.89 z" fill="#5731F2"/>
      <path d="M22.724,51.869 L22.816,51.87 C23.377,51.91 23.917,51.87 24.478,51.89 C24.859,51.89 25.239,51.87 25.6,51.95 C26,52.05 26.26,52.631 26.14,53.052 C26.12,53.152 26.1,53.252 26.06,53.332 C25.92,53.773 25.6,53.933 25.139,53.893 C24.598,53.853 24.057,53.913 23.517,53.933 C23.176,53.933 22.836,53.933 22.475,53.933 C22.255,53.933 19.832,53.833 19.652,53.833 C19.451,53.833 16.968,53.612 16.708,53.592 C16.347,53.552 16.027,53.112 15.967,52.851 C15.866,52.391 15.987,52.251 16.487,52.19 C16.928,52.17 17.388,52.11 18.029,52.03 C18.53,52.03 19.191,52.03 19.872,52.03 C20.823,51.989 21.772,51.897 22.724,51.869 z" fill="#5731F2"/>
      <path d="M7.607,51.765 L7.816,51.77 C8.757,51.79 9.698,51.81 10.639,51.85 C10.719,51.85 10.86,51.95 10.86,52.01 C10.88,52.311 10.88,52.591 10.84,52.891 C10.82,53.112 10.639,53.212 10.419,53.252 C10.059,53.312 9.678,53.392 9.318,53.432 C8.817,53.492 8.316,53.532 7.816,53.572 C6.894,53.652 5.953,53.713 5.032,53.833 C4.231,53.953 3.47,53.933 2.729,53.632 C2.428,53.512 2.308,53.372 2.308,53.032 C2.288,52.351 2.588,51.99 3.269,51.85 C3.47,51.81 3.67,51.83 3.87,51.83 C4.691,51.83 5.512,51.83 6.314,51.83 C6.328,51.825 6.342,51.817 6.358,51.815 C6.772,51.764 7.191,51.769 7.607,51.765 z" fill="#5731F2"/>
      <path d="M74.103,46.257 L75.106,46.262 C76.068,46.262 77.009,46.343 77.95,46.403 C78.511,46.423 79.092,46.463 79.653,46.503 C80.434,46.543 81.235,46.603 82.016,46.643 C82.677,46.683 83.338,46.723 83.998,46.783 C84.779,46.843 85.54,46.943 86.322,47.023 C86.982,47.084 89.426,47.124 90.087,47.164 C90.808,47.224 92.67,47.224 92.95,47.284 C93.491,47.384 93.551,47.384 94.573,47.504 C95.274,47.624 95.734,47.965 95.854,48.646 C95.854,48.706 95.874,48.746 95.894,48.806 C95.955,49.066 95.814,49.246 95.534,49.226 C95.234,49.206 94.913,49.206 94.613,49.166 C94.112,49.106 93.591,49.046 93.091,48.986 C92.73,48.946 92.39,48.906 92.029,48.886 C91.228,48.846 90.427,48.826 89.626,48.786 C89.406,48.766 89.205,48.786 89.005,48.786 C88.705,48.806 87.623,48.746 87.403,48.746 C85.901,48.726 81.956,48.566 81.475,48.566 C80.654,48.546 79.813,48.526 78.992,48.526 C78.651,48.526 74.806,48.646 74.526,48.666 C73.925,48.686 73.324,48.706 72.703,48.706 C72.363,48.706 69.859,48.626 69.419,48.606 C68.898,48.586 68.377,48.546 67.857,48.526 C67.636,48.526 65.794,48.465 65.674,48.485 C64.272,48.505 60.166,48.646 59.505,48.726 C59.225,48.746 56.601,48.906 56.201,48.966 C55.72,49.026 55.24,49.066 54.759,49.106 C54.739,49.106 54.719,49.106 54.719,49.106 C54.078,49.146 53.437,49.186 52.796,49.186 C52.496,49.186 44.405,49.407 43.924,49.407 C43.484,49.407 42.422,49.387 42.322,49.387 C41.381,49.347 40.44,49.327 39.498,49.287 C39.358,49.287 37.696,49.106 37.015,49.126 C36.654,49.146 34.311,49.026 33.63,49.046 C33.21,49.046 32.789,49.046 32.369,49.046 C32.028,49.046 28.804,48.866 28.323,48.886 C27.923,48.886 26.961,48.826 26.861,48.826 C26.601,48.826 20.993,48.906 20.953,48.926 C20.613,48.946 16.908,48.866 16.567,48.906 C16.047,48.966 12.842,49.086 12.422,49.246 C12.242,49.307 12.041,49.307 11.861,49.327 C11.46,49.367 7.996,49.547 7.715,49.567 C7.315,49.587 3.49,49.947 2.829,49.927 C2.228,49.847 1.687,49.587 1.147,49.327 C0.966,49.246 0.185,48.626 0.045,48.165 C-0.015,47.925 -0.015,47.865 0.045,47.744 C0.185,47.524 0.325,47.504 0.546,47.504 C1.347,47.464 3.149,47.364 3.95,47.324 C4.551,47.304 7.095,47.364 7.615,47.364 C8.156,47.364 10.419,47.324 11.02,47.264 C11.38,47.224 11.741,47.204 12.101,47.164 C13.704,46.983 17.669,46.983 18.069,46.963 C18.83,46.923 19.611,46.903 20.373,46.863 C20.893,46.843 24.418,47.003 24.959,47.003 C24.979,47.003 24.999,47.003 25.039,47.003 C26.22,46.983 27.382,46.963 28.564,46.963 C29.124,46.963 29.685,47.003 30.226,47.003 C31.047,46.983 31.868,46.943 32.689,46.903 C32.99,46.883 33.31,46.863 33.61,46.863 C34.411,46.823 35.193,46.783 35.994,46.763 C36.775,46.763 37.576,46.783 38.357,46.803 C39.098,46.823 39.839,46.823 40.58,46.843 C41.261,46.863 41.942,46.903 42.623,46.943 C42.923,46.963 43.203,46.983 43.504,46.983 C44.385,47.003 45.266,47.023 46.167,47.023 C46.888,47.023 47.609,47.003 48.31,46.983 C48.931,46.963 49.572,46.883 50.193,46.843 C50.253,46.843 50.313,46.843 50.353,46.843 C50.894,46.823 51.454,46.823 51.995,46.803 C52.576,46.783 53.177,46.743 53.758,46.703 C54.438,46.663 55.139,46.623 55.82,46.603 C56.521,46.583 57.202,46.563 57.903,46.543 C58.264,46.523 58.644,46.503 59.005,46.503 C59.846,46.503 60.687,46.543 61.548,46.543 C62.349,46.543 63.15,46.503 63.971,46.503 C64.192,46.503 64.392,46.543 64.612,46.543 C65.493,46.523 66.375,46.483 67.256,46.443 C67.877,46.423 68.518,46.383 69.138,46.343 C69.799,46.323 70.44,46.303 71.101,46.303 C72.77,46.273 71.77,46.29 74.103,46.257 z" fill="#5731F2"/>
      <path d="M89.794,8.078 C90.062,8.115 89.956,8.064 90.127,8.191 C90.707,8.772 90.988,9.433 90.788,10.274 C90.748,10.474 90.727,10.694 90.687,10.895 C90.62,11.223 90.495,11.289 90.178,11.314 L90.167,11.335 C90.067,11.656 90.007,11.976 89.886,12.297 C89.766,12.637 89.346,13.999 89.286,14.359 C89.225,14.84 89.165,15.301 89.105,15.781 C89.085,15.982 89.065,16.182 89.045,16.402 C89.025,16.642 88.725,21.068 88.785,21.229 C88.785,21.229 88.945,21.549 89.005,21.229 C89.165,20.227 89.566,17.424 89.766,16.462 C90.027,15.501 90.547,14.339 90.988,13.478 C91.308,12.837 91.689,12.196 92.029,11.576 C92.049,11.536 92.049,11.496 92.069,11.476 C92.31,11.616 92.55,11.736 92.79,11.876 C92.47,12.537 92.169,13.218 91.809,13.859 C91.448,14.48 91.148,15.12 90.928,15.801 C90.852,16.033 90.769,16.262 90.699,16.495 C90.932,16.575 90.833,16.57 90.988,16.562 C91.306,16.453 91.108,16.524 91.58,16.338 C91.731,16.06 91.864,15.771 92.029,15.501 C92.67,14.56 92.65,14.339 93.091,13.859 C93.431,13.498 93.772,13.138 94.152,12.797 C94.483,12.509 94.842,12.257 95.192,11.992 C95.155,11.881 95.07,11.797 95.013,11.696 C94.793,11.015 95.073,10.634 95.434,10.154 C95.743,9.767 96.177,9.803 96.627,9.79 C97.211,9.939 96.985,9.834 97.336,10.034 C97.437,10.114 97.537,10.394 97.617,10.494 C97.637,10.835 97.417,11.155 97.356,11.335 C97.136,11.616 96.876,11.936 96.555,12.096 C96.311,12.241 96.016,12.231 95.742,12.236 C95.48,12.655 95.622,12.448 95.314,12.857 C94.653,13.558 92.91,16.142 92.91,16.262 L92.893,16.311 C93.154,16.652 93.015,16.481 93.311,16.823 C93.551,17.083 93.671,17.363 93.752,17.704 C93.872,18.205 94.032,18.705 94.172,19.226 L94.116,19.369 C94.161,19.269 94.134,19.33 94.192,19.186 C94.653,18.285 95.013,17.323 95.294,16.342 C95.501,15.496 95.405,15.914 95.584,15.087 L95.574,15.06 C95.554,14.64 95.634,14.219 95.894,13.859 C96.155,13.498 96.916,13.258 97.216,13.558 C97.296,13.638 97.376,13.779 97.356,13.859 C97.316,14.139 97.256,14.44 97.116,14.68 C97.016,14.88 96.776,15 96.595,15.14 C96.462,15.283 96.529,15.216 96.395,15.342 C96.359,16.106 96.088,16.83 95.834,17.544 C95.668,18.016 95.51,18.492 95.362,18.971 C95.338,19.048 95.24,19.328 95.234,19.46 C95.793,18.736 95.506,19.101 96.095,18.365 C96.395,18.004 96.696,17.624 97.016,17.283 C97.096,17.183 97.256,17.123 97.396,17.123 C97.917,17.103 98.398,17.183 98.818,17.524 C98.979,17.664 99.219,17.744 99.399,17.864 C99.72,18.064 99.84,18.365 99.86,18.725 C99.88,18.966 99.94,19.206 100,19.446 C100,19.647 100,19.867 100,20.067 C99.78,20.628 99.579,21.189 99.319,21.729 C99.099,22.19 98.798,22.611 98.538,23.031 C98.218,23.552 97.897,24.073 97.537,24.553 C97.276,24.914 96.976,25.254 96.655,25.575 C96.055,26.215 95.494,26.896 94.993,27.597 C94.933,27.677 94.873,27.737 94.793,27.798 C94.813,27.537 94.733,27.337 94.533,27.177 C94.173,26.931 94.386,27.064 93.882,26.797 C94.137,26.971 94.284,27.084 94.513,27.257 C94.713,27.397 94.793,27.617 94.773,27.878 C94.653,27.998 94.553,28.138 94.432,28.258 C94.212,28.519 94.012,28.759 93.651,28.839 C93.451,28.879 93.291,29.019 93.111,29.139 C92.719,29.415 92.257,29.532 91.791,29.6 C91.792,29.634 91.791,29.607 91.809,29.68 C92.149,30.201 92.31,30.782 92.37,31.382 C92.39,31.663 92.45,31.923 92.45,32.203 C92.45,32.604 92.41,33.025 92.41,33.425 C92.41,33.706 92.51,33.966 92.49,34.246 C92.45,34.807 92.37,35.368 92.31,35.908 C92.27,36.309 92.23,36.73 92.209,37.13 C92.189,37.431 92.169,37.711 92.149,38.091 C92.35,37.951 92.51,37.851 92.65,37.751 C93.311,37.23 93.952,36.69 94.633,36.169 C95.113,35.808 95.634,35.528 96.255,35.588 C96.635,35.628 96.976,35.728 97.256,36.009 C97.376,36.109 97.417,36.229 97.356,36.409 C97.236,36.71 97.096,36.91 96.816,37.11 C96.115,37.551 95.474,38.071 94.833,38.592 C94.112,39.153 93.511,39.874 92.71,40.334 C92.63,40.375 92.27,40.615 92.029,40.635 C91.869,41.116 91.709,41.596 91.589,42.077 C91.509,42.357 91.489,42.658 91.448,42.958 C91.388,43.559 91.368,44.18 91.288,44.78 C91.248,45.021 91.048,45.241 90.928,45.461 C90.808,45.682 90.667,45.722 90.427,45.662 C90.007,45.541 89.566,45.521 89.165,45.401 C88.905,45.321 88.665,45.181 88.424,45.061 C87.583,44.64 86.902,44.019 86.161,43.459 C85.901,43.258 85.701,42.958 85.48,42.698 C85.22,42.377 84.92,42.077 84.719,41.736 C84.439,41.236 84.219,40.715 83.998,40.174 C83.918,39.994 84.078,39.814 84.279,39.854 C84.799,39.954 85.3,40.094 85.701,40.435 C86.442,41.035 87.163,41.656 87.904,42.257 C88.224,42.517 88.545,42.758 88.885,42.998 C89.085,43.138 89.185,43.098 89.225,42.878 C89.306,42.417 89.346,41.957 89.426,41.496 C89.486,41.035 89.566,40.555 89.646,40.094 C89.706,39.674 89.766,39.253 89.806,38.832 C89.866,38.232 89.926,37.631 89.986,37.01 C89.986,36.93 89.986,36.85 89.986,36.77 C90.027,34.687 90.047,32.624 90.087,30.541 C90.087,30.361 90.227,30.201 90.307,30.041 L90.478,29.667 C89.807,29.75 89.234,29.418 88.745,28.999 C88.605,28.879 88.585,28.879 88.484,28.739 C88.166,28.437 88.303,28.598 88.067,28.259 C87.132,27.839 86.283,27.262 85.46,26.656 C85.02,26.316 84.679,25.855 84.299,25.434 C84.099,25.214 83.918,24.954 83.718,24.733 C83.257,24.253 83.057,23.632 82.757,23.071 C82.516,22.611 82.296,22.15 82.156,21.649 C82.016,21.229 81.996,20.768 81.936,20.327 C81.916,20.207 81.976,20.047 82.056,19.927 C82.256,19.606 82.536,19.386 82.937,19.286 C83.237,19.206 83.538,19.086 83.818,18.966 C84.477,18.732 84.076,18.843 85.04,18.715 L85.46,18.765 C85.941,18.865 86.422,18.986 86.902,19.106 C87.223,19.186 87.403,19.446 87.543,19.727 C87.623,19.887 87.723,20.067 87.804,20.227 L87.912,20.419 C87.914,20.072 87.92,20.222 87.904,19.967 C87.964,18.966 87.964,18.966 88.024,18.185 C88.024,18.165 88.084,17.323 88.124,16.903 C88.164,16.342 88.324,15.601 88.424,15.06 C88.565,14.279 88.745,13.678 88.925,12.897 C89.266,12.136 89.266,12.136 89.526,11.556 C89.586,11.395 89.626,11.255 89.686,11.095 C89.8,11.048 89.755,11.072 89.825,11.031 C89.761,11.042 89.809,11.033 89.686,11.075 C89.225,10.935 89.065,10.594 89.105,10.154 C89.145,9.673 89.165,9.212 89.266,8.752 C89.326,8.511 89.526,8.311 89.706,8.131 L89.794,8.078 z M90.567,17.263 C90.507,17.684 90.467,18.104 90.427,18.525 L90.567,17.263 z" fill="#5731F2"/>
      <path d="M75.667,0 C76.008,0.08 76.388,0.08 76.749,0.08 C77.61,0.34 78.151,1.001 78.711,1.642 C78.871,1.822 79.032,2.023 79.232,2.143 C79.612,2.383 79.753,2.764 79.873,3.164 C80.033,3.785 80.133,4.426 80.113,5.067 C80.113,5.247 80.153,5.407 80.153,5.588 C80.193,6.549 80.033,7.49 79.693,8.391 C79.552,8.752 79.572,8.792 79.913,8.932 C80.313,9.092 80.734,9.192 81.155,9.353 C81.415,9.453 81.655,9.613 81.936,9.713 C82.276,9.833 82.617,9.913 82.957,10.014 C83.338,10.134 83.658,10.334 83.898,10.674 C84.018,10.835 84.179,10.975 84.339,11.115 C84.699,11.435 84.92,11.836 85.06,12.277 C85.26,12.897 85.42,13.498 85.581,14.119 C85.641,14.339 85.621,14.58 85.581,14.78 C85.14,15.781 83.518,16.382 83.137,16.562 C82.757,16.863 82.316,17.063 81.835,17.143 C81.315,17.243 80.814,17.363 80.293,17.424 C79.653,17.484 79.052,17.283 78.451,17.103 C78.431,17.103 78.411,17.103 78.371,17.103 C77.65,16.723 76.909,16.322 76.168,15.921 C76.148,16.002 76.148,16.022 76.148,16.062 L76.149,16.077 C76.152,16.023 76.149,16.062 76.168,15.962 C76.909,16.362 77.65,16.743 78.371,17.143 C78.411,17.544 78.451,17.924 78.471,18.325 C78.491,18.926 78.491,19.526 78.531,20.127 C78.571,20.588 78.651,21.048 78.711,21.509 C78.751,21.809 78.751,22.13 78.771,22.43 C78.791,23.031 78.811,23.632 78.831,24.253 C78.831,24.293 78.831,24.313 78.851,24.413 C78.952,24.313 79.032,24.253 79.072,24.173 C79.552,23.211 80.394,22.771 81.395,22.57 C81.595,22.53 81.795,22.691 81.795,22.911 C81.795,23.372 81.795,23.812 81.595,24.233 C81.475,24.493 81.475,24.793 81.375,25.074 C80.954,26.195 80.173,26.916 78.992,27.177 C78.811,27.217 78.591,27.577 78.611,27.778 C78.691,28.358 78.751,28.939 78.811,29.52 C78.851,29.88 78.912,30.241 78.952,30.601 C78.952,30.661 78.992,30.701 79.112,30.842 C79.192,30.701 79.292,30.561 79.372,30.441 C79.933,29.66 80.734,29.199 81.575,28.819 C81.695,28.779 81.835,28.779 81.956,28.779 C82.116,28.779 82.176,28.919 82.176,29.059 C82.176,29.26 82.196,29.44 82.176,29.64 C82.156,29.76 82.076,29.88 81.996,29.96 C81.255,30.802 80.313,31.382 79.292,31.823 C79.092,31.903 79.032,32.023 79.032,32.224 C79.072,33.245 79.092,34.286 79.132,35.308 C79.152,35.668 79.192,36.009 79.232,36.449 C79.512,36.229 79.753,36.049 79.973,35.868 C80.554,35.368 81.115,34.847 81.735,34.366 C81.996,34.166 82.316,33.926 82.697,33.946 C82.877,33.946 83.057,33.966 83.237,34.006 C83.498,34.046 83.678,34.366 83.718,34.687 C83.778,35.308 83.538,35.788 83.017,36.149 C82.697,36.369 82.416,36.649 82.076,36.81 C81.315,37.15 80.514,37.471 79.633,37.35 C79.532,37.33 79.452,37.33 79.312,37.29 C79.332,37.691 79.352,38.071 79.392,38.472 C79.432,38.933 79.512,39.373 79.572,39.834 C79.653,40.375 79.713,40.915 79.793,41.456 C79.913,42.217 80.073,42.978 80.133,43.739 C80.153,44.019 80.033,44.4 79.853,44.6 C79.633,44.841 79.272,44.961 78.952,45.081 C78.771,45.141 78.551,45.101 78.411,44.921 C78.271,44.72 78.11,44.5 78.03,44.28 C77.87,43.779 77.77,43.238 77.63,42.738 C77.45,42.097 77.209,41.476 77.029,40.835 C76.909,40.375 76.829,39.914 76.729,39.453 C76.608,38.872 76.488,38.292 76.368,37.731 C76.248,37.15 76.108,36.549 75.968,35.969 C75.968,35.929 75.928,35.708 75.887,35.268 C75.887,35.268 75.787,34.627 75.707,34.066 C75.667,33.826 75.527,33.726 75.367,33.605 C75.227,33.505 75.046,33.485 74.886,33.445 C74.706,33.405 73.564,32.904 73.404,32.784 C73.144,32.584 72.843,32.424 72.543,32.284 C71.762,31.943 71.061,31.503 70.62,30.742 C70.44,30.421 70.36,30.061 70.42,29.66 C70.48,29.26 70.62,28.879 70.801,28.539 C70.901,28.338 71.121,28.258 71.301,28.318 C71.882,28.478 72.443,28.679 73.024,28.879 C73.204,28.939 73.344,29.119 73.504,29.26 C73.845,29.58 74.145,29.9 74.486,30.221 C74.746,30.461 75.026,30.681 75.166,31.022 C75.187,31.102 75.267,31.162 75.367,31.262 C75.387,31.122 75.407,31.062 75.407,30.982 C75.407,29.98 75.407,28.959 75.407,27.958 C75.407,27.737 75.327,27.597 75.086,27.557 C74.486,27.457 73.885,27.377 73.264,27.277 C72.984,27.237 72.723,27.157 72.443,27.137 C71.922,27.077 71.421,26.916 70.941,26.696 C70.34,26.416 70.1,25.915 70,25.314 C69.959,25.034 69.899,24.753 69.879,24.473 C69.879,24.393 69.959,24.273 70.02,24.253 C71.602,23.832 73.064,24.093 74.385,25.054 C74.706,25.294 74.986,25.575 75.146,25.955 C75.166,26.035 75.227,26.095 75.327,26.235 C75.367,26.075 75.387,25.995 75.387,25.895 C75.387,24.233 75.387,22.57 75.387,20.928 C75.447,20.408 75.387,19.947 75.347,19.486 C75.387,19.426 75.407,19.366 75.447,19.326 C75.81,18.87 76.108,18.345 76.158,17.752 C76.081,18.324 75.771,18.825 75.447,19.286 C75.407,19.326 75.387,19.386 75.347,19.446 C74.986,19.827 74.626,20.207 74.265,20.588 C73.664,21.229 72.903,21.609 72.102,21.93 C71.782,22.07 71.461,22.27 71.121,22.33 C70.36,22.45 69.599,22.651 68.818,22.55 C67.857,22.45 66.955,22.19 66.254,21.449 C65.553,20.728 65.213,19.887 65.313,18.865 C65.373,18.245 65.594,17.644 66.054,17.203 C66.775,16.502 67.496,15.801 68.237,15.12 C68.898,14.52 69.599,13.939 70.28,13.358 C70.34,13.298 70.42,13.238 70.46,13.178 C70.52,13.078 70.52,12.957 70.38,12.937 C69.779,12.837 69.178,12.737 68.578,12.637 C67.917,12.537 67.256,12.437 66.615,12.357 C65.774,12.397 64.572,12.156 63.851,11.055 C63.831,10.534 63.831,10.534 63.971,10.334 C64.432,9.713 64.873,9.092 65.393,8.511 C65.894,7.971 66.455,7.49 67.096,7.13 C67.516,6.889 67.977,6.889 68.437,6.809 C68.658,6.769 68.878,6.749 69.098,6.769 C69.299,6.769 69.479,6.809 69.679,6.869 C70.48,7.05 71.301,7.25 72.102,7.45 C72.222,7.49 72.363,7.55 72.483,7.59 C72.723,7.69 72.863,7.59 72.823,7.33 C72.663,6.288 72.503,5.267 72.363,4.226 C72.303,3.785 72.263,3.345 72.323,2.924 C72.383,2.604 72.603,2.303 72.803,2.043 C73.304,1.362 74.005,0.901 74.726,0.521 C75.046,0.36 75.347,0.18 75.667,0 z M76.157,16.168 C76.161,16.213 76.158,16.191 76.167,16.235 L76.157,16.168 z" fill="#5731F2"/>
      <path d="M7.445,27.269 L8.957,27.277 C8.977,27.337 12.942,27.397 14.905,27.437 C15.486,27.437 15.987,27.617 16.487,27.798 C16.547,27.818 16.627,27.898 16.647,27.958 C16.908,29.199 16.748,32.844 16.748,32.904 C16.748,33.726 16.788,34.547 16.748,35.348 C16.668,37.671 16.567,39.994 16.447,42.317 C16.427,42.798 16.347,43.278 16.287,43.739 C16.247,44.1 16.027,44.32 15.666,44.38 C15.045,44.5 14.404,44.6 13.764,44.66 C12.942,44.74 12.121,44.76 11.3,44.8 C11.04,44.821 11.04,44.8 11.06,44.52 C11.1,43.959 11.08,43.419 11.12,42.858 C11.2,41.897 11.32,40.935 11.4,39.974 C11.46,39.253 11.46,38.512 11.46,37.791 C11.46,36.95 11.44,36.129 11.42,35.288 C11.4,34.767 11.22,34.567 10.699,34.527 C9.618,34.426 8.557,34.326 7.475,34.226 C7.355,34.206 7.235,34.186 7.115,34.166 C6.774,34.086 6.554,34.226 6.514,34.567 C6.394,35.969 6.273,37.37 6.173,38.772 C6.053,40.515 5.933,42.237 5.813,43.979 C5.793,44.16 5.793,44.34 5.753,44.52 C5.693,44.841 5.613,44.901 5.292,44.921 C4.391,44.961 3.51,44.821 2.629,44.6 C2.368,44.54 2.108,44.48 1.868,44.4 C1.507,44.3 1.427,44.22 1.427,43.859 C1.447,42.577 1.407,41.276 1.487,39.994 C1.567,38.732 1.367,37.491 1.387,36.229 C1.407,34.807 1.407,33.385 1.467,31.963 C1.507,30.601 1.587,29.219 1.647,27.858 C1.667,27.497 1.707,27.437 2.068,27.417 C3.35,27.357 4.651,27.297 5.933,27.277 L7.445,27.269 z" fill="#5731F2"/>
      <path d="M30.785,6.747 C31.129,6.899 30.986,6.811 31.227,6.989 C32.869,8.311 34.391,9.753 35.793,11.315 C38.257,14.059 40.68,16.823 43.043,19.667 C43.484,20.187 43.924,20.728 44.365,21.269 C44.545,21.489 44.545,21.569 44.345,21.749 C44.064,21.99 43.764,22.21 43.484,22.45 C43.424,22.51 43.344,22.611 43.344,22.691 C43.203,24.353 43.063,26.015 42.963,27.697 C42.883,29.119 42.843,30.521 42.763,31.943 C42.743,32.163 42.703,32.364 42.683,32.584 C42.582,33.545 42.482,34.527 42.402,35.488 C42.262,36.93 42.162,38.392 42.002,39.834 C41.882,40.915 41.681,41.977 41.521,43.058 C41.501,43.258 41.401,43.359 41.181,43.359 C40.76,43.399 37.355,43.399 36.855,43.459 C36.695,43.479 32.969,43.639 32.549,43.699 C32.249,43.739 31.227,43.739 31.027,43.759 C30.546,43.799 30.066,43.859 29.605,43.939 C29.325,43.979 27.762,44.26 27.402,44.28 C26.981,44.3 26.581,44.4 26.16,44.42 C25.7,44.44 23.236,44.36 22.475,44.4 C22.035,44.42 21.955,44.38 21.915,43.939 C21.814,42.998 21.734,42.057 21.614,41.136 C21.494,40.294 21.374,39.433 21.174,38.612 C20.993,37.871 20.953,37.13 21.013,36.389 C21.113,35.208 21.194,34.006 21.294,32.824 C21.314,32.484 21.374,32.163 21.374,31.823 C21.374,31.322 21.334,30.842 21.354,30.341 C21.374,29.199 21.394,28.058 21.414,26.916 C21.414,26.716 21.414,26.516 21.434,26.316 C21.454,26.075 21.334,25.935 21.134,25.895 C20.352,25.755 19.672,25.374 18.971,25.054 C18.67,24.914 18.39,24.793 18.109,24.633 C17.929,24.533 17.769,24.393 17.649,24.233 C17.509,24.073 17.489,23.892 17.609,23.692 C18.19,22.771 18.77,21.85 19.331,20.928 C20.493,19.046 21.975,17.424 23.236,15.641 C23.997,14.58 24.939,13.678 25.6,12.557 C25.84,12.156 26.16,11.796 26.461,11.435 C26.721,11.115 27.001,10.835 27.262,10.514 C27.282,10.494 27.282,10.474 27.302,10.474 C27.702,10.374 27.782,9.973 28.003,9.693 C28.263,9.353 28.584,9.032 28.844,8.692 C29.084,8.391 29.305,8.091 29.545,7.791 C29.725,7.55 29.925,7.31 30.126,7.09 C30.39,6.797 30.41,6.779 30.785,6.747 z M37.301,26.233 C37.227,26.233 37.162,26.269 37.095,26.296 C37.035,26.336 36.995,26.416 36.975,26.476 C36.955,26.776 36.935,27.097 36.955,27.397 C36.955,27.737 36.995,28.098 37.015,28.438 C37.035,29.28 36.815,30.101 36.955,30.942 C36.955,30.982 36.955,31.042 36.955,31.082 C36.915,31.523 36.895,31.963 36.855,32.404 C36.835,32.904 36.855,33.405 36.795,33.906 C36.715,34.667 36.574,35.428 36.474,36.189 C36.434,36.469 36.434,36.75 36.414,37.03 C35.192,37.29 33.971,37.431 32.729,37.411 C32.068,37.411 31.407,37.431 30.746,37.431 C30.466,37.431 30.206,37.411 29.925,37.39 C29.865,37.39 29.805,37.37 29.765,37.39 C28.884,37.531 28.003,37.33 27.142,37.37 C27.142,37.37 27.122,37.37 27.122,37.37 C26.921,37.33 26.781,37.23 26.781,37.01 C26.761,36.69 26.741,36.349 26.701,36.029 C26.681,35.808 26.721,35.688 26.961,35.688 C27.162,35.668 27.242,35.568 27.202,35.368 C27.182,35.288 27.182,35.208 27.162,35.127 C27.021,34.647 27.001,34.146 26.981,33.645 C26.961,33.105 26.861,32.544 26.761,32.003 C26.621,31.122 26.521,30.221 26.22,29.36 C26.04,28.859 25.96,28.358 26,27.818 C26.04,27.377 25.96,27.217 25.559,27.037 C25.379,26.956 25.199,27.057 25.199,27.257 C25.199,27.337 25.219,27.417 25.219,27.497 C25.239,27.898 25.239,28.298 25.259,28.699 C25.259,28.859 25.219,29.039 25.279,29.199 C25.419,29.62 25.259,30.041 25.219,30.441 C25.179,30.882 24.999,31.322 24.919,31.763 C24.738,32.784 24.578,33.786 24.378,34.807 C24.218,35.648 24.178,36.469 24.258,37.31 C24.278,37.611 24.178,37.911 24.138,38.212 C24.118,38.312 24.077,38.392 24.077,38.492 C24.098,38.953 24.118,39.393 24.158,39.854 C24.198,40.214 24.218,40.214 24.598,40.174 C25.399,40.074 26.2,39.994 27.001,39.874 C28.804,39.613 30.606,39.573 32.409,39.553 C33.811,39.553 35.233,39.613 36.634,39.634 C37.255,39.654 37.876,39.634 38.477,39.634 C38.497,39.674 38.577,39.674 38.697,39.674 C38.697,39.533 38.697,39.433 38.677,39.333 C38.377,38.152 38.277,36.93 38.096,35.708 C37.896,34.326 37.656,32.965 37.456,31.583 C37.415,31.362 37.476,31.142 37.496,30.922 C37.496,30.842 37.536,30.762 37.536,30.681 C37.656,29.36 37.756,28.038 37.856,26.716 C37.856,26.596 37.836,26.416 37.756,26.336 C37.645,26.254 37.718,26.297 37.522,26.235 C37.378,26.236 37.452,26.236 37.301,26.233 z M35.533,32.264 C35.273,32.324 35.213,32.504 35.192,32.704 C35.172,32.904 35.092,32.985 34.912,32.985 C34.111,33.005 33.33,33.005 32.529,33.025 C32.369,33.025 32.208,33.045 32.028,33.045 C32.008,33.826 31.988,34.607 31.968,35.368 C31.968,35.548 32.068,35.648 32.249,35.668 C32.489,35.708 32.729,35.748 32.99,35.768 C33.791,35.828 34.592,35.868 35.413,35.908 C35.893,35.929 35.954,35.848 35.913,35.368 C35.813,34.426 35.733,33.465 35.633,32.524 C35.593,32.444 35.553,32.364 35.533,32.264 z M28.644,32.904 C28.644,32.924 28.644,32.944 28.644,32.944 C28.483,32.944 28.303,32.924 28.143,32.944 C27.943,32.965 27.803,33.025 27.823,33.285 C27.863,33.926 27.883,34.587 27.923,35.228 C27.943,35.548 27.983,35.568 28.323,35.548 C29.084,35.528 29.865,35.508 30.626,35.548 C31.087,35.568 31.147,35.568 31.107,35.107 C31.047,34.507 30.947,33.926 30.847,33.325 C30.807,33.105 30.686,33.045 30.446,33.045 C30.146,33.045 29.825,33.045 29.525,33.025 C29.224,33.005 28.924,32.944 28.644,32.904 z M34.147,26.74 C34.078,26.739 34.015,26.772 33.951,26.796 C33.791,26.876 33.63,26.936 33.47,26.996 C33.09,27.097 32.729,27.157 32.349,27.257 C32.028,27.337 31.888,27.477 31.888,27.757 C31.888,28.378 31.908,28.979 31.928,29.6 C31.928,29.84 32.088,29.96 32.329,29.92 C32.469,29.9 32.609,29.86 32.749,29.88 C33.49,29.88 34.171,29.92 34.932,29.96 C35.092,29.98 35.192,29.88 35.132,29.68 C34.972,28.959 34.792,28.238 34.632,27.517 C34.612,27.437 34.572,27.357 34.592,27.297 C34.692,27.097 34.612,26.936 34.472,26.816 L34.356,26.743 C34.22,26.743 34.29,26.744 34.147,26.74 z M27.803,27.517 C27.622,27.517 27.522,27.597 27.522,27.798 C27.542,27.998 27.522,28.218 27.522,28.438 C27.502,28.438 27.482,28.438 27.462,28.438 C27.502,28.819 27.522,29.179 27.562,29.56 C27.582,29.72 27.642,29.88 27.883,29.82 C28.544,29.64 29.204,29.52 29.905,29.64 C30.106,29.68 30.206,29.58 30.226,29.36 C30.266,28.839 30.366,28.318 30.226,27.798 C30.166,27.577 30.106,27.517 29.905,27.537 C29.285,27.537 28.664,27.537 28.043,27.537 L27.803,27.517 z M30.733,19.622 L30.666,19.707 C30.466,20.107 30.146,20.468 29.945,20.848 C29.705,21.269 28.704,22.55 28.544,22.871 C28.544,22.891 28.523,22.891 28.523,22.911 C27.983,23.632 27.422,24.353 26.881,25.074 C26.801,25.174 26.761,25.274 26.661,25.434 C26.941,25.414 27.142,25.394 27.342,25.374 C27.883,25.314 28.443,25.214 28.984,25.214 C29.525,25.214 30.046,25.314 30.586,25.334 C32.188,25.434 33.791,25.514 35.413,25.615 C35.633,25.635 35.773,25.555 35.773,25.334 C35.793,25.054 35.813,24.753 35.793,24.473 C35.793,24.413 35.633,24.293 35.553,24.293 C35.253,24.293 34.692,23.552 34.552,23.392 C34.391,23.231 34.211,23.091 34.071,22.931 C33.55,22.37 33.05,21.789 32.509,21.229 C32.008,20.708 31.487,20.207 30.987,19.707 C30.855,19.599 30.936,19.636 30.733,19.622 z" fill="#5731F2"/>
      <path d="M56.942,18.104 C57.382,18.104 59.505,18.185 60.126,18.205 C60.847,18.225 61.548,18.245 62.269,18.305 C62.75,18.345 63.25,18.445 63.731,18.545 C64.011,18.605 64.212,18.725 64.252,19.066 C64.292,19.526 64.412,19.967 64.332,20.428 C64.252,20.968 63.851,21.309 63.391,21.409 C63.11,21.469 62.83,21.469 62.509,21.529 C62.65,21.569 62.79,21.609 62.93,21.649 C63.27,21.709 63.631,21.769 63.971,21.849 C63.991,21.849 64.011,21.849 64.011,21.849 C64.412,21.95 64.572,22.19 64.632,22.47 C64.632,22.811 64.612,23.151 64.612,23.492 C64.612,23.912 64.652,24.333 64.652,24.753 C64.652,25.134 64.652,25.514 64.652,25.895 C64.672,26.916 64.672,27.918 64.712,28.939 C64.732,29.42 64.812,30.842 64.812,31.082 C64.812,31.322 64.812,31.543 64.812,31.783 C64.792,32.344 65.013,35.728 65.013,36.649 C64.993,38.031 65.013,39.413 65.013,40.795 C65.013,41.015 64.993,41.236 64.953,41.456 C64.893,41.816 64.552,42.077 64.152,42.077 C63.491,42.097 62.81,42.117 62.149,42.117 C61.648,42.137 61.128,42.157 60.627,42.157 C60.086,42.177 59.525,42.177 58.985,42.197 C58.264,42.217 57.543,42.257 56.822,42.297 C56.641,42.297 56.561,42.237 56.561,42.057 C56.561,42.057 56.561,42.037 56.561,42.037 C56.541,40.735 56.521,39.413 56.521,38.111 C56.521,37.691 56.521,37.25 56.521,36.83 C56.501,36.129 56.481,35.408 56.481,34.707 C56.481,34.286 56.461,32.965 56.421,32.704 C54.619,32.644 52.856,32.544 51.054,32.804 C51.034,32.965 50.994,33.145 50.994,33.325 C50.994,34.086 50.974,34.867 50.994,35.628 C51.014,36.429 51.054,37.23 51.074,38.031 C51.074,38.292 51.034,38.572 51.034,38.832 C51.054,39.794 51.114,41.095 51.134,42.037 C51.054,42.738 50.693,42.598 49.852,42.658 C49.071,42.537 48.31,42.337 47.509,42.377 C47.429,42.377 47.369,42.377 47.289,42.377 C46.908,42.337 46.828,42.237 46.788,41.836 C46.748,41.136 46.668,40.415 46.608,39.714 L46.608,36.85 C46.608,36.249 46.628,35.648 46.668,35.047 C46.688,34.647 46.748,31.442 46.648,30.902 C46.628,30.762 46.668,28.358 46.648,28.058 L46.648,23.311 C46.648,22.971 46.548,22.851 46.207,22.831 C46.047,22.811 45.987,22.771 45.967,22.59 C45.867,21.99 45.907,21.95 46.488,21.91 C47.089,21.87 47.689,21.789 48.31,21.729 C48.631,21.689 48.971,21.669 49.292,21.629 C49.352,21.629 49.432,21.589 49.492,21.569 C49.492,21.549 49.492,21.509 49.472,21.489 C49.272,21.489 49.051,21.489 48.851,21.489 C48.25,21.469 46.528,21.169 46.187,21.068 C45.587,20.908 45.246,20.428 45.266,19.867 C45.286,19.626 45.266,19.366 45.266,19.126 C45.266,19.086 45.266,19.026 45.266,18.986 C45.266,18.465 45.346,18.365 45.847,18.325 C46.147,18.305 46.428,18.285 46.728,18.285 C47.91,18.265 49.071,18.245 50.253,18.225 C50.934,18.205 51.615,18.205 52.296,18.185 C52.696,18.165 53.097,18.144 53.517,18.144 C54.018,18.144 56.301,18.104 56.942,18.104 z M48.324,22.909 L47.91,22.911 C47.85,22.911 47.83,23.291 47.83,23.352 C47.89,24.173 47.95,25.855 47.95,25.855 C47.95,26.215 47.93,26.556 47.95,26.916 C47.99,27.397 48.11,27.677 48.651,27.637 C48.891,27.617 49.131,27.597 49.392,27.597 C49.932,27.577 49.972,27.557 49.952,27.016 C49.952,26.916 49.952,26.816 49.952,26.696 C49.952,26.396 49.972,26.095 49.992,25.815 C50.013,25.595 50.053,25.374 50.053,25.154 C50.033,24.593 49.992,24.012 49.972,23.452 C49.952,23.151 49.872,22.971 49.572,22.951 C48.888,22.897 49.303,22.921 48.324,22.909 z M62.229,22.634 C61.796,22.647 61.983,22.641 61.668,22.651 C61.508,22.651 61.368,22.671 61.208,22.671 C61.007,22.651 60.807,22.751 60.767,22.951 C60.727,23.191 60.667,23.432 60.687,23.672 C60.707,24.353 60.767,25.054 60.827,25.735 C60.867,26.195 60.947,26.656 61.027,27.117 C61.027,27.157 61.107,27.217 61.148,27.237 C61.608,27.317 62.069,27.397 62.509,27.477 C62.77,27.537 62.85,27.477 62.85,27.197 C62.83,26.636 62.79,26.055 62.89,25.494 C62.93,25.254 62.95,25.014 62.93,24.793 C62.93,24.513 62.89,23.932 62.89,23.932 C62.89,23.732 62.89,23.552 62.89,23.352 C62.89,22.971 62.71,22.691 62.409,22.651 L62.229,22.634 z M51.62,22.841 L51.334,22.891 C51.254,22.911 51.174,23.031 51.174,23.091 C51.174,23.352 51.194,23.592 51.214,23.852 C51.234,24.133 51.274,24.413 51.314,24.693 C51.334,24.874 51.374,25.054 51.414,25.234 C51.495,25.675 51.615,26.516 51.595,26.516 C51.595,26.716 51.575,26.916 51.595,27.117 C51.615,27.197 51.715,27.317 51.795,27.317 C51.975,27.337 52.175,27.337 52.376,27.317 C52.756,27.277 52.796,27.217 52.796,26.816 C52.796,26.556 52.756,26.275 52.796,26.015 C52.876,25.555 52.856,25.094 52.796,24.633 C52.736,24.213 52.636,23.792 52.736,23.372 C52.796,23.151 52.696,23.031 52.476,22.951 C52.006,22.829 52.289,22.883 51.62,22.841 z M54.979,22.711 C54.659,22.711 54.318,22.811 53.998,22.871 C53.938,22.891 53.858,22.991 53.858,23.051 C53.858,23.412 53.878,23.772 53.918,24.113 C53.978,24.633 54.078,25.154 54.138,25.675 C54.198,26.095 54.238,26.496 54.298,26.916 C54.298,26.976 54.398,27.057 54.459,27.057 C54.839,27.077 55.2,27.097 55.58,27.117 C55.72,27.117 55.84,27.137 55.981,27.157 C56.261,27.197 56.421,27.117 56.461,26.816 C56.501,26.496 56.541,26.175 56.561,25.855 C56.561,25.074 56.541,24.273 56.541,23.452 C56.521,23.452 56.501,23.231 56.501,23.111 C56.521,22.951 56.441,22.831 56.281,22.811 C55.84,22.771 55.42,22.711 54.979,22.711 z M57.732,22.647 C57.487,22.69 57.187,22.777 57.122,23.051 C57.122,23.532 57.142,24.012 57.162,24.513 C57.222,25.274 57.302,26.015 57.342,26.776 C57.362,27.097 57.382,27.137 57.703,27.117 C58.083,27.137 58.464,27.097 58.884,27.077 C58.945,26.736 59.005,26.376 59.045,26.015 C59.065,25.755 59.065,25.474 59.045,25.214 C59.025,24.513 58.985,23.812 58.945,23.111 C58.925,22.851 58.844,22.771 58.584,22.751 C58.324,22.731 58.083,22.691 57.843,22.651 L57.732,22.647 z" fill="#5731F2"/>
      <path d="M70.882,33.724 L71.021,33.726 C71.381,33.766 71.742,33.826 72.102,33.806 C72.483,33.806 72.843,33.906 73.144,34.106 C73.344,34.246 73.524,34.447 73.684,34.627 C73.965,34.927 74.205,35.248 74.486,35.548 C74.566,35.648 75.527,36.649 75.627,36.73 C75.887,36.93 76.088,37.17 76.188,37.491 C76.288,37.831 76.188,37.951 75.847,37.991 C75.447,38.031 75.026,38.111 74.506,38.192 C74.225,38.111 73.825,38.031 73.464,37.891 C72.883,37.671 72.323,37.411 71.762,37.13 C71.281,36.89 70.881,36.529 70.58,36.069 C70.48,35.908 70.42,35.728 70.42,35.528 C70.38,34.987 70.42,34.467 70.6,33.966 C70.709,33.763 70.627,33.856 70.882,33.724 z" fill="#5731F2"/>
      <path d="M10.326,12.244 L10.559,12.297 C10.76,12.377 11.2,12.717 11.26,12.797 C11.941,13.739 12.262,14.48 12.702,15.421 C13.403,16.723 14.144,17.984 14.805,19.286 C15.185,20.027 15.486,20.828 15.786,21.609 C16.127,22.49 16.427,23.392 16.748,24.293 C16.928,24.773 17.008,25.274 16.928,25.795 C16.868,26.115 16.748,26.255 16.407,26.275 C16.047,26.296 15.686,26.316 15.326,26.316 C14.525,26.336 13.744,26.376 12.942,26.356 C11.721,26.316 10.479,26.255 9.257,26.195 C8.436,26.155 7.655,26.135 6.694,26.095 C5.793,26.135 4.731,26.195 3.65,26.255 C3.39,26.275 3.109,26.195 2.849,26.195 C2.408,26.175 1.968,26.175 1.547,26.175 C1.247,26.175 1.147,26.055 1.207,25.755 C1.227,25.655 1.267,25.575 1.307,25.494 C2.188,23.792 3.089,22.09 3.97,20.388 C4.451,19.466 4.872,18.525 5.392,17.644 C5.833,16.883 8.857,13.458 9.718,12.517 C10.016,12.261 9.826,12.377 10.326,12.244 z" fill="#5731F2"/>
      <path d="M92.352,8.562 L92.45,8.612 C92.71,8.812 92.991,9.012 93.251,9.232 C93.331,9.313 93.391,9.413 93.451,9.513 C93.551,9.673 93.651,9.833 93.732,9.993 C93.852,10.174 93.892,10.374 93.812,10.594 C93.671,10.975 93.471,11.315 93.191,11.576 C93.091,11.716 92.93,11.776 92.81,11.856 C92.57,11.716 92.33,11.596 92.089,11.455 C92.009,11.055 91.929,10.634 91.829,10.234 C91.709,9.673 91.809,9.152 92.129,8.672 C92.229,8.557 92.162,8.605 92.352,8.562 z" fill="#5731F2"/>
    </g>
  </g>
</svg>
