<?xml version="1.0" encoding="UTF-8"?>
<!DOCTYPE svg PUBLIC "-//W3C//DTD SVG 1.1//EN" "http://www.w3.org/Graphics/SVG/1.1/DTD/svg11.dtd">
<svg version="1.1" xmlns="http://www.w3.org/2000/svg" xmlns:xlink="http://www.w3.org/1999/xlink" x="0" y="0" width="200" height="200" viewBox="0, 0, 200, 200">
  <g id="Layer_1">
    <g id="logo">
      <path d="M9.303,118.039 L9.303,118.48 C7.5,118.48 7.26,118.921 7.62,120.082 L9.943,127.412 L12.907,118.039 L13.188,118.039 L16.152,127.412 L18.475,120.122 C18.835,118.961 18.515,118.52 16.993,118.52 L16.993,118.079 L21.759,118.079 L21.759,118.52 C19.997,118.52 19.677,118.961 19.236,120.362 L15.791,131.177 L15.511,131.177 L12.547,121.764 L9.543,131.177 L9.262,131.177 L5.898,120.322 C5.417,118.76 5.137,118.48 3.375,118.48 L3.375,118.039 L9.303,118.039 z" fill="#5731F2"/>
      <path d="M124.178,117.599 L124.178,122.285 L123.737,122.285 C123.577,120.603 122.936,118.56 120.493,118.56 C119.291,118.56 118.45,119.401 118.45,120.443 C118.45,121.564 119.211,122.125 121.053,123.086 L123.056,124.128 C124.698,124.969 125.299,126.17 125.299,127.372 C125.299,129.695 123.417,131.177 121.254,131.177 C119.652,131.177 118.61,130.336 117.929,130.176 C117.689,130.376 117.409,130.696 117.328,131.177 L116.848,131.177 L116.848,126.451 L117.288,126.451 C117.288,126.451 117.328,130.256 121.214,130.256 C122.736,130.256 123.857,129.295 123.857,127.933 C123.857,126.971 122.896,126.13 121.414,125.369 L119.371,124.328 C118.129,123.687 117.008,122.445 117.008,120.843 C117.008,119.081 118.49,117.679 120.533,117.679 C121.774,117.679 122.495,118.079 123.136,118.56 C123.377,118.36 123.657,118.039 123.737,117.599 L124.178,117.599 z" fill="#5731F2"/>
      <path d="M155.5,123.326 C157.863,123.326 159.786,125.049 159.786,127.212 C159.786,129.375 157.863,131.137 155.5,131.137 C153.137,131.137 151.214,129.375 151.214,127.212 C151.214,125.049 153.137,123.326 155.5,123.326 z M155.5,124.128 C153.778,124.128 152.936,125.489 152.936,127.212 C152.936,128.894 153.778,130.296 155.5,130.296 C157.262,130.296 158.063,128.934 158.063,127.212 C158.063,125.529 157.262,124.128 155.5,124.128 z" fill="#5731F2"/>
      <path d="M132.669,123.326 C134.431,123.326 135.193,124.088 135.193,124.849 C135.193,125.169 134.992,125.77 134.271,125.77 C133.791,125.77 133.43,125.369 133.43,124.929 C133.43,124.248 133.03,124.007 132.669,124.007 C131.548,124.007 130.626,125.449 130.626,127.412 C130.626,129.094 131.467,130.216 133.19,130.216 C133.871,130.216 134.752,129.895 135.473,129.255 L135.833,129.735 C135.032,130.616 133.871,131.137 132.669,131.137 C130.306,131.137 128.904,129.535 128.904,127.412 C128.904,124.889 130.947,123.326 132.669,123.326 z" fill="#5731F2"/>
      <path d="M78.356,123.687 L78.356,124.128 C77.394,124.128 77.274,124.368 77.715,125.369 L79.157,128.854 L81.36,123.687 L81.8,123.687 L83.963,128.854 L85.445,125.369 C85.846,124.448 85.766,124.128 84.845,124.128 L84.845,123.687 L87.809,123.687 L87.809,124.128 C87.048,124.128 86.687,124.448 86.286,125.369 L83.803,131.137 L83.363,131.137 L81.2,126.09 L79.037,131.137 L78.596,131.137 L76.033,125.369 C75.632,124.448 75.272,124.128 74.591,124.128 L74.591,123.687 L78.356,123.687 z" fill="#5731F2"/>
      <path d="M67.942,123.326 C70.305,123.326 72.228,125.049 72.228,127.212 C72.228,129.375 70.305,131.137 67.942,131.137 C65.579,131.137 63.656,129.375 63.656,127.212 C63.656,125.049 65.579,123.326 67.942,123.326 z M67.942,124.128 C66.219,124.128 65.378,125.489 65.378,127.212 C65.378,128.894 66.219,130.296 67.942,130.296 C69.704,130.296 70.505,128.934 70.505,127.212 C70.505,125.529 69.704,124.128 67.942,124.128 z" fill="#5731F2"/>
      <path d="M93.777,123.326 C95.659,123.326 97.181,124.849 96.66,126.691 L91.534,126.691 C91.293,128.694 92.094,130.216 94.297,130.216 C94.978,130.216 96.02,129.815 96.62,129.255 L97.021,129.735 C96.26,130.536 94.978,131.137 93.777,131.137 C91.453,131.137 89.851,129.375 89.851,127.212 C89.851,124.969 91.814,123.326 93.777,123.326 z M93.656,124.168 C92.735,124.168 91.974,124.849 91.654,125.89 L95.178,125.89 C95.419,125.209 95.058,124.168 93.656,124.168 z" fill="#5731F2"/>
      <path d="M167.556,123.326 C169.919,123.326 171.842,125.049 171.842,127.212 C171.842,129.375 169.919,131.137 167.556,131.137 C165.193,131.137 163.27,129.375 163.27,127.212 C163.27,125.049 165.193,123.326 167.556,123.326 z M167.556,124.128 C165.834,124.128 164.993,125.489 164.993,127.212 C164.993,128.894 165.834,130.296 167.556,130.296 C169.319,130.296 170.12,128.934 170.12,127.212 C170.12,125.529 169.319,124.128 167.556,124.128 z" fill="#5731F2"/>
      <path d="M45.311,117.679 L45.311,127.853 C45.311,129.855 45.632,130.136 46.793,130.136 L46.793,130.536 L44.19,131.057 C44.069,130.857 43.909,130.176 43.869,129.815 C43.268,130.576 42.427,131.097 41.266,131.097 C39.223,131.137 37.541,129.375 37.541,127.212 C37.541,125.049 39.223,123.326 41.226,123.326 C42.267,123.326 43.188,123.807 43.829,124.568 L43.829,121.123 C43.829,119.001 43.589,118.64 42.147,118.64 L42.147,118.2 L45.311,117.679 z M41.666,124.208 C40.024,124.208 39.263,125.529 39.263,127.252 C39.263,128.934 40.024,130.296 41.666,130.296 C42.668,130.256 43.469,129.575 43.829,128.614 L43.829,125.89 C43.429,124.889 42.628,124.208 41.666,124.208 z" fill="#5731F2"/>
      <path d="M187.143,123.326 L187.143,125.77 L186.702,125.77 C186.702,124.889 186.061,123.967 184.98,123.967 C184.259,123.967 183.898,124.368 183.898,124.889 C183.898,125.409 184.219,125.69 185.18,126.17 L186.181,126.731 C187.103,127.252 187.663,128.013 187.663,128.774 C187.663,130.176 186.502,131.097 185.14,131.097 C184.179,131.097 183.458,130.416 183.137,130.416 C182.937,130.416 182.857,130.576 182.857,131.097 L182.416,131.097 L182.416,128.013 L182.897,128.013 C182.897,128.974 183.698,130.376 185.22,130.376 C185.901,130.376 186.422,129.895 186.422,129.295 C186.422,128.774 185.941,128.373 185.22,128.013 L184.018,127.372 C183.017,126.811 182.617,125.93 182.617,125.249 C182.617,124.088 183.658,123.327 184.779,123.327 C185.901,123.327 186.301,123.807 186.582,123.807 C186.662,123.807 186.702,123.647 186.702,123.327 L187.143,123.326 z" fill="#5731F2"/>
      <path d="M105.432,123.367 C106.594,123.367 107.115,124.168 107.115,124.688 C107.115,125.169 106.914,125.69 106.273,125.69 C105.873,125.69 105.512,125.329 105.512,124.929 C105.512,124.488 105.272,124.248 104.832,124.248 C104.351,124.248 103.189,125.049 103.189,126.731 L103.189,127.893 C103.189,130.016 103.43,130.376 104.872,130.376 L104.872,130.817 L100.025,130.817 L100.025,130.296 C101.427,130.296 101.707,129.935 101.707,127.813 L101.707,126.771 C101.707,124.648 101.427,124.328 100.025,124.328 L100.025,123.887 L102.829,123.367 C102.949,123.567 103.109,124.448 103.189,124.889 C103.63,124.047 104.551,123.367 105.432,123.367 z" fill="#5731F2"/>
      <path d="M177.85,117.679 L177.85,127.853 C177.85,129.975 178.13,130.336 179.532,130.336 L179.532,130.777 L174.686,130.777 L174.686,130.296 C176.128,130.296 176.368,129.935 176.368,127.813 L176.368,121.123 C176.368,119.001 176.128,118.64 174.686,118.64 L174.686,118.2 L177.85,117.679 z" fill="#5731F2"/>
      <path d="M59.13,117.999 L59.13,127.813 C59.13,129.935 59.37,130.296 60.812,130.296 L60.812,130.736 L55.966,130.736 L55.966,130.296 C57.367,130.296 57.648,129.935 57.648,127.813 L57.648,121.123 C57.648,119.201 57.247,118.72 56.126,118.72 C53.763,118.72 52.881,119.121 52.881,122.005 L52.881,123.687 L55.004,123.687 L55.004,124.448 L52.881,124.448 L52.881,127.853 C52.881,129.975 53.122,130.336 54.564,130.336 L54.564,130.777 L49.717,130.777 L49.717,130.296 L49.677,130.296 C51.079,130.296 51.359,129.935 51.359,127.813 L51.359,124.408 L49.637,124.408 L49.637,123.647 L51.359,123.647 L51.359,121.965 C51.359,119.081 52.881,117.999 55.205,117.999 L59.13,117.999 z" fill="#5731F2"/>
      <path d="M32.974,117.679 L32.974,127.853 C32.974,129.975 33.255,130.336 34.657,130.336 L34.657,130.777 L29.81,130.777 L29.81,130.296 C31.252,130.296 31.492,129.935 31.492,127.813 L31.492,121.123 C31.492,119.001 31.252,118.64 29.81,118.64 L29.81,118.2 L32.974,117.679 z" fill="#5731F2"/>
      <path d="M25.885,123.367 L25.885,127.853 C25.885,129.975 26.125,130.336 27.567,130.336 L27.567,130.777 L22.721,130.777 L22.721,130.296 C24.123,130.296 24.403,129.935 24.403,127.813 L24.403,126.771 C24.403,124.648 24.123,124.328 22.721,124.328 L22.721,123.887 L25.885,123.367 z" fill="#5731F2"/>
      <path d="M141.201,117.679 L141.201,124.889 C141.801,124.168 142.763,123.367 143.964,123.367 C145.927,123.367 146.568,124.728 146.568,126.531 L146.568,127.853 C146.568,129.975 146.848,130.336 148.25,130.336 L148.25,130.777 L143.524,130.777 L143.524,130.336 C144.846,130.336 145.046,130.056 145.046,127.853 L145.046,126.611 C145.046,125.249 144.565,124.328 143.444,124.328 C142.362,124.328 141.161,125.249 141.161,126.451 L141.161,127.813 C141.161,130.016 141.321,130.296 142.482,130.296 L142.482,130.736 L137.956,130.736 L137.956,130.296 L138.036,130.296 C139.478,130.296 139.719,129.935 139.719,127.813 L139.719,121.123 C139.719,119.001 139.478,118.64 138.036,118.64 L138.036,118.2 L141.201,117.679 z" fill="#5731F2"/>
      <path d="M25.124,119.361 C25.645,119.361 26.045,119.802 26.045,120.282 C26.045,120.803 25.605,121.244 25.124,121.244 C24.603,121.244 24.203,120.843 24.203,120.282 C24.203,119.762 24.643,119.361 25.124,119.361 z" fill="#5731F2"/>
      <path d="M98.022,104.261 C99.464,104.261 100.906,104.261 102.308,104.381 C103.39,104.461 104.471,104.541 105.553,104.902 C106.153,105.102 106.474,105.783 106.594,106.344 C106.674,106.864 106.834,107.345 106.954,107.866 C106.994,108.106 106.994,108.266 106.674,108.426 C105.833,108.426 104.992,108.426 104.151,108.466 C103.71,108.466 103.269,108.547 102.829,108.627 C102.709,108.627 100.466,108.787 99.504,108.747 C98.223,108.707 96.941,108.787 95.619,108.827 C94.538,108.867 93.456,108.987 92.375,108.987 C91.814,108.987 91.213,109.107 90.652,109.107 C89.931,109.107 89.611,109.107 88.85,109.107 C87.608,108.987 86.607,108.707 86.527,107.545 C86.487,106.784 86.607,105.983 86.727,105.182 C86.767,104.741 87.328,104.421 87.889,104.381 C88.409,104.381 88.93,104.381 89.491,104.381 C89.451,104.301 92.775,104.261 94.417,104.261 L98.022,104.261 z" fill="#5731F2"/>
      <path d="M133.15,104.341 C134.111,104.341 136.474,104.701 136.755,104.741 C137.155,104.741 137.395,104.982 137.476,105.302 C137.596,106.023 137.716,106.744 137.756,107.505 C137.796,108.266 137.676,108.266 137.075,108.386 C135.513,108.707 133.951,108.947 132.349,108.867 C131.107,108.827 129.865,108.867 128.664,108.867 C127.903,108.867 127.102,108.787 126.341,108.787 C125.7,108.787 121.214,108.867 120.332,108.987 C120.132,109.027 119.291,108.907 119.091,108.907 C118.129,108.907 117.168,108.947 116.167,108.987 C115.566,108.987 114.845,107.425 114.725,107.225 C114.364,105.863 114.725,105.783 115.085,105.102 C115.366,104.581 115.806,104.501 116.327,104.541 C117.048,104.581 117.769,104.621 118.53,104.621 C118.85,104.621 124.258,104.341 124.899,104.341 L133.15,104.341 z" fill="#5731F2"/>
      <path d="M146.768,103.94 C148.21,103.98 149.612,104.02 151.054,104.061 C151.655,104.101 152.256,104.141 152.856,104.141 C153.978,104.141 155.059,104.181 156.181,104.101 C157.342,104.02 158.464,104.341 159.626,104.341 C161.027,104.341 162.469,104.501 163.871,104.621 C165.113,104.661 165.954,104.902 166.915,105.623 C167.076,105.863 167.116,105.983 167.076,106.424 C167.076,106.864 166.955,107.425 166.675,107.665 C166.074,108.186 165.353,108.507 164.472,108.547 C160.987,108.587 157.543,108.787 154.058,108.747 C152.175,108.747 150.293,108.386 148.37,108.186 C147.649,108.106 146.928,108.066 146.207,108.026 C145.647,107.986 145.246,107.745 145.006,107.305 C144.926,107.145 144.926,106.904 144.926,106.704 C144.926,106.584 145.166,105.102 145.486,104.541 C145.767,104.02 146.247,103.94 146.768,103.94 z" fill="#5731F2"/>
      <path d="M183.498,103.606 C183.996,103.614 183.796,103.607 184.099,103.62 C184.9,103.7 185.701,103.78 186.542,103.86 C187.583,103.98 188.625,104.02 189.626,104.181 C190.667,104.341 191.228,105.382 190.828,106.424 C190.748,106.704 190.748,106.984 190.627,107.265 C190.307,107.826 188.985,107.946 188.464,108.106 C186.982,108.386 186.382,108.506 185.34,108.426 C185.22,108.426 185.1,108.386 185.02,108.386 C183.458,108.266 179.012,107.786 178.571,107.745 C178.09,107.705 177.61,107.665 177.129,107.705 C176.648,107.705 176.168,107.826 175.687,107.826 C174.726,107.826 173.805,107.745 172.843,107.705 C172.763,107.705 172.683,107.665 172.603,107.625 C172.082,107.345 171.602,106.183 171.722,105.502 C171.882,104.661 172.323,104.181 173.164,104.101 C175.046,103.98 176.929,103.86 178.691,103.74 C180.291,103.636 181.895,103.611 183.498,103.606 z" fill="#5731F2"/>
      <path d="M61.693,103.78 C63.295,103.82 64.898,103.9 66.5,103.98 C67.061,104.02 67.621,104.061 68.142,104.061 C69.424,104.141 70.786,104.02 72.027,104.301 C73.79,104.701 75.512,104.541 77.274,104.661 C78.196,104.701 78.556,106.143 78.636,106.464 C78.676,106.744 78.716,107.025 78.716,107.305 C78.716,107.906 78.636,107.986 77.995,108.026 C77.314,108.026 76.633,108.026 75.912,108.066 C75.392,108.106 74.911,108.186 74.39,108.186 C73.069,108.186 71.747,108.106 70.425,108.106 C68.663,108.106 66.9,108.186 65.098,108.186 C64.817,108.186 64.537,108.106 64.257,108.106 C64.016,108.106 63.776,108.106 63.536,108.106 C62.655,108.146 61.773,108.066 61.213,107.225 C61.132,107.105 61.092,106.904 61.052,106.744 C60.972,106.143 60.892,105.583 60.772,104.982 C60.612,104.301 61.012,103.74 61.693,103.78 z" fill="#5731F2"/>
      <path d="M45.447,103.737 L45.632,103.74 C46.753,103.82 47.835,103.74 48.956,103.78 C49.717,103.78 50.478,103.74 51.199,103.9 C52,104.101 52.521,105.262 52.281,106.103 C52.241,106.304 52.2,106.504 52.12,106.664 C51.84,107.545 51.199,107.866 50.278,107.786 C49.196,107.705 48.115,107.826 47.033,107.866 C46.353,107.866 45.672,107.866 44.951,107.866 C44.51,107.866 39.664,107.665 39.303,107.665 C38.903,107.665 33.936,107.225 33.415,107.185 C32.694,107.105 32.053,106.223 31.933,105.703 C31.733,104.781 31.973,104.501 32.974,104.381 C33.856,104.341 34.777,104.221 36.059,104.061 C37.06,104.061 38.382,104.061 39.744,104.061 C41.646,103.978 43.543,103.794 45.447,103.737 z" fill="#5731F2"/>
      <path d="M15.214,103.53 L15.631,103.54 C17.514,103.58 19.396,103.62 21.279,103.7 C21.439,103.7 21.719,103.9 21.719,104.02 C21.759,104.621 21.759,105.182 21.679,105.783 C21.639,106.223 21.279,106.424 20.838,106.504 C20.117,106.624 19.356,106.784 18.635,106.864 C17.634,106.984 16.632,107.065 15.631,107.145 C13.789,107.305 11.906,107.425 10.064,107.665 C8.461,107.906 6.939,107.866 5.457,107.265 C4.857,107.024 4.616,106.744 4.616,106.063 C4.576,104.701 5.177,103.98 6.539,103.7 C6.939,103.62 7.34,103.66 7.74,103.66 C9.383,103.66 11.025,103.66 12.627,103.66 C12.656,103.65 12.684,103.634 12.715,103.63 C13.543,103.529 14.382,103.538 15.214,103.53 z" fill="#5731F2"/>
      <path d="M148.206,92.515 L150.213,92.525 C152.135,92.525 154.018,92.685 155.9,92.805 C157.022,92.845 158.184,92.925 159.305,93.006 C160.867,93.086 162.469,93.206 164.031,93.286 C165.353,93.366 166.675,93.446 167.997,93.566 C169.559,93.686 171.081,93.887 172.643,94.047 C173.965,94.167 178.851,94.247 180.173,94.327 C181.615,94.448 185.34,94.448 185.901,94.568 C186.982,94.768 187.103,94.768 189.145,95.008 C190.547,95.249 191.468,95.93 191.709,97.291 C191.709,97.412 191.749,97.492 191.789,97.612 C191.909,98.132 191.629,98.493 191.068,98.453 C190.467,98.413 189.826,98.413 189.225,98.333 C188.224,98.213 187.183,98.092 186.181,97.972 C185.46,97.892 184.779,97.812 184.058,97.772 C182.456,97.692 180.854,97.652 179.252,97.572 C178.811,97.532 178.411,97.572 178.01,97.572 C177.41,97.612 175.247,97.492 174.806,97.492 C171.802,97.452 163.911,97.131 162.95,97.131 C161.308,97.091 159.626,97.051 157.983,97.051 C157.302,97.051 149.612,97.291 149.051,97.331 C147.85,97.371 146.648,97.412 145.406,97.412 C144.725,97.412 139.719,97.251 138.837,97.211 C137.796,97.171 136.755,97.091 135.713,97.051 C135.273,97.051 131.588,96.931 131.347,96.971 C128.544,97.011 120.332,97.291 119.011,97.452 C118.45,97.492 113.203,97.812 112.402,97.932 C111.44,98.052 110.479,98.132 109.518,98.213 C109.478,98.213 109.438,98.213 109.438,98.213 C108.156,98.293 106.874,98.373 105.593,98.373 C104.992,98.373 88.81,98.813 87.849,98.813 C86.967,98.813 84.845,98.773 84.644,98.773 C82.762,98.693 80.879,98.653 78.997,98.573 C78.716,98.573 75.392,98.213 74.03,98.253 C73.309,98.293 68.623,98.052 67.261,98.092 C66.42,98.092 65.579,98.092 64.737,98.092 C64.056,98.092 57.608,97.732 56.646,97.772 C55.845,97.772 53.923,97.652 53.723,97.652 C53.202,97.652 41.987,97.812 41.907,97.852 C41.226,97.892 33.816,97.732 33.135,97.812 C32.093,97.932 25.685,98.173 24.844,98.493 C24.483,98.613 24.083,98.613 23.722,98.653 C22.921,98.733 15.992,99.094 15.431,99.134 C14.63,99.174 6.979,99.895 5.658,99.855 C4.456,99.695 3.375,99.174 2.293,98.653 C1.933,98.493 0.371,97.251 0.09,96.33 C-0.03,95.849 -0.03,95.729 0.09,95.489 C0.371,95.048 0.651,95.008 1.091,95.008 C2.694,94.928 6.299,94.728 7.901,94.648 C9.102,94.608 14.189,94.728 15.231,94.728 C16.312,94.728 20.838,94.648 22.04,94.528 C22.761,94.448 23.482,94.407 24.203,94.327 C27.407,93.967 35.338,93.967 36.139,93.927 C37.661,93.847 39.223,93.807 40.745,93.727 C41.786,93.686 48.836,94.007 49.917,94.007 C49.957,94.007 49.998,94.007 50.078,94.007 C52.441,93.967 54.764,93.927 57.127,93.927 C58.249,93.927 59.37,94.007 60.452,94.007 C62.094,93.967 63.736,93.887 65.378,93.807 C65.979,93.767 66.62,93.727 67.221,93.727 C68.823,93.646 70.385,93.566 71.987,93.526 C73.549,93.526 75.151,93.566 76.714,93.606 C78.196,93.646 79.678,93.646 81.16,93.686 C82.521,93.727 83.883,93.807 85.245,93.887 C85.846,93.927 86.407,93.967 87.007,93.967 C88.77,94.007 90.532,94.047 92.335,94.047 C93.777,94.047 95.219,94.007 96.62,93.967 C97.862,93.927 99.144,93.767 100.386,93.686 C100.506,93.686 100.626,93.686 100.706,93.686 C101.787,93.646 102.909,93.646 103.99,93.606 C105.152,93.566 106.354,93.486 107.515,93.406 C108.877,93.326 110.279,93.246 111.641,93.206 C113.043,93.166 114.404,93.126 115.806,93.086 C116.527,93.046 117.288,93.006 118.009,93.006 C119.692,93.006 121.374,93.086 123.096,93.086 C124.698,93.086 126.301,93.006 127.943,93.006 C128.383,93.006 128.784,93.086 129.224,93.086 C130.987,93.046 132.749,92.966 134.512,92.885 C135.753,92.845 137.035,92.765 138.277,92.685 C139.598,92.645 140.88,92.605 142.202,92.605 C145.541,92.547 143.54,92.579 148.206,92.515 z" fill="#5731F2"/>
      <path d="M179.589,16.157 C180.123,16.229 179.912,16.128 180.253,16.382 C181.415,17.544 181.976,18.865 181.575,20.548 C181.495,20.948 181.455,21.389 181.375,21.789 C181.241,22.446 180.989,22.578 180.355,22.629 L180.333,22.671 C180.133,23.311 180.013,23.952 179.773,24.593 C179.532,25.274 178.691,27.998 178.571,28.719 C178.451,29.68 178.331,30.601 178.211,31.563 C178.171,31.963 178.13,32.364 178.09,32.804 C178.05,33.285 177.45,42.137 177.57,42.457 C177.57,42.457 177.89,43.098 178.01,42.457 C178.331,40.455 179.132,34.847 179.532,32.924 C180.053,31.002 181.094,28.679 181.976,26.956 C182.617,25.675 183.378,24.393 184.058,23.151 C184.099,23.071 184.099,22.991 184.139,22.951 C184.619,23.231 185.1,23.472 185.581,23.752 C184.94,25.074 184.339,26.436 183.618,27.717 C182.897,28.959 182.296,30.241 181.855,31.603 C181.704,32.066 181.537,32.524 181.397,32.99 C181.863,33.151 181.666,33.14 181.976,33.125 C182.613,32.907 182.215,33.049 183.16,32.677 C183.462,32.121 183.728,31.543 184.058,31.002 C185.34,29.119 185.3,28.679 186.181,27.717 C186.862,26.996 187.543,26.275 188.304,25.595 C188.966,25.018 189.685,24.514 190.384,23.985 C190.31,23.762 190.141,23.594 190.027,23.392 C189.586,22.03 190.147,21.269 190.868,20.307 C191.487,19.535 192.354,19.606 193.254,19.58 C194.422,19.879 193.969,19.668 194.673,20.067 C194.873,20.227 195.073,20.788 195.234,20.988 C195.274,21.669 194.833,22.31 194.713,22.671 C194.272,23.231 193.752,23.872 193.111,24.193 C192.621,24.482 192.032,24.463 191.484,24.473 C190.959,25.31 191.244,24.895 190.627,25.715 C189.306,27.117 185.821,32.284 185.821,32.524 L185.785,32.622 C186.307,33.304 186.03,32.962 186.622,33.645 C187.103,34.166 187.343,34.727 187.503,35.408 C187.743,36.409 188.064,37.411 188.344,38.452 L188.231,38.738 C188.321,38.538 188.269,38.659 188.384,38.372 C189.306,36.569 190.027,34.647 190.587,32.684 C191.002,30.992 190.809,31.829 191.168,30.175 L191.148,30.121 C191.108,29.28 191.268,28.438 191.789,27.717 C192.31,26.996 193.832,26.516 194.432,27.117 C194.593,27.277 194.753,27.557 194.713,27.717 C194.633,28.278 194.513,28.879 194.232,29.36 C194.032,29.76 193.551,30.001 193.191,30.281 C192.925,30.567 193.059,30.433 192.79,30.684 C192.717,32.213 192.177,33.661 191.669,35.087 C191.336,36.032 191.019,36.984 190.724,37.941 C190.676,38.096 190.479,38.656 190.468,38.92 C191.586,37.472 191.012,38.203 192.189,36.73 C192.79,36.009 193.391,35.248 194.032,34.567 C194.192,34.366 194.513,34.246 194.793,34.246 C195.834,34.206 196.796,34.366 197.637,35.047 C197.957,35.328 198.438,35.488 198.798,35.728 C199.439,36.129 199.68,36.73 199.72,37.451 C199.76,37.931 199.88,38.412 200,38.893 C200,39.293 200,39.734 200,40.134 C199.559,41.256 199.159,42.377 198.638,43.459 C198.198,44.38 197.597,45.221 197.076,46.062 C196.435,47.104 195.794,48.145 195.073,49.106 C194.553,49.827 193.952,50.508 193.311,51.149 C192.109,52.431 190.988,53.793 189.986,55.195 C189.866,55.355 189.746,55.475 189.586,55.595 C189.626,55.074 189.466,54.674 189.065,54.353 C188.347,53.862 188.773,54.128 187.763,53.594 C188.274,53.942 188.569,54.167 189.025,54.514 C189.426,54.794 189.586,55.235 189.546,55.755 C189.306,55.996 189.105,56.276 188.865,56.516 C188.424,57.037 188.024,57.518 187.303,57.678 C186.902,57.758 186.582,58.038 186.221,58.279 C185.438,58.831 184.514,59.064 183.582,59.199 C183.585,59.268 183.581,59.213 183.618,59.36 C184.299,60.402 184.619,61.563 184.739,62.765 C184.779,63.326 184.9,63.846 184.9,64.407 C184.9,65.208 184.82,66.049 184.82,66.85 C184.82,67.411 185.02,67.932 184.98,68.492 C184.9,69.614 184.739,70.736 184.619,71.817 C184.539,72.618 184.459,73.459 184.419,74.26 C184.379,74.861 184.339,75.422 184.299,76.183 C184.699,75.902 185.02,75.702 185.3,75.502 C186.622,74.461 187.904,73.379 189.266,72.338 C190.227,71.617 191.268,71.056 192.51,71.176 C193.271,71.256 193.952,71.456 194.513,72.017 C194.753,72.218 194.833,72.458 194.713,72.818 C194.473,73.419 194.192,73.82 193.631,74.22 C192.23,75.101 190.948,76.143 189.666,77.184 C188.224,78.306 187.022,79.748 185.42,80.669 C185.26,80.749 184.539,81.23 184.058,81.27 C183.738,82.231 183.418,83.192 183.177,84.154 C183.017,84.714 182.977,85.315 182.897,85.916 C182.777,87.118 182.737,88.359 182.576,89.561 C182.496,90.042 182.096,90.482 181.855,90.923 C181.615,91.363 181.335,91.443 180.854,91.323 C180.013,91.083 179.132,91.043 178.331,90.803 C177.81,90.642 177.329,90.362 176.849,90.122 C175.166,89.281 173.805,88.039 172.323,86.917 C171.802,86.517 171.401,85.916 170.961,85.395 C170.44,84.754 169.839,84.154 169.439,83.473 C168.878,82.471 168.437,81.43 167.997,80.348 C167.837,79.988 168.157,79.628 168.558,79.708 C169.599,79.908 170.6,80.188 171.401,80.869 C172.883,82.071 174.325,83.312 175.807,84.514 C176.448,85.035 177.089,85.515 177.77,85.996 C178.171,86.276 178.371,86.196 178.451,85.756 C178.611,84.835 178.691,83.913 178.851,82.992 C178.972,82.071 179.132,81.11 179.292,80.188 C179.412,79.347 179.532,78.506 179.612,77.665 C179.733,76.463 179.853,75.262 179.973,74.02 C179.973,73.86 179.973,73.7 179.973,73.539 C180.053,69.374 180.093,65.248 180.173,61.082 C180.173,60.722 180.454,60.402 180.614,60.081 L180.956,59.334 C179.613,59.5 178.469,58.837 177.49,57.998 C177.209,57.758 177.169,57.758 176.969,57.478 C176.332,56.874 176.606,57.197 176.133,56.519 C174.263,55.678 172.565,54.523 170.921,53.312 C170.04,52.631 169.359,51.71 168.598,50.869 C168.197,50.428 167.837,49.907 167.436,49.467 C166.515,48.506 166.114,47.264 165.513,46.142 C165.033,45.221 164.592,44.3 164.312,43.298 C164.031,42.457 163.991,41.536 163.871,40.655 C163.831,40.415 163.951,40.094 164.112,39.854 C164.512,39.213 165.073,38.772 165.874,38.572 C166.475,38.412 167.076,38.172 167.636,37.931 C168.954,37.463 168.152,37.686 170.081,37.43 L170.921,37.531 C171.882,37.731 172.843,37.971 173.805,38.212 C174.445,38.372 174.806,38.893 175.086,39.453 C175.247,39.774 175.447,40.134 175.607,40.455 L175.823,40.837 C175.828,40.144 175.839,40.445 175.807,39.934 C175.927,37.931 175.927,37.931 176.048,36.369 C176.048,36.329 176.168,34.647 176.248,33.806 C176.328,32.684 176.648,31.202 176.849,30.121 C177.129,28.559 177.49,27.357 177.85,25.795 C178.531,24.273 178.531,24.273 179.052,23.111 C179.172,22.791 179.252,22.51 179.372,22.19 C179.599,22.096 179.509,22.144 179.65,22.062 C179.522,22.084 179.618,22.065 179.372,22.15 C178.451,21.87 178.13,21.189 178.211,20.307 C178.291,19.346 178.331,18.425 178.531,17.504 C178.651,17.023 179.052,16.622 179.412,16.262 L179.589,16.157 z M181.135,34.527 C181.014,35.368 180.934,36.209 180.854,37.05 L181.135,34.527 z" fill="#5731F2"/>
      <path d="M151.334,0 C152.015,0.16 152.776,0.16 153.497,0.16 C155.22,0.681 156.301,2.003 157.423,3.284 C157.743,3.645 158.063,4.045 158.464,4.286 C159.225,4.766 159.505,5.527 159.746,6.329 C160.066,7.57 160.266,8.852 160.226,10.134 C160.226,10.494 160.306,10.815 160.306,11.175 C160.387,13.098 160.066,14.98 159.385,16.783 C159.105,17.504 159.145,17.584 159.826,17.864 C160.627,18.185 161.468,18.385 162.309,18.705 C162.83,18.906 163.31,19.226 163.871,19.426 C164.552,19.667 165.233,19.827 165.914,20.027 C166.675,20.267 167.316,20.668 167.797,21.349 C168.037,21.669 168.357,21.95 168.678,22.23 C169.399,22.871 169.839,23.672 170.12,24.553 C170.52,25.795 170.841,26.996 171.161,28.238 C171.281,28.679 171.241,29.159 171.161,29.56 C170.28,31.563 167.035,32.764 166.274,33.125 C165.513,33.726 164.632,34.126 163.671,34.286 C162.63,34.487 161.628,34.727 160.587,34.847 C159.305,34.967 158.103,34.567 156.902,34.206 C156.862,34.206 156.822,34.206 156.742,34.206 C155.3,33.445 153.818,32.644 152.336,31.843 C152.296,32.003 152.296,32.043 152.296,32.123 L152.298,32.153 C152.304,32.046 152.298,32.123 152.336,31.923 C153.818,32.724 155.3,33.485 156.742,34.286 C156.822,35.087 156.902,35.848 156.942,36.649 C156.982,37.851 156.982,39.053 157.062,40.254 C157.142,41.176 157.302,42.097 157.423,43.018 C157.503,43.619 157.503,44.26 157.543,44.861 C157.583,46.062 157.623,47.264 157.663,48.505 C157.663,48.586 157.663,48.626 157.703,48.826 C157.903,48.626 158.063,48.505 158.143,48.345 C159.105,46.423 160.787,45.541 162.79,45.141 C163.19,45.061 163.591,45.381 163.591,45.822 C163.591,46.743 163.591,47.624 163.19,48.465 C162.95,48.986 162.95,49.587 162.75,50.148 C161.909,52.391 160.346,53.833 157.983,54.353 C157.623,54.433 157.182,55.154 157.222,55.555 C157.382,56.717 157.503,57.878 157.623,59.04 C157.703,59.761 157.823,60.482 157.903,61.203 C157.903,61.323 157.983,61.403 158.224,61.683 C158.384,61.403 158.584,61.123 158.744,60.882 C159.866,59.32 161.468,58.399 163.15,57.638 C163.391,57.558 163.671,57.558 163.911,57.558 C164.232,57.558 164.352,57.838 164.352,58.118 C164.352,58.519 164.392,58.879 164.352,59.28 C164.312,59.52 164.152,59.761 163.991,59.921 C162.509,61.603 160.627,62.765 158.584,63.646 C158.184,63.806 158.063,64.046 158.063,64.447 C158.143,66.49 158.184,68.573 158.264,70.615 C158.304,71.336 158.384,72.017 158.464,72.898 C159.025,72.458 159.505,72.097 159.946,71.737 C161.107,70.736 162.229,69.694 163.471,68.733 C163.991,68.332 164.632,67.852 165.393,67.892 C165.754,67.892 166.114,67.932 166.475,68.012 C166.995,68.092 167.356,68.733 167.436,69.374 C167.556,70.615 167.076,71.577 166.034,72.298 C165.393,72.738 164.833,73.299 164.152,73.619 C162.63,74.3 161.027,74.941 159.265,74.701 C159.065,74.661 158.905,74.661 158.624,74.581 C158.664,75.382 158.704,76.143 158.784,76.944 C158.864,77.865 159.025,78.746 159.145,79.668 C159.305,80.749 159.425,81.83 159.585,82.912 C159.826,84.434 160.146,85.956 160.266,87.478 C160.306,88.039 160.066,88.8 159.706,89.2 C159.265,89.681 158.544,89.921 157.903,90.162 C157.543,90.282 157.102,90.202 156.822,89.841 C156.541,89.441 156.221,89 156.061,88.56 C155.74,87.558 155.54,86.477 155.26,85.475 C154.899,84.194 154.418,82.952 154.058,81.67 C153.818,80.749 153.657,79.828 153.457,78.907 C153.217,77.745 152.977,76.583 152.736,75.462 C152.496,74.3 152.215,73.099 151.935,71.937 C151.935,71.857 151.855,71.416 151.775,70.535 C151.775,70.535 151.575,69.254 151.414,68.132 C151.334,67.651 151.054,67.451 150.733,67.211 C150.453,67.01 150.093,66.97 149.772,66.89 C149.412,66.81 147.129,65.809 146.808,65.569 C146.287,65.168 145.687,64.848 145.086,64.567 C143.524,63.886 142.122,63.005 141.241,61.483 C140.88,60.842 140.72,60.121 140.84,59.32 C140.96,58.519 141.241,57.758 141.601,57.077 C141.801,56.677 142.242,56.516 142.603,56.636 C143.764,56.957 144.886,57.357 146.047,57.758 C146.408,57.878 146.688,58.239 147.008,58.519 C147.689,59.16 148.29,59.801 148.971,60.442 C149.492,60.922 150.053,61.363 150.333,62.044 C150.373,62.204 150.533,62.324 150.733,62.524 C150.774,62.244 150.814,62.124 150.814,61.964 C150.814,59.961 150.814,57.918 150.814,55.915 C150.814,55.475 150.653,55.195 150.173,55.114 C148.971,54.914 147.769,54.754 146.528,54.554 C145.967,54.474 145.446,54.313 144.886,54.273 C143.844,54.153 142.843,53.833 141.882,53.392 C140.68,52.831 140.199,51.83 139.999,50.628 C139.919,50.068 139.799,49.507 139.759,48.946 C139.759,48.786 139.919,48.546 140.039,48.505 C143.203,47.664 146.127,48.185 148.771,50.108 C149.412,50.588 149.972,51.149 150.293,51.91 C150.333,52.07 150.453,52.19 150.653,52.471 C150.733,52.15 150.774,51.99 150.774,51.79 C150.774,48.465 150.774,45.141 150.774,41.857 C150.894,40.815 150.774,39.894 150.693,38.973 C150.774,38.852 150.814,38.732 150.894,38.652 C151.619,37.74 152.216,36.69 152.316,35.503 C152.163,36.648 151.542,37.649 150.894,38.572 C150.814,38.652 150.774,38.772 150.693,38.893 C149.972,39.654 149.251,40.415 148.531,41.176 C147.329,42.457 145.807,43.218 144.205,43.859 C143.564,44.14 142.923,44.54 142.242,44.66 C140.72,44.901 139.198,45.301 137.636,45.101 C135.713,44.901 133.911,44.38 132.509,42.898 C131.107,41.456 130.426,39.774 130.626,37.731 C130.747,36.489 131.187,35.288 132.108,34.406 C133.55,33.005 134.992,31.603 136.474,30.241 C137.796,29.039 139.198,27.878 140.56,26.716 C140.68,26.596 140.84,26.476 140.92,26.356 C141.04,26.155 141.04,25.915 140.76,25.875 C139.558,25.675 138.357,25.474 137.155,25.274 C135.833,25.074 134.512,24.874 133.23,24.713 C131.548,24.793 129.144,24.313 127.702,22.11 C127.662,21.068 127.662,21.068 127.943,20.668 C128.864,19.426 129.745,18.185 130.787,17.023 C131.788,15.942 132.909,14.98 134.191,14.259 C135.032,13.779 135.954,13.779 136.875,13.618 C137.315,13.538 137.756,13.498 138.197,13.538 C138.597,13.538 138.958,13.618 139.358,13.739 C140.96,14.099 142.603,14.5 144.205,14.9 C144.445,14.98 144.725,15.1 144.966,15.18 C145.446,15.381 145.727,15.18 145.647,14.66 C145.326,12.577 145.006,10.534 144.725,8.451 C144.605,7.57 144.525,6.689 144.645,5.848 C144.765,5.207 145.206,4.606 145.607,4.086 C146.608,2.724 148.01,1.802 149.452,1.041 C150.093,0.721 150.693,0.36 151.334,0 z M152.315,32.337 C152.323,32.426 152.316,32.382 152.334,32.471 L152.315,32.337 z" fill="#5731F2"/>
      <path d="M14.89,54.539 L17.914,54.554 C17.954,54.674 25.885,54.794 29.81,54.874 C30.972,54.874 31.973,55.235 32.975,55.595 C33.095,55.635 33.255,55.795 33.295,55.916 C33.816,58.399 33.495,65.689 33.495,65.809 C33.495,67.451 33.575,69.093 33.495,70.695 C33.335,75.342 33.135,79.988 32.894,84.634 C32.854,85.596 32.694,86.557 32.574,87.478 C32.494,88.199 32.053,88.64 31.332,88.76 C30.091,89 28.809,89.2 27.527,89.321 C25.885,89.481 24.243,89.521 22.601,89.601 C22.08,89.641 22.08,89.601 22.12,89.04 C22.2,87.919 22.16,86.837 22.24,85.716 C22.4,83.793 22.641,81.871 22.801,79.948 C22.921,78.506 22.921,77.024 22.921,75.582 C22.921,73.9 22.881,72.258 22.841,70.575 C22.801,69.534 22.44,69.133 21.399,69.053 C19.236,68.853 17.113,68.653 14.95,68.452 C14.71,68.412 14.47,68.372 14.229,68.332 C13.548,68.172 13.108,68.452 13.028,69.133 C12.787,71.937 12.547,74.741 12.347,77.545 C12.106,81.029 11.866,84.474 11.626,87.959 C11.586,88.319 11.586,88.68 11.506,89.04 C11.385,89.681 11.225,89.801 10.584,89.841 C8.782,89.921 7.019,89.641 5.257,89.2 C4.736,89.08 4.216,88.96 3.735,88.8 C3.014,88.6 2.854,88.439 2.854,87.718 C2.894,85.155 2.814,82.551 2.974,79.988 C3.134,77.465 2.734,74.981 2.774,72.458 C2.814,69.614 2.814,66.77 2.934,63.926 C3.014,61.203 3.174,58.439 3.294,55.715 C3.335,54.994 3.415,54.874 4.136,54.834 C6.699,54.714 9.303,54.594 11.866,54.554 L14.89,54.539 z" fill="#5731F2"/>
      <path d="M61.571,13.493 C62.258,13.798 61.972,13.621 62.454,13.979 C65.739,16.622 68.783,19.506 71.587,22.631 C76.513,28.118 81.36,33.645 86.086,39.333 C86.967,40.375 87.849,41.456 88.73,42.537 C89.09,42.978 89.09,43.138 88.69,43.499 C88.129,43.979 87.528,44.42 86.967,44.901 C86.847,45.021 86.687,45.221 86.687,45.381 C86.407,48.706 86.126,52.03 85.926,55.395 C85.766,58.239 85.686,61.042 85.525,63.886 C85.485,64.327 85.405,64.727 85.365,65.168 C85.165,67.091 84.965,69.053 84.804,70.976 C84.524,73.86 84.324,76.784 84.003,79.668 C83.763,81.83 83.363,83.953 83.042,86.116 C83.002,86.517 82.802,86.717 82.361,86.717 C81.52,86.797 74.711,86.797 73.709,86.917 C73.389,86.957 65.939,87.278 65.098,87.398 C64.497,87.478 62.454,87.478 62.054,87.518 C61.092,87.598 60.131,87.718 59.21,87.879 C58.649,87.959 55.525,88.52 54.804,88.56 C53.963,88.6 53.162,88.8 52.321,88.84 C51.399,88.88 46.473,88.72 44.951,88.8 C44.069,88.84 43.909,88.76 43.829,87.879 C43.629,85.996 43.469,84.114 43.228,82.271 C42.988,80.589 42.748,78.866 42.347,77.224 C41.987,75.742 41.907,74.26 42.027,72.778 C42.227,70.415 42.387,68.012 42.587,65.649 C42.628,64.968 42.748,64.327 42.748,63.646 C42.748,62.645 42.668,61.683 42.708,60.682 C42.748,58.399 42.788,56.116 42.828,53.833 C42.828,53.432 42.828,53.032 42.868,52.631 C42.908,52.15 42.668,51.87 42.267,51.79 C40.705,51.51 39.343,50.749 37.941,50.108 C37.34,49.827 36.78,49.587 36.219,49.267 C35.858,49.066 35.538,48.786 35.298,48.465 C35.017,48.145 34.977,47.785 35.218,47.384 C36.379,45.541 37.541,43.699 38.662,41.857 C40.985,38.091 43.949,34.847 46.473,31.282 C47.995,29.159 49.877,27.357 51.199,25.114 C51.68,24.313 52.321,23.592 52.921,22.871 C53.442,22.23 54.003,21.669 54.524,21.028 C54.564,20.988 54.564,20.948 54.604,20.948 C55.405,20.748 55.565,19.947 56.006,19.386 C56.526,18.705 57.167,18.064 57.688,17.383 C58.169,16.783 58.609,16.182 59.09,15.581 C59.45,15.1 59.851,14.62 60.251,14.179 C60.78,13.593 60.819,13.559 61.571,13.493 z M74.601,52.466 C74.454,52.465 74.323,52.538 74.19,52.591 C74.07,52.671 73.99,52.831 73.95,52.951 C73.91,53.552 73.87,54.193 73.91,54.794 C73.91,55.475 73.99,56.196 74.03,56.877 C74.07,58.559 73.629,60.201 73.91,61.884 C73.91,61.964 73.91,62.084 73.91,62.164 C73.83,63.045 73.79,63.926 73.709,64.808 C73.669,65.809 73.709,66.81 73.589,67.812 C73.429,69.334 73.149,70.856 72.948,72.378 C72.868,72.938 72.868,73.499 72.828,74.06 C70.385,74.581 67.942,74.861 65.458,74.821 C64.137,74.821 62.815,74.861 61.493,74.861 C60.932,74.861 60.412,74.821 59.851,74.781 C59.731,74.781 59.61,74.741 59.53,74.781 C57.768,75.061 56.006,74.661 54.283,74.741 C54.283,74.741 54.243,74.741 54.243,74.741 C53.843,74.661 53.562,74.461 53.562,74.02 C53.522,73.379 53.482,72.698 53.402,72.057 C53.362,71.617 53.442,71.376 53.923,71.376 C54.323,71.336 54.484,71.136 54.403,70.736 C54.363,70.575 54.363,70.415 54.323,70.255 C54.043,69.294 54.003,68.292 53.963,67.291 C53.923,66.209 53.722,65.088 53.522,64.006 C53.242,62.244 53.042,60.442 52.441,58.719 C52.08,57.718 51.92,56.717 52,55.635 C52.08,54.754 51.92,54.434 51.119,54.073 C50.758,53.913 50.398,54.113 50.398,54.514 C50.398,54.674 50.438,54.834 50.438,54.994 C50.478,55.795 50.478,56.596 50.518,57.398 C50.518,57.718 50.438,58.078 50.558,58.399 C50.839,59.24 50.518,60.081 50.438,60.882 C50.358,61.763 49.997,62.645 49.837,63.526 C49.477,65.569 49.156,67.571 48.756,69.614 C48.435,71.296 48.355,72.938 48.515,74.621 C48.556,75.222 48.355,75.822 48.275,76.423 C48.235,76.623 48.155,76.784 48.155,76.984 C48.195,77.905 48.235,78.786 48.315,79.708 C48.395,80.429 48.435,80.429 49.196,80.348 C50.799,80.148 52.401,79.988 54.003,79.748 C57.608,79.227 61.213,79.147 64.817,79.107 C67.621,79.107 70.465,79.227 73.269,79.267 C74.511,79.307 75.752,79.267 76.954,79.267 C76.994,79.347 77.154,79.347 77.394,79.347 C77.394,79.067 77.394,78.866 77.354,78.666 C76.754,76.303 76.553,73.86 76.193,71.416 C75.792,68.653 75.312,65.929 74.911,63.165 C74.831,62.725 74.951,62.284 74.991,61.844 C74.991,61.683 75.071,61.523 75.071,61.363 C75.312,58.719 75.512,56.076 75.712,53.432 C75.712,53.192 75.672,52.831 75.512,52.671 C75.29,52.508 75.436,52.595 75.044,52.47 C74.756,52.471 74.904,52.472 74.601,52.466 z M71.066,64.527 C70.545,64.647 70.425,65.008 70.385,65.408 C70.345,65.809 70.185,65.969 69.824,65.969 C68.222,66.009 66.66,66.009 65.058,66.049 C64.737,66.049 64.417,66.089 64.056,66.089 C64.016,67.651 63.976,69.213 63.936,70.736 C63.936,71.096 64.137,71.296 64.497,71.336 C64.978,71.416 65.458,71.497 65.979,71.537 C67.581,71.657 69.183,71.737 70.826,71.817 C71.787,71.857 71.907,71.697 71.827,70.736 C71.627,68.853 71.466,66.93 71.266,65.048 C71.186,64.888 71.106,64.727 71.066,64.527 z M57.287,65.809 C57.287,65.849 57.287,65.889 57.287,65.889 C56.967,65.889 56.606,65.849 56.286,65.889 C55.885,65.929 55.605,66.049 55.645,66.57 C55.725,67.852 55.765,69.173 55.845,70.455 C55.885,71.096 55.966,71.136 56.646,71.096 C58.169,71.056 59.731,71.016 61.253,71.096 C62.174,71.136 62.294,71.136 62.214,70.215 C62.094,69.013 61.894,67.852 61.693,66.65 C61.613,66.209 61.373,66.089 60.892,66.089 C60.291,66.089 59.651,66.089 59.05,66.049 C58.449,66.009 57.848,65.889 57.287,65.809 z M68.294,53.48 C68.155,53.479 68.029,53.545 67.902,53.592 C67.581,53.753 67.261,53.873 66.94,53.993 C66.179,54.193 65.458,54.313 64.697,54.514 C64.056,54.674 63.776,54.954 63.776,55.515 C63.776,56.757 63.816,57.958 63.856,59.2 C63.856,59.681 64.177,59.921 64.657,59.841 C64.938,59.801 65.218,59.721 65.498,59.761 C66.98,59.761 68.342,59.841 69.864,59.921 C70.185,59.961 70.385,59.761 70.265,59.36 C69.944,57.918 69.584,56.476 69.263,55.034 C69.223,54.874 69.143,54.714 69.183,54.594 C69.384,54.193 69.223,53.873 68.943,53.632 L68.713,53.485 C68.441,53.485 68.58,53.487 68.295,53.48 z M55.605,55.034 C55.245,55.034 55.044,55.195 55.044,55.595 C55.084,55.996 55.044,56.436 55.044,56.877 C55.004,56.877 54.964,56.877 54.924,56.877 C55.004,57.638 55.044,58.359 55.124,59.12 C55.164,59.44 55.285,59.761 55.765,59.641 C57.087,59.28 58.409,59.04 59.811,59.28 C60.211,59.36 60.412,59.16 60.452,58.719 C60.532,57.678 60.732,56.636 60.452,55.595 C60.331,55.154 60.211,55.034 59.811,55.074 C58.569,55.074 57.327,55.074 56.086,55.074 L55.605,55.034 z M61.467,39.244 L61.333,39.413 C60.932,40.214 60.291,40.935 59.891,41.696 C59.41,42.537 57.407,45.101 57.087,45.742 C57.087,45.782 57.047,45.782 57.047,45.822 C55.966,47.264 54.844,48.706 53.763,50.148 C53.602,50.348 53.522,50.548 53.322,50.869 C53.883,50.829 54.283,50.789 54.684,50.749 C55.765,50.628 56.887,50.428 57.968,50.428 C59.05,50.428 60.091,50.628 61.173,50.668 C64.377,50.869 67.581,51.029 70.826,51.229 C71.266,51.269 71.547,51.109 71.547,50.668 C71.587,50.108 71.627,49.507 71.587,48.946 C71.587,48.826 71.266,48.586 71.106,48.586 C70.505,48.586 69.384,47.104 69.103,46.783 C68.783,46.463 68.422,46.182 68.142,45.862 C67.101,44.74 66.099,43.579 65.018,42.457 C64.016,41.416 62.975,40.415 61.974,39.413 C61.71,39.197 61.872,39.272 61.467,39.244 z" fill="#5731F2"/>
      <path d="M113.884,36.209 C114.765,36.209 119.011,36.369 120.252,36.409 C121.694,36.449 123.096,36.489 124.538,36.609 C125.499,36.69 126.501,36.89 127.462,37.09 C128.023,37.21 128.423,37.451 128.503,38.131 C128.584,39.053 128.824,39.934 128.664,40.855 C128.503,41.937 127.702,42.618 126.781,42.818 C126.22,42.938 125.66,42.938 125.019,43.058 C125.299,43.138 125.58,43.218 125.86,43.298 C126.541,43.419 127.262,43.539 127.943,43.699 C127.983,43.699 128.023,43.699 128.023,43.699 C128.824,43.899 129.144,44.38 129.265,44.941 C129.265,45.622 129.224,46.303 129.224,46.983 C129.224,47.825 129.305,48.666 129.305,49.507 C129.305,50.268 129.305,51.029 129.305,51.79 C129.345,53.833 129.345,55.835 129.425,57.878 C129.465,58.839 129.625,61.683 129.625,62.164 C129.625,62.645 129.625,63.085 129.625,63.566 C129.585,64.687 130.026,71.456 130.026,73.299 C129.985,76.063 130.026,78.826 130.026,81.59 C130.026,82.031 129.985,82.471 129.905,82.912 C129.785,83.633 129.104,84.154 128.303,84.154 C126.981,84.194 125.62,84.234 124.298,84.234 C123.296,84.274 122.255,84.314 121.254,84.314 C120.172,84.354 119.051,84.354 117.969,84.394 C116.527,84.434 115.085,84.514 113.643,84.594 C113.283,84.594 113.123,84.474 113.123,84.114 C113.123,84.114 113.123,84.074 113.123,84.074 C113.083,81.47 113.043,78.826 113.043,76.223 C113.043,75.382 113.043,74.501 113.043,73.659 C113.003,72.258 112.963,70.816 112.963,69.414 C112.963,68.573 112.922,65.929 112.842,65.408 C109.237,65.288 105.713,65.088 102.108,65.609 C102.068,65.929 101.988,66.289 101.988,66.65 C101.988,68.172 101.948,69.734 101.988,71.256 C102.028,72.858 102.108,74.461 102.148,76.063 C102.148,76.583 102.068,77.144 102.068,77.665 C102.108,79.587 102.228,82.191 102.268,84.074 C102.108,85.475 101.387,85.195 99.705,85.315 C98.142,85.075 96.62,84.674 95.018,84.754 C94.858,84.754 94.738,84.754 94.578,84.754 C93.817,84.674 93.656,84.474 93.576,83.673 C93.496,82.271 93.336,80.829 93.216,79.427 L93.216,73.699 C93.216,72.498 93.256,71.296 93.336,70.095 C93.376,69.294 93.496,62.885 93.296,61.803 C93.256,61.523 93.336,56.717 93.296,56.116 L93.296,46.623 C93.296,45.942 93.096,45.702 92.415,45.662 C92.094,45.622 91.974,45.541 91.934,45.181 C91.734,43.979 91.814,43.899 92.976,43.819 C94.177,43.739 95.379,43.579 96.62,43.459 C97.261,43.379 97.942,43.339 98.583,43.258 C98.703,43.258 98.863,43.178 98.984,43.138 C98.984,43.098 98.984,43.018 98.944,42.978 C98.543,42.978 98.102,42.978 97.702,42.978 C96.5,42.938 93.056,42.337 92.375,42.137 C91.173,41.816 90.492,40.855 90.532,39.734 C90.572,39.253 90.532,38.732 90.532,38.252 C90.532,38.172 90.532,38.051 90.532,37.971 C90.532,36.93 90.692,36.73 91.694,36.649 C92.295,36.609 92.855,36.569 93.456,36.569 C95.819,36.529 98.142,36.489 100.506,36.449 C101.868,36.409 103.229,36.409 104.591,36.369 C105.392,36.329 106.193,36.289 107.035,36.289 C108.036,36.289 112.602,36.209 113.884,36.209 z M96.649,45.817 L95.819,45.822 C95.699,45.822 95.659,46.583 95.659,46.703 C95.779,48.345 95.899,51.71 95.899,51.71 C95.899,52.431 95.859,53.112 95.899,53.833 C95.98,54.794 96.22,55.355 97.301,55.275 C97.782,55.235 98.263,55.195 98.783,55.195 C99.865,55.154 99.945,55.114 99.905,54.033 C99.905,53.833 99.905,53.632 99.905,53.392 C99.905,52.791 99.945,52.19 99.985,51.63 C100.025,51.189 100.105,50.749 100.105,50.308 C100.065,49.186 99.985,48.025 99.945,46.903 C99.905,46.303 99.745,45.942 99.144,45.902 C97.776,45.795 98.607,45.842 96.649,45.817 z M124.457,45.267 C123.592,45.294 123.966,45.283 123.337,45.301 C123.016,45.301 122.736,45.341 122.415,45.341 C122.015,45.301 121.614,45.501 121.534,45.902 C121.454,46.383 121.334,46.863 121.374,47.344 C121.414,48.706 121.534,50.108 121.654,51.469 C121.734,52.391 121.895,53.312 122.055,54.233 C122.055,54.313 122.215,54.433 122.295,54.474 C123.216,54.634 124.138,54.794 125.019,54.954 C125.539,55.074 125.7,54.954 125.7,54.393 C125.66,53.272 125.58,52.11 125.78,50.989 C125.86,50.508 125.9,50.028 125.86,49.587 C125.86,49.026 125.78,47.865 125.78,47.865 C125.78,47.464 125.78,47.104 125.78,46.703 C125.78,45.942 125.419,45.381 124.819,45.301 L124.457,45.267 z M103.239,45.682 L102.669,45.782 C102.508,45.822 102.348,46.062 102.348,46.182 C102.348,46.703 102.388,47.184 102.428,47.704 C102.468,48.265 102.548,48.826 102.629,49.387 C102.669,49.747 102.749,50.108 102.829,50.468 C102.989,51.349 103.229,53.032 103.189,53.032 C103.189,53.432 103.149,53.833 103.189,54.233 C103.229,54.393 103.43,54.634 103.59,54.634 C103.95,54.674 104.351,54.674 104.751,54.634 C105.512,54.554 105.593,54.433 105.593,53.632 C105.593,53.112 105.512,52.551 105.593,52.03 C105.753,51.109 105.713,50.188 105.593,49.267 C105.472,48.425 105.272,47.584 105.472,46.743 C105.593,46.303 105.392,46.062 104.952,45.902 C104.012,45.658 104.577,45.766 103.239,45.682 z M109.958,45.421 C109.318,45.421 108.637,45.622 107.996,45.742 C107.876,45.782 107.715,45.982 107.715,46.102 C107.715,46.823 107.755,47.544 107.836,48.225 C107.956,49.267 108.156,50.308 108.276,51.349 C108.396,52.19 108.476,52.992 108.597,53.833 C108.597,53.953 108.797,54.113 108.917,54.113 C109.678,54.153 110.399,54.193 111.16,54.233 C111.44,54.233 111.681,54.273 111.961,54.313 C112.522,54.393 112.842,54.233 112.922,53.632 C113.003,52.992 113.083,52.351 113.123,51.71 C113.123,50.148 113.083,48.546 113.083,46.903 C113.043,46.903 113.003,46.463 113.003,46.222 C113.043,45.902 112.882,45.662 112.562,45.622 C111.681,45.541 110.84,45.421 109.958,45.421 z M115.463,45.295 C114.974,45.38 114.374,45.555 114.244,46.102 C114.244,47.064 114.284,48.025 114.324,49.026 C114.445,50.548 114.605,52.03 114.685,53.552 C114.725,54.193 114.765,54.273 115.406,54.233 C116.167,54.273 116.928,54.193 117.769,54.153 C117.889,53.472 118.009,52.751 118.089,52.03 C118.129,51.51 118.129,50.949 118.089,50.428 C118.049,49.026 117.969,47.624 117.889,46.222 C117.849,45.702 117.689,45.541 117.168,45.501 C116.647,45.461 116.167,45.381 115.686,45.301 L115.463,45.295 z" fill="#5731F2"/>
      <path d="M141.764,67.447 L142.042,67.451 C142.763,67.531 143.484,67.651 144.205,67.611 C144.966,67.611 145.687,67.812 146.287,68.212 C146.688,68.492 147.049,68.893 147.369,69.253 C147.93,69.854 148.41,70.495 148.971,71.096 C149.131,71.296 151.054,73.299 151.254,73.459 C151.775,73.86 152.175,74.34 152.376,74.981 C152.576,75.662 152.376,75.902 151.695,75.983 C150.894,76.063 150.053,76.223 149.011,76.383 C148.45,76.223 147.649,76.063 146.928,75.782 C145.767,75.342 144.645,74.821 143.524,74.26 C142.562,73.78 141.761,73.059 141.161,72.137 C140.96,71.817 140.84,71.456 140.84,71.056 C140.76,69.974 140.84,68.933 141.201,67.932 C141.418,67.526 141.254,67.711 141.764,67.447 z" fill="#5731F2"/>
      <path d="M20.653,24.487 L21.118,24.593 C21.519,24.753 22.4,25.434 22.52,25.595 C23.882,27.477 24.523,28.959 25.404,30.842 C26.806,33.445 28.288,35.969 29.61,38.572 C30.371,40.054 30.972,41.656 31.573,43.218 C32.254,44.981 32.854,46.783 33.495,48.586 C33.856,49.547 34.016,50.548 33.856,51.59 C33.736,52.231 33.495,52.511 32.814,52.551 C32.093,52.591 31.372,52.631 30.651,52.631 C29.049,52.671 27.487,52.751 25.885,52.711 C23.442,52.631 20.958,52.511 18.515,52.391 C16.873,52.311 15.311,52.271 13.388,52.19 C11.586,52.271 9.463,52.391 7.3,52.511 C6.779,52.551 6.218,52.391 5.698,52.391 C4.816,52.351 3.935,52.351 3.094,52.351 C2.493,52.351 2.293,52.11 2.413,51.51 C2.453,51.309 2.533,51.149 2.614,50.989 C4.376,47.584 6.178,44.18 7.941,40.775 C8.902,38.933 9.743,37.05 10.785,35.288 C11.666,33.766 17.714,26.916 19.436,25.034 C20.032,24.523 19.652,24.754 20.653,24.487 z" fill="#5731F2"/>
      <path d="M184.704,17.124 L184.9,17.223 C185.42,17.624 185.981,18.024 186.502,18.465 C186.662,18.625 186.782,18.825 186.902,19.026 C187.103,19.346 187.303,19.667 187.463,19.987 C187.703,20.347 187.783,20.748 187.623,21.189 C187.343,21.95 186.942,22.631 186.382,23.151 C186.181,23.432 185.861,23.552 185.621,23.712 C185.14,23.432 184.659,23.191 184.179,22.911 C184.018,22.11 183.858,21.269 183.658,20.468 C183.418,19.346 183.618,18.305 184.259,17.343 C184.458,17.113 184.323,17.209 184.704,17.124 z" fill="#5731F2"/>
    </g>
  </g>
</svg>
