<?xml version="1.0" encoding="UTF-8"?>
<!DOCTYPE svg PUBLIC "-//W3C//DTD SVG 1.1//EN" "http://www.w3.org/Graphics/SVG/1.1/DTD/svg11.dtd">
<svg version="1.1" xmlns="http://www.w3.org/2000/svg" xmlns:xlink="http://www.w3.org/1999/xlink" x="0" y="0" width="1135.858" height="625.622" viewBox="0, 0, 1135.858, 625.622">
  <g id="Bottom" transform="translate(-59, -95)">
    <g>
      <g>
        <path d="M1174.809,96.5 C1185.606,96.5 1194.358,105.411 1194.358,116.403 L1194.358,700.219 C1194.358,711.211 1185.606,720.122 1174.809,720.122 L80.049,720.122 C69.253,720.122 60.5,711.211 60.5,700.219 L60.5,116.403 C60.5,105.411 69.253,96.5 80.049,96.5 L555.145,96.5 L555.146,96.5 L1174.809,96.5 z M1161.125,110.673 z" fill="#FFFFFF"/>
        <path d="M1174.809,96.5 C1185.606,96.5 1194.358,105.411 1194.358,116.403 L1194.358,700.219 C1194.358,711.211 1185.606,720.122 1174.809,720.122 L80.049,720.122 C69.253,720.122 60.5,711.211 60.5,700.219 L60.5,116.403 C60.5,105.411 69.253,96.5 80.049,96.5 L555.145,96.5 L555.146,96.5 L1174.809,96.5 z M1161.125,110.673 z" fill-opacity="0" stroke="#000000" stroke-width="1"/>
      </g>
      <g>
        <path d="M627.429,122.768 C654.043,122.768 675.618,144.343 675.618,170.957 C675.467,176.611 674.821,182.495 672.594,187.761 L672.594,230.768 L672.783,230.768 L672.783,338.484 L582.075,338.484 L582.075,230.768 L621.571,230.768 L621.571,218.741 C597.026,216.207 579.847,194.945 579.24,170.957 C579.24,144.343 600.815,122.768 627.429,122.768 z" fill="#FFFFFF"/>
        <path d="M627.429,122.768 C654.043,122.768 675.618,144.343 675.618,170.957 C675.467,176.611 674.821,182.495 672.594,187.761 L672.594,230.768 L672.783,230.768 L672.783,338.484 L582.075,338.484 L582.075,230.768 L621.571,230.768 L621.571,218.741 C597.026,216.207 579.847,194.945 579.24,170.957 C579.24,144.343 600.815,122.768 627.429,122.768 z" fill-opacity="0" stroke="#000000" stroke-width="1"/>
      </g>
    </g>
  </g>
</svg>
