<?xml version="1.0" encoding="UTF-8"?>
<!DOCTYPE svg PUBLIC "-//W3C//DTD SVG 1.1//EN" "http://www.w3.org/Graphics/SVG/1.1/DTD/svg11.dtd">
<svg version="1.1" xmlns="http://www.w3.org/2000/svg" xmlns:xlink="http://www.w3.org/1999/xlink" x="0" y="0" width="172.085" height="592.268" viewBox="0, 0, 172.085, 592.268">
  <g id="cap" transform="translate(-1222.997, -95)">
    <g>
      <path d="M1237.256,96.5 L1381.823,96.5 C1388.868,96.5 1394.579,102.729 1394.579,110.413 L1394.579,360.854 C1394.579,368.538 1388.868,374.768 1381.823,374.768 L1237.256,374.768 C1230.211,374.768 1224.5,368.538 1224.5,360.854 L1224.5,110.413 C1224.5,102.729 1230.211,96.5 1237.256,96.5 z" fill="#FFFFFF"/>
      <path d="M1237.256,96.5 L1381.823,96.5 C1388.868,96.5 1394.579,102.729 1394.579,110.413 L1394.579,360.854 C1394.579,368.538 1388.868,374.768 1381.823,374.768 L1237.256,374.768 C1230.211,374.768 1224.5,368.538 1224.5,360.854 L1224.5,110.413 C1224.5,102.729 1230.211,96.5 1237.256,96.5 z" fill-opacity="0" stroke="#000000" stroke-width="1"/>
    </g>
    <g>
      <path d="M1381.82,408.5 C1388.865,408.5 1394.576,414.729 1394.576,422.413 L1394.576,422.673 L1394.575,422.673 L1394.575,672.854 C1394.663,675.302 1393.898,677.26 1393.036,679.486 C1390.718,683.846 1386.836,686.491 1381.891,686.764 L1381.819,686.768 L1237.252,686.768 L1236.092,686.704 C1228.978,685.617 1224.819,679.814 1224.497,672.854 L1224.497,422.413 C1224.497,414.729 1230.208,408.5 1237.253,408.5 L1381.82,408.5 z M1309.536,434.768 L1307.056,434.83 C1281.3,436.582 1261.995,457.313 1261.347,482.957 C1261.954,506.945 1279.133,528.208 1303.678,530.741 L1303.678,542.768 L1264.182,542.768 L1264.182,650.484 L1354.89,650.484 L1354.89,542.768 L1354.701,542.768 L1354.701,499.761 C1356.928,494.495 1357.574,488.611 1357.725,482.957 C1357.725,456.343 1336.15,434.768 1309.536,434.768 z" fill="#FFFFFF"/>
      <path d="M1381.82,408.5 C1388.865,408.5 1394.576,414.729 1394.576,422.413 L1394.576,422.673 L1394.575,422.673 L1394.575,672.854 C1394.663,675.302 1393.898,677.26 1393.036,679.486 C1390.718,683.846 1386.836,686.491 1381.891,686.764 L1381.819,686.768 L1237.252,686.768 L1236.092,686.704 C1228.978,685.617 1224.819,679.814 1224.497,672.854 L1224.497,422.413 C1224.497,414.729 1230.208,408.5 1237.253,408.5 L1381.82,408.5 z M1309.536,434.768 L1307.056,434.83 C1281.3,436.582 1261.995,457.313 1261.347,482.957 C1261.954,506.945 1279.133,528.208 1303.678,530.741 L1303.678,542.768 L1264.182,542.768 L1264.182,650.484 L1354.89,650.484 L1354.89,542.768 L1354.701,542.768 L1354.701,499.761 C1356.928,494.495 1357.574,488.611 1357.725,482.957 C1357.725,456.343 1336.15,434.768 1309.536,434.768 z" fill-opacity="0" stroke="#000000" stroke-width="1"/>
    </g>
  </g>
</svg>
