<?xml version="1.0" encoding="UTF-8"?>
<!DOCTYPE svg PUBLIC "-//W3C//DTD SVG 1.1//EN" "http://www.w3.org/Graphics/SVG/1.1/DTD/svg11.dtd">
<svg version="1.1" xmlns="http://www.w3.org/2000/svg" xmlns:xlink="http://www.w3.org/1999/xlink" x="0" y="0" width="1135.858" height="625.622" viewBox="0, 0, 1135.858, 625.622">
  <g id="Pad" transform="translate(-1499, -95)">
    <g>
      <path d="M2614.809,96.5 C2625.606,96.5 2634.358,105.411 2634.358,116.403 L2634.358,700.219 C2634.358,711.211 2625.606,720.122 2614.809,720.122 L1520.049,720.122 C1509.253,720.122 1500.5,711.211 1500.5,700.219 L1500.5,116.403 C1500.5,105.411 1509.253,96.5 1520.049,96.5 L1995.145,96.5 L1995.146,96.5 L2614.809,96.5 z M2601.125,110.673 z" fill="#FFFFFF"/>
      <path d="M2614.809,96.5 C2625.606,96.5 2634.358,105.411 2634.358,116.403 L2634.358,700.219 C2634.358,711.211 2625.606,720.122 2614.809,720.122 L1520.049,720.122 C1509.253,720.122 1500.5,711.211 1500.5,700.219 L1500.5,116.403 C1500.5,105.411 1509.253,96.5 1520.049,96.5 L1995.145,96.5 L1995.146,96.5 L2614.809,96.5 z M2601.125,110.673 z" fill-opacity="0" stroke="#000000" stroke-width="1"/>
    </g>
  </g>
</svg>
