<?xml version="1.0" encoding="UTF-8"?>
<!DOCTYPE svg PUBLIC "-//W3C//DTD SVG 1.1//EN" "http://www.w3.org/Graphics/SVG/1.1/DTD/svg11.dtd">
<svg version="1.1" xmlns="http://www.w3.org/2000/svg" xmlns:xlink="http://www.w3.org/1999/xlink" x="0" y="0" width="1208.236" height="625.622" viewBox="0, 0, 1208.236, 625.622">
  <g id="rim" transform="translate(-23, -755)">
    <g>
      <g>
        <path d="M1174.809,756.5 C1185.606,756.5 1194.358,765.411 1194.358,776.403 L1194.358,927.173 C1197.531,926.548 1196.031,926.716 1198.846,926.579 L1211.602,926.579 C1222.17,926.579 1230.736,934.856 1230.736,945.066 L1230.736,1191.556 C1230.736,1201.766 1222.17,1210.043 1211.602,1210.043 L1198.846,1210.043 C1196.031,1209.906 1197.531,1210.074 1194.358,1209.449 L1194.358,1360.219 C1194.358,1371.211 1185.606,1380.122 1174.809,1380.122 L80.049,1380.122 C69.253,1380.122 60.5,1371.211 60.5,1360.219 L60.5,1209.523 C57.705,1210.074 59.077,1209.912 56.39,1210.043 L43.634,1210.043 C33.067,1210.043 24.5,1201.766 24.5,1191.556 L24.5,945.065 C24.5,934.856 33.067,926.579 43.634,926.579 L56.39,926.579 C59.077,926.71 57.705,926.548 60.5,927.099 L60.5,776.403 C60.5,765.411 69.253,756.5 80.049,756.5 L555.144,756.5 L555.146,756.5 L1174.809,756.5 z M542.39,770.673 L93.734,770.673 C83.207,770.673 74.673,779.179 74.673,789.671 L74.673,939.615 C75.555,943.793 75.361,941.964 75.524,945.065 L75.524,1191.556 C75.361,1194.658 75.555,1192.829 74.673,1197.007 L74.673,1346.951 C74.673,1357.443 83.207,1365.949 93.734,1365.949 L1161.124,1365.949 C1171.651,1365.949 1180.185,1357.443 1180.185,1346.951 L1180.185,1195.216 C1179.681,1192.829 1179.843,1194.049 1179.713,1191.556 L1179.713,945.065 C1179.843,942.573 1179.681,943.793 1180.185,941.406 L1180.185,789.671 C1180.185,779.179 1171.651,770.673 1161.125,770.673 L712.468,770.673 L712.468,1020.854 C712.469,1028.538 706.757,1034.768 699.713,1034.768 L555.146,1034.768 C548.101,1034.768 542.39,1028.538 542.39,1020.854 L542.39,770.673 z" fill="#FFFFFF"/>
        <path d="M1174.809,756.5 C1185.606,756.5 1194.358,765.411 1194.358,776.403 L1194.358,927.173 C1197.531,926.548 1196.031,926.716 1198.846,926.579 L1211.602,926.579 C1222.17,926.579 1230.736,934.856 1230.736,945.066 L1230.736,1191.556 C1230.736,1201.766 1222.17,1210.043 1211.602,1210.043 L1198.846,1210.043 C1196.031,1209.906 1197.531,1210.074 1194.358,1209.449 L1194.358,1360.219 C1194.358,1371.211 1185.606,1380.122 1174.809,1380.122 L80.049,1380.122 C69.253,1380.122 60.5,1371.211 60.5,1360.219 L60.5,1209.523 C57.705,1210.074 59.077,1209.912 56.39,1210.043 L43.634,1210.043 C33.067,1210.043 24.5,1201.766 24.5,1191.556 L24.5,945.065 C24.5,934.856 33.067,926.579 43.634,926.579 L56.39,926.579 C59.077,926.71 57.705,926.548 60.5,927.099 L60.5,776.403 C60.5,765.411 69.253,756.5 80.049,756.5 L555.144,756.5 L555.146,756.5 L1174.809,756.5 z M542.39,770.673 L93.734,770.673 C83.207,770.673 74.673,779.179 74.673,789.671 L74.673,939.615 C75.555,943.793 75.361,941.964 75.524,945.065 L75.524,1191.556 C75.361,1194.658 75.555,1192.829 74.673,1197.007 L74.673,1346.951 C74.673,1357.443 83.207,1365.949 93.734,1365.949 L1161.124,1365.949 C1171.651,1365.949 1180.185,1357.443 1180.185,1346.951 L1180.185,1195.216 C1179.681,1192.829 1179.843,1194.049 1179.713,1191.556 L1179.713,945.065 C1179.843,942.573 1179.681,943.793 1180.185,941.406 L1180.185,789.671 C1180.185,779.179 1171.651,770.673 1161.125,770.673 L712.468,770.673 L712.468,1020.854 C712.469,1028.538 706.757,1034.768 699.713,1034.768 L555.146,1034.768 C548.101,1034.768 542.39,1028.538 542.39,1020.854 L542.39,770.673 z" fill-opacity="0" stroke="#000000" stroke-width="1"/>
      </g>
      <g>
        <path d="M627.429,782.768 C654.043,782.768 675.618,804.343 675.618,830.957 C675.467,836.611 674.821,842.495 672.594,847.761 L672.594,890.768 L672.783,890.768 L672.783,998.484 L582.075,998.484 L582.075,890.768 L621.571,890.768 L621.571,878.741 C597.026,876.207 579.847,854.945 579.24,830.957 C579.24,804.343 600.815,782.768 627.429,782.768 z" fill="#FFFFFF"/>
        <path d="M627.429,782.768 C654.043,782.768 675.618,804.343 675.618,830.957 C675.467,836.611 674.821,842.495 672.594,847.761 L672.594,890.768 L672.783,890.768 L672.783,998.484 L582.075,998.484 L582.075,890.768 L621.571,890.768 L621.571,878.741 C597.026,876.207 579.847,854.945 579.24,830.957 C579.24,804.343 600.815,782.768 627.429,782.768 z" fill-opacity="0" stroke="#000000" stroke-width="1"/>
      </g>
    </g>
  </g>
</svg>
